M48
;DRILL file {KiCad 4.0.4-stable} date Saturday, 10 December 2016 'PMt' 11:42:17 PM
;FORMAT={-:-/ absolute / metric / decimal}
FMAT,2
METRIC,TZ
T1C0.400
T2C1.016
%
G90
G05
M71
T1
X140.208Y-122.047
X142.24Y-92.837
X144.145Y-121.285
X146.05Y-85.217
X147.32Y-121.285
X148.844Y-100.965
X150.114Y-85.217
X152.4Y-90.551
X154.305Y-121.285
X154.94Y-89.281
X162.052Y-99.949
X163.83Y-106.68
X164.465Y-121.285
X164.846Y-85.217
X166.37Y-80.645
X167.64Y-125.095
X171.45Y-98.425
X173.99Y-133.985
X174.625Y-121.285
T2
X139.7Y-133.35
X142.24Y-133.35
X165.735Y-129.54
X165.735Y-132.08
X168.275Y-129.54
X168.275Y-132.08
X170.815Y-129.54
X170.815Y-132.08
X173.355Y-129.54
X173.355Y-132.08
X175.26Y-67.945
X175.26Y-70.485
X175.26Y-73.025
X175.26Y-75.565
X175.26Y-78.105
X175.26Y-80.645
X175.895Y-129.54
X175.895Y-132.08
T0
M30
