G04 #@! TF.FileFunction,Soldermask,Top*
%FSLAX46Y46*%
G04 Gerber Fmt 4.6, Leading zero omitted, Abs format (unit mm)*
G04 Created by KiCad (PCBNEW 4.0.4-stable) date Monday, 12 December 2016 'PMt' 10:19:35 PM*
%MOMM*%
%LPD*%
G01*
G04 APERTURE LIST*
%ADD10C,0.100000*%
%ADD11R,2.400000X2.000000*%
%ADD12R,1.997660X2.200860*%
%ADD13R,2.432000X4.057600*%
%ADD14R,2.432000X1.416000*%
%ADD15R,2.432000X2.432000*%
%ADD16O,2.432000X2.432000*%
%ADD17R,2.127200X2.127200*%
%ADD18O,2.127200X2.127200*%
%ADD19R,2.432000X2.127200*%
%ADD20O,2.432000X2.127200*%
%ADD21R,2.400000X2.100000*%
%ADD22R,2.100000X2.400000*%
%ADD23R,1.950000X1.700000*%
%ADD24R,2.900000X1.500000*%
%ADD25O,2.900000X1.500000*%
%ADD26R,2.300000X1.200000*%
G04 APERTURE END LIST*
D10*
D11*
X171355000Y-95250000D03*
X175355000Y-95250000D03*
X146145000Y-106680000D03*
X142145000Y-106680000D03*
X146145000Y-95250000D03*
X142145000Y-95250000D03*
X175355000Y-106680000D03*
X171355000Y-106680000D03*
X151035000Y-86995000D03*
X155035000Y-86995000D03*
D12*
X175409860Y-88420362D03*
X172570140Y-88420362D03*
D13*
X168910000Y-100965000D03*
D14*
X175514000Y-100965000D03*
X175514000Y-98679000D03*
X175514000Y-103251000D03*
D13*
X139573000Y-101092000D03*
D14*
X146177000Y-101092000D03*
X146177000Y-98806000D03*
X146177000Y-103378000D03*
D15*
X139192000Y-125476000D03*
D16*
X141732000Y-125476000D03*
D17*
X163576000Y-125476000D03*
D18*
X163576000Y-122936000D03*
X166116000Y-125476000D03*
X166116000Y-122936000D03*
X168656000Y-125476000D03*
X168656000Y-122936000D03*
X171196000Y-125476000D03*
X171196000Y-122936000D03*
X173736000Y-125476000D03*
X173736000Y-122936000D03*
D19*
X175260000Y-67945000D03*
D20*
X175260000Y-70485000D03*
X175260000Y-73025000D03*
X175260000Y-75565000D03*
X175260000Y-78105000D03*
X175260000Y-80645000D03*
D21*
X160560000Y-119380000D03*
X164560000Y-119380000D03*
X160560000Y-112395000D03*
X164560000Y-112395000D03*
X170720000Y-119380000D03*
X174720000Y-119380000D03*
X170720000Y-112395000D03*
X174720000Y-112395000D03*
X140240000Y-119380000D03*
X144240000Y-119380000D03*
X140240000Y-112395000D03*
X144240000Y-112395000D03*
X150400000Y-119380000D03*
X154400000Y-119380000D03*
X150400000Y-112395000D03*
X154400000Y-112395000D03*
X175355000Y-92075000D03*
X171355000Y-92075000D03*
X140875000Y-86995000D03*
X144875000Y-86995000D03*
X140875000Y-90170000D03*
X144875000Y-90170000D03*
X170275000Y-78105000D03*
X166275000Y-78105000D03*
D22*
X161925000Y-85185000D03*
X161925000Y-81185000D03*
D23*
X154140000Y-92365000D03*
X162090000Y-92365000D03*
X154140000Y-96865000D03*
X162090000Y-96865000D03*
X154140000Y-102525000D03*
X162090000Y-102525000D03*
X154140000Y-107025000D03*
X162090000Y-107025000D03*
D24*
X142145000Y-66167000D03*
D25*
X142145000Y-68167000D03*
X142145000Y-70167000D03*
X142145000Y-72167000D03*
X142145000Y-74167000D03*
X142145000Y-76167000D03*
X142145000Y-78167000D03*
X142145000Y-80167000D03*
X157545000Y-80167000D03*
X157445000Y-78167000D03*
X157545000Y-76167000D03*
X157545000Y-74167000D03*
X157545000Y-72167000D03*
X157545000Y-70167000D03*
X157545000Y-68167000D03*
X157545000Y-66167000D03*
D26*
X140232000Y-114874000D03*
X140232000Y-116774000D03*
X143232000Y-115824000D03*
X150392000Y-114874000D03*
X150392000Y-116774000D03*
X153392000Y-115824000D03*
X160552000Y-114874000D03*
X160552000Y-116774000D03*
X163552000Y-115824000D03*
X170712000Y-114874000D03*
X170712000Y-116774000D03*
X173712000Y-115824000D03*
M02*
