G04 #@! TF.FileFunction,Copper,L2,Bot,Signal*
%FSLAX46Y46*%
G04 Gerber Fmt 4.6, Leading zero omitted, Abs format (unit mm)*
G04 Created by KiCad (PCBNEW 4.0.4-stable) date Monday, 12 December 2016 'PMt' 10:19:35 PM*
%MOMM*%
%LPD*%
G01*
G04 APERTURE LIST*
%ADD10C,0.100000*%
%ADD11R,2.032000X2.032000*%
%ADD12O,2.032000X2.032000*%
%ADD13R,1.727200X1.727200*%
%ADD14O,1.727200X1.727200*%
%ADD15R,2.032000X1.727200*%
%ADD16O,2.032000X1.727200*%
%ADD17C,0.600000*%
%ADD18C,0.300000*%
%ADD19C,0.254000*%
G04 APERTURE END LIST*
D10*
D11*
X139192000Y-125476000D03*
D12*
X141732000Y-125476000D03*
D13*
X163576000Y-125476000D03*
D14*
X163576000Y-122936000D03*
X166116000Y-125476000D03*
X166116000Y-122936000D03*
X168656000Y-125476000D03*
X168656000Y-122936000D03*
X171196000Y-125476000D03*
X171196000Y-122936000D03*
X173736000Y-125476000D03*
X173736000Y-122936000D03*
D15*
X175260000Y-67945000D03*
D16*
X175260000Y-70485000D03*
X175260000Y-73025000D03*
X175260000Y-75565000D03*
X175260000Y-78105000D03*
X175260000Y-80645000D03*
D17*
X176276000Y-117348000D03*
X166116000Y-117348000D03*
X155956000Y-117348000D03*
X145796000Y-117348000D03*
X177292000Y-125476000D03*
X171450000Y-98425000D03*
X146812000Y-114808000D03*
X139192000Y-106680000D03*
X154940000Y-89281000D03*
X173736000Y-109220000D03*
X148336000Y-108204000D03*
X164846000Y-85217000D03*
X150114000Y-85217000D03*
X146050000Y-85217000D03*
X142240000Y-92837000D03*
X152400000Y-90551000D03*
X163830000Y-106680000D03*
X166370000Y-80645000D03*
D18*
X177292000Y-125476000D02*
X177292000Y-118364000D01*
X177292000Y-118364000D02*
X176276000Y-117348000D01*
X176276000Y-117348000D02*
X176276000Y-103251000D01*
X176276000Y-103251000D02*
X171450000Y-98425000D01*
X145796000Y-117348000D02*
X155956000Y-117348000D01*
X166116000Y-117348000D02*
X155956000Y-117348000D01*
X176276000Y-117348000D02*
X166116000Y-117348000D01*
X148336000Y-108204000D02*
X149352000Y-109220000D01*
X149352000Y-109220000D02*
X173736000Y-109220000D01*
X150114000Y-85217000D02*
X164846000Y-85217000D01*
X146050000Y-85217000D02*
X150114000Y-85217000D01*
X146304000Y-92583000D02*
X146050000Y-92837000D01*
X146050000Y-92837000D02*
X142240000Y-92837000D01*
X148036001Y-90850999D02*
X146304000Y-92583000D01*
X152400000Y-90551000D02*
X152100001Y-90850999D01*
X152100001Y-90850999D02*
X148036001Y-90850999D01*
X166370000Y-90920001D02*
X166370000Y-80645000D01*
X163830000Y-106680000D02*
X166370000Y-104140000D01*
X166370000Y-104140000D02*
X166370000Y-90920001D01*
D19*
G36*
X179097000Y-126773000D02*
X174484420Y-126773000D01*
X174795670Y-126565029D01*
X175120526Y-126078848D01*
X175234600Y-125505359D01*
X175234600Y-125446641D01*
X175120526Y-124873152D01*
X174795670Y-124386971D01*
X174524839Y-124206008D01*
X174942821Y-123824490D01*
X175190968Y-123295027D01*
X175070469Y-123063000D01*
X173863000Y-123063000D01*
X173863000Y-123083000D01*
X173609000Y-123083000D01*
X173609000Y-123063000D01*
X171323000Y-123063000D01*
X171323000Y-123083000D01*
X171069000Y-123083000D01*
X171069000Y-123063000D01*
X171049000Y-123063000D01*
X171049000Y-122809000D01*
X171069000Y-122809000D01*
X171069000Y-121602183D01*
X171323000Y-121602183D01*
X171323000Y-122809000D01*
X173609000Y-122809000D01*
X173609000Y-121602183D01*
X173863000Y-121602183D01*
X173863000Y-122809000D01*
X175070469Y-122809000D01*
X175190968Y-122576973D01*
X174942821Y-122047510D01*
X174510947Y-121653312D01*
X174095026Y-121481042D01*
X173863000Y-121602183D01*
X173609000Y-121602183D01*
X173376974Y-121481042D01*
X172961053Y-121653312D01*
X172529179Y-122047510D01*
X172466000Y-122182313D01*
X172402821Y-122047510D01*
X171970947Y-121653312D01*
X171555026Y-121481042D01*
X171323000Y-121602183D01*
X171069000Y-121602183D01*
X170836974Y-121481042D01*
X170421053Y-121653312D01*
X169989179Y-122047510D01*
X169931664Y-122170228D01*
X169715670Y-121846971D01*
X169229489Y-121522115D01*
X168656000Y-121408041D01*
X168082511Y-121522115D01*
X167596330Y-121846971D01*
X167386000Y-122161752D01*
X167175670Y-121846971D01*
X166689489Y-121522115D01*
X166116000Y-121408041D01*
X165542511Y-121522115D01*
X165056330Y-121846971D01*
X164846000Y-122161752D01*
X164635670Y-121846971D01*
X164149489Y-121522115D01*
X163576000Y-121408041D01*
X163002511Y-121522115D01*
X162516330Y-121846971D01*
X162191474Y-122333152D01*
X162077400Y-122906641D01*
X162077400Y-122965359D01*
X162191474Y-123538848D01*
X162502574Y-124004442D01*
X162477083Y-124009238D01*
X162260959Y-124148310D01*
X162115969Y-124360510D01*
X162064960Y-124612400D01*
X162064960Y-126339600D01*
X162109238Y-126574917D01*
X162236701Y-126773000D01*
X142714785Y-126773000D01*
X143069188Y-126444379D01*
X143337983Y-125858946D01*
X143219367Y-125603000D01*
X141859000Y-125603000D01*
X141859000Y-125623000D01*
X141605000Y-125623000D01*
X141605000Y-125603000D01*
X141585000Y-125603000D01*
X141585000Y-125349000D01*
X141605000Y-125349000D01*
X141605000Y-123989164D01*
X141859000Y-123989164D01*
X141859000Y-125349000D01*
X143219367Y-125349000D01*
X143337983Y-125093054D01*
X143069188Y-124507621D01*
X142596818Y-124069615D01*
X142114944Y-123870025D01*
X141859000Y-123989164D01*
X141605000Y-123989164D01*
X141349056Y-123870025D01*
X140867182Y-124069615D01*
X140769602Y-124160097D01*
X140672090Y-124008559D01*
X140459890Y-123863569D01*
X140208000Y-123812560D01*
X138176000Y-123812560D01*
X137940683Y-123856838D01*
X137895000Y-123886234D01*
X137895000Y-117533167D01*
X144860838Y-117533167D01*
X145002883Y-117876943D01*
X145265673Y-118140192D01*
X145609201Y-118282838D01*
X145981167Y-118283162D01*
X146324943Y-118141117D01*
X146333074Y-118133000D01*
X155418494Y-118133000D01*
X155425673Y-118140192D01*
X155769201Y-118282838D01*
X156141167Y-118283162D01*
X156484943Y-118141117D01*
X156493074Y-118133000D01*
X165578494Y-118133000D01*
X165585673Y-118140192D01*
X165929201Y-118282838D01*
X166301167Y-118283162D01*
X166644943Y-118141117D01*
X166653074Y-118133000D01*
X175738494Y-118133000D01*
X175745673Y-118140192D01*
X176089201Y-118282838D01*
X176100690Y-118282848D01*
X176507000Y-118689158D01*
X176507000Y-124938494D01*
X176499808Y-124945673D01*
X176357162Y-125289201D01*
X176356838Y-125661167D01*
X176498883Y-126004943D01*
X176761673Y-126268192D01*
X177105201Y-126410838D01*
X177477167Y-126411162D01*
X177820943Y-126269117D01*
X178084192Y-126006327D01*
X178226838Y-125662799D01*
X178227162Y-125290833D01*
X178085117Y-124947057D01*
X178077000Y-124938926D01*
X178077000Y-118364000D01*
X178060856Y-118282838D01*
X178017245Y-118063593D01*
X177847079Y-117808921D01*
X177211153Y-117172995D01*
X177211162Y-117162833D01*
X177069117Y-116819057D01*
X177061000Y-116810926D01*
X177061000Y-103251000D01*
X177001245Y-102950594D01*
X176831079Y-102695921D01*
X172385153Y-98249995D01*
X172385162Y-98239833D01*
X172243117Y-97896057D01*
X171980327Y-97632808D01*
X171636799Y-97490162D01*
X171264833Y-97489838D01*
X170921057Y-97631883D01*
X170657808Y-97894673D01*
X170515162Y-98238201D01*
X170514838Y-98610167D01*
X170656883Y-98953943D01*
X170919673Y-99217192D01*
X171263201Y-99359838D01*
X171274690Y-99359848D01*
X175491000Y-103576158D01*
X175491000Y-116563000D01*
X166653506Y-116563000D01*
X166646327Y-116555808D01*
X166302799Y-116413162D01*
X165930833Y-116412838D01*
X165587057Y-116554883D01*
X165578926Y-116563000D01*
X156493506Y-116563000D01*
X156486327Y-116555808D01*
X156142799Y-116413162D01*
X155770833Y-116412838D01*
X155427057Y-116554883D01*
X155418926Y-116563000D01*
X146333506Y-116563000D01*
X146326327Y-116555808D01*
X145982799Y-116413162D01*
X145610833Y-116412838D01*
X145267057Y-116554883D01*
X145003808Y-116817673D01*
X144861162Y-117161201D01*
X144860838Y-117533167D01*
X137895000Y-117533167D01*
X137895000Y-108389167D01*
X147400838Y-108389167D01*
X147542883Y-108732943D01*
X147805673Y-108996192D01*
X148149201Y-109138838D01*
X148160690Y-109138848D01*
X148796921Y-109775079D01*
X149051593Y-109945245D01*
X149352000Y-110005000D01*
X173198494Y-110005000D01*
X173205673Y-110012192D01*
X173549201Y-110154838D01*
X173921167Y-110155162D01*
X174264943Y-110013117D01*
X174528192Y-109750327D01*
X174670838Y-109406799D01*
X174671162Y-109034833D01*
X174529117Y-108691057D01*
X174266327Y-108427808D01*
X173922799Y-108285162D01*
X173550833Y-108284838D01*
X173207057Y-108426883D01*
X173198926Y-108435000D01*
X149677158Y-108435000D01*
X149271153Y-108028995D01*
X149271162Y-108018833D01*
X149129117Y-107675057D01*
X148866327Y-107411808D01*
X148522799Y-107269162D01*
X148150833Y-107268838D01*
X147807057Y-107410883D01*
X147543808Y-107673673D01*
X147401162Y-108017201D01*
X147400838Y-108389167D01*
X137895000Y-108389167D01*
X137895000Y-93022167D01*
X141304838Y-93022167D01*
X141446883Y-93365943D01*
X141709673Y-93629192D01*
X142053201Y-93771838D01*
X142425167Y-93772162D01*
X142768943Y-93630117D01*
X142777074Y-93622000D01*
X146050000Y-93622000D01*
X146350407Y-93562245D01*
X146605079Y-93392079D01*
X148361159Y-91635999D01*
X152100001Y-91635999D01*
X152400408Y-91576244D01*
X152535291Y-91486119D01*
X152585167Y-91486162D01*
X152928943Y-91344117D01*
X153192192Y-91081327D01*
X153334838Y-90737799D01*
X153335162Y-90365833D01*
X153193117Y-90022057D01*
X152930327Y-89758808D01*
X152586799Y-89616162D01*
X152214833Y-89615838D01*
X151871057Y-89757883D01*
X151607808Y-90020673D01*
X151588987Y-90065999D01*
X148036001Y-90065999D01*
X147735594Y-90125754D01*
X147480922Y-90295920D01*
X145724842Y-92052000D01*
X142777506Y-92052000D01*
X142770327Y-92044808D01*
X142426799Y-91902162D01*
X142054833Y-91901838D01*
X141711057Y-92043883D01*
X141447808Y-92306673D01*
X141305162Y-92650201D01*
X141304838Y-93022167D01*
X137895000Y-93022167D01*
X137895000Y-85402167D01*
X145114838Y-85402167D01*
X145256883Y-85745943D01*
X145519673Y-86009192D01*
X145863201Y-86151838D01*
X146235167Y-86152162D01*
X146578943Y-86010117D01*
X146587074Y-86002000D01*
X149576494Y-86002000D01*
X149583673Y-86009192D01*
X149927201Y-86151838D01*
X150299167Y-86152162D01*
X150642943Y-86010117D01*
X150651074Y-86002000D01*
X164308494Y-86002000D01*
X164315673Y-86009192D01*
X164659201Y-86151838D01*
X165031167Y-86152162D01*
X165374943Y-86010117D01*
X165585000Y-85800426D01*
X165585000Y-103814842D01*
X163654995Y-105744847D01*
X163644833Y-105744838D01*
X163301057Y-105886883D01*
X163037808Y-106149673D01*
X162895162Y-106493201D01*
X162894838Y-106865167D01*
X163036883Y-107208943D01*
X163299673Y-107472192D01*
X163643201Y-107614838D01*
X164015167Y-107615162D01*
X164358943Y-107473117D01*
X164622192Y-107210327D01*
X164764838Y-106866799D01*
X164764848Y-106855310D01*
X166925079Y-104695079D01*
X167095244Y-104440407D01*
X167095245Y-104440406D01*
X167155000Y-104140000D01*
X167155000Y-81182506D01*
X167162192Y-81175327D01*
X167233322Y-81004026D01*
X173652642Y-81004026D01*
X173655291Y-81019791D01*
X173909268Y-81547036D01*
X174345680Y-81936954D01*
X174898087Y-82130184D01*
X175133000Y-81985924D01*
X175133000Y-80772000D01*
X175387000Y-80772000D01*
X175387000Y-81985924D01*
X175621913Y-82130184D01*
X176174320Y-81936954D01*
X176610732Y-81547036D01*
X176864709Y-81019791D01*
X176867358Y-81004026D01*
X176746217Y-80772000D01*
X175387000Y-80772000D01*
X175133000Y-80772000D01*
X173773783Y-80772000D01*
X173652642Y-81004026D01*
X167233322Y-81004026D01*
X167304838Y-80831799D01*
X167305162Y-80459833D01*
X167163117Y-80116057D01*
X166900327Y-79852808D01*
X166556799Y-79710162D01*
X166184833Y-79709838D01*
X165841057Y-79851883D01*
X165577808Y-80114673D01*
X165435162Y-80458201D01*
X165434838Y-80830167D01*
X165576883Y-81173943D01*
X165585000Y-81182074D01*
X165585000Y-84633845D01*
X165376327Y-84424808D01*
X165032799Y-84282162D01*
X164660833Y-84281838D01*
X164317057Y-84423883D01*
X164308926Y-84432000D01*
X150651506Y-84432000D01*
X150644327Y-84424808D01*
X150300799Y-84282162D01*
X149928833Y-84281838D01*
X149585057Y-84423883D01*
X149576926Y-84432000D01*
X146587506Y-84432000D01*
X146580327Y-84424808D01*
X146236799Y-84282162D01*
X145864833Y-84281838D01*
X145521057Y-84423883D01*
X145257808Y-84686673D01*
X145115162Y-85030201D01*
X145114838Y-85402167D01*
X137895000Y-85402167D01*
X137895000Y-70485000D01*
X173576655Y-70485000D01*
X173690729Y-71058489D01*
X174015585Y-71544670D01*
X174330366Y-71755000D01*
X174015585Y-71965330D01*
X173690729Y-72451511D01*
X173576655Y-73025000D01*
X173690729Y-73598489D01*
X174015585Y-74084670D01*
X174330366Y-74295000D01*
X174015585Y-74505330D01*
X173690729Y-74991511D01*
X173576655Y-75565000D01*
X173690729Y-76138489D01*
X174015585Y-76624670D01*
X174330366Y-76835000D01*
X174015585Y-77045330D01*
X173690729Y-77531511D01*
X173576655Y-78105000D01*
X173690729Y-78678489D01*
X174015585Y-79164670D01*
X174325069Y-79371461D01*
X173909268Y-79742964D01*
X173655291Y-80270209D01*
X173652642Y-80285974D01*
X173773783Y-80518000D01*
X175133000Y-80518000D01*
X175133000Y-80498000D01*
X175387000Y-80498000D01*
X175387000Y-80518000D01*
X176746217Y-80518000D01*
X176867358Y-80285974D01*
X176864709Y-80270209D01*
X176610732Y-79742964D01*
X176194931Y-79371461D01*
X176504415Y-79164670D01*
X176829271Y-78678489D01*
X176943345Y-78105000D01*
X176829271Y-77531511D01*
X176504415Y-77045330D01*
X176189634Y-76835000D01*
X176504415Y-76624670D01*
X176829271Y-76138489D01*
X176943345Y-75565000D01*
X176829271Y-74991511D01*
X176504415Y-74505330D01*
X176189634Y-74295000D01*
X176504415Y-74084670D01*
X176829271Y-73598489D01*
X176943345Y-73025000D01*
X176829271Y-72451511D01*
X176504415Y-71965330D01*
X176189634Y-71755000D01*
X176504415Y-71544670D01*
X176829271Y-71058489D01*
X176943345Y-70485000D01*
X176829271Y-69911511D01*
X176504415Y-69425330D01*
X176490087Y-69415757D01*
X176511317Y-69411762D01*
X176727441Y-69272690D01*
X176872431Y-69060490D01*
X176923440Y-68808600D01*
X176923440Y-67081400D01*
X176879162Y-66846083D01*
X176740090Y-66629959D01*
X176527890Y-66484969D01*
X176276000Y-66433960D01*
X174244000Y-66433960D01*
X174008683Y-66478238D01*
X173792559Y-66617310D01*
X173647569Y-66829510D01*
X173596560Y-67081400D01*
X173596560Y-68808600D01*
X173640838Y-69043917D01*
X173779910Y-69260041D01*
X173992110Y-69405031D01*
X174033439Y-69413400D01*
X174015585Y-69425330D01*
X173690729Y-69911511D01*
X173576655Y-70485000D01*
X137895000Y-70485000D01*
X137895000Y-64235000D01*
X179097000Y-64235000D01*
X179097000Y-126773000D01*
X179097000Y-126773000D01*
G37*
X179097000Y-126773000D02*
X174484420Y-126773000D01*
X174795670Y-126565029D01*
X175120526Y-126078848D01*
X175234600Y-125505359D01*
X175234600Y-125446641D01*
X175120526Y-124873152D01*
X174795670Y-124386971D01*
X174524839Y-124206008D01*
X174942821Y-123824490D01*
X175190968Y-123295027D01*
X175070469Y-123063000D01*
X173863000Y-123063000D01*
X173863000Y-123083000D01*
X173609000Y-123083000D01*
X173609000Y-123063000D01*
X171323000Y-123063000D01*
X171323000Y-123083000D01*
X171069000Y-123083000D01*
X171069000Y-123063000D01*
X171049000Y-123063000D01*
X171049000Y-122809000D01*
X171069000Y-122809000D01*
X171069000Y-121602183D01*
X171323000Y-121602183D01*
X171323000Y-122809000D01*
X173609000Y-122809000D01*
X173609000Y-121602183D01*
X173863000Y-121602183D01*
X173863000Y-122809000D01*
X175070469Y-122809000D01*
X175190968Y-122576973D01*
X174942821Y-122047510D01*
X174510947Y-121653312D01*
X174095026Y-121481042D01*
X173863000Y-121602183D01*
X173609000Y-121602183D01*
X173376974Y-121481042D01*
X172961053Y-121653312D01*
X172529179Y-122047510D01*
X172466000Y-122182313D01*
X172402821Y-122047510D01*
X171970947Y-121653312D01*
X171555026Y-121481042D01*
X171323000Y-121602183D01*
X171069000Y-121602183D01*
X170836974Y-121481042D01*
X170421053Y-121653312D01*
X169989179Y-122047510D01*
X169931664Y-122170228D01*
X169715670Y-121846971D01*
X169229489Y-121522115D01*
X168656000Y-121408041D01*
X168082511Y-121522115D01*
X167596330Y-121846971D01*
X167386000Y-122161752D01*
X167175670Y-121846971D01*
X166689489Y-121522115D01*
X166116000Y-121408041D01*
X165542511Y-121522115D01*
X165056330Y-121846971D01*
X164846000Y-122161752D01*
X164635670Y-121846971D01*
X164149489Y-121522115D01*
X163576000Y-121408041D01*
X163002511Y-121522115D01*
X162516330Y-121846971D01*
X162191474Y-122333152D01*
X162077400Y-122906641D01*
X162077400Y-122965359D01*
X162191474Y-123538848D01*
X162502574Y-124004442D01*
X162477083Y-124009238D01*
X162260959Y-124148310D01*
X162115969Y-124360510D01*
X162064960Y-124612400D01*
X162064960Y-126339600D01*
X162109238Y-126574917D01*
X162236701Y-126773000D01*
X142714785Y-126773000D01*
X143069188Y-126444379D01*
X143337983Y-125858946D01*
X143219367Y-125603000D01*
X141859000Y-125603000D01*
X141859000Y-125623000D01*
X141605000Y-125623000D01*
X141605000Y-125603000D01*
X141585000Y-125603000D01*
X141585000Y-125349000D01*
X141605000Y-125349000D01*
X141605000Y-123989164D01*
X141859000Y-123989164D01*
X141859000Y-125349000D01*
X143219367Y-125349000D01*
X143337983Y-125093054D01*
X143069188Y-124507621D01*
X142596818Y-124069615D01*
X142114944Y-123870025D01*
X141859000Y-123989164D01*
X141605000Y-123989164D01*
X141349056Y-123870025D01*
X140867182Y-124069615D01*
X140769602Y-124160097D01*
X140672090Y-124008559D01*
X140459890Y-123863569D01*
X140208000Y-123812560D01*
X138176000Y-123812560D01*
X137940683Y-123856838D01*
X137895000Y-123886234D01*
X137895000Y-117533167D01*
X144860838Y-117533167D01*
X145002883Y-117876943D01*
X145265673Y-118140192D01*
X145609201Y-118282838D01*
X145981167Y-118283162D01*
X146324943Y-118141117D01*
X146333074Y-118133000D01*
X155418494Y-118133000D01*
X155425673Y-118140192D01*
X155769201Y-118282838D01*
X156141167Y-118283162D01*
X156484943Y-118141117D01*
X156493074Y-118133000D01*
X165578494Y-118133000D01*
X165585673Y-118140192D01*
X165929201Y-118282838D01*
X166301167Y-118283162D01*
X166644943Y-118141117D01*
X166653074Y-118133000D01*
X175738494Y-118133000D01*
X175745673Y-118140192D01*
X176089201Y-118282838D01*
X176100690Y-118282848D01*
X176507000Y-118689158D01*
X176507000Y-124938494D01*
X176499808Y-124945673D01*
X176357162Y-125289201D01*
X176356838Y-125661167D01*
X176498883Y-126004943D01*
X176761673Y-126268192D01*
X177105201Y-126410838D01*
X177477167Y-126411162D01*
X177820943Y-126269117D01*
X178084192Y-126006327D01*
X178226838Y-125662799D01*
X178227162Y-125290833D01*
X178085117Y-124947057D01*
X178077000Y-124938926D01*
X178077000Y-118364000D01*
X178060856Y-118282838D01*
X178017245Y-118063593D01*
X177847079Y-117808921D01*
X177211153Y-117172995D01*
X177211162Y-117162833D01*
X177069117Y-116819057D01*
X177061000Y-116810926D01*
X177061000Y-103251000D01*
X177001245Y-102950594D01*
X176831079Y-102695921D01*
X172385153Y-98249995D01*
X172385162Y-98239833D01*
X172243117Y-97896057D01*
X171980327Y-97632808D01*
X171636799Y-97490162D01*
X171264833Y-97489838D01*
X170921057Y-97631883D01*
X170657808Y-97894673D01*
X170515162Y-98238201D01*
X170514838Y-98610167D01*
X170656883Y-98953943D01*
X170919673Y-99217192D01*
X171263201Y-99359838D01*
X171274690Y-99359848D01*
X175491000Y-103576158D01*
X175491000Y-116563000D01*
X166653506Y-116563000D01*
X166646327Y-116555808D01*
X166302799Y-116413162D01*
X165930833Y-116412838D01*
X165587057Y-116554883D01*
X165578926Y-116563000D01*
X156493506Y-116563000D01*
X156486327Y-116555808D01*
X156142799Y-116413162D01*
X155770833Y-116412838D01*
X155427057Y-116554883D01*
X155418926Y-116563000D01*
X146333506Y-116563000D01*
X146326327Y-116555808D01*
X145982799Y-116413162D01*
X145610833Y-116412838D01*
X145267057Y-116554883D01*
X145003808Y-116817673D01*
X144861162Y-117161201D01*
X144860838Y-117533167D01*
X137895000Y-117533167D01*
X137895000Y-108389167D01*
X147400838Y-108389167D01*
X147542883Y-108732943D01*
X147805673Y-108996192D01*
X148149201Y-109138838D01*
X148160690Y-109138848D01*
X148796921Y-109775079D01*
X149051593Y-109945245D01*
X149352000Y-110005000D01*
X173198494Y-110005000D01*
X173205673Y-110012192D01*
X173549201Y-110154838D01*
X173921167Y-110155162D01*
X174264943Y-110013117D01*
X174528192Y-109750327D01*
X174670838Y-109406799D01*
X174671162Y-109034833D01*
X174529117Y-108691057D01*
X174266327Y-108427808D01*
X173922799Y-108285162D01*
X173550833Y-108284838D01*
X173207057Y-108426883D01*
X173198926Y-108435000D01*
X149677158Y-108435000D01*
X149271153Y-108028995D01*
X149271162Y-108018833D01*
X149129117Y-107675057D01*
X148866327Y-107411808D01*
X148522799Y-107269162D01*
X148150833Y-107268838D01*
X147807057Y-107410883D01*
X147543808Y-107673673D01*
X147401162Y-108017201D01*
X147400838Y-108389167D01*
X137895000Y-108389167D01*
X137895000Y-93022167D01*
X141304838Y-93022167D01*
X141446883Y-93365943D01*
X141709673Y-93629192D01*
X142053201Y-93771838D01*
X142425167Y-93772162D01*
X142768943Y-93630117D01*
X142777074Y-93622000D01*
X146050000Y-93622000D01*
X146350407Y-93562245D01*
X146605079Y-93392079D01*
X148361159Y-91635999D01*
X152100001Y-91635999D01*
X152400408Y-91576244D01*
X152535291Y-91486119D01*
X152585167Y-91486162D01*
X152928943Y-91344117D01*
X153192192Y-91081327D01*
X153334838Y-90737799D01*
X153335162Y-90365833D01*
X153193117Y-90022057D01*
X152930327Y-89758808D01*
X152586799Y-89616162D01*
X152214833Y-89615838D01*
X151871057Y-89757883D01*
X151607808Y-90020673D01*
X151588987Y-90065999D01*
X148036001Y-90065999D01*
X147735594Y-90125754D01*
X147480922Y-90295920D01*
X145724842Y-92052000D01*
X142777506Y-92052000D01*
X142770327Y-92044808D01*
X142426799Y-91902162D01*
X142054833Y-91901838D01*
X141711057Y-92043883D01*
X141447808Y-92306673D01*
X141305162Y-92650201D01*
X141304838Y-93022167D01*
X137895000Y-93022167D01*
X137895000Y-85402167D01*
X145114838Y-85402167D01*
X145256883Y-85745943D01*
X145519673Y-86009192D01*
X145863201Y-86151838D01*
X146235167Y-86152162D01*
X146578943Y-86010117D01*
X146587074Y-86002000D01*
X149576494Y-86002000D01*
X149583673Y-86009192D01*
X149927201Y-86151838D01*
X150299167Y-86152162D01*
X150642943Y-86010117D01*
X150651074Y-86002000D01*
X164308494Y-86002000D01*
X164315673Y-86009192D01*
X164659201Y-86151838D01*
X165031167Y-86152162D01*
X165374943Y-86010117D01*
X165585000Y-85800426D01*
X165585000Y-103814842D01*
X163654995Y-105744847D01*
X163644833Y-105744838D01*
X163301057Y-105886883D01*
X163037808Y-106149673D01*
X162895162Y-106493201D01*
X162894838Y-106865167D01*
X163036883Y-107208943D01*
X163299673Y-107472192D01*
X163643201Y-107614838D01*
X164015167Y-107615162D01*
X164358943Y-107473117D01*
X164622192Y-107210327D01*
X164764838Y-106866799D01*
X164764848Y-106855310D01*
X166925079Y-104695079D01*
X167095244Y-104440407D01*
X167095245Y-104440406D01*
X167155000Y-104140000D01*
X167155000Y-81182506D01*
X167162192Y-81175327D01*
X167233322Y-81004026D01*
X173652642Y-81004026D01*
X173655291Y-81019791D01*
X173909268Y-81547036D01*
X174345680Y-81936954D01*
X174898087Y-82130184D01*
X175133000Y-81985924D01*
X175133000Y-80772000D01*
X175387000Y-80772000D01*
X175387000Y-81985924D01*
X175621913Y-82130184D01*
X176174320Y-81936954D01*
X176610732Y-81547036D01*
X176864709Y-81019791D01*
X176867358Y-81004026D01*
X176746217Y-80772000D01*
X175387000Y-80772000D01*
X175133000Y-80772000D01*
X173773783Y-80772000D01*
X173652642Y-81004026D01*
X167233322Y-81004026D01*
X167304838Y-80831799D01*
X167305162Y-80459833D01*
X167163117Y-80116057D01*
X166900327Y-79852808D01*
X166556799Y-79710162D01*
X166184833Y-79709838D01*
X165841057Y-79851883D01*
X165577808Y-80114673D01*
X165435162Y-80458201D01*
X165434838Y-80830167D01*
X165576883Y-81173943D01*
X165585000Y-81182074D01*
X165585000Y-84633845D01*
X165376327Y-84424808D01*
X165032799Y-84282162D01*
X164660833Y-84281838D01*
X164317057Y-84423883D01*
X164308926Y-84432000D01*
X150651506Y-84432000D01*
X150644327Y-84424808D01*
X150300799Y-84282162D01*
X149928833Y-84281838D01*
X149585057Y-84423883D01*
X149576926Y-84432000D01*
X146587506Y-84432000D01*
X146580327Y-84424808D01*
X146236799Y-84282162D01*
X145864833Y-84281838D01*
X145521057Y-84423883D01*
X145257808Y-84686673D01*
X145115162Y-85030201D01*
X145114838Y-85402167D01*
X137895000Y-85402167D01*
X137895000Y-70485000D01*
X173576655Y-70485000D01*
X173690729Y-71058489D01*
X174015585Y-71544670D01*
X174330366Y-71755000D01*
X174015585Y-71965330D01*
X173690729Y-72451511D01*
X173576655Y-73025000D01*
X173690729Y-73598489D01*
X174015585Y-74084670D01*
X174330366Y-74295000D01*
X174015585Y-74505330D01*
X173690729Y-74991511D01*
X173576655Y-75565000D01*
X173690729Y-76138489D01*
X174015585Y-76624670D01*
X174330366Y-76835000D01*
X174015585Y-77045330D01*
X173690729Y-77531511D01*
X173576655Y-78105000D01*
X173690729Y-78678489D01*
X174015585Y-79164670D01*
X174325069Y-79371461D01*
X173909268Y-79742964D01*
X173655291Y-80270209D01*
X173652642Y-80285974D01*
X173773783Y-80518000D01*
X175133000Y-80518000D01*
X175133000Y-80498000D01*
X175387000Y-80498000D01*
X175387000Y-80518000D01*
X176746217Y-80518000D01*
X176867358Y-80285974D01*
X176864709Y-80270209D01*
X176610732Y-79742964D01*
X176194931Y-79371461D01*
X176504415Y-79164670D01*
X176829271Y-78678489D01*
X176943345Y-78105000D01*
X176829271Y-77531511D01*
X176504415Y-77045330D01*
X176189634Y-76835000D01*
X176504415Y-76624670D01*
X176829271Y-76138489D01*
X176943345Y-75565000D01*
X176829271Y-74991511D01*
X176504415Y-74505330D01*
X176189634Y-74295000D01*
X176504415Y-74084670D01*
X176829271Y-73598489D01*
X176943345Y-73025000D01*
X176829271Y-72451511D01*
X176504415Y-71965330D01*
X176189634Y-71755000D01*
X176504415Y-71544670D01*
X176829271Y-71058489D01*
X176943345Y-70485000D01*
X176829271Y-69911511D01*
X176504415Y-69425330D01*
X176490087Y-69415757D01*
X176511317Y-69411762D01*
X176727441Y-69272690D01*
X176872431Y-69060490D01*
X176923440Y-68808600D01*
X176923440Y-67081400D01*
X176879162Y-66846083D01*
X176740090Y-66629959D01*
X176527890Y-66484969D01*
X176276000Y-66433960D01*
X174244000Y-66433960D01*
X174008683Y-66478238D01*
X173792559Y-66617310D01*
X173647569Y-66829510D01*
X173596560Y-67081400D01*
X173596560Y-68808600D01*
X173640838Y-69043917D01*
X173779910Y-69260041D01*
X173992110Y-69405031D01*
X174033439Y-69413400D01*
X174015585Y-69425330D01*
X173690729Y-69911511D01*
X173576655Y-70485000D01*
X137895000Y-70485000D01*
X137895000Y-64235000D01*
X179097000Y-64235000D01*
X179097000Y-126773000D01*
M02*
