G04 #@! TF.FileFunction,Copper,L1,Top,Signal*
%FSLAX46Y46*%
G04 Gerber Fmt 4.6, Leading zero omitted, Abs format (unit mm)*
G04 Created by KiCad (PCBNEW 4.0.4-stable) date Saturday, 10 December 2016 'PMt' 11:42:13 PM*
%MOMM*%
%LPD*%
G01*
G04 APERTURE LIST*
%ADD10C,0.100000*%
%ADD11R,2.000000X1.600000*%
%ADD12R,1.597660X1.800860*%
%ADD13R,2.032000X3.657600*%
%ADD14R,2.032000X1.016000*%
%ADD15R,2.032000X2.032000*%
%ADD16O,2.032000X2.032000*%
%ADD17R,1.727200X1.727200*%
%ADD18O,1.727200X1.727200*%
%ADD19R,2.032000X1.727200*%
%ADD20O,2.032000X1.727200*%
%ADD21R,2.000000X1.700000*%
%ADD22R,1.700000X2.000000*%
%ADD23R,1.550000X1.300000*%
%ADD24R,2.500000X1.100000*%
%ADD25O,2.500000X1.100000*%
%ADD26C,0.600000*%
%ADD27C,0.300000*%
%ADD28C,0.400000*%
%ADD29C,0.254000*%
G04 APERTURE END LIST*
D10*
D11*
X171355000Y-95250000D03*
X175355000Y-95250000D03*
X146145000Y-106680000D03*
X142145000Y-106680000D03*
X146145000Y-95250000D03*
X142145000Y-95250000D03*
X175355000Y-106680000D03*
X171355000Y-106680000D03*
X151035000Y-86995000D03*
X155035000Y-86995000D03*
D12*
X175409860Y-88420362D03*
X172570140Y-88420362D03*
D13*
X168910000Y-100965000D03*
D14*
X175514000Y-100965000D03*
X175514000Y-98679000D03*
X175514000Y-103251000D03*
D13*
X139573000Y-101092000D03*
D14*
X146177000Y-101092000D03*
X146177000Y-98806000D03*
X146177000Y-103378000D03*
D15*
X139700000Y-133350000D03*
D16*
X142240000Y-133350000D03*
D17*
X165735000Y-132080000D03*
D18*
X165735000Y-129540000D03*
X168275000Y-132080000D03*
X168275000Y-129540000D03*
X170815000Y-132080000D03*
X170815000Y-129540000D03*
X173355000Y-132080000D03*
X173355000Y-129540000D03*
X175895000Y-132080000D03*
X175895000Y-129540000D03*
D19*
X175260000Y-67945000D03*
D20*
X175260000Y-70485000D03*
X175260000Y-73025000D03*
X175260000Y-75565000D03*
X175260000Y-78105000D03*
X175260000Y-80645000D03*
D13*
X167132000Y-118237000D03*
D14*
X160528000Y-118237000D03*
X160528000Y-120523000D03*
X160528000Y-115951000D03*
D13*
X177292000Y-118110000D03*
D14*
X170688000Y-118110000D03*
X170688000Y-120396000D03*
X170688000Y-115824000D03*
D13*
X146685000Y-118110000D03*
D14*
X140081000Y-118110000D03*
X140081000Y-120396000D03*
X140081000Y-115824000D03*
D13*
X156845000Y-118110000D03*
D14*
X150241000Y-118110000D03*
X150241000Y-120396000D03*
X150241000Y-115824000D03*
D21*
X160560000Y-123825000D03*
X164560000Y-123825000D03*
X160560000Y-112395000D03*
X164560000Y-112395000D03*
X170720000Y-123825000D03*
X174720000Y-123825000D03*
X170720000Y-112395000D03*
X174720000Y-112395000D03*
X140240000Y-123825000D03*
X144240000Y-123825000D03*
X140240000Y-112395000D03*
X144240000Y-112395000D03*
X150400000Y-123825000D03*
X154400000Y-123825000D03*
X150400000Y-112395000D03*
X154400000Y-112395000D03*
X175355000Y-92075000D03*
X171355000Y-92075000D03*
X140875000Y-86995000D03*
X144875000Y-86995000D03*
X140875000Y-90170000D03*
X144875000Y-90170000D03*
X170275000Y-78105000D03*
X166275000Y-78105000D03*
D22*
X161925000Y-85185000D03*
X161925000Y-81185000D03*
D23*
X154140000Y-92365000D03*
X162090000Y-92365000D03*
X154140000Y-96865000D03*
X162090000Y-96865000D03*
X154140000Y-102525000D03*
X162090000Y-102525000D03*
X154140000Y-107025000D03*
X162090000Y-107025000D03*
D24*
X142145000Y-66167000D03*
D25*
X142145000Y-68167000D03*
X142145000Y-70167000D03*
X142145000Y-72167000D03*
X142145000Y-74167000D03*
X142145000Y-76167000D03*
X142145000Y-78167000D03*
X142145000Y-80167000D03*
X157545000Y-80167000D03*
X157445000Y-78167000D03*
X157545000Y-76167000D03*
X157545000Y-74167000D03*
X157545000Y-72167000D03*
X157545000Y-70167000D03*
X157545000Y-68167000D03*
X157545000Y-66167000D03*
D26*
X167640000Y-125095000D03*
X171450000Y-98425000D03*
X144145000Y-121285000D03*
X154305000Y-121285000D03*
X164465000Y-121285000D03*
X174625000Y-121285000D03*
X140208000Y-122047000D03*
X147320000Y-121285000D03*
X154940000Y-89281000D03*
X148844000Y-100965000D03*
X162052000Y-99949000D03*
X173990000Y-133985000D03*
X164846000Y-85217000D03*
X150114000Y-85217000D03*
X146050000Y-85217000D03*
X142240000Y-92837000D03*
X152400000Y-90551000D03*
X163830000Y-106680000D03*
X166370000Y-80645000D03*
D27*
X154140000Y-101003000D02*
X154178000Y-100965000D01*
X172720000Y-97715000D02*
X173684000Y-98679000D01*
X171355000Y-96350000D02*
X172720000Y-97715000D01*
X172720000Y-97715000D02*
X172160000Y-97715000D01*
X172160000Y-97715000D02*
X171450000Y-98425000D01*
X144240000Y-123825000D02*
X144240000Y-121380000D01*
X144240000Y-121380000D02*
X144145000Y-121285000D01*
X154400000Y-123825000D02*
X154400000Y-121380000D01*
X154400000Y-121380000D02*
X154305000Y-121285000D01*
X164560000Y-123825000D02*
X164560000Y-121380000D01*
X164560000Y-121380000D02*
X164465000Y-121285000D01*
X174720000Y-123825000D02*
X174720000Y-121380000D01*
X174720000Y-121380000D02*
X174625000Y-121285000D01*
X173355000Y-132080000D02*
X174668601Y-133393601D01*
X174668601Y-133393601D02*
X176525529Y-133393601D01*
X176525529Y-133393601D02*
X177208601Y-132710529D01*
X177208601Y-132710529D02*
X177208601Y-127463601D01*
X177208601Y-127463601D02*
X174720000Y-124975000D01*
X174720000Y-124975000D02*
X174720000Y-123825000D01*
X171355000Y-95250000D02*
X171355000Y-96350000D01*
X173684000Y-98679000D02*
X174198000Y-98679000D01*
X174198000Y-98679000D02*
X175514000Y-98679000D01*
X140081000Y-120396000D02*
X140081000Y-121920000D01*
X140081000Y-121920000D02*
X140208000Y-122047000D01*
X148798000Y-120523000D02*
X148082000Y-120523000D01*
X148082000Y-120523000D02*
X147320000Y-121285000D01*
X150241000Y-120396000D02*
X148925000Y-120396000D01*
X148925000Y-120396000D02*
X148798000Y-120523000D01*
X155035000Y-86995000D02*
X155035000Y-89186000D01*
X155035000Y-89186000D02*
X154940000Y-89281000D01*
X146177000Y-101092000D02*
X148717000Y-101092000D01*
X148717000Y-101092000D02*
X148844000Y-100965000D01*
X162090000Y-102525000D02*
X162090000Y-99987000D01*
X162090000Y-99987000D02*
X162052000Y-99949000D01*
X175895000Y-129540000D02*
X173355000Y-129540000D01*
X160528000Y-120523000D02*
X159512000Y-120523000D01*
X175355000Y-92075000D02*
X175355000Y-95250000D01*
X179070000Y-111495000D02*
X179070000Y-131697672D01*
X179070000Y-131697672D02*
X176774061Y-133993611D01*
X176774061Y-133993611D02*
X173998611Y-133993611D01*
X173998611Y-133993611D02*
X173990000Y-133985000D01*
X175355000Y-106680000D02*
X175355000Y-107780000D01*
X175355000Y-107780000D02*
X179070000Y-111495000D01*
X175514000Y-103251000D02*
X175006000Y-103251000D01*
X175514000Y-103251000D02*
X175514000Y-106521000D01*
X175514000Y-106521000D02*
X175355000Y-106680000D01*
X139700000Y-133350000D02*
X139700000Y-132034000D01*
X139700000Y-132034000D02*
X137795000Y-130129000D01*
X137795000Y-130129000D02*
X137795000Y-111544998D01*
X137795000Y-111544998D02*
X140119998Y-109220000D01*
X140119998Y-109220000D02*
X142305000Y-109220000D01*
X142305000Y-109220000D02*
X144845000Y-106680000D01*
X144845000Y-106680000D02*
X146145000Y-106680000D01*
X146177000Y-103378000D02*
X146177000Y-106648000D01*
X146177000Y-106648000D02*
X146145000Y-106680000D01*
X144875000Y-86995000D02*
X144875000Y-82197000D01*
X144875000Y-82197000D02*
X142845000Y-80167000D01*
X164846000Y-85217000D02*
X165798000Y-85217000D01*
X165798000Y-85217000D02*
X170275000Y-80740000D01*
X150114000Y-85217000D02*
X150114000Y-86074000D01*
X150114000Y-86074000D02*
X151035000Y-86995000D01*
X144875000Y-86995000D02*
X144875000Y-86392000D01*
X144875000Y-86392000D02*
X146050000Y-85217000D01*
X144875000Y-90170000D02*
X144875000Y-93980000D01*
X144845000Y-94010000D02*
X144845000Y-94150000D01*
X144875000Y-93980000D02*
X144845000Y-94010000D01*
X144845000Y-94150000D02*
X145945000Y-95250000D01*
X145945000Y-95250000D02*
X146145000Y-95250000D01*
X146145000Y-95250000D02*
X146145000Y-98774000D01*
X146145000Y-98774000D02*
X146177000Y-98806000D01*
X170275000Y-78105000D02*
X170275000Y-80740000D01*
X170275000Y-80740000D02*
X175409860Y-85874860D01*
X175409860Y-85874860D02*
X175409860Y-88420362D01*
X144875000Y-86995000D02*
X144875000Y-90170000D01*
X172570140Y-88420362D02*
X172570140Y-89684860D01*
X172570140Y-89684860D02*
X171355000Y-90900000D01*
X171355000Y-90900000D02*
X171355000Y-92075000D01*
X150241000Y-118110000D02*
X151557000Y-118110000D01*
X151557000Y-118110000D02*
X152400000Y-118953000D01*
X152400000Y-118953000D02*
X152400000Y-121975000D01*
X152400000Y-121975000D02*
X150550000Y-123825000D01*
X150550000Y-123825000D02*
X150400000Y-123825000D01*
X150400000Y-123825000D02*
X151700000Y-123825000D01*
X151700000Y-123825000D02*
X159955000Y-132080000D01*
X159955000Y-132080000D02*
X164571400Y-132080000D01*
X164571400Y-132080000D02*
X165735000Y-132080000D01*
X150250000Y-123825000D02*
X150400000Y-123825000D01*
X163195000Y-121285000D02*
X163195000Y-121340000D01*
X163195000Y-121340000D02*
X160710000Y-123825000D01*
X160710000Y-123825000D02*
X160560000Y-123825000D01*
X163195000Y-119588000D02*
X163195000Y-121285000D01*
X160528000Y-118237000D02*
X161844000Y-118237000D01*
X161844000Y-118237000D02*
X163195000Y-119588000D01*
X160710000Y-123825000D02*
X165735000Y-128850000D01*
X165735000Y-128850000D02*
X165735000Y-129540000D01*
X142990002Y-121224998D02*
X140390000Y-123825000D01*
X142990002Y-119019998D02*
X142990002Y-121224998D01*
X142080004Y-118110000D02*
X142990002Y-119019998D01*
X140081000Y-118110000D02*
X142080004Y-118110000D01*
X140390000Y-123825000D02*
X140240000Y-123825000D01*
X167640000Y-133985000D02*
X168275000Y-133350000D01*
X140390000Y-123825000D02*
X146740000Y-130175000D01*
X146740000Y-130175000D02*
X154305000Y-130175000D01*
X154305000Y-130175000D02*
X158115000Y-133985000D01*
X158115000Y-133985000D02*
X167640000Y-133985000D01*
X168275000Y-133350000D02*
X168275000Y-132080000D01*
X172720000Y-122555000D02*
X172140000Y-122555000D01*
X170870000Y-123825000D02*
X170720000Y-123825000D01*
X172140000Y-122555000D02*
X170870000Y-123825000D01*
X172720000Y-119634000D02*
X172720000Y-122555000D01*
X171196000Y-118110000D02*
X172720000Y-119634000D01*
X170720000Y-123825000D02*
X170720000Y-127095000D01*
X170720000Y-127095000D02*
X168275000Y-129540000D01*
D28*
X171196000Y-118110000D02*
X170688000Y-118110000D01*
D27*
X175260000Y-70485000D02*
X175107600Y-70485000D01*
X170789600Y-66167000D02*
X156845000Y-66167000D01*
X175107600Y-70485000D02*
X170789600Y-66167000D01*
X175260000Y-73025000D02*
X175107600Y-73025000D01*
X175107600Y-73025000D02*
X170249600Y-68167000D01*
X170249600Y-68167000D02*
X156845000Y-68167000D01*
X160560000Y-112395000D02*
X160560000Y-115919000D01*
X160560000Y-115919000D02*
X160528000Y-115951000D01*
X170720000Y-112395000D02*
X170720000Y-115792000D01*
X170720000Y-115792000D02*
X170688000Y-115824000D01*
D28*
X170688000Y-112427000D02*
X170720000Y-112395000D01*
D27*
X140240000Y-112395000D02*
X140240000Y-115665000D01*
X140240000Y-115665000D02*
X140081000Y-115824000D01*
X150400000Y-112395000D02*
X150400000Y-115665000D01*
X150400000Y-115665000D02*
X150241000Y-115824000D01*
X147954000Y-75945000D02*
X146176000Y-74167000D01*
X146176000Y-74167000D02*
X142845000Y-74167000D01*
X148030002Y-75945000D02*
X147954000Y-75945000D01*
X165100000Y-109220000D02*
X163830000Y-110490000D01*
X165100000Y-93014998D02*
X165100000Y-109220000D01*
X148030002Y-75945000D02*
X165100000Y-93014998D01*
X163830000Y-110605000D02*
X163830000Y-111665000D01*
X163830000Y-111665000D02*
X164560000Y-112395000D01*
X146878545Y-73853545D02*
X145192000Y-72167000D01*
X145192000Y-72167000D02*
X142845000Y-72167000D01*
X146878545Y-73945000D02*
X146878545Y-73853545D01*
X172030000Y-109855000D02*
X174570000Y-112395000D01*
X174570000Y-112395000D02*
X174720000Y-112395000D01*
X171919998Y-109855000D02*
X172030000Y-109855000D01*
X167443999Y-105379001D02*
X171919998Y-109855000D01*
X167443999Y-94510454D02*
X167443999Y-105379001D01*
X146878545Y-73945000D02*
X167443999Y-94510454D01*
X144240000Y-112395000D02*
X146685000Y-112395000D01*
X150495000Y-108585000D02*
X150495000Y-91440000D01*
X147320000Y-88265000D02*
X147320000Y-82642000D01*
X146685000Y-112395000D02*
X150495000Y-108585000D01*
X150495000Y-91440000D02*
X147320000Y-88265000D01*
X147320000Y-82642000D02*
X142845000Y-78167000D01*
X154400000Y-112395000D02*
X154400000Y-111245000D01*
X147955000Y-81277000D02*
X142845000Y-76167000D01*
X154400000Y-111245000D02*
X151130000Y-107975000D01*
X151130000Y-107975000D02*
X151130000Y-90805000D01*
X151130000Y-90805000D02*
X147955000Y-87630000D01*
X147955000Y-87630000D02*
X147955000Y-81277000D01*
X140875000Y-86995000D02*
X140875000Y-85845000D01*
X140875000Y-85845000D02*
X140335000Y-85305000D01*
X140335000Y-85305000D02*
X140335000Y-84455000D01*
X138430000Y-83185000D02*
X138430000Y-67691000D01*
X140335000Y-84455000D02*
X139700000Y-84455000D01*
X139700000Y-84455000D02*
X138430000Y-83185000D01*
X138430000Y-67691000D02*
X139954000Y-66167000D01*
X139954000Y-66167000D02*
X142845000Y-66167000D01*
X141025000Y-90170000D02*
X142325001Y-88869999D01*
X142325001Y-88869999D02*
X142325001Y-84239228D01*
X142325001Y-84239228D02*
X141270773Y-83185000D01*
X141270773Y-83185000D02*
X139700000Y-83185000D01*
X139700000Y-83185000D02*
X139065000Y-82550000D01*
X139065000Y-82550000D02*
X139065000Y-71120000D01*
X139065000Y-71120000D02*
X140018000Y-70167000D01*
X140018000Y-70167000D02*
X142845000Y-70167000D01*
X142240000Y-92837000D02*
X142240000Y-91385000D01*
X142240000Y-91385000D02*
X141025000Y-90170000D01*
X153162000Y-90437000D02*
X152514000Y-90437000D01*
X152514000Y-90437000D02*
X152400000Y-90551000D01*
X154140000Y-92365000D02*
X154140000Y-91415000D01*
X154140000Y-91415000D02*
X153162000Y-90437000D01*
X154140000Y-92365000D02*
X162090000Y-92365000D01*
X141025000Y-90170000D02*
X140875000Y-90170000D01*
X166275000Y-78105000D02*
X164975000Y-78105000D01*
X164975000Y-78105000D02*
X161037000Y-74167000D01*
X161037000Y-74167000D02*
X156845000Y-74167000D01*
X154140000Y-107025000D02*
X162090000Y-107025000D01*
X162090000Y-107025000D02*
X163485000Y-107025000D01*
X163485000Y-107025000D02*
X163830000Y-106680000D01*
X166370000Y-80645000D02*
X166370000Y-78200000D01*
X166370000Y-78200000D02*
X166275000Y-78105000D01*
X162090000Y-107025000D02*
X162215000Y-107025000D01*
X161925000Y-81185000D02*
X160775000Y-81185000D01*
X160775000Y-81185000D02*
X157757000Y-78167000D01*
X157757000Y-78167000D02*
X156845000Y-78167000D01*
D29*
G36*
X142205002Y-119345155D02*
X142205002Y-120899840D01*
X140777282Y-122327560D01*
X139240000Y-122327560D01*
X139004683Y-122371838D01*
X138788559Y-122510910D01*
X138643569Y-122723110D01*
X138592560Y-122975000D01*
X138592560Y-124675000D01*
X138636838Y-124910317D01*
X138775910Y-125126441D01*
X138988110Y-125271431D01*
X139240000Y-125322440D01*
X140777282Y-125322440D01*
X146184921Y-130730079D01*
X146439593Y-130900245D01*
X146740000Y-130960000D01*
X153979842Y-130960000D01*
X157539842Y-134520000D01*
X143359749Y-134520000D01*
X143577188Y-134318379D01*
X143845983Y-133732946D01*
X143727367Y-133477000D01*
X142367000Y-133477000D01*
X142367000Y-133497000D01*
X142113000Y-133497000D01*
X142113000Y-133477000D01*
X142093000Y-133477000D01*
X142093000Y-133223000D01*
X142113000Y-133223000D01*
X142113000Y-131863164D01*
X142367000Y-131863164D01*
X142367000Y-133223000D01*
X143727367Y-133223000D01*
X143845983Y-132967054D01*
X143577188Y-132381621D01*
X143104818Y-131943615D01*
X142622944Y-131744025D01*
X142367000Y-131863164D01*
X142113000Y-131863164D01*
X141857056Y-131744025D01*
X141375182Y-131943615D01*
X141277602Y-132034097D01*
X141180090Y-131882559D01*
X140967890Y-131737569D01*
X140716000Y-131686560D01*
X140393818Y-131686560D01*
X140255079Y-131478921D01*
X138580000Y-129803842D01*
X138580000Y-121317025D01*
X138705301Y-121442327D01*
X138938690Y-121539000D01*
X139795250Y-121539000D01*
X139954000Y-121380250D01*
X139954000Y-120523000D01*
X140208000Y-120523000D01*
X140208000Y-121380250D01*
X140366750Y-121539000D01*
X141223310Y-121539000D01*
X141456699Y-121442327D01*
X141635327Y-121263698D01*
X141732000Y-121030309D01*
X141732000Y-120681750D01*
X141573250Y-120523000D01*
X140208000Y-120523000D01*
X139954000Y-120523000D01*
X139934000Y-120523000D01*
X139934000Y-120269000D01*
X139954000Y-120269000D01*
X139954000Y-120249000D01*
X140208000Y-120249000D01*
X140208000Y-120269000D01*
X141573250Y-120269000D01*
X141732000Y-120110250D01*
X141732000Y-119761691D01*
X141635327Y-119528302D01*
X141456699Y-119349673D01*
X141223310Y-119253000D01*
X141163113Y-119253000D01*
X141332317Y-119221162D01*
X141548441Y-119082090D01*
X141676274Y-118895000D01*
X141754846Y-118895000D01*
X142205002Y-119345155D01*
X142205002Y-119345155D01*
G37*
X142205002Y-119345155D02*
X142205002Y-120899840D01*
X140777282Y-122327560D01*
X139240000Y-122327560D01*
X139004683Y-122371838D01*
X138788559Y-122510910D01*
X138643569Y-122723110D01*
X138592560Y-122975000D01*
X138592560Y-124675000D01*
X138636838Y-124910317D01*
X138775910Y-125126441D01*
X138988110Y-125271431D01*
X139240000Y-125322440D01*
X140777282Y-125322440D01*
X146184921Y-130730079D01*
X146439593Y-130900245D01*
X146740000Y-130960000D01*
X153979842Y-130960000D01*
X157539842Y-134520000D01*
X143359749Y-134520000D01*
X143577188Y-134318379D01*
X143845983Y-133732946D01*
X143727367Y-133477000D01*
X142367000Y-133477000D01*
X142367000Y-133497000D01*
X142113000Y-133497000D01*
X142113000Y-133477000D01*
X142093000Y-133477000D01*
X142093000Y-133223000D01*
X142113000Y-133223000D01*
X142113000Y-131863164D01*
X142367000Y-131863164D01*
X142367000Y-133223000D01*
X143727367Y-133223000D01*
X143845983Y-132967054D01*
X143577188Y-132381621D01*
X143104818Y-131943615D01*
X142622944Y-131744025D01*
X142367000Y-131863164D01*
X142113000Y-131863164D01*
X141857056Y-131744025D01*
X141375182Y-131943615D01*
X141277602Y-132034097D01*
X141180090Y-131882559D01*
X140967890Y-131737569D01*
X140716000Y-131686560D01*
X140393818Y-131686560D01*
X140255079Y-131478921D01*
X138580000Y-129803842D01*
X138580000Y-121317025D01*
X138705301Y-121442327D01*
X138938690Y-121539000D01*
X139795250Y-121539000D01*
X139954000Y-121380250D01*
X139954000Y-120523000D01*
X140208000Y-120523000D01*
X140208000Y-121380250D01*
X140366750Y-121539000D01*
X141223310Y-121539000D01*
X141456699Y-121442327D01*
X141635327Y-121263698D01*
X141732000Y-121030309D01*
X141732000Y-120681750D01*
X141573250Y-120523000D01*
X140208000Y-120523000D01*
X139954000Y-120523000D01*
X139934000Y-120523000D01*
X139934000Y-120269000D01*
X139954000Y-120269000D01*
X139954000Y-120249000D01*
X140208000Y-120249000D01*
X140208000Y-120269000D01*
X141573250Y-120269000D01*
X141732000Y-120110250D01*
X141732000Y-119761691D01*
X141635327Y-119528302D01*
X141456699Y-119349673D01*
X141223310Y-119253000D01*
X141163113Y-119253000D01*
X141332317Y-119221162D01*
X141548441Y-119082090D01*
X141676274Y-118895000D01*
X141754846Y-118895000D01*
X142205002Y-119345155D01*
G36*
X140570149Y-71004922D02*
X140812717Y-71167000D01*
X140570149Y-71329078D01*
X140313274Y-71713520D01*
X140223071Y-72167000D01*
X140313274Y-72620480D01*
X140570149Y-73004922D01*
X140812717Y-73167000D01*
X140570149Y-73329078D01*
X140313274Y-73713520D01*
X140223071Y-74167000D01*
X140313274Y-74620480D01*
X140570149Y-75004922D01*
X140812717Y-75167000D01*
X140570149Y-75329078D01*
X140313274Y-75713520D01*
X140223071Y-76167000D01*
X140313274Y-76620480D01*
X140570149Y-77004922D01*
X140812717Y-77167000D01*
X140570149Y-77329078D01*
X140313274Y-77713520D01*
X140223071Y-78167000D01*
X140313274Y-78620480D01*
X140570149Y-79004922D01*
X140812717Y-79167000D01*
X140570149Y-79329078D01*
X140313274Y-79713520D01*
X140223071Y-80167000D01*
X140313274Y-80620480D01*
X140570149Y-81004922D01*
X140954591Y-81261797D01*
X141408071Y-81352000D01*
X142881929Y-81352000D01*
X142913552Y-81345710D01*
X144090000Y-82522157D01*
X144090000Y-85497560D01*
X143875000Y-85497560D01*
X143639683Y-85541838D01*
X143423559Y-85680910D01*
X143278569Y-85893110D01*
X143227560Y-86145000D01*
X143227560Y-87845000D01*
X143271838Y-88080317D01*
X143410910Y-88296441D01*
X143623110Y-88441431D01*
X143875000Y-88492440D01*
X144090000Y-88492440D01*
X144090000Y-88672560D01*
X143875000Y-88672560D01*
X143639683Y-88716838D01*
X143423559Y-88855910D01*
X143278569Y-89068110D01*
X143227560Y-89320000D01*
X143227560Y-91020000D01*
X143271838Y-91255317D01*
X143410910Y-91471441D01*
X143623110Y-91616431D01*
X143875000Y-91667440D01*
X144090000Y-91667440D01*
X144090000Y-93859181D01*
X144060000Y-94010000D01*
X144060000Y-94150000D01*
X144119755Y-94450407D01*
X144289921Y-94705079D01*
X144497560Y-94912718D01*
X144497560Y-96050000D01*
X144541838Y-96285317D01*
X144680910Y-96501441D01*
X144893110Y-96646431D01*
X145145000Y-96697440D01*
X145360000Y-96697440D01*
X145360000Y-97650560D01*
X145161000Y-97650560D01*
X144925683Y-97694838D01*
X144709559Y-97833910D01*
X144564569Y-98046110D01*
X144513560Y-98298000D01*
X144513560Y-99314000D01*
X144557838Y-99549317D01*
X144696910Y-99765441D01*
X144909110Y-99910431D01*
X145099569Y-99949000D01*
X145034690Y-99949000D01*
X144801301Y-100045673D01*
X144622673Y-100224302D01*
X144526000Y-100457691D01*
X144526000Y-100806250D01*
X144684750Y-100965000D01*
X146050000Y-100965000D01*
X146050000Y-100945000D01*
X146304000Y-100945000D01*
X146304000Y-100965000D01*
X147669250Y-100965000D01*
X147828000Y-100806250D01*
X147828000Y-100457691D01*
X147731327Y-100224302D01*
X147552699Y-100045673D01*
X147319310Y-99949000D01*
X147259113Y-99949000D01*
X147428317Y-99917162D01*
X147644441Y-99778090D01*
X147789431Y-99565890D01*
X147840440Y-99314000D01*
X147840440Y-98298000D01*
X147796162Y-98062683D01*
X147657090Y-97846559D01*
X147444890Y-97701569D01*
X147193000Y-97650560D01*
X146930000Y-97650560D01*
X146930000Y-96697440D01*
X147145000Y-96697440D01*
X147380317Y-96653162D01*
X147596441Y-96514090D01*
X147741431Y-96301890D01*
X147792440Y-96050000D01*
X147792440Y-94450000D01*
X147748162Y-94214683D01*
X147609090Y-93998559D01*
X147396890Y-93853569D01*
X147145000Y-93802560D01*
X145660000Y-93802560D01*
X145660000Y-91667440D01*
X145875000Y-91667440D01*
X146110317Y-91623162D01*
X146326441Y-91484090D01*
X146471431Y-91271890D01*
X146522440Y-91020000D01*
X146522440Y-89320000D01*
X146478162Y-89084683D01*
X146339090Y-88868559D01*
X146126890Y-88723569D01*
X145875000Y-88672560D01*
X145660000Y-88672560D01*
X145660000Y-88492440D01*
X145875000Y-88492440D01*
X146110317Y-88448162D01*
X146326441Y-88309090D01*
X146471431Y-88096890D01*
X146522440Y-87845000D01*
X146522440Y-86145000D01*
X146502967Y-86041510D01*
X146535000Y-86028274D01*
X146535000Y-88265000D01*
X146594755Y-88565407D01*
X146764921Y-88820079D01*
X149710000Y-91765158D01*
X149710000Y-108259842D01*
X146359842Y-111610000D01*
X145887440Y-111610000D01*
X145887440Y-111545000D01*
X145843162Y-111309683D01*
X145704090Y-111093559D01*
X145491890Y-110948569D01*
X145240000Y-110897560D01*
X143240000Y-110897560D01*
X143004683Y-110941838D01*
X142788559Y-111080910D01*
X142643569Y-111293110D01*
X142592560Y-111545000D01*
X142592560Y-113245000D01*
X142636838Y-113480317D01*
X142775910Y-113696441D01*
X142988110Y-113841431D01*
X143240000Y-113892440D01*
X145240000Y-113892440D01*
X145475317Y-113848162D01*
X145691441Y-113709090D01*
X145836431Y-113496890D01*
X145887440Y-113245000D01*
X145887440Y-113180000D01*
X146685000Y-113180000D01*
X146985407Y-113120245D01*
X147240079Y-112950079D01*
X148779832Y-111410326D01*
X148752560Y-111545000D01*
X148752560Y-113245000D01*
X148796838Y-113480317D01*
X148935910Y-113696441D01*
X149148110Y-113841431D01*
X149400000Y-113892440D01*
X149615000Y-113892440D01*
X149615000Y-114668560D01*
X149225000Y-114668560D01*
X148989683Y-114712838D01*
X148773559Y-114851910D01*
X148628569Y-115064110D01*
X148577560Y-115316000D01*
X148577560Y-116332000D01*
X148621838Y-116567317D01*
X148760910Y-116783441D01*
X148973110Y-116928431D01*
X149161314Y-116966543D01*
X148989683Y-116998838D01*
X148773559Y-117137910D01*
X148628569Y-117350110D01*
X148577560Y-117602000D01*
X148577560Y-118618000D01*
X148621838Y-118853317D01*
X148760910Y-119069441D01*
X148973110Y-119214431D01*
X149163569Y-119253000D01*
X149098690Y-119253000D01*
X148865301Y-119349673D01*
X148686673Y-119528302D01*
X148590000Y-119761691D01*
X148590000Y-120110250D01*
X148748750Y-120269000D01*
X150114000Y-120269000D01*
X150114000Y-120249000D01*
X150368000Y-120249000D01*
X150368000Y-120269000D01*
X150388000Y-120269000D01*
X150388000Y-120523000D01*
X150368000Y-120523000D01*
X150368000Y-121380250D01*
X150526750Y-121539000D01*
X151383310Y-121539000D01*
X151615000Y-121443031D01*
X151615000Y-121649842D01*
X150937282Y-122327560D01*
X149400000Y-122327560D01*
X149164683Y-122371838D01*
X148948559Y-122510910D01*
X148803569Y-122723110D01*
X148752560Y-122975000D01*
X148752560Y-124675000D01*
X148796838Y-124910317D01*
X148935910Y-125126441D01*
X149148110Y-125271431D01*
X149400000Y-125322440D01*
X151400000Y-125322440D01*
X151635317Y-125278162D01*
X151851441Y-125139090D01*
X151872748Y-125107906D01*
X159399921Y-132635079D01*
X159654593Y-132805245D01*
X159955000Y-132865000D01*
X164223960Y-132865000D01*
X164223960Y-132943600D01*
X164268238Y-133178917D01*
X164281805Y-133200000D01*
X158440158Y-133200000D01*
X154860079Y-129619921D01*
X154605407Y-129449755D01*
X154305000Y-129390000D01*
X147065158Y-129390000D01*
X142857017Y-125181859D01*
X142988110Y-125271431D01*
X143240000Y-125322440D01*
X145240000Y-125322440D01*
X145475317Y-125278162D01*
X145691441Y-125139090D01*
X145836431Y-124926890D01*
X145887440Y-124675000D01*
X145887440Y-122975000D01*
X145843162Y-122739683D01*
X145704090Y-122523559D01*
X145491890Y-122378569D01*
X145240000Y-122327560D01*
X145025000Y-122327560D01*
X145025000Y-121603863D01*
X145079838Y-121471799D01*
X145080162Y-121099833D01*
X144938117Y-120756057D01*
X144863940Y-120681750D01*
X148590000Y-120681750D01*
X148590000Y-121030309D01*
X148686673Y-121263698D01*
X148865301Y-121442327D01*
X149098690Y-121539000D01*
X149955250Y-121539000D01*
X150114000Y-121380250D01*
X150114000Y-120523000D01*
X148748750Y-120523000D01*
X148590000Y-120681750D01*
X144863940Y-120681750D01*
X144675327Y-120492808D01*
X144331799Y-120350162D01*
X143959833Y-120349838D01*
X143775002Y-120426208D01*
X143775002Y-119020003D01*
X143775003Y-119019998D01*
X143715247Y-118719592D01*
X143678823Y-118665079D01*
X143545081Y-118464919D01*
X143545078Y-118464917D01*
X142635083Y-117554921D01*
X142380411Y-117384755D01*
X142080004Y-117325000D01*
X141673340Y-117325000D01*
X141561090Y-117150559D01*
X141348890Y-117005569D01*
X141160686Y-116967457D01*
X141332317Y-116935162D01*
X141548441Y-116796090D01*
X141693431Y-116583890D01*
X141744440Y-116332000D01*
X141744440Y-116281200D01*
X145021560Y-116281200D01*
X145021560Y-119938800D01*
X145065838Y-120174117D01*
X145204910Y-120390241D01*
X145417110Y-120535231D01*
X145669000Y-120586240D01*
X147701000Y-120586240D01*
X147936317Y-120541962D01*
X148152441Y-120402890D01*
X148297431Y-120190690D01*
X148348440Y-119938800D01*
X148348440Y-116281200D01*
X148304162Y-116045883D01*
X148165090Y-115829759D01*
X147952890Y-115684769D01*
X147701000Y-115633760D01*
X145669000Y-115633760D01*
X145433683Y-115678038D01*
X145217559Y-115817110D01*
X145072569Y-116029310D01*
X145021560Y-116281200D01*
X141744440Y-116281200D01*
X141744440Y-115316000D01*
X141700162Y-115080683D01*
X141561090Y-114864559D01*
X141348890Y-114719569D01*
X141097000Y-114668560D01*
X141025000Y-114668560D01*
X141025000Y-113892440D01*
X141240000Y-113892440D01*
X141475317Y-113848162D01*
X141691441Y-113709090D01*
X141836431Y-113496890D01*
X141887440Y-113245000D01*
X141887440Y-111545000D01*
X141843162Y-111309683D01*
X141704090Y-111093559D01*
X141491890Y-110948569D01*
X141240000Y-110897560D01*
X139552596Y-110897560D01*
X140445156Y-110005000D01*
X142305000Y-110005000D01*
X142605407Y-109945245D01*
X142860079Y-109775079D01*
X144694459Y-107940699D01*
X144893110Y-108076431D01*
X145145000Y-108127440D01*
X147145000Y-108127440D01*
X147380317Y-108083162D01*
X147596441Y-107944090D01*
X147741431Y-107731890D01*
X147792440Y-107480000D01*
X147792440Y-105880000D01*
X147748162Y-105644683D01*
X147609090Y-105428559D01*
X147396890Y-105283569D01*
X147145000Y-105232560D01*
X146962000Y-105232560D01*
X146962000Y-104533440D01*
X147193000Y-104533440D01*
X147428317Y-104489162D01*
X147644441Y-104350090D01*
X147789431Y-104137890D01*
X147840440Y-103886000D01*
X147840440Y-102870000D01*
X147796162Y-102634683D01*
X147657090Y-102418559D01*
X147444890Y-102273569D01*
X147254431Y-102235000D01*
X147319310Y-102235000D01*
X147552699Y-102138327D01*
X147731327Y-101959698D01*
X147828000Y-101726309D01*
X147828000Y-101377750D01*
X147669250Y-101219000D01*
X146304000Y-101219000D01*
X146304000Y-101239000D01*
X146050000Y-101239000D01*
X146050000Y-101219000D01*
X144684750Y-101219000D01*
X144526000Y-101377750D01*
X144526000Y-101726309D01*
X144622673Y-101959698D01*
X144801301Y-102138327D01*
X145034690Y-102235000D01*
X145094887Y-102235000D01*
X144925683Y-102266838D01*
X144709559Y-102405910D01*
X144564569Y-102618110D01*
X144513560Y-102870000D01*
X144513560Y-103886000D01*
X144557838Y-104121317D01*
X144696910Y-104337441D01*
X144909110Y-104482431D01*
X145161000Y-104533440D01*
X145392000Y-104533440D01*
X145392000Y-105232560D01*
X145145000Y-105232560D01*
X144909683Y-105276838D01*
X144693559Y-105415910D01*
X144548569Y-105628110D01*
X144497560Y-105880000D01*
X144497560Y-105986182D01*
X144289921Y-106124921D01*
X143780000Y-106634842D01*
X143780000Y-106552998D01*
X143621252Y-106552998D01*
X143780000Y-106394250D01*
X143780000Y-105753690D01*
X143683327Y-105520301D01*
X143504698Y-105341673D01*
X143271309Y-105245000D01*
X142430750Y-105245000D01*
X142272000Y-105403750D01*
X142272000Y-106553000D01*
X142292000Y-106553000D01*
X142292000Y-106807000D01*
X142272000Y-106807000D01*
X142272000Y-107956250D01*
X142365296Y-108049546D01*
X141979842Y-108435000D01*
X140119998Y-108435000D01*
X139819592Y-108494755D01*
X139564919Y-108664921D01*
X137895000Y-110334840D01*
X137895000Y-106965750D01*
X140510000Y-106965750D01*
X140510000Y-107606310D01*
X140606673Y-107839699D01*
X140785302Y-108018327D01*
X141018691Y-108115000D01*
X141859250Y-108115000D01*
X142018000Y-107956250D01*
X142018000Y-106807000D01*
X140668750Y-106807000D01*
X140510000Y-106965750D01*
X137895000Y-106965750D01*
X137895000Y-105753690D01*
X140510000Y-105753690D01*
X140510000Y-106394250D01*
X140668750Y-106553000D01*
X142018000Y-106553000D01*
X142018000Y-105403750D01*
X141859250Y-105245000D01*
X141018691Y-105245000D01*
X140785302Y-105341673D01*
X140606673Y-105520301D01*
X140510000Y-105753690D01*
X137895000Y-105753690D01*
X137895000Y-101377750D01*
X137922000Y-101377750D01*
X137922000Y-103047109D01*
X138018673Y-103280498D01*
X138197301Y-103459127D01*
X138430690Y-103555800D01*
X139287250Y-103555800D01*
X139446000Y-103397050D01*
X139446000Y-101219000D01*
X139700000Y-101219000D01*
X139700000Y-103397050D01*
X139858750Y-103555800D01*
X140715310Y-103555800D01*
X140948699Y-103459127D01*
X141127327Y-103280498D01*
X141224000Y-103047109D01*
X141224000Y-101377750D01*
X141065250Y-101219000D01*
X139700000Y-101219000D01*
X139446000Y-101219000D01*
X138080750Y-101219000D01*
X137922000Y-101377750D01*
X137895000Y-101377750D01*
X137895000Y-99136891D01*
X137922000Y-99136891D01*
X137922000Y-100806250D01*
X138080750Y-100965000D01*
X139446000Y-100965000D01*
X139446000Y-98786950D01*
X139700000Y-98786950D01*
X139700000Y-100965000D01*
X141065250Y-100965000D01*
X141224000Y-100806250D01*
X141224000Y-99136891D01*
X141127327Y-98903502D01*
X140948699Y-98724873D01*
X140715310Y-98628200D01*
X139858750Y-98628200D01*
X139700000Y-98786950D01*
X139446000Y-98786950D01*
X139287250Y-98628200D01*
X138430690Y-98628200D01*
X138197301Y-98724873D01*
X138018673Y-98903502D01*
X137922000Y-99136891D01*
X137895000Y-99136891D01*
X137895000Y-95535750D01*
X140510000Y-95535750D01*
X140510000Y-96176310D01*
X140606673Y-96409699D01*
X140785302Y-96588327D01*
X141018691Y-96685000D01*
X141859250Y-96685000D01*
X142018000Y-96526250D01*
X142018000Y-95377000D01*
X142272000Y-95377000D01*
X142272000Y-96526250D01*
X142430750Y-96685000D01*
X143271309Y-96685000D01*
X143504698Y-96588327D01*
X143683327Y-96409699D01*
X143780000Y-96176310D01*
X143780000Y-95535750D01*
X143621250Y-95377000D01*
X142272000Y-95377000D01*
X142018000Y-95377000D01*
X140668750Y-95377000D01*
X140510000Y-95535750D01*
X137895000Y-95535750D01*
X137895000Y-94323690D01*
X140510000Y-94323690D01*
X140510000Y-94964250D01*
X140668750Y-95123000D01*
X142018000Y-95123000D01*
X142018000Y-93973750D01*
X142272000Y-93973750D01*
X142272000Y-95123000D01*
X143621250Y-95123000D01*
X143780000Y-94964250D01*
X143780000Y-94323690D01*
X143683327Y-94090301D01*
X143504698Y-93911673D01*
X143271309Y-93815000D01*
X142430750Y-93815000D01*
X142272000Y-93973750D01*
X142018000Y-93973750D01*
X141859250Y-93815000D01*
X141018691Y-93815000D01*
X140785302Y-93911673D01*
X140606673Y-94090301D01*
X140510000Y-94323690D01*
X137895000Y-94323690D01*
X137895000Y-83760158D01*
X139144921Y-85010079D01*
X139399593Y-85180245D01*
X139550000Y-85210163D01*
X139550000Y-85305000D01*
X139601941Y-85566124D01*
X139423559Y-85680910D01*
X139278569Y-85893110D01*
X139227560Y-86145000D01*
X139227560Y-87845000D01*
X139271838Y-88080317D01*
X139410910Y-88296441D01*
X139623110Y-88441431D01*
X139875000Y-88492440D01*
X141540001Y-88492440D01*
X141540001Y-88544841D01*
X141412282Y-88672560D01*
X139875000Y-88672560D01*
X139639683Y-88716838D01*
X139423559Y-88855910D01*
X139278569Y-89068110D01*
X139227560Y-89320000D01*
X139227560Y-91020000D01*
X139271838Y-91255317D01*
X139410910Y-91471441D01*
X139623110Y-91616431D01*
X139875000Y-91667440D01*
X141412283Y-91667440D01*
X141455000Y-91710157D01*
X141455000Y-92299494D01*
X141447808Y-92306673D01*
X141305162Y-92650201D01*
X141304838Y-93022167D01*
X141446883Y-93365943D01*
X141709673Y-93629192D01*
X142053201Y-93771838D01*
X142425167Y-93772162D01*
X142768943Y-93630117D01*
X143032192Y-93367327D01*
X143174838Y-93023799D01*
X143175162Y-92651833D01*
X143033117Y-92308057D01*
X143025000Y-92299926D01*
X143025000Y-91385000D01*
X142965245Y-91084594D01*
X142795079Y-90829921D01*
X142795076Y-90829919D01*
X142522440Y-90557283D01*
X142522440Y-89782718D01*
X142880080Y-89425078D01*
X143050246Y-89170406D01*
X143110001Y-88869999D01*
X143110001Y-84239233D01*
X143110002Y-84239228D01*
X143050246Y-83938822D01*
X142974395Y-83825302D01*
X142880080Y-83684149D01*
X142880077Y-83684147D01*
X141825852Y-82629921D01*
X141571180Y-82459755D01*
X141270773Y-82400000D01*
X140025158Y-82400000D01*
X139850000Y-82224842D01*
X139850000Y-71445158D01*
X140343157Y-70952000D01*
X140534788Y-70952000D01*
X140570149Y-71004922D01*
X140570149Y-71004922D01*
G37*
X140570149Y-71004922D02*
X140812717Y-71167000D01*
X140570149Y-71329078D01*
X140313274Y-71713520D01*
X140223071Y-72167000D01*
X140313274Y-72620480D01*
X140570149Y-73004922D01*
X140812717Y-73167000D01*
X140570149Y-73329078D01*
X140313274Y-73713520D01*
X140223071Y-74167000D01*
X140313274Y-74620480D01*
X140570149Y-75004922D01*
X140812717Y-75167000D01*
X140570149Y-75329078D01*
X140313274Y-75713520D01*
X140223071Y-76167000D01*
X140313274Y-76620480D01*
X140570149Y-77004922D01*
X140812717Y-77167000D01*
X140570149Y-77329078D01*
X140313274Y-77713520D01*
X140223071Y-78167000D01*
X140313274Y-78620480D01*
X140570149Y-79004922D01*
X140812717Y-79167000D01*
X140570149Y-79329078D01*
X140313274Y-79713520D01*
X140223071Y-80167000D01*
X140313274Y-80620480D01*
X140570149Y-81004922D01*
X140954591Y-81261797D01*
X141408071Y-81352000D01*
X142881929Y-81352000D01*
X142913552Y-81345710D01*
X144090000Y-82522157D01*
X144090000Y-85497560D01*
X143875000Y-85497560D01*
X143639683Y-85541838D01*
X143423559Y-85680910D01*
X143278569Y-85893110D01*
X143227560Y-86145000D01*
X143227560Y-87845000D01*
X143271838Y-88080317D01*
X143410910Y-88296441D01*
X143623110Y-88441431D01*
X143875000Y-88492440D01*
X144090000Y-88492440D01*
X144090000Y-88672560D01*
X143875000Y-88672560D01*
X143639683Y-88716838D01*
X143423559Y-88855910D01*
X143278569Y-89068110D01*
X143227560Y-89320000D01*
X143227560Y-91020000D01*
X143271838Y-91255317D01*
X143410910Y-91471441D01*
X143623110Y-91616431D01*
X143875000Y-91667440D01*
X144090000Y-91667440D01*
X144090000Y-93859181D01*
X144060000Y-94010000D01*
X144060000Y-94150000D01*
X144119755Y-94450407D01*
X144289921Y-94705079D01*
X144497560Y-94912718D01*
X144497560Y-96050000D01*
X144541838Y-96285317D01*
X144680910Y-96501441D01*
X144893110Y-96646431D01*
X145145000Y-96697440D01*
X145360000Y-96697440D01*
X145360000Y-97650560D01*
X145161000Y-97650560D01*
X144925683Y-97694838D01*
X144709559Y-97833910D01*
X144564569Y-98046110D01*
X144513560Y-98298000D01*
X144513560Y-99314000D01*
X144557838Y-99549317D01*
X144696910Y-99765441D01*
X144909110Y-99910431D01*
X145099569Y-99949000D01*
X145034690Y-99949000D01*
X144801301Y-100045673D01*
X144622673Y-100224302D01*
X144526000Y-100457691D01*
X144526000Y-100806250D01*
X144684750Y-100965000D01*
X146050000Y-100965000D01*
X146050000Y-100945000D01*
X146304000Y-100945000D01*
X146304000Y-100965000D01*
X147669250Y-100965000D01*
X147828000Y-100806250D01*
X147828000Y-100457691D01*
X147731327Y-100224302D01*
X147552699Y-100045673D01*
X147319310Y-99949000D01*
X147259113Y-99949000D01*
X147428317Y-99917162D01*
X147644441Y-99778090D01*
X147789431Y-99565890D01*
X147840440Y-99314000D01*
X147840440Y-98298000D01*
X147796162Y-98062683D01*
X147657090Y-97846559D01*
X147444890Y-97701569D01*
X147193000Y-97650560D01*
X146930000Y-97650560D01*
X146930000Y-96697440D01*
X147145000Y-96697440D01*
X147380317Y-96653162D01*
X147596441Y-96514090D01*
X147741431Y-96301890D01*
X147792440Y-96050000D01*
X147792440Y-94450000D01*
X147748162Y-94214683D01*
X147609090Y-93998559D01*
X147396890Y-93853569D01*
X147145000Y-93802560D01*
X145660000Y-93802560D01*
X145660000Y-91667440D01*
X145875000Y-91667440D01*
X146110317Y-91623162D01*
X146326441Y-91484090D01*
X146471431Y-91271890D01*
X146522440Y-91020000D01*
X146522440Y-89320000D01*
X146478162Y-89084683D01*
X146339090Y-88868559D01*
X146126890Y-88723569D01*
X145875000Y-88672560D01*
X145660000Y-88672560D01*
X145660000Y-88492440D01*
X145875000Y-88492440D01*
X146110317Y-88448162D01*
X146326441Y-88309090D01*
X146471431Y-88096890D01*
X146522440Y-87845000D01*
X146522440Y-86145000D01*
X146502967Y-86041510D01*
X146535000Y-86028274D01*
X146535000Y-88265000D01*
X146594755Y-88565407D01*
X146764921Y-88820079D01*
X149710000Y-91765158D01*
X149710000Y-108259842D01*
X146359842Y-111610000D01*
X145887440Y-111610000D01*
X145887440Y-111545000D01*
X145843162Y-111309683D01*
X145704090Y-111093559D01*
X145491890Y-110948569D01*
X145240000Y-110897560D01*
X143240000Y-110897560D01*
X143004683Y-110941838D01*
X142788559Y-111080910D01*
X142643569Y-111293110D01*
X142592560Y-111545000D01*
X142592560Y-113245000D01*
X142636838Y-113480317D01*
X142775910Y-113696441D01*
X142988110Y-113841431D01*
X143240000Y-113892440D01*
X145240000Y-113892440D01*
X145475317Y-113848162D01*
X145691441Y-113709090D01*
X145836431Y-113496890D01*
X145887440Y-113245000D01*
X145887440Y-113180000D01*
X146685000Y-113180000D01*
X146985407Y-113120245D01*
X147240079Y-112950079D01*
X148779832Y-111410326D01*
X148752560Y-111545000D01*
X148752560Y-113245000D01*
X148796838Y-113480317D01*
X148935910Y-113696441D01*
X149148110Y-113841431D01*
X149400000Y-113892440D01*
X149615000Y-113892440D01*
X149615000Y-114668560D01*
X149225000Y-114668560D01*
X148989683Y-114712838D01*
X148773559Y-114851910D01*
X148628569Y-115064110D01*
X148577560Y-115316000D01*
X148577560Y-116332000D01*
X148621838Y-116567317D01*
X148760910Y-116783441D01*
X148973110Y-116928431D01*
X149161314Y-116966543D01*
X148989683Y-116998838D01*
X148773559Y-117137910D01*
X148628569Y-117350110D01*
X148577560Y-117602000D01*
X148577560Y-118618000D01*
X148621838Y-118853317D01*
X148760910Y-119069441D01*
X148973110Y-119214431D01*
X149163569Y-119253000D01*
X149098690Y-119253000D01*
X148865301Y-119349673D01*
X148686673Y-119528302D01*
X148590000Y-119761691D01*
X148590000Y-120110250D01*
X148748750Y-120269000D01*
X150114000Y-120269000D01*
X150114000Y-120249000D01*
X150368000Y-120249000D01*
X150368000Y-120269000D01*
X150388000Y-120269000D01*
X150388000Y-120523000D01*
X150368000Y-120523000D01*
X150368000Y-121380250D01*
X150526750Y-121539000D01*
X151383310Y-121539000D01*
X151615000Y-121443031D01*
X151615000Y-121649842D01*
X150937282Y-122327560D01*
X149400000Y-122327560D01*
X149164683Y-122371838D01*
X148948559Y-122510910D01*
X148803569Y-122723110D01*
X148752560Y-122975000D01*
X148752560Y-124675000D01*
X148796838Y-124910317D01*
X148935910Y-125126441D01*
X149148110Y-125271431D01*
X149400000Y-125322440D01*
X151400000Y-125322440D01*
X151635317Y-125278162D01*
X151851441Y-125139090D01*
X151872748Y-125107906D01*
X159399921Y-132635079D01*
X159654593Y-132805245D01*
X159955000Y-132865000D01*
X164223960Y-132865000D01*
X164223960Y-132943600D01*
X164268238Y-133178917D01*
X164281805Y-133200000D01*
X158440158Y-133200000D01*
X154860079Y-129619921D01*
X154605407Y-129449755D01*
X154305000Y-129390000D01*
X147065158Y-129390000D01*
X142857017Y-125181859D01*
X142988110Y-125271431D01*
X143240000Y-125322440D01*
X145240000Y-125322440D01*
X145475317Y-125278162D01*
X145691441Y-125139090D01*
X145836431Y-124926890D01*
X145887440Y-124675000D01*
X145887440Y-122975000D01*
X145843162Y-122739683D01*
X145704090Y-122523559D01*
X145491890Y-122378569D01*
X145240000Y-122327560D01*
X145025000Y-122327560D01*
X145025000Y-121603863D01*
X145079838Y-121471799D01*
X145080162Y-121099833D01*
X144938117Y-120756057D01*
X144863940Y-120681750D01*
X148590000Y-120681750D01*
X148590000Y-121030309D01*
X148686673Y-121263698D01*
X148865301Y-121442327D01*
X149098690Y-121539000D01*
X149955250Y-121539000D01*
X150114000Y-121380250D01*
X150114000Y-120523000D01*
X148748750Y-120523000D01*
X148590000Y-120681750D01*
X144863940Y-120681750D01*
X144675327Y-120492808D01*
X144331799Y-120350162D01*
X143959833Y-120349838D01*
X143775002Y-120426208D01*
X143775002Y-119020003D01*
X143775003Y-119019998D01*
X143715247Y-118719592D01*
X143678823Y-118665079D01*
X143545081Y-118464919D01*
X143545078Y-118464917D01*
X142635083Y-117554921D01*
X142380411Y-117384755D01*
X142080004Y-117325000D01*
X141673340Y-117325000D01*
X141561090Y-117150559D01*
X141348890Y-117005569D01*
X141160686Y-116967457D01*
X141332317Y-116935162D01*
X141548441Y-116796090D01*
X141693431Y-116583890D01*
X141744440Y-116332000D01*
X141744440Y-116281200D01*
X145021560Y-116281200D01*
X145021560Y-119938800D01*
X145065838Y-120174117D01*
X145204910Y-120390241D01*
X145417110Y-120535231D01*
X145669000Y-120586240D01*
X147701000Y-120586240D01*
X147936317Y-120541962D01*
X148152441Y-120402890D01*
X148297431Y-120190690D01*
X148348440Y-119938800D01*
X148348440Y-116281200D01*
X148304162Y-116045883D01*
X148165090Y-115829759D01*
X147952890Y-115684769D01*
X147701000Y-115633760D01*
X145669000Y-115633760D01*
X145433683Y-115678038D01*
X145217559Y-115817110D01*
X145072569Y-116029310D01*
X145021560Y-116281200D01*
X141744440Y-116281200D01*
X141744440Y-115316000D01*
X141700162Y-115080683D01*
X141561090Y-114864559D01*
X141348890Y-114719569D01*
X141097000Y-114668560D01*
X141025000Y-114668560D01*
X141025000Y-113892440D01*
X141240000Y-113892440D01*
X141475317Y-113848162D01*
X141691441Y-113709090D01*
X141836431Y-113496890D01*
X141887440Y-113245000D01*
X141887440Y-111545000D01*
X141843162Y-111309683D01*
X141704090Y-111093559D01*
X141491890Y-110948569D01*
X141240000Y-110897560D01*
X139552596Y-110897560D01*
X140445156Y-110005000D01*
X142305000Y-110005000D01*
X142605407Y-109945245D01*
X142860079Y-109775079D01*
X144694459Y-107940699D01*
X144893110Y-108076431D01*
X145145000Y-108127440D01*
X147145000Y-108127440D01*
X147380317Y-108083162D01*
X147596441Y-107944090D01*
X147741431Y-107731890D01*
X147792440Y-107480000D01*
X147792440Y-105880000D01*
X147748162Y-105644683D01*
X147609090Y-105428559D01*
X147396890Y-105283569D01*
X147145000Y-105232560D01*
X146962000Y-105232560D01*
X146962000Y-104533440D01*
X147193000Y-104533440D01*
X147428317Y-104489162D01*
X147644441Y-104350090D01*
X147789431Y-104137890D01*
X147840440Y-103886000D01*
X147840440Y-102870000D01*
X147796162Y-102634683D01*
X147657090Y-102418559D01*
X147444890Y-102273569D01*
X147254431Y-102235000D01*
X147319310Y-102235000D01*
X147552699Y-102138327D01*
X147731327Y-101959698D01*
X147828000Y-101726309D01*
X147828000Y-101377750D01*
X147669250Y-101219000D01*
X146304000Y-101219000D01*
X146304000Y-101239000D01*
X146050000Y-101239000D01*
X146050000Y-101219000D01*
X144684750Y-101219000D01*
X144526000Y-101377750D01*
X144526000Y-101726309D01*
X144622673Y-101959698D01*
X144801301Y-102138327D01*
X145034690Y-102235000D01*
X145094887Y-102235000D01*
X144925683Y-102266838D01*
X144709559Y-102405910D01*
X144564569Y-102618110D01*
X144513560Y-102870000D01*
X144513560Y-103886000D01*
X144557838Y-104121317D01*
X144696910Y-104337441D01*
X144909110Y-104482431D01*
X145161000Y-104533440D01*
X145392000Y-104533440D01*
X145392000Y-105232560D01*
X145145000Y-105232560D01*
X144909683Y-105276838D01*
X144693559Y-105415910D01*
X144548569Y-105628110D01*
X144497560Y-105880000D01*
X144497560Y-105986182D01*
X144289921Y-106124921D01*
X143780000Y-106634842D01*
X143780000Y-106552998D01*
X143621252Y-106552998D01*
X143780000Y-106394250D01*
X143780000Y-105753690D01*
X143683327Y-105520301D01*
X143504698Y-105341673D01*
X143271309Y-105245000D01*
X142430750Y-105245000D01*
X142272000Y-105403750D01*
X142272000Y-106553000D01*
X142292000Y-106553000D01*
X142292000Y-106807000D01*
X142272000Y-106807000D01*
X142272000Y-107956250D01*
X142365296Y-108049546D01*
X141979842Y-108435000D01*
X140119998Y-108435000D01*
X139819592Y-108494755D01*
X139564919Y-108664921D01*
X137895000Y-110334840D01*
X137895000Y-106965750D01*
X140510000Y-106965750D01*
X140510000Y-107606310D01*
X140606673Y-107839699D01*
X140785302Y-108018327D01*
X141018691Y-108115000D01*
X141859250Y-108115000D01*
X142018000Y-107956250D01*
X142018000Y-106807000D01*
X140668750Y-106807000D01*
X140510000Y-106965750D01*
X137895000Y-106965750D01*
X137895000Y-105753690D01*
X140510000Y-105753690D01*
X140510000Y-106394250D01*
X140668750Y-106553000D01*
X142018000Y-106553000D01*
X142018000Y-105403750D01*
X141859250Y-105245000D01*
X141018691Y-105245000D01*
X140785302Y-105341673D01*
X140606673Y-105520301D01*
X140510000Y-105753690D01*
X137895000Y-105753690D01*
X137895000Y-101377750D01*
X137922000Y-101377750D01*
X137922000Y-103047109D01*
X138018673Y-103280498D01*
X138197301Y-103459127D01*
X138430690Y-103555800D01*
X139287250Y-103555800D01*
X139446000Y-103397050D01*
X139446000Y-101219000D01*
X139700000Y-101219000D01*
X139700000Y-103397050D01*
X139858750Y-103555800D01*
X140715310Y-103555800D01*
X140948699Y-103459127D01*
X141127327Y-103280498D01*
X141224000Y-103047109D01*
X141224000Y-101377750D01*
X141065250Y-101219000D01*
X139700000Y-101219000D01*
X139446000Y-101219000D01*
X138080750Y-101219000D01*
X137922000Y-101377750D01*
X137895000Y-101377750D01*
X137895000Y-99136891D01*
X137922000Y-99136891D01*
X137922000Y-100806250D01*
X138080750Y-100965000D01*
X139446000Y-100965000D01*
X139446000Y-98786950D01*
X139700000Y-98786950D01*
X139700000Y-100965000D01*
X141065250Y-100965000D01*
X141224000Y-100806250D01*
X141224000Y-99136891D01*
X141127327Y-98903502D01*
X140948699Y-98724873D01*
X140715310Y-98628200D01*
X139858750Y-98628200D01*
X139700000Y-98786950D01*
X139446000Y-98786950D01*
X139287250Y-98628200D01*
X138430690Y-98628200D01*
X138197301Y-98724873D01*
X138018673Y-98903502D01*
X137922000Y-99136891D01*
X137895000Y-99136891D01*
X137895000Y-95535750D01*
X140510000Y-95535750D01*
X140510000Y-96176310D01*
X140606673Y-96409699D01*
X140785302Y-96588327D01*
X141018691Y-96685000D01*
X141859250Y-96685000D01*
X142018000Y-96526250D01*
X142018000Y-95377000D01*
X142272000Y-95377000D01*
X142272000Y-96526250D01*
X142430750Y-96685000D01*
X143271309Y-96685000D01*
X143504698Y-96588327D01*
X143683327Y-96409699D01*
X143780000Y-96176310D01*
X143780000Y-95535750D01*
X143621250Y-95377000D01*
X142272000Y-95377000D01*
X142018000Y-95377000D01*
X140668750Y-95377000D01*
X140510000Y-95535750D01*
X137895000Y-95535750D01*
X137895000Y-94323690D01*
X140510000Y-94323690D01*
X140510000Y-94964250D01*
X140668750Y-95123000D01*
X142018000Y-95123000D01*
X142018000Y-93973750D01*
X142272000Y-93973750D01*
X142272000Y-95123000D01*
X143621250Y-95123000D01*
X143780000Y-94964250D01*
X143780000Y-94323690D01*
X143683327Y-94090301D01*
X143504698Y-93911673D01*
X143271309Y-93815000D01*
X142430750Y-93815000D01*
X142272000Y-93973750D01*
X142018000Y-93973750D01*
X141859250Y-93815000D01*
X141018691Y-93815000D01*
X140785302Y-93911673D01*
X140606673Y-94090301D01*
X140510000Y-94323690D01*
X137895000Y-94323690D01*
X137895000Y-83760158D01*
X139144921Y-85010079D01*
X139399593Y-85180245D01*
X139550000Y-85210163D01*
X139550000Y-85305000D01*
X139601941Y-85566124D01*
X139423559Y-85680910D01*
X139278569Y-85893110D01*
X139227560Y-86145000D01*
X139227560Y-87845000D01*
X139271838Y-88080317D01*
X139410910Y-88296441D01*
X139623110Y-88441431D01*
X139875000Y-88492440D01*
X141540001Y-88492440D01*
X141540001Y-88544841D01*
X141412282Y-88672560D01*
X139875000Y-88672560D01*
X139639683Y-88716838D01*
X139423559Y-88855910D01*
X139278569Y-89068110D01*
X139227560Y-89320000D01*
X139227560Y-91020000D01*
X139271838Y-91255317D01*
X139410910Y-91471441D01*
X139623110Y-91616431D01*
X139875000Y-91667440D01*
X141412283Y-91667440D01*
X141455000Y-91710157D01*
X141455000Y-92299494D01*
X141447808Y-92306673D01*
X141305162Y-92650201D01*
X141304838Y-93022167D01*
X141446883Y-93365943D01*
X141709673Y-93629192D01*
X142053201Y-93771838D01*
X142425167Y-93772162D01*
X142768943Y-93630117D01*
X143032192Y-93367327D01*
X143174838Y-93023799D01*
X143175162Y-92651833D01*
X143033117Y-92308057D01*
X143025000Y-92299926D01*
X143025000Y-91385000D01*
X142965245Y-91084594D01*
X142795079Y-90829921D01*
X142795076Y-90829919D01*
X142522440Y-90557283D01*
X142522440Y-89782718D01*
X142880080Y-89425078D01*
X143050246Y-89170406D01*
X143110001Y-88869999D01*
X143110001Y-84239233D01*
X143110002Y-84239228D01*
X143050246Y-83938822D01*
X142974395Y-83825302D01*
X142880080Y-83684149D01*
X142880077Y-83684147D01*
X141825852Y-82629921D01*
X141571180Y-82459755D01*
X141270773Y-82400000D01*
X140025158Y-82400000D01*
X139850000Y-82224842D01*
X139850000Y-71445158D01*
X140343157Y-70952000D01*
X140534788Y-70952000D01*
X140570149Y-71004922D01*
G36*
X178970000Y-110284842D02*
X176698625Y-108013467D01*
X176806441Y-107944090D01*
X176951431Y-107731890D01*
X177002440Y-107480000D01*
X177002440Y-105880000D01*
X176958162Y-105644683D01*
X176819090Y-105428559D01*
X176606890Y-105283569D01*
X176355000Y-105232560D01*
X176299000Y-105232560D01*
X176299000Y-104406440D01*
X176530000Y-104406440D01*
X176765317Y-104362162D01*
X176981441Y-104223090D01*
X177126431Y-104010890D01*
X177177440Y-103759000D01*
X177177440Y-102743000D01*
X177133162Y-102507683D01*
X176994090Y-102291559D01*
X176781890Y-102146569D01*
X176591431Y-102108000D01*
X176656310Y-102108000D01*
X176889699Y-102011327D01*
X177068327Y-101832698D01*
X177165000Y-101599309D01*
X177165000Y-101250750D01*
X177006250Y-101092000D01*
X175641000Y-101092000D01*
X175641000Y-101112000D01*
X175387000Y-101112000D01*
X175387000Y-101092000D01*
X174021750Y-101092000D01*
X173863000Y-101250750D01*
X173863000Y-101599309D01*
X173959673Y-101832698D01*
X174138301Y-102011327D01*
X174371690Y-102108000D01*
X174431887Y-102108000D01*
X174262683Y-102139838D01*
X174046559Y-102278910D01*
X173901569Y-102491110D01*
X173850560Y-102743000D01*
X173850560Y-103759000D01*
X173894838Y-103994317D01*
X174033910Y-104210441D01*
X174246110Y-104355431D01*
X174498000Y-104406440D01*
X174729000Y-104406440D01*
X174729000Y-105232560D01*
X174355000Y-105232560D01*
X174119683Y-105276838D01*
X173903559Y-105415910D01*
X173758569Y-105628110D01*
X173707560Y-105880000D01*
X173707560Y-107480000D01*
X173751838Y-107715317D01*
X173890910Y-107931441D01*
X174103110Y-108076431D01*
X174355000Y-108127440D01*
X174661181Y-108127440D01*
X174799921Y-108335079D01*
X178285000Y-111820158D01*
X178285000Y-115633760D01*
X176276000Y-115633760D01*
X176040683Y-115678038D01*
X175824559Y-115817110D01*
X175679569Y-116029310D01*
X175628560Y-116281200D01*
X175628560Y-119938800D01*
X175672838Y-120174117D01*
X175811910Y-120390241D01*
X176024110Y-120535231D01*
X176276000Y-120586240D01*
X178285000Y-120586240D01*
X178285000Y-131372514D01*
X177993601Y-131663913D01*
X177993601Y-127463601D01*
X177933846Y-127163195D01*
X177933846Y-127163194D01*
X177763680Y-126908522D01*
X176063625Y-125208467D01*
X176171441Y-125139090D01*
X176316431Y-124926890D01*
X176367440Y-124675000D01*
X176367440Y-122975000D01*
X176323162Y-122739683D01*
X176184090Y-122523559D01*
X175971890Y-122378569D01*
X175720000Y-122327560D01*
X175505000Y-122327560D01*
X175505000Y-121603863D01*
X175559838Y-121471799D01*
X175560162Y-121099833D01*
X175418117Y-120756057D01*
X175155327Y-120492808D01*
X174811799Y-120350162D01*
X174439833Y-120349838D01*
X174096057Y-120491883D01*
X173832808Y-120754673D01*
X173690162Y-121098201D01*
X173689838Y-121470167D01*
X173831883Y-121813943D01*
X173935000Y-121917240D01*
X173935000Y-122327560D01*
X173720000Y-122327560D01*
X173505000Y-122368015D01*
X173505000Y-119634000D01*
X173445245Y-119333594D01*
X173275079Y-119078921D01*
X173275076Y-119078919D01*
X172351440Y-118155282D01*
X172351440Y-117602000D01*
X172307162Y-117366683D01*
X172168090Y-117150559D01*
X171955890Y-117005569D01*
X171767686Y-116967457D01*
X171939317Y-116935162D01*
X172155441Y-116796090D01*
X172300431Y-116583890D01*
X172351440Y-116332000D01*
X172351440Y-115316000D01*
X172307162Y-115080683D01*
X172168090Y-114864559D01*
X171955890Y-114719569D01*
X171704000Y-114668560D01*
X171505000Y-114668560D01*
X171505000Y-113892440D01*
X171720000Y-113892440D01*
X171955317Y-113848162D01*
X172171441Y-113709090D01*
X172316431Y-113496890D01*
X172367440Y-113245000D01*
X172367440Y-111545000D01*
X172323162Y-111309683D01*
X172230456Y-111165614D01*
X173072560Y-112007718D01*
X173072560Y-113245000D01*
X173116838Y-113480317D01*
X173255910Y-113696441D01*
X173468110Y-113841431D01*
X173720000Y-113892440D01*
X175720000Y-113892440D01*
X175955317Y-113848162D01*
X176171441Y-113709090D01*
X176316431Y-113496890D01*
X176367440Y-113245000D01*
X176367440Y-111545000D01*
X176323162Y-111309683D01*
X176184090Y-111093559D01*
X175971890Y-110948569D01*
X175720000Y-110897560D01*
X174182718Y-110897560D01*
X172585079Y-109299921D01*
X172330407Y-109129755D01*
X172298579Y-109123424D01*
X171179703Y-108004547D01*
X171228000Y-107956250D01*
X171228000Y-106807000D01*
X171482000Y-106807000D01*
X171482000Y-107956250D01*
X171640750Y-108115000D01*
X172481309Y-108115000D01*
X172714698Y-108018327D01*
X172893327Y-107839699D01*
X172990000Y-107606310D01*
X172990000Y-106965750D01*
X172831250Y-106807000D01*
X171482000Y-106807000D01*
X171228000Y-106807000D01*
X171208000Y-106807000D01*
X171208000Y-106553000D01*
X171228000Y-106553000D01*
X171228000Y-105403750D01*
X171482000Y-105403750D01*
X171482000Y-106553000D01*
X172831250Y-106553000D01*
X172990000Y-106394250D01*
X172990000Y-105753690D01*
X172893327Y-105520301D01*
X172714698Y-105341673D01*
X172481309Y-105245000D01*
X171640750Y-105245000D01*
X171482000Y-105403750D01*
X171228000Y-105403750D01*
X171069250Y-105245000D01*
X170228691Y-105245000D01*
X169995302Y-105341673D01*
X169816673Y-105520301D01*
X169720000Y-105753690D01*
X169720000Y-106394250D01*
X169878748Y-106552998D01*
X169728154Y-106552998D01*
X168228999Y-105053843D01*
X168228999Y-103428800D01*
X168624250Y-103428800D01*
X168783000Y-103270050D01*
X168783000Y-101092000D01*
X169037000Y-101092000D01*
X169037000Y-103270050D01*
X169195750Y-103428800D01*
X170052310Y-103428800D01*
X170285699Y-103332127D01*
X170464327Y-103153498D01*
X170561000Y-102920109D01*
X170561000Y-101250750D01*
X170402250Y-101092000D01*
X169037000Y-101092000D01*
X168783000Y-101092000D01*
X168763000Y-101092000D01*
X168763000Y-100838000D01*
X168783000Y-100838000D01*
X168783000Y-98659950D01*
X169037000Y-98659950D01*
X169037000Y-100838000D01*
X170402250Y-100838000D01*
X170561000Y-100679250D01*
X170561000Y-99009891D01*
X170464327Y-98776502D01*
X170285699Y-98597873D01*
X170052310Y-98501200D01*
X169195750Y-98501200D01*
X169037000Y-98659950D01*
X168783000Y-98659950D01*
X168624250Y-98501200D01*
X168228999Y-98501200D01*
X168228999Y-94510454D01*
X168216974Y-94450000D01*
X169707560Y-94450000D01*
X169707560Y-96050000D01*
X169751838Y-96285317D01*
X169890910Y-96501441D01*
X170103110Y-96646431D01*
X170355000Y-96697440D01*
X170661181Y-96697440D01*
X170799921Y-96905079D01*
X171329842Y-97435000D01*
X171274995Y-97489847D01*
X171264833Y-97489838D01*
X170921057Y-97631883D01*
X170657808Y-97894673D01*
X170515162Y-98238201D01*
X170514838Y-98610167D01*
X170656883Y-98953943D01*
X170919673Y-99217192D01*
X171263201Y-99359838D01*
X171635167Y-99360162D01*
X171978943Y-99218117D01*
X172242192Y-98955327D01*
X172384838Y-98611799D01*
X172384848Y-98600310D01*
X172440000Y-98545158D01*
X173128921Y-99234079D01*
X173383594Y-99404245D01*
X173684000Y-99464000D01*
X173921660Y-99464000D01*
X174033910Y-99638441D01*
X174246110Y-99783431D01*
X174436569Y-99822000D01*
X174371690Y-99822000D01*
X174138301Y-99918673D01*
X173959673Y-100097302D01*
X173863000Y-100330691D01*
X173863000Y-100679250D01*
X174021750Y-100838000D01*
X175387000Y-100838000D01*
X175387000Y-100818000D01*
X175641000Y-100818000D01*
X175641000Y-100838000D01*
X177006250Y-100838000D01*
X177165000Y-100679250D01*
X177165000Y-100330691D01*
X177068327Y-100097302D01*
X176889699Y-99918673D01*
X176656310Y-99822000D01*
X176596113Y-99822000D01*
X176765317Y-99790162D01*
X176981441Y-99651090D01*
X177126431Y-99438890D01*
X177177440Y-99187000D01*
X177177440Y-98171000D01*
X177133162Y-97935683D01*
X176994090Y-97719559D01*
X176781890Y-97574569D01*
X176530000Y-97523560D01*
X174498000Y-97523560D01*
X174262683Y-97567838D01*
X174046559Y-97706910D01*
X173955434Y-97840276D01*
X173275079Y-97159921D01*
X173275076Y-97159919D01*
X172698625Y-96583468D01*
X172806441Y-96514090D01*
X172951431Y-96301890D01*
X173002440Y-96050000D01*
X173002440Y-95535750D01*
X173720000Y-95535750D01*
X173720000Y-96176310D01*
X173816673Y-96409699D01*
X173995302Y-96588327D01*
X174228691Y-96685000D01*
X175069250Y-96685000D01*
X175228000Y-96526250D01*
X175228000Y-95377000D01*
X175482000Y-95377000D01*
X175482000Y-96526250D01*
X175640750Y-96685000D01*
X176481309Y-96685000D01*
X176714698Y-96588327D01*
X176893327Y-96409699D01*
X176990000Y-96176310D01*
X176990000Y-95535750D01*
X176831250Y-95377000D01*
X175482000Y-95377000D01*
X175228000Y-95377000D01*
X173878750Y-95377000D01*
X173720000Y-95535750D01*
X173002440Y-95535750D01*
X173002440Y-94450000D01*
X172978674Y-94323690D01*
X173720000Y-94323690D01*
X173720000Y-94964250D01*
X173878750Y-95123000D01*
X175228000Y-95123000D01*
X175228000Y-93973750D01*
X175482000Y-93973750D01*
X175482000Y-95123000D01*
X176831250Y-95123000D01*
X176990000Y-94964250D01*
X176990000Y-94323690D01*
X176893327Y-94090301D01*
X176714698Y-93911673D01*
X176481309Y-93815000D01*
X175640750Y-93815000D01*
X175482000Y-93973750D01*
X175228000Y-93973750D01*
X175069250Y-93815000D01*
X174228691Y-93815000D01*
X173995302Y-93911673D01*
X173816673Y-94090301D01*
X173720000Y-94323690D01*
X172978674Y-94323690D01*
X172958162Y-94214683D01*
X172819090Y-93998559D01*
X172606890Y-93853569D01*
X172355000Y-93802560D01*
X170355000Y-93802560D01*
X170119683Y-93846838D01*
X169903559Y-93985910D01*
X169758569Y-94198110D01*
X169707560Y-94450000D01*
X168216974Y-94450000D01*
X168189207Y-94310407D01*
X168169244Y-94210047D01*
X167999078Y-93955375D01*
X160803608Y-86759905D01*
X160948690Y-86820000D01*
X161639250Y-86820000D01*
X161798000Y-86661250D01*
X161798000Y-85312000D01*
X162052000Y-85312000D01*
X162052000Y-86661250D01*
X162210750Y-86820000D01*
X162901310Y-86820000D01*
X163134699Y-86723327D01*
X163313327Y-86544698D01*
X163410000Y-86311309D01*
X163410000Y-85470750D01*
X163341417Y-85402167D01*
X163910838Y-85402167D01*
X164052883Y-85745943D01*
X164315673Y-86009192D01*
X164659201Y-86151838D01*
X165031167Y-86152162D01*
X165374943Y-86010117D01*
X165383074Y-86002000D01*
X165798000Y-86002000D01*
X166098407Y-85942245D01*
X166353079Y-85772079D01*
X170275000Y-81850158D01*
X174624860Y-86200018D01*
X174624860Y-86872492D01*
X174611030Y-86872492D01*
X174375713Y-86916770D01*
X174159589Y-87055842D01*
X174014599Y-87268042D01*
X173990970Y-87384728D01*
X173972132Y-87284615D01*
X173833060Y-87068491D01*
X173620860Y-86923501D01*
X173368970Y-86872492D01*
X171771310Y-86872492D01*
X171535993Y-86916770D01*
X171319869Y-87055842D01*
X171174879Y-87268042D01*
X171123870Y-87519932D01*
X171123870Y-89320792D01*
X171168148Y-89556109D01*
X171307220Y-89772233D01*
X171346067Y-89798776D01*
X170799921Y-90344921D01*
X170644477Y-90577560D01*
X170355000Y-90577560D01*
X170119683Y-90621838D01*
X169903559Y-90760910D01*
X169758569Y-90973110D01*
X169707560Y-91225000D01*
X169707560Y-92925000D01*
X169751838Y-93160317D01*
X169890910Y-93376441D01*
X170103110Y-93521431D01*
X170355000Y-93572440D01*
X172355000Y-93572440D01*
X172590317Y-93528162D01*
X172806441Y-93389090D01*
X172951431Y-93176890D01*
X173002440Y-92925000D01*
X173002440Y-92360750D01*
X173720000Y-92360750D01*
X173720000Y-93051310D01*
X173816673Y-93284699D01*
X173995302Y-93463327D01*
X174228691Y-93560000D01*
X175069250Y-93560000D01*
X175228000Y-93401250D01*
X175228000Y-92202000D01*
X175482000Y-92202000D01*
X175482000Y-93401250D01*
X175640750Y-93560000D01*
X176481309Y-93560000D01*
X176714698Y-93463327D01*
X176893327Y-93284699D01*
X176990000Y-93051310D01*
X176990000Y-92360750D01*
X176831250Y-92202000D01*
X175482000Y-92202000D01*
X175228000Y-92202000D01*
X173878750Y-92202000D01*
X173720000Y-92360750D01*
X173002440Y-92360750D01*
X173002440Y-91225000D01*
X172978674Y-91098690D01*
X173720000Y-91098690D01*
X173720000Y-91789250D01*
X173878750Y-91948000D01*
X175228000Y-91948000D01*
X175228000Y-90748750D01*
X175482000Y-90748750D01*
X175482000Y-91948000D01*
X176831250Y-91948000D01*
X176990000Y-91789250D01*
X176990000Y-91098690D01*
X176893327Y-90865301D01*
X176714698Y-90686673D01*
X176481309Y-90590000D01*
X175640750Y-90590000D01*
X175482000Y-90748750D01*
X175228000Y-90748750D01*
X175069250Y-90590000D01*
X174228691Y-90590000D01*
X173995302Y-90686673D01*
X173816673Y-90865301D01*
X173720000Y-91098690D01*
X172978674Y-91098690D01*
X172958162Y-90989683D01*
X172819090Y-90773559D01*
X172683941Y-90681216D01*
X173125216Y-90239941D01*
X173125219Y-90239939D01*
X173295385Y-89985266D01*
X173298773Y-89968232D01*
X173368970Y-89968232D01*
X173604287Y-89923954D01*
X173820411Y-89784882D01*
X173965401Y-89572682D01*
X173989030Y-89455996D01*
X174007868Y-89556109D01*
X174146940Y-89772233D01*
X174359140Y-89917223D01*
X174611030Y-89968232D01*
X176208690Y-89968232D01*
X176444007Y-89923954D01*
X176660131Y-89784882D01*
X176805121Y-89572682D01*
X176856130Y-89320792D01*
X176856130Y-87519932D01*
X176811852Y-87284615D01*
X176672780Y-87068491D01*
X176460580Y-86923501D01*
X176208690Y-86872492D01*
X176194860Y-86872492D01*
X176194860Y-85874860D01*
X176135105Y-85574454D01*
X175964939Y-85319781D01*
X171649184Y-81004026D01*
X173652642Y-81004026D01*
X173655291Y-81019791D01*
X173909268Y-81547036D01*
X174345680Y-81936954D01*
X174898087Y-82130184D01*
X175133000Y-81985924D01*
X175133000Y-80772000D01*
X175387000Y-80772000D01*
X175387000Y-81985924D01*
X175621913Y-82130184D01*
X176174320Y-81936954D01*
X176610732Y-81547036D01*
X176864709Y-81019791D01*
X176867358Y-81004026D01*
X176746217Y-80772000D01*
X175387000Y-80772000D01*
X175133000Y-80772000D01*
X173773783Y-80772000D01*
X173652642Y-81004026D01*
X171649184Y-81004026D01*
X171060000Y-80414842D01*
X171060000Y-79602440D01*
X171275000Y-79602440D01*
X171510317Y-79558162D01*
X171726441Y-79419090D01*
X171871431Y-79206890D01*
X171922440Y-78955000D01*
X171922440Y-77255000D01*
X171878162Y-77019683D01*
X171739090Y-76803559D01*
X171526890Y-76658569D01*
X171275000Y-76607560D01*
X169275000Y-76607560D01*
X169039683Y-76651838D01*
X168823559Y-76790910D01*
X168678569Y-77003110D01*
X168627560Y-77255000D01*
X168627560Y-78955000D01*
X168671838Y-79190317D01*
X168810910Y-79406441D01*
X169023110Y-79551431D01*
X169275000Y-79602440D01*
X169490000Y-79602440D01*
X169490000Y-80414842D01*
X165472842Y-84432000D01*
X165383506Y-84432000D01*
X165376327Y-84424808D01*
X165032799Y-84282162D01*
X164660833Y-84281838D01*
X164317057Y-84423883D01*
X164053808Y-84686673D01*
X163911162Y-85030201D01*
X163910838Y-85402167D01*
X163341417Y-85402167D01*
X163251250Y-85312000D01*
X162052000Y-85312000D01*
X161798000Y-85312000D01*
X160598750Y-85312000D01*
X160440000Y-85470750D01*
X160440000Y-86311309D01*
X160500096Y-86456393D01*
X158102394Y-84058691D01*
X160440000Y-84058691D01*
X160440000Y-84899250D01*
X160598750Y-85058000D01*
X161798000Y-85058000D01*
X161798000Y-83708750D01*
X162052000Y-83708750D01*
X162052000Y-85058000D01*
X163251250Y-85058000D01*
X163410000Y-84899250D01*
X163410000Y-84058691D01*
X163313327Y-83825302D01*
X163134699Y-83646673D01*
X162901310Y-83550000D01*
X162210750Y-83550000D01*
X162052000Y-83708750D01*
X161798000Y-83708750D01*
X161639250Y-83550000D01*
X160948690Y-83550000D01*
X160715301Y-83646673D01*
X160536673Y-83825302D01*
X160440000Y-84058691D01*
X158102394Y-84058691D01*
X154520447Y-80476744D01*
X155701197Y-80476744D01*
X155701602Y-80503146D01*
X155917276Y-80915118D01*
X156274187Y-81213196D01*
X156718000Y-81352000D01*
X157418000Y-81352000D01*
X157418000Y-80294000D01*
X155826639Y-80294000D01*
X155701197Y-80476744D01*
X154520447Y-80476744D01*
X152210703Y-78167000D01*
X155523071Y-78167000D01*
X155613274Y-78620480D01*
X155870149Y-79004922D01*
X156171691Y-79206405D01*
X155917276Y-79418882D01*
X155701602Y-79830854D01*
X155701197Y-79857256D01*
X155826639Y-80040000D01*
X157418000Y-80040000D01*
X157418000Y-80020000D01*
X157672000Y-80020000D01*
X157672000Y-80040000D01*
X157692000Y-80040000D01*
X157692000Y-80294000D01*
X157672000Y-80294000D01*
X157672000Y-81352000D01*
X158372000Y-81352000D01*
X158815813Y-81213196D01*
X159172724Y-80915118D01*
X159249090Y-80769247D01*
X160219919Y-81740076D01*
X160219921Y-81740079D01*
X160357610Y-81832079D01*
X160427560Y-81878818D01*
X160427560Y-82185000D01*
X160471838Y-82420317D01*
X160610910Y-82636441D01*
X160823110Y-82781431D01*
X161075000Y-82832440D01*
X162775000Y-82832440D01*
X163010317Y-82788162D01*
X163226441Y-82649090D01*
X163371431Y-82436890D01*
X163422440Y-82185000D01*
X163422440Y-80185000D01*
X163378162Y-79949683D01*
X163239090Y-79733559D01*
X163026890Y-79588569D01*
X162775000Y-79537560D01*
X161075000Y-79537560D01*
X160839683Y-79581838D01*
X160623559Y-79720910D01*
X160541364Y-79841207D01*
X159284011Y-78583854D01*
X159366929Y-78167000D01*
X159276726Y-77713520D01*
X159019851Y-77329078D01*
X158827283Y-77200409D01*
X159119851Y-77004922D01*
X159376726Y-76620480D01*
X159466929Y-76167000D01*
X159376726Y-75713520D01*
X159119851Y-75329078D01*
X158877283Y-75167000D01*
X159119851Y-75004922D01*
X159155212Y-74952000D01*
X160711842Y-74952000D01*
X164419921Y-78660079D01*
X164627560Y-78798819D01*
X164627560Y-78955000D01*
X164671838Y-79190317D01*
X164810910Y-79406441D01*
X165023110Y-79551431D01*
X165275000Y-79602440D01*
X165585000Y-79602440D01*
X165585000Y-80107494D01*
X165577808Y-80114673D01*
X165435162Y-80458201D01*
X165434838Y-80830167D01*
X165576883Y-81173943D01*
X165839673Y-81437192D01*
X166183201Y-81579838D01*
X166555167Y-81580162D01*
X166898943Y-81438117D01*
X167162192Y-81175327D01*
X167304838Y-80831799D01*
X167305162Y-80459833D01*
X167163117Y-80116057D01*
X167155000Y-80107926D01*
X167155000Y-79602440D01*
X167275000Y-79602440D01*
X167510317Y-79558162D01*
X167726441Y-79419090D01*
X167871431Y-79206890D01*
X167922440Y-78955000D01*
X167922440Y-77255000D01*
X167878162Y-77019683D01*
X167739090Y-76803559D01*
X167526890Y-76658569D01*
X167275000Y-76607560D01*
X165275000Y-76607560D01*
X165039683Y-76651838D01*
X164823559Y-76790910D01*
X164802252Y-76822094D01*
X161592079Y-73611921D01*
X161337407Y-73441755D01*
X161037000Y-73382000D01*
X159155212Y-73382000D01*
X159119851Y-73329078D01*
X158877283Y-73167000D01*
X159119851Y-73004922D01*
X159376726Y-72620480D01*
X159466929Y-72167000D01*
X159376726Y-71713520D01*
X159119851Y-71329078D01*
X158877283Y-71167000D01*
X159119851Y-71004922D01*
X159376726Y-70620480D01*
X159466929Y-70167000D01*
X159376726Y-69713520D01*
X159119851Y-69329078D01*
X158877283Y-69167000D01*
X159119851Y-69004922D01*
X159155212Y-68952000D01*
X169924442Y-68952000D01*
X173646468Y-72674025D01*
X173576655Y-73025000D01*
X173690729Y-73598489D01*
X174015585Y-74084670D01*
X174330366Y-74295000D01*
X174015585Y-74505330D01*
X173690729Y-74991511D01*
X173576655Y-75565000D01*
X173690729Y-76138489D01*
X174015585Y-76624670D01*
X174330366Y-76835000D01*
X174015585Y-77045330D01*
X173690729Y-77531511D01*
X173576655Y-78105000D01*
X173690729Y-78678489D01*
X174015585Y-79164670D01*
X174325069Y-79371461D01*
X173909268Y-79742964D01*
X173655291Y-80270209D01*
X173652642Y-80285974D01*
X173773783Y-80518000D01*
X175133000Y-80518000D01*
X175133000Y-80498000D01*
X175387000Y-80498000D01*
X175387000Y-80518000D01*
X176746217Y-80518000D01*
X176867358Y-80285974D01*
X176864709Y-80270209D01*
X176610732Y-79742964D01*
X176194931Y-79371461D01*
X176504415Y-79164670D01*
X176829271Y-78678489D01*
X176943345Y-78105000D01*
X176829271Y-77531511D01*
X176504415Y-77045330D01*
X176189634Y-76835000D01*
X176504415Y-76624670D01*
X176829271Y-76138489D01*
X176943345Y-75565000D01*
X176829271Y-74991511D01*
X176504415Y-74505330D01*
X176189634Y-74295000D01*
X176504415Y-74084670D01*
X176829271Y-73598489D01*
X176943345Y-73025000D01*
X176829271Y-72451511D01*
X176504415Y-71965330D01*
X176189634Y-71755000D01*
X176504415Y-71544670D01*
X176829271Y-71058489D01*
X176943345Y-70485000D01*
X176829271Y-69911511D01*
X176504415Y-69425330D01*
X176490087Y-69415757D01*
X176511317Y-69411762D01*
X176727441Y-69272690D01*
X176872431Y-69060490D01*
X176923440Y-68808600D01*
X176923440Y-67081400D01*
X176879162Y-66846083D01*
X176740090Y-66629959D01*
X176527890Y-66484969D01*
X176276000Y-66433960D01*
X174244000Y-66433960D01*
X174008683Y-66478238D01*
X173792559Y-66617310D01*
X173647569Y-66829510D01*
X173596560Y-67081400D01*
X173596560Y-67863802D01*
X171344679Y-65611921D01*
X171090007Y-65441755D01*
X170789600Y-65382000D01*
X159155212Y-65382000D01*
X159119851Y-65329078D01*
X158735409Y-65072203D01*
X158281929Y-64982000D01*
X156808071Y-64982000D01*
X156354591Y-65072203D01*
X155970149Y-65329078D01*
X155713274Y-65713520D01*
X155623071Y-66167000D01*
X155713274Y-66620480D01*
X155970149Y-67004922D01*
X156212717Y-67167000D01*
X155970149Y-67329078D01*
X155713274Y-67713520D01*
X155623071Y-68167000D01*
X155713274Y-68620480D01*
X155970149Y-69004922D01*
X156212717Y-69167000D01*
X155970149Y-69329078D01*
X155713274Y-69713520D01*
X155623071Y-70167000D01*
X155713274Y-70620480D01*
X155970149Y-71004922D01*
X156212717Y-71167000D01*
X155970149Y-71329078D01*
X155713274Y-71713520D01*
X155623071Y-72167000D01*
X155713274Y-72620480D01*
X155970149Y-73004922D01*
X156212717Y-73167000D01*
X155970149Y-73329078D01*
X155713274Y-73713520D01*
X155623071Y-74167000D01*
X155713274Y-74620480D01*
X155970149Y-75004922D01*
X156212717Y-75167000D01*
X155970149Y-75329078D01*
X155713274Y-75713520D01*
X155623071Y-76167000D01*
X155713274Y-76620480D01*
X155970149Y-77004922D01*
X156162717Y-77133591D01*
X155870149Y-77329078D01*
X155613274Y-77713520D01*
X155523071Y-78167000D01*
X152210703Y-78167000D01*
X147605515Y-73561812D01*
X147603790Y-73553139D01*
X147433624Y-73298466D01*
X145747079Y-71611921D01*
X145492407Y-71441755D01*
X145192000Y-71382000D01*
X143755212Y-71382000D01*
X143719851Y-71329078D01*
X143477283Y-71167000D01*
X143719851Y-71004922D01*
X143976726Y-70620480D01*
X144066929Y-70167000D01*
X143976726Y-69713520D01*
X143719851Y-69329078D01*
X143477283Y-69167000D01*
X143719851Y-69004922D01*
X143976726Y-68620480D01*
X144066929Y-68167000D01*
X143976726Y-67713520D01*
X143719851Y-67329078D01*
X143669129Y-67295187D01*
X143846441Y-67181090D01*
X143991431Y-66968890D01*
X144042440Y-66717000D01*
X144042440Y-65617000D01*
X143998162Y-65381683D01*
X143859090Y-65165559D01*
X143646890Y-65020569D01*
X143395000Y-64969560D01*
X140895000Y-64969560D01*
X140659683Y-65013838D01*
X140443559Y-65152910D01*
X140298569Y-65365110D01*
X140295149Y-65382000D01*
X139954000Y-65382000D01*
X139653594Y-65441755D01*
X139398921Y-65611921D01*
X139398919Y-65611924D01*
X137895000Y-67115842D01*
X137895000Y-64235000D01*
X178970000Y-64235000D01*
X178970000Y-110284842D01*
X178970000Y-110284842D01*
G37*
X178970000Y-110284842D02*
X176698625Y-108013467D01*
X176806441Y-107944090D01*
X176951431Y-107731890D01*
X177002440Y-107480000D01*
X177002440Y-105880000D01*
X176958162Y-105644683D01*
X176819090Y-105428559D01*
X176606890Y-105283569D01*
X176355000Y-105232560D01*
X176299000Y-105232560D01*
X176299000Y-104406440D01*
X176530000Y-104406440D01*
X176765317Y-104362162D01*
X176981441Y-104223090D01*
X177126431Y-104010890D01*
X177177440Y-103759000D01*
X177177440Y-102743000D01*
X177133162Y-102507683D01*
X176994090Y-102291559D01*
X176781890Y-102146569D01*
X176591431Y-102108000D01*
X176656310Y-102108000D01*
X176889699Y-102011327D01*
X177068327Y-101832698D01*
X177165000Y-101599309D01*
X177165000Y-101250750D01*
X177006250Y-101092000D01*
X175641000Y-101092000D01*
X175641000Y-101112000D01*
X175387000Y-101112000D01*
X175387000Y-101092000D01*
X174021750Y-101092000D01*
X173863000Y-101250750D01*
X173863000Y-101599309D01*
X173959673Y-101832698D01*
X174138301Y-102011327D01*
X174371690Y-102108000D01*
X174431887Y-102108000D01*
X174262683Y-102139838D01*
X174046559Y-102278910D01*
X173901569Y-102491110D01*
X173850560Y-102743000D01*
X173850560Y-103759000D01*
X173894838Y-103994317D01*
X174033910Y-104210441D01*
X174246110Y-104355431D01*
X174498000Y-104406440D01*
X174729000Y-104406440D01*
X174729000Y-105232560D01*
X174355000Y-105232560D01*
X174119683Y-105276838D01*
X173903559Y-105415910D01*
X173758569Y-105628110D01*
X173707560Y-105880000D01*
X173707560Y-107480000D01*
X173751838Y-107715317D01*
X173890910Y-107931441D01*
X174103110Y-108076431D01*
X174355000Y-108127440D01*
X174661181Y-108127440D01*
X174799921Y-108335079D01*
X178285000Y-111820158D01*
X178285000Y-115633760D01*
X176276000Y-115633760D01*
X176040683Y-115678038D01*
X175824559Y-115817110D01*
X175679569Y-116029310D01*
X175628560Y-116281200D01*
X175628560Y-119938800D01*
X175672838Y-120174117D01*
X175811910Y-120390241D01*
X176024110Y-120535231D01*
X176276000Y-120586240D01*
X178285000Y-120586240D01*
X178285000Y-131372514D01*
X177993601Y-131663913D01*
X177993601Y-127463601D01*
X177933846Y-127163195D01*
X177933846Y-127163194D01*
X177763680Y-126908522D01*
X176063625Y-125208467D01*
X176171441Y-125139090D01*
X176316431Y-124926890D01*
X176367440Y-124675000D01*
X176367440Y-122975000D01*
X176323162Y-122739683D01*
X176184090Y-122523559D01*
X175971890Y-122378569D01*
X175720000Y-122327560D01*
X175505000Y-122327560D01*
X175505000Y-121603863D01*
X175559838Y-121471799D01*
X175560162Y-121099833D01*
X175418117Y-120756057D01*
X175155327Y-120492808D01*
X174811799Y-120350162D01*
X174439833Y-120349838D01*
X174096057Y-120491883D01*
X173832808Y-120754673D01*
X173690162Y-121098201D01*
X173689838Y-121470167D01*
X173831883Y-121813943D01*
X173935000Y-121917240D01*
X173935000Y-122327560D01*
X173720000Y-122327560D01*
X173505000Y-122368015D01*
X173505000Y-119634000D01*
X173445245Y-119333594D01*
X173275079Y-119078921D01*
X173275076Y-119078919D01*
X172351440Y-118155282D01*
X172351440Y-117602000D01*
X172307162Y-117366683D01*
X172168090Y-117150559D01*
X171955890Y-117005569D01*
X171767686Y-116967457D01*
X171939317Y-116935162D01*
X172155441Y-116796090D01*
X172300431Y-116583890D01*
X172351440Y-116332000D01*
X172351440Y-115316000D01*
X172307162Y-115080683D01*
X172168090Y-114864559D01*
X171955890Y-114719569D01*
X171704000Y-114668560D01*
X171505000Y-114668560D01*
X171505000Y-113892440D01*
X171720000Y-113892440D01*
X171955317Y-113848162D01*
X172171441Y-113709090D01*
X172316431Y-113496890D01*
X172367440Y-113245000D01*
X172367440Y-111545000D01*
X172323162Y-111309683D01*
X172230456Y-111165614D01*
X173072560Y-112007718D01*
X173072560Y-113245000D01*
X173116838Y-113480317D01*
X173255910Y-113696441D01*
X173468110Y-113841431D01*
X173720000Y-113892440D01*
X175720000Y-113892440D01*
X175955317Y-113848162D01*
X176171441Y-113709090D01*
X176316431Y-113496890D01*
X176367440Y-113245000D01*
X176367440Y-111545000D01*
X176323162Y-111309683D01*
X176184090Y-111093559D01*
X175971890Y-110948569D01*
X175720000Y-110897560D01*
X174182718Y-110897560D01*
X172585079Y-109299921D01*
X172330407Y-109129755D01*
X172298579Y-109123424D01*
X171179703Y-108004547D01*
X171228000Y-107956250D01*
X171228000Y-106807000D01*
X171482000Y-106807000D01*
X171482000Y-107956250D01*
X171640750Y-108115000D01*
X172481309Y-108115000D01*
X172714698Y-108018327D01*
X172893327Y-107839699D01*
X172990000Y-107606310D01*
X172990000Y-106965750D01*
X172831250Y-106807000D01*
X171482000Y-106807000D01*
X171228000Y-106807000D01*
X171208000Y-106807000D01*
X171208000Y-106553000D01*
X171228000Y-106553000D01*
X171228000Y-105403750D01*
X171482000Y-105403750D01*
X171482000Y-106553000D01*
X172831250Y-106553000D01*
X172990000Y-106394250D01*
X172990000Y-105753690D01*
X172893327Y-105520301D01*
X172714698Y-105341673D01*
X172481309Y-105245000D01*
X171640750Y-105245000D01*
X171482000Y-105403750D01*
X171228000Y-105403750D01*
X171069250Y-105245000D01*
X170228691Y-105245000D01*
X169995302Y-105341673D01*
X169816673Y-105520301D01*
X169720000Y-105753690D01*
X169720000Y-106394250D01*
X169878748Y-106552998D01*
X169728154Y-106552998D01*
X168228999Y-105053843D01*
X168228999Y-103428800D01*
X168624250Y-103428800D01*
X168783000Y-103270050D01*
X168783000Y-101092000D01*
X169037000Y-101092000D01*
X169037000Y-103270050D01*
X169195750Y-103428800D01*
X170052310Y-103428800D01*
X170285699Y-103332127D01*
X170464327Y-103153498D01*
X170561000Y-102920109D01*
X170561000Y-101250750D01*
X170402250Y-101092000D01*
X169037000Y-101092000D01*
X168783000Y-101092000D01*
X168763000Y-101092000D01*
X168763000Y-100838000D01*
X168783000Y-100838000D01*
X168783000Y-98659950D01*
X169037000Y-98659950D01*
X169037000Y-100838000D01*
X170402250Y-100838000D01*
X170561000Y-100679250D01*
X170561000Y-99009891D01*
X170464327Y-98776502D01*
X170285699Y-98597873D01*
X170052310Y-98501200D01*
X169195750Y-98501200D01*
X169037000Y-98659950D01*
X168783000Y-98659950D01*
X168624250Y-98501200D01*
X168228999Y-98501200D01*
X168228999Y-94510454D01*
X168216974Y-94450000D01*
X169707560Y-94450000D01*
X169707560Y-96050000D01*
X169751838Y-96285317D01*
X169890910Y-96501441D01*
X170103110Y-96646431D01*
X170355000Y-96697440D01*
X170661181Y-96697440D01*
X170799921Y-96905079D01*
X171329842Y-97435000D01*
X171274995Y-97489847D01*
X171264833Y-97489838D01*
X170921057Y-97631883D01*
X170657808Y-97894673D01*
X170515162Y-98238201D01*
X170514838Y-98610167D01*
X170656883Y-98953943D01*
X170919673Y-99217192D01*
X171263201Y-99359838D01*
X171635167Y-99360162D01*
X171978943Y-99218117D01*
X172242192Y-98955327D01*
X172384838Y-98611799D01*
X172384848Y-98600310D01*
X172440000Y-98545158D01*
X173128921Y-99234079D01*
X173383594Y-99404245D01*
X173684000Y-99464000D01*
X173921660Y-99464000D01*
X174033910Y-99638441D01*
X174246110Y-99783431D01*
X174436569Y-99822000D01*
X174371690Y-99822000D01*
X174138301Y-99918673D01*
X173959673Y-100097302D01*
X173863000Y-100330691D01*
X173863000Y-100679250D01*
X174021750Y-100838000D01*
X175387000Y-100838000D01*
X175387000Y-100818000D01*
X175641000Y-100818000D01*
X175641000Y-100838000D01*
X177006250Y-100838000D01*
X177165000Y-100679250D01*
X177165000Y-100330691D01*
X177068327Y-100097302D01*
X176889699Y-99918673D01*
X176656310Y-99822000D01*
X176596113Y-99822000D01*
X176765317Y-99790162D01*
X176981441Y-99651090D01*
X177126431Y-99438890D01*
X177177440Y-99187000D01*
X177177440Y-98171000D01*
X177133162Y-97935683D01*
X176994090Y-97719559D01*
X176781890Y-97574569D01*
X176530000Y-97523560D01*
X174498000Y-97523560D01*
X174262683Y-97567838D01*
X174046559Y-97706910D01*
X173955434Y-97840276D01*
X173275079Y-97159921D01*
X173275076Y-97159919D01*
X172698625Y-96583468D01*
X172806441Y-96514090D01*
X172951431Y-96301890D01*
X173002440Y-96050000D01*
X173002440Y-95535750D01*
X173720000Y-95535750D01*
X173720000Y-96176310D01*
X173816673Y-96409699D01*
X173995302Y-96588327D01*
X174228691Y-96685000D01*
X175069250Y-96685000D01*
X175228000Y-96526250D01*
X175228000Y-95377000D01*
X175482000Y-95377000D01*
X175482000Y-96526250D01*
X175640750Y-96685000D01*
X176481309Y-96685000D01*
X176714698Y-96588327D01*
X176893327Y-96409699D01*
X176990000Y-96176310D01*
X176990000Y-95535750D01*
X176831250Y-95377000D01*
X175482000Y-95377000D01*
X175228000Y-95377000D01*
X173878750Y-95377000D01*
X173720000Y-95535750D01*
X173002440Y-95535750D01*
X173002440Y-94450000D01*
X172978674Y-94323690D01*
X173720000Y-94323690D01*
X173720000Y-94964250D01*
X173878750Y-95123000D01*
X175228000Y-95123000D01*
X175228000Y-93973750D01*
X175482000Y-93973750D01*
X175482000Y-95123000D01*
X176831250Y-95123000D01*
X176990000Y-94964250D01*
X176990000Y-94323690D01*
X176893327Y-94090301D01*
X176714698Y-93911673D01*
X176481309Y-93815000D01*
X175640750Y-93815000D01*
X175482000Y-93973750D01*
X175228000Y-93973750D01*
X175069250Y-93815000D01*
X174228691Y-93815000D01*
X173995302Y-93911673D01*
X173816673Y-94090301D01*
X173720000Y-94323690D01*
X172978674Y-94323690D01*
X172958162Y-94214683D01*
X172819090Y-93998559D01*
X172606890Y-93853569D01*
X172355000Y-93802560D01*
X170355000Y-93802560D01*
X170119683Y-93846838D01*
X169903559Y-93985910D01*
X169758569Y-94198110D01*
X169707560Y-94450000D01*
X168216974Y-94450000D01*
X168189207Y-94310407D01*
X168169244Y-94210047D01*
X167999078Y-93955375D01*
X160803608Y-86759905D01*
X160948690Y-86820000D01*
X161639250Y-86820000D01*
X161798000Y-86661250D01*
X161798000Y-85312000D01*
X162052000Y-85312000D01*
X162052000Y-86661250D01*
X162210750Y-86820000D01*
X162901310Y-86820000D01*
X163134699Y-86723327D01*
X163313327Y-86544698D01*
X163410000Y-86311309D01*
X163410000Y-85470750D01*
X163341417Y-85402167D01*
X163910838Y-85402167D01*
X164052883Y-85745943D01*
X164315673Y-86009192D01*
X164659201Y-86151838D01*
X165031167Y-86152162D01*
X165374943Y-86010117D01*
X165383074Y-86002000D01*
X165798000Y-86002000D01*
X166098407Y-85942245D01*
X166353079Y-85772079D01*
X170275000Y-81850158D01*
X174624860Y-86200018D01*
X174624860Y-86872492D01*
X174611030Y-86872492D01*
X174375713Y-86916770D01*
X174159589Y-87055842D01*
X174014599Y-87268042D01*
X173990970Y-87384728D01*
X173972132Y-87284615D01*
X173833060Y-87068491D01*
X173620860Y-86923501D01*
X173368970Y-86872492D01*
X171771310Y-86872492D01*
X171535993Y-86916770D01*
X171319869Y-87055842D01*
X171174879Y-87268042D01*
X171123870Y-87519932D01*
X171123870Y-89320792D01*
X171168148Y-89556109D01*
X171307220Y-89772233D01*
X171346067Y-89798776D01*
X170799921Y-90344921D01*
X170644477Y-90577560D01*
X170355000Y-90577560D01*
X170119683Y-90621838D01*
X169903559Y-90760910D01*
X169758569Y-90973110D01*
X169707560Y-91225000D01*
X169707560Y-92925000D01*
X169751838Y-93160317D01*
X169890910Y-93376441D01*
X170103110Y-93521431D01*
X170355000Y-93572440D01*
X172355000Y-93572440D01*
X172590317Y-93528162D01*
X172806441Y-93389090D01*
X172951431Y-93176890D01*
X173002440Y-92925000D01*
X173002440Y-92360750D01*
X173720000Y-92360750D01*
X173720000Y-93051310D01*
X173816673Y-93284699D01*
X173995302Y-93463327D01*
X174228691Y-93560000D01*
X175069250Y-93560000D01*
X175228000Y-93401250D01*
X175228000Y-92202000D01*
X175482000Y-92202000D01*
X175482000Y-93401250D01*
X175640750Y-93560000D01*
X176481309Y-93560000D01*
X176714698Y-93463327D01*
X176893327Y-93284699D01*
X176990000Y-93051310D01*
X176990000Y-92360750D01*
X176831250Y-92202000D01*
X175482000Y-92202000D01*
X175228000Y-92202000D01*
X173878750Y-92202000D01*
X173720000Y-92360750D01*
X173002440Y-92360750D01*
X173002440Y-91225000D01*
X172978674Y-91098690D01*
X173720000Y-91098690D01*
X173720000Y-91789250D01*
X173878750Y-91948000D01*
X175228000Y-91948000D01*
X175228000Y-90748750D01*
X175482000Y-90748750D01*
X175482000Y-91948000D01*
X176831250Y-91948000D01*
X176990000Y-91789250D01*
X176990000Y-91098690D01*
X176893327Y-90865301D01*
X176714698Y-90686673D01*
X176481309Y-90590000D01*
X175640750Y-90590000D01*
X175482000Y-90748750D01*
X175228000Y-90748750D01*
X175069250Y-90590000D01*
X174228691Y-90590000D01*
X173995302Y-90686673D01*
X173816673Y-90865301D01*
X173720000Y-91098690D01*
X172978674Y-91098690D01*
X172958162Y-90989683D01*
X172819090Y-90773559D01*
X172683941Y-90681216D01*
X173125216Y-90239941D01*
X173125219Y-90239939D01*
X173295385Y-89985266D01*
X173298773Y-89968232D01*
X173368970Y-89968232D01*
X173604287Y-89923954D01*
X173820411Y-89784882D01*
X173965401Y-89572682D01*
X173989030Y-89455996D01*
X174007868Y-89556109D01*
X174146940Y-89772233D01*
X174359140Y-89917223D01*
X174611030Y-89968232D01*
X176208690Y-89968232D01*
X176444007Y-89923954D01*
X176660131Y-89784882D01*
X176805121Y-89572682D01*
X176856130Y-89320792D01*
X176856130Y-87519932D01*
X176811852Y-87284615D01*
X176672780Y-87068491D01*
X176460580Y-86923501D01*
X176208690Y-86872492D01*
X176194860Y-86872492D01*
X176194860Y-85874860D01*
X176135105Y-85574454D01*
X175964939Y-85319781D01*
X171649184Y-81004026D01*
X173652642Y-81004026D01*
X173655291Y-81019791D01*
X173909268Y-81547036D01*
X174345680Y-81936954D01*
X174898087Y-82130184D01*
X175133000Y-81985924D01*
X175133000Y-80772000D01*
X175387000Y-80772000D01*
X175387000Y-81985924D01*
X175621913Y-82130184D01*
X176174320Y-81936954D01*
X176610732Y-81547036D01*
X176864709Y-81019791D01*
X176867358Y-81004026D01*
X176746217Y-80772000D01*
X175387000Y-80772000D01*
X175133000Y-80772000D01*
X173773783Y-80772000D01*
X173652642Y-81004026D01*
X171649184Y-81004026D01*
X171060000Y-80414842D01*
X171060000Y-79602440D01*
X171275000Y-79602440D01*
X171510317Y-79558162D01*
X171726441Y-79419090D01*
X171871431Y-79206890D01*
X171922440Y-78955000D01*
X171922440Y-77255000D01*
X171878162Y-77019683D01*
X171739090Y-76803559D01*
X171526890Y-76658569D01*
X171275000Y-76607560D01*
X169275000Y-76607560D01*
X169039683Y-76651838D01*
X168823559Y-76790910D01*
X168678569Y-77003110D01*
X168627560Y-77255000D01*
X168627560Y-78955000D01*
X168671838Y-79190317D01*
X168810910Y-79406441D01*
X169023110Y-79551431D01*
X169275000Y-79602440D01*
X169490000Y-79602440D01*
X169490000Y-80414842D01*
X165472842Y-84432000D01*
X165383506Y-84432000D01*
X165376327Y-84424808D01*
X165032799Y-84282162D01*
X164660833Y-84281838D01*
X164317057Y-84423883D01*
X164053808Y-84686673D01*
X163911162Y-85030201D01*
X163910838Y-85402167D01*
X163341417Y-85402167D01*
X163251250Y-85312000D01*
X162052000Y-85312000D01*
X161798000Y-85312000D01*
X160598750Y-85312000D01*
X160440000Y-85470750D01*
X160440000Y-86311309D01*
X160500096Y-86456393D01*
X158102394Y-84058691D01*
X160440000Y-84058691D01*
X160440000Y-84899250D01*
X160598750Y-85058000D01*
X161798000Y-85058000D01*
X161798000Y-83708750D01*
X162052000Y-83708750D01*
X162052000Y-85058000D01*
X163251250Y-85058000D01*
X163410000Y-84899250D01*
X163410000Y-84058691D01*
X163313327Y-83825302D01*
X163134699Y-83646673D01*
X162901310Y-83550000D01*
X162210750Y-83550000D01*
X162052000Y-83708750D01*
X161798000Y-83708750D01*
X161639250Y-83550000D01*
X160948690Y-83550000D01*
X160715301Y-83646673D01*
X160536673Y-83825302D01*
X160440000Y-84058691D01*
X158102394Y-84058691D01*
X154520447Y-80476744D01*
X155701197Y-80476744D01*
X155701602Y-80503146D01*
X155917276Y-80915118D01*
X156274187Y-81213196D01*
X156718000Y-81352000D01*
X157418000Y-81352000D01*
X157418000Y-80294000D01*
X155826639Y-80294000D01*
X155701197Y-80476744D01*
X154520447Y-80476744D01*
X152210703Y-78167000D01*
X155523071Y-78167000D01*
X155613274Y-78620480D01*
X155870149Y-79004922D01*
X156171691Y-79206405D01*
X155917276Y-79418882D01*
X155701602Y-79830854D01*
X155701197Y-79857256D01*
X155826639Y-80040000D01*
X157418000Y-80040000D01*
X157418000Y-80020000D01*
X157672000Y-80020000D01*
X157672000Y-80040000D01*
X157692000Y-80040000D01*
X157692000Y-80294000D01*
X157672000Y-80294000D01*
X157672000Y-81352000D01*
X158372000Y-81352000D01*
X158815813Y-81213196D01*
X159172724Y-80915118D01*
X159249090Y-80769247D01*
X160219919Y-81740076D01*
X160219921Y-81740079D01*
X160357610Y-81832079D01*
X160427560Y-81878818D01*
X160427560Y-82185000D01*
X160471838Y-82420317D01*
X160610910Y-82636441D01*
X160823110Y-82781431D01*
X161075000Y-82832440D01*
X162775000Y-82832440D01*
X163010317Y-82788162D01*
X163226441Y-82649090D01*
X163371431Y-82436890D01*
X163422440Y-82185000D01*
X163422440Y-80185000D01*
X163378162Y-79949683D01*
X163239090Y-79733559D01*
X163026890Y-79588569D01*
X162775000Y-79537560D01*
X161075000Y-79537560D01*
X160839683Y-79581838D01*
X160623559Y-79720910D01*
X160541364Y-79841207D01*
X159284011Y-78583854D01*
X159366929Y-78167000D01*
X159276726Y-77713520D01*
X159019851Y-77329078D01*
X158827283Y-77200409D01*
X159119851Y-77004922D01*
X159376726Y-76620480D01*
X159466929Y-76167000D01*
X159376726Y-75713520D01*
X159119851Y-75329078D01*
X158877283Y-75167000D01*
X159119851Y-75004922D01*
X159155212Y-74952000D01*
X160711842Y-74952000D01*
X164419921Y-78660079D01*
X164627560Y-78798819D01*
X164627560Y-78955000D01*
X164671838Y-79190317D01*
X164810910Y-79406441D01*
X165023110Y-79551431D01*
X165275000Y-79602440D01*
X165585000Y-79602440D01*
X165585000Y-80107494D01*
X165577808Y-80114673D01*
X165435162Y-80458201D01*
X165434838Y-80830167D01*
X165576883Y-81173943D01*
X165839673Y-81437192D01*
X166183201Y-81579838D01*
X166555167Y-81580162D01*
X166898943Y-81438117D01*
X167162192Y-81175327D01*
X167304838Y-80831799D01*
X167305162Y-80459833D01*
X167163117Y-80116057D01*
X167155000Y-80107926D01*
X167155000Y-79602440D01*
X167275000Y-79602440D01*
X167510317Y-79558162D01*
X167726441Y-79419090D01*
X167871431Y-79206890D01*
X167922440Y-78955000D01*
X167922440Y-77255000D01*
X167878162Y-77019683D01*
X167739090Y-76803559D01*
X167526890Y-76658569D01*
X167275000Y-76607560D01*
X165275000Y-76607560D01*
X165039683Y-76651838D01*
X164823559Y-76790910D01*
X164802252Y-76822094D01*
X161592079Y-73611921D01*
X161337407Y-73441755D01*
X161037000Y-73382000D01*
X159155212Y-73382000D01*
X159119851Y-73329078D01*
X158877283Y-73167000D01*
X159119851Y-73004922D01*
X159376726Y-72620480D01*
X159466929Y-72167000D01*
X159376726Y-71713520D01*
X159119851Y-71329078D01*
X158877283Y-71167000D01*
X159119851Y-71004922D01*
X159376726Y-70620480D01*
X159466929Y-70167000D01*
X159376726Y-69713520D01*
X159119851Y-69329078D01*
X158877283Y-69167000D01*
X159119851Y-69004922D01*
X159155212Y-68952000D01*
X169924442Y-68952000D01*
X173646468Y-72674025D01*
X173576655Y-73025000D01*
X173690729Y-73598489D01*
X174015585Y-74084670D01*
X174330366Y-74295000D01*
X174015585Y-74505330D01*
X173690729Y-74991511D01*
X173576655Y-75565000D01*
X173690729Y-76138489D01*
X174015585Y-76624670D01*
X174330366Y-76835000D01*
X174015585Y-77045330D01*
X173690729Y-77531511D01*
X173576655Y-78105000D01*
X173690729Y-78678489D01*
X174015585Y-79164670D01*
X174325069Y-79371461D01*
X173909268Y-79742964D01*
X173655291Y-80270209D01*
X173652642Y-80285974D01*
X173773783Y-80518000D01*
X175133000Y-80518000D01*
X175133000Y-80498000D01*
X175387000Y-80498000D01*
X175387000Y-80518000D01*
X176746217Y-80518000D01*
X176867358Y-80285974D01*
X176864709Y-80270209D01*
X176610732Y-79742964D01*
X176194931Y-79371461D01*
X176504415Y-79164670D01*
X176829271Y-78678489D01*
X176943345Y-78105000D01*
X176829271Y-77531511D01*
X176504415Y-77045330D01*
X176189634Y-76835000D01*
X176504415Y-76624670D01*
X176829271Y-76138489D01*
X176943345Y-75565000D01*
X176829271Y-74991511D01*
X176504415Y-74505330D01*
X176189634Y-74295000D01*
X176504415Y-74084670D01*
X176829271Y-73598489D01*
X176943345Y-73025000D01*
X176829271Y-72451511D01*
X176504415Y-71965330D01*
X176189634Y-71755000D01*
X176504415Y-71544670D01*
X176829271Y-71058489D01*
X176943345Y-70485000D01*
X176829271Y-69911511D01*
X176504415Y-69425330D01*
X176490087Y-69415757D01*
X176511317Y-69411762D01*
X176727441Y-69272690D01*
X176872431Y-69060490D01*
X176923440Y-68808600D01*
X176923440Y-67081400D01*
X176879162Y-66846083D01*
X176740090Y-66629959D01*
X176527890Y-66484969D01*
X176276000Y-66433960D01*
X174244000Y-66433960D01*
X174008683Y-66478238D01*
X173792559Y-66617310D01*
X173647569Y-66829510D01*
X173596560Y-67081400D01*
X173596560Y-67863802D01*
X171344679Y-65611921D01*
X171090007Y-65441755D01*
X170789600Y-65382000D01*
X159155212Y-65382000D01*
X159119851Y-65329078D01*
X158735409Y-65072203D01*
X158281929Y-64982000D01*
X156808071Y-64982000D01*
X156354591Y-65072203D01*
X155970149Y-65329078D01*
X155713274Y-65713520D01*
X155623071Y-66167000D01*
X155713274Y-66620480D01*
X155970149Y-67004922D01*
X156212717Y-67167000D01*
X155970149Y-67329078D01*
X155713274Y-67713520D01*
X155623071Y-68167000D01*
X155713274Y-68620480D01*
X155970149Y-69004922D01*
X156212717Y-69167000D01*
X155970149Y-69329078D01*
X155713274Y-69713520D01*
X155623071Y-70167000D01*
X155713274Y-70620480D01*
X155970149Y-71004922D01*
X156212717Y-71167000D01*
X155970149Y-71329078D01*
X155713274Y-71713520D01*
X155623071Y-72167000D01*
X155713274Y-72620480D01*
X155970149Y-73004922D01*
X156212717Y-73167000D01*
X155970149Y-73329078D01*
X155713274Y-73713520D01*
X155623071Y-74167000D01*
X155713274Y-74620480D01*
X155970149Y-75004922D01*
X156212717Y-75167000D01*
X155970149Y-75329078D01*
X155713274Y-75713520D01*
X155623071Y-76167000D01*
X155713274Y-76620480D01*
X155970149Y-77004922D01*
X156162717Y-77133591D01*
X155870149Y-77329078D01*
X155613274Y-77713520D01*
X155523071Y-78167000D01*
X152210703Y-78167000D01*
X147605515Y-73561812D01*
X147603790Y-73553139D01*
X147433624Y-73298466D01*
X145747079Y-71611921D01*
X145492407Y-71441755D01*
X145192000Y-71382000D01*
X143755212Y-71382000D01*
X143719851Y-71329078D01*
X143477283Y-71167000D01*
X143719851Y-71004922D01*
X143976726Y-70620480D01*
X144066929Y-70167000D01*
X143976726Y-69713520D01*
X143719851Y-69329078D01*
X143477283Y-69167000D01*
X143719851Y-69004922D01*
X143976726Y-68620480D01*
X144066929Y-68167000D01*
X143976726Y-67713520D01*
X143719851Y-67329078D01*
X143669129Y-67295187D01*
X143846441Y-67181090D01*
X143991431Y-66968890D01*
X144042440Y-66717000D01*
X144042440Y-65617000D01*
X143998162Y-65381683D01*
X143859090Y-65165559D01*
X143646890Y-65020569D01*
X143395000Y-64969560D01*
X140895000Y-64969560D01*
X140659683Y-65013838D01*
X140443559Y-65152910D01*
X140298569Y-65365110D01*
X140295149Y-65382000D01*
X139954000Y-65382000D01*
X139653594Y-65441755D01*
X139398921Y-65611921D01*
X139398919Y-65611924D01*
X137895000Y-67115842D01*
X137895000Y-64235000D01*
X178970000Y-64235000D01*
X178970000Y-110284842D01*
G36*
X152213201Y-91485838D02*
X152585167Y-91486162D01*
X152818769Y-91389640D01*
X152768569Y-91463110D01*
X152717560Y-91715000D01*
X152717560Y-93015000D01*
X152761838Y-93250317D01*
X152900910Y-93466441D01*
X153113110Y-93611431D01*
X153365000Y-93662440D01*
X154915000Y-93662440D01*
X155150317Y-93618162D01*
X155366441Y-93479090D01*
X155511431Y-93266890D01*
X155535102Y-93150000D01*
X160692962Y-93150000D01*
X160711838Y-93250317D01*
X160850910Y-93466441D01*
X161063110Y-93611431D01*
X161315000Y-93662440D01*
X162865000Y-93662440D01*
X163100317Y-93618162D01*
X163316441Y-93479090D01*
X163461431Y-93266890D01*
X163512440Y-93015000D01*
X163512440Y-92537596D01*
X164315000Y-93340156D01*
X164315000Y-105868986D01*
X164016799Y-105745162D01*
X163644833Y-105744838D01*
X163301057Y-105886883D01*
X163290637Y-105897285D01*
X163116890Y-105778569D01*
X162865000Y-105727560D01*
X161315000Y-105727560D01*
X161079683Y-105771838D01*
X160863559Y-105910910D01*
X160718569Y-106123110D01*
X160694898Y-106240000D01*
X155537038Y-106240000D01*
X155518162Y-106139683D01*
X155379090Y-105923559D01*
X155166890Y-105778569D01*
X154915000Y-105727560D01*
X153365000Y-105727560D01*
X153129683Y-105771838D01*
X152913559Y-105910910D01*
X152768569Y-106123110D01*
X152717560Y-106375000D01*
X152717560Y-107675000D01*
X152761838Y-107910317D01*
X152900910Y-108126441D01*
X153113110Y-108271431D01*
X153365000Y-108322440D01*
X154915000Y-108322440D01*
X155150317Y-108278162D01*
X155366441Y-108139090D01*
X155511431Y-107926890D01*
X155535102Y-107810000D01*
X160692962Y-107810000D01*
X160711838Y-107910317D01*
X160850910Y-108126441D01*
X161063110Y-108271431D01*
X161315000Y-108322440D01*
X162865000Y-108322440D01*
X163100317Y-108278162D01*
X163316441Y-108139090D01*
X163461431Y-107926890D01*
X163485106Y-107809979D01*
X163785407Y-107750245D01*
X163987609Y-107615138D01*
X164015167Y-107615162D01*
X164315000Y-107491274D01*
X164315000Y-108894842D01*
X163274921Y-109934921D01*
X163104755Y-110189593D01*
X163045000Y-110490000D01*
X163056438Y-110547500D01*
X163045000Y-110605000D01*
X163045000Y-111173932D01*
X162963569Y-111293110D01*
X162912560Y-111545000D01*
X162912560Y-113245000D01*
X162956838Y-113480317D01*
X163095910Y-113696441D01*
X163308110Y-113841431D01*
X163560000Y-113892440D01*
X165560000Y-113892440D01*
X165795317Y-113848162D01*
X166011441Y-113709090D01*
X166156431Y-113496890D01*
X166207440Y-113245000D01*
X166207440Y-111545000D01*
X166163162Y-111309683D01*
X166024090Y-111093559D01*
X165811890Y-110948569D01*
X165560000Y-110897560D01*
X164615000Y-110897560D01*
X164615000Y-110815158D01*
X165655079Y-109775079D01*
X165825245Y-109520407D01*
X165885000Y-109220000D01*
X165885000Y-94061613D01*
X166658999Y-94835612D01*
X166658999Y-105379001D01*
X166718754Y-105679408D01*
X166888920Y-105934080D01*
X171364917Y-110410076D01*
X171364919Y-110410079D01*
X171619592Y-110580245D01*
X171651418Y-110586576D01*
X172102983Y-111038141D01*
X171971890Y-110948569D01*
X171720000Y-110897560D01*
X169720000Y-110897560D01*
X169484683Y-110941838D01*
X169268559Y-111080910D01*
X169123569Y-111293110D01*
X169072560Y-111545000D01*
X169072560Y-113245000D01*
X169116838Y-113480317D01*
X169255910Y-113696441D01*
X169468110Y-113841431D01*
X169720000Y-113892440D01*
X169935000Y-113892440D01*
X169935000Y-114668560D01*
X169672000Y-114668560D01*
X169436683Y-114712838D01*
X169220559Y-114851910D01*
X169075569Y-115064110D01*
X169024560Y-115316000D01*
X169024560Y-116332000D01*
X169068838Y-116567317D01*
X169207910Y-116783441D01*
X169420110Y-116928431D01*
X169608314Y-116966543D01*
X169436683Y-116998838D01*
X169220559Y-117137910D01*
X169075569Y-117350110D01*
X169024560Y-117602000D01*
X169024560Y-118618000D01*
X169068838Y-118853317D01*
X169207910Y-119069441D01*
X169420110Y-119214431D01*
X169610569Y-119253000D01*
X169545690Y-119253000D01*
X169312301Y-119349673D01*
X169133673Y-119528302D01*
X169037000Y-119761691D01*
X169037000Y-120110250D01*
X169195750Y-120269000D01*
X170561000Y-120269000D01*
X170561000Y-120249000D01*
X170815000Y-120249000D01*
X170815000Y-120269000D01*
X170835000Y-120269000D01*
X170835000Y-120523000D01*
X170815000Y-120523000D01*
X170815000Y-121380250D01*
X170973750Y-121539000D01*
X171830310Y-121539000D01*
X171935000Y-121495636D01*
X171935000Y-121810777D01*
X171839593Y-121829755D01*
X171584921Y-121999921D01*
X171257282Y-122327560D01*
X169720000Y-122327560D01*
X169484683Y-122371838D01*
X169268559Y-122510910D01*
X169123569Y-122723110D01*
X169072560Y-122975000D01*
X169072560Y-124675000D01*
X169116838Y-124910317D01*
X169255910Y-125126441D01*
X169468110Y-125271431D01*
X169720000Y-125322440D01*
X169935000Y-125322440D01*
X169935000Y-126769842D01*
X168623483Y-128081359D01*
X168275000Y-128012041D01*
X167701511Y-128126115D01*
X167215330Y-128450971D01*
X167005000Y-128765752D01*
X166794670Y-128450971D01*
X166308489Y-128126115D01*
X166074787Y-128079629D01*
X163177017Y-125181859D01*
X163308110Y-125271431D01*
X163560000Y-125322440D01*
X165560000Y-125322440D01*
X165784661Y-125280167D01*
X166704838Y-125280167D01*
X166846883Y-125623943D01*
X167109673Y-125887192D01*
X167453201Y-126029838D01*
X167825167Y-126030162D01*
X168168943Y-125888117D01*
X168432192Y-125625327D01*
X168574838Y-125281799D01*
X168575162Y-124909833D01*
X168433117Y-124566057D01*
X168170327Y-124302808D01*
X167826799Y-124160162D01*
X167454833Y-124159838D01*
X167111057Y-124301883D01*
X166847808Y-124564673D01*
X166705162Y-124908201D01*
X166704838Y-125280167D01*
X165784661Y-125280167D01*
X165795317Y-125278162D01*
X166011441Y-125139090D01*
X166156431Y-124926890D01*
X166207440Y-124675000D01*
X166207440Y-122975000D01*
X166163162Y-122739683D01*
X166024090Y-122523559D01*
X165811890Y-122378569D01*
X165560000Y-122327560D01*
X165345000Y-122327560D01*
X165345000Y-121603863D01*
X165399838Y-121471799D01*
X165400162Y-121099833D01*
X165258117Y-120756057D01*
X164995327Y-120492808D01*
X164651799Y-120350162D01*
X164279833Y-120349838D01*
X163980000Y-120473726D01*
X163980000Y-119588005D01*
X163980001Y-119588000D01*
X163920245Y-119287594D01*
X163871359Y-119214431D01*
X163750079Y-119032921D01*
X163750076Y-119032919D01*
X162399079Y-117681921D01*
X162151448Y-117516459D01*
X162147162Y-117493683D01*
X162008090Y-117277559D01*
X161795890Y-117132569D01*
X161607686Y-117094457D01*
X161779317Y-117062162D01*
X161995441Y-116923090D01*
X162140431Y-116710890D01*
X162191440Y-116459000D01*
X162191440Y-116408200D01*
X165468560Y-116408200D01*
X165468560Y-120065800D01*
X165512838Y-120301117D01*
X165651910Y-120517241D01*
X165864110Y-120662231D01*
X166116000Y-120713240D01*
X168148000Y-120713240D01*
X168315354Y-120681750D01*
X169037000Y-120681750D01*
X169037000Y-121030309D01*
X169133673Y-121263698D01*
X169312301Y-121442327D01*
X169545690Y-121539000D01*
X170402250Y-121539000D01*
X170561000Y-121380250D01*
X170561000Y-120523000D01*
X169195750Y-120523000D01*
X169037000Y-120681750D01*
X168315354Y-120681750D01*
X168383317Y-120668962D01*
X168599441Y-120529890D01*
X168744431Y-120317690D01*
X168795440Y-120065800D01*
X168795440Y-116408200D01*
X168751162Y-116172883D01*
X168612090Y-115956759D01*
X168399890Y-115811769D01*
X168148000Y-115760760D01*
X166116000Y-115760760D01*
X165880683Y-115805038D01*
X165664559Y-115944110D01*
X165519569Y-116156310D01*
X165468560Y-116408200D01*
X162191440Y-116408200D01*
X162191440Y-115443000D01*
X162147162Y-115207683D01*
X162008090Y-114991559D01*
X161795890Y-114846569D01*
X161544000Y-114795560D01*
X161345000Y-114795560D01*
X161345000Y-113892440D01*
X161560000Y-113892440D01*
X161795317Y-113848162D01*
X162011441Y-113709090D01*
X162156431Y-113496890D01*
X162207440Y-113245000D01*
X162207440Y-111545000D01*
X162163162Y-111309683D01*
X162024090Y-111093559D01*
X161811890Y-110948569D01*
X161560000Y-110897560D01*
X159560000Y-110897560D01*
X159324683Y-110941838D01*
X159108559Y-111080910D01*
X158963569Y-111293110D01*
X158912560Y-111545000D01*
X158912560Y-113245000D01*
X158956838Y-113480317D01*
X159095910Y-113696441D01*
X159308110Y-113841431D01*
X159560000Y-113892440D01*
X159775000Y-113892440D01*
X159775000Y-114795560D01*
X159512000Y-114795560D01*
X159276683Y-114839838D01*
X159060559Y-114978910D01*
X158915569Y-115191110D01*
X158864560Y-115443000D01*
X158864560Y-116459000D01*
X158908838Y-116694317D01*
X159047910Y-116910441D01*
X159260110Y-117055431D01*
X159448314Y-117093543D01*
X159276683Y-117125838D01*
X159060559Y-117264910D01*
X158915569Y-117477110D01*
X158864560Y-117729000D01*
X158864560Y-118745000D01*
X158908838Y-118980317D01*
X159047910Y-119196441D01*
X159260110Y-119341431D01*
X159450569Y-119380000D01*
X159385690Y-119380000D01*
X159152301Y-119476673D01*
X158973673Y-119655302D01*
X158877000Y-119888691D01*
X158877000Y-120237250D01*
X159035750Y-120396000D01*
X160401000Y-120396000D01*
X160401000Y-120376000D01*
X160655000Y-120376000D01*
X160655000Y-120396000D01*
X162020250Y-120396000D01*
X162179000Y-120237250D01*
X162179000Y-119888691D01*
X162082327Y-119655302D01*
X161903699Y-119476673D01*
X161670310Y-119380000D01*
X161610113Y-119380000D01*
X161779317Y-119348162D01*
X161819285Y-119322443D01*
X162410000Y-119913157D01*
X162410000Y-121014842D01*
X162116398Y-121308444D01*
X162179000Y-121157309D01*
X162179000Y-120808750D01*
X162020250Y-120650000D01*
X160655000Y-120650000D01*
X160655000Y-121507250D01*
X160813750Y-121666000D01*
X161670310Y-121666000D01*
X161821444Y-121603398D01*
X161097282Y-122327560D01*
X159560000Y-122327560D01*
X159324683Y-122371838D01*
X159108559Y-122510910D01*
X158963569Y-122723110D01*
X158912560Y-122975000D01*
X158912560Y-124675000D01*
X158956838Y-124910317D01*
X159095910Y-125126441D01*
X159308110Y-125271431D01*
X159560000Y-125322440D01*
X161097282Y-125322440D01*
X164495279Y-128720437D01*
X164350474Y-128937152D01*
X164236400Y-129510641D01*
X164236400Y-129569359D01*
X164350474Y-130142848D01*
X164661574Y-130608442D01*
X164636083Y-130613238D01*
X164419959Y-130752310D01*
X164274969Y-130964510D01*
X164223960Y-131216400D01*
X164223960Y-131295000D01*
X160280158Y-131295000D01*
X154307598Y-125322440D01*
X155400000Y-125322440D01*
X155635317Y-125278162D01*
X155851441Y-125139090D01*
X155996431Y-124926890D01*
X156047440Y-124675000D01*
X156047440Y-122975000D01*
X156003162Y-122739683D01*
X155864090Y-122523559D01*
X155651890Y-122378569D01*
X155400000Y-122327560D01*
X155185000Y-122327560D01*
X155185000Y-121603863D01*
X155239838Y-121471799D01*
X155240162Y-121099833D01*
X155119890Y-120808750D01*
X158877000Y-120808750D01*
X158877000Y-121157309D01*
X158973673Y-121390698D01*
X159152301Y-121569327D01*
X159385690Y-121666000D01*
X160242250Y-121666000D01*
X160401000Y-121507250D01*
X160401000Y-120650000D01*
X159035750Y-120650000D01*
X158877000Y-120808750D01*
X155119890Y-120808750D01*
X155098117Y-120756057D01*
X154835327Y-120492808D01*
X154491799Y-120350162D01*
X154119833Y-120349838D01*
X153776057Y-120491883D01*
X153512808Y-120754673D01*
X153370162Y-121098201D01*
X153369838Y-121470167D01*
X153511883Y-121813943D01*
X153615000Y-121917240D01*
X153615000Y-122327560D01*
X153400000Y-122327560D01*
X153164683Y-122371838D01*
X152982466Y-122489091D01*
X153125245Y-122275407D01*
X153185000Y-121975000D01*
X153185000Y-118953000D01*
X153134761Y-118700434D01*
X153125245Y-118652593D01*
X152955079Y-118397921D01*
X152112079Y-117554921D01*
X151864448Y-117389459D01*
X151860162Y-117366683D01*
X151721090Y-117150559D01*
X151508890Y-117005569D01*
X151320686Y-116967457D01*
X151492317Y-116935162D01*
X151708441Y-116796090D01*
X151853431Y-116583890D01*
X151904440Y-116332000D01*
X151904440Y-116281200D01*
X155181560Y-116281200D01*
X155181560Y-119938800D01*
X155225838Y-120174117D01*
X155364910Y-120390241D01*
X155577110Y-120535231D01*
X155829000Y-120586240D01*
X157861000Y-120586240D01*
X158096317Y-120541962D01*
X158312441Y-120402890D01*
X158457431Y-120190690D01*
X158508440Y-119938800D01*
X158508440Y-116281200D01*
X158464162Y-116045883D01*
X158325090Y-115829759D01*
X158112890Y-115684769D01*
X157861000Y-115633760D01*
X155829000Y-115633760D01*
X155593683Y-115678038D01*
X155377559Y-115817110D01*
X155232569Y-116029310D01*
X155181560Y-116281200D01*
X151904440Y-116281200D01*
X151904440Y-115316000D01*
X151860162Y-115080683D01*
X151721090Y-114864559D01*
X151508890Y-114719569D01*
X151257000Y-114668560D01*
X151185000Y-114668560D01*
X151185000Y-113892440D01*
X151400000Y-113892440D01*
X151635317Y-113848162D01*
X151851441Y-113709090D01*
X151996431Y-113496890D01*
X152047440Y-113245000D01*
X152047440Y-111545000D01*
X152003162Y-111309683D01*
X151864090Y-111093559D01*
X151651890Y-110948569D01*
X151400000Y-110897560D01*
X149400000Y-110897560D01*
X149267705Y-110922453D01*
X151050079Y-109140079D01*
X151104089Y-109059247D01*
X153056375Y-111011533D01*
X152948559Y-111080910D01*
X152803569Y-111293110D01*
X152752560Y-111545000D01*
X152752560Y-113245000D01*
X152796838Y-113480317D01*
X152935910Y-113696441D01*
X153148110Y-113841431D01*
X153400000Y-113892440D01*
X155400000Y-113892440D01*
X155635317Y-113848162D01*
X155851441Y-113709090D01*
X155996431Y-113496890D01*
X156047440Y-113245000D01*
X156047440Y-111545000D01*
X156003162Y-111309683D01*
X155864090Y-111093559D01*
X155651890Y-110948569D01*
X155400000Y-110897560D01*
X155093819Y-110897560D01*
X154955079Y-110689921D01*
X151915000Y-107649842D01*
X151915000Y-102810750D01*
X152730000Y-102810750D01*
X152730000Y-103301310D01*
X152826673Y-103534699D01*
X153005302Y-103713327D01*
X153238691Y-103810000D01*
X153854250Y-103810000D01*
X154013000Y-103651250D01*
X154013000Y-102652000D01*
X154267000Y-102652000D01*
X154267000Y-103651250D01*
X154425750Y-103810000D01*
X155041309Y-103810000D01*
X155274698Y-103713327D01*
X155453327Y-103534699D01*
X155550000Y-103301310D01*
X155550000Y-102810750D01*
X160680000Y-102810750D01*
X160680000Y-103301310D01*
X160776673Y-103534699D01*
X160955302Y-103713327D01*
X161188691Y-103810000D01*
X161804250Y-103810000D01*
X161963000Y-103651250D01*
X161963000Y-102652000D01*
X162217000Y-102652000D01*
X162217000Y-103651250D01*
X162375750Y-103810000D01*
X162991309Y-103810000D01*
X163224698Y-103713327D01*
X163403327Y-103534699D01*
X163500000Y-103301310D01*
X163500000Y-102810750D01*
X163341250Y-102652000D01*
X162217000Y-102652000D01*
X161963000Y-102652000D01*
X160838750Y-102652000D01*
X160680000Y-102810750D01*
X155550000Y-102810750D01*
X155391250Y-102652000D01*
X154267000Y-102652000D01*
X154013000Y-102652000D01*
X152888750Y-102652000D01*
X152730000Y-102810750D01*
X151915000Y-102810750D01*
X151915000Y-101748690D01*
X152730000Y-101748690D01*
X152730000Y-102239250D01*
X152888750Y-102398000D01*
X154013000Y-102398000D01*
X154013000Y-102378000D01*
X154267000Y-102378000D01*
X154267000Y-102398000D01*
X155391250Y-102398000D01*
X155550000Y-102239250D01*
X155550000Y-101748690D01*
X160680000Y-101748690D01*
X160680000Y-102239250D01*
X160838750Y-102398000D01*
X161963000Y-102398000D01*
X161963000Y-101398750D01*
X162217000Y-101398750D01*
X162217000Y-102398000D01*
X163341250Y-102398000D01*
X163500000Y-102239250D01*
X163500000Y-101748690D01*
X163403327Y-101515301D01*
X163224698Y-101336673D01*
X162991309Y-101240000D01*
X162375750Y-101240000D01*
X162217000Y-101398750D01*
X161963000Y-101398750D01*
X161804250Y-101240000D01*
X161188691Y-101240000D01*
X160955302Y-101336673D01*
X160776673Y-101515301D01*
X160680000Y-101748690D01*
X155550000Y-101748690D01*
X155453327Y-101515301D01*
X155274698Y-101336673D01*
X155041309Y-101240000D01*
X154908299Y-101240000D01*
X154963000Y-100965000D01*
X154903245Y-100664594D01*
X154733079Y-100409921D01*
X154478406Y-100239755D01*
X154178000Y-100180000D01*
X153877593Y-100239755D01*
X153622921Y-100409921D01*
X153584921Y-100447921D01*
X153414755Y-100702593D01*
X153355000Y-101003000D01*
X153402142Y-101240000D01*
X153238691Y-101240000D01*
X153005302Y-101336673D01*
X152826673Y-101515301D01*
X152730000Y-101748690D01*
X151915000Y-101748690D01*
X151915000Y-97150750D01*
X152730000Y-97150750D01*
X152730000Y-97641310D01*
X152826673Y-97874699D01*
X153005302Y-98053327D01*
X153238691Y-98150000D01*
X153854250Y-98150000D01*
X154013000Y-97991250D01*
X154013000Y-96992000D01*
X154267000Y-96992000D01*
X154267000Y-97991250D01*
X154425750Y-98150000D01*
X155041309Y-98150000D01*
X155274698Y-98053327D01*
X155453327Y-97874699D01*
X155550000Y-97641310D01*
X155550000Y-97150750D01*
X160680000Y-97150750D01*
X160680000Y-97641310D01*
X160776673Y-97874699D01*
X160955302Y-98053327D01*
X161188691Y-98150000D01*
X161804250Y-98150000D01*
X161963000Y-97991250D01*
X161963000Y-96992000D01*
X162217000Y-96992000D01*
X162217000Y-97991250D01*
X162375750Y-98150000D01*
X162991309Y-98150000D01*
X163224698Y-98053327D01*
X163403327Y-97874699D01*
X163500000Y-97641310D01*
X163500000Y-97150750D01*
X163341250Y-96992000D01*
X162217000Y-96992000D01*
X161963000Y-96992000D01*
X160838750Y-96992000D01*
X160680000Y-97150750D01*
X155550000Y-97150750D01*
X155391250Y-96992000D01*
X154267000Y-96992000D01*
X154013000Y-96992000D01*
X152888750Y-96992000D01*
X152730000Y-97150750D01*
X151915000Y-97150750D01*
X151915000Y-96088690D01*
X152730000Y-96088690D01*
X152730000Y-96579250D01*
X152888750Y-96738000D01*
X154013000Y-96738000D01*
X154013000Y-95738750D01*
X154267000Y-95738750D01*
X154267000Y-96738000D01*
X155391250Y-96738000D01*
X155550000Y-96579250D01*
X155550000Y-96088690D01*
X160680000Y-96088690D01*
X160680000Y-96579250D01*
X160838750Y-96738000D01*
X161963000Y-96738000D01*
X161963000Y-95738750D01*
X162217000Y-95738750D01*
X162217000Y-96738000D01*
X163341250Y-96738000D01*
X163500000Y-96579250D01*
X163500000Y-96088690D01*
X163403327Y-95855301D01*
X163224698Y-95676673D01*
X162991309Y-95580000D01*
X162375750Y-95580000D01*
X162217000Y-95738750D01*
X161963000Y-95738750D01*
X161804250Y-95580000D01*
X161188691Y-95580000D01*
X160955302Y-95676673D01*
X160776673Y-95855301D01*
X160680000Y-96088690D01*
X155550000Y-96088690D01*
X155453327Y-95855301D01*
X155274698Y-95676673D01*
X155041309Y-95580000D01*
X154425750Y-95580000D01*
X154267000Y-95738750D01*
X154013000Y-95738750D01*
X153854250Y-95580000D01*
X153238691Y-95580000D01*
X153005302Y-95676673D01*
X152826673Y-95855301D01*
X152730000Y-96088690D01*
X151915000Y-96088690D01*
X151915000Y-91362014D01*
X152213201Y-91485838D01*
X152213201Y-91485838D01*
G37*
X152213201Y-91485838D02*
X152585167Y-91486162D01*
X152818769Y-91389640D01*
X152768569Y-91463110D01*
X152717560Y-91715000D01*
X152717560Y-93015000D01*
X152761838Y-93250317D01*
X152900910Y-93466441D01*
X153113110Y-93611431D01*
X153365000Y-93662440D01*
X154915000Y-93662440D01*
X155150317Y-93618162D01*
X155366441Y-93479090D01*
X155511431Y-93266890D01*
X155535102Y-93150000D01*
X160692962Y-93150000D01*
X160711838Y-93250317D01*
X160850910Y-93466441D01*
X161063110Y-93611431D01*
X161315000Y-93662440D01*
X162865000Y-93662440D01*
X163100317Y-93618162D01*
X163316441Y-93479090D01*
X163461431Y-93266890D01*
X163512440Y-93015000D01*
X163512440Y-92537596D01*
X164315000Y-93340156D01*
X164315000Y-105868986D01*
X164016799Y-105745162D01*
X163644833Y-105744838D01*
X163301057Y-105886883D01*
X163290637Y-105897285D01*
X163116890Y-105778569D01*
X162865000Y-105727560D01*
X161315000Y-105727560D01*
X161079683Y-105771838D01*
X160863559Y-105910910D01*
X160718569Y-106123110D01*
X160694898Y-106240000D01*
X155537038Y-106240000D01*
X155518162Y-106139683D01*
X155379090Y-105923559D01*
X155166890Y-105778569D01*
X154915000Y-105727560D01*
X153365000Y-105727560D01*
X153129683Y-105771838D01*
X152913559Y-105910910D01*
X152768569Y-106123110D01*
X152717560Y-106375000D01*
X152717560Y-107675000D01*
X152761838Y-107910317D01*
X152900910Y-108126441D01*
X153113110Y-108271431D01*
X153365000Y-108322440D01*
X154915000Y-108322440D01*
X155150317Y-108278162D01*
X155366441Y-108139090D01*
X155511431Y-107926890D01*
X155535102Y-107810000D01*
X160692962Y-107810000D01*
X160711838Y-107910317D01*
X160850910Y-108126441D01*
X161063110Y-108271431D01*
X161315000Y-108322440D01*
X162865000Y-108322440D01*
X163100317Y-108278162D01*
X163316441Y-108139090D01*
X163461431Y-107926890D01*
X163485106Y-107809979D01*
X163785407Y-107750245D01*
X163987609Y-107615138D01*
X164015167Y-107615162D01*
X164315000Y-107491274D01*
X164315000Y-108894842D01*
X163274921Y-109934921D01*
X163104755Y-110189593D01*
X163045000Y-110490000D01*
X163056438Y-110547500D01*
X163045000Y-110605000D01*
X163045000Y-111173932D01*
X162963569Y-111293110D01*
X162912560Y-111545000D01*
X162912560Y-113245000D01*
X162956838Y-113480317D01*
X163095910Y-113696441D01*
X163308110Y-113841431D01*
X163560000Y-113892440D01*
X165560000Y-113892440D01*
X165795317Y-113848162D01*
X166011441Y-113709090D01*
X166156431Y-113496890D01*
X166207440Y-113245000D01*
X166207440Y-111545000D01*
X166163162Y-111309683D01*
X166024090Y-111093559D01*
X165811890Y-110948569D01*
X165560000Y-110897560D01*
X164615000Y-110897560D01*
X164615000Y-110815158D01*
X165655079Y-109775079D01*
X165825245Y-109520407D01*
X165885000Y-109220000D01*
X165885000Y-94061613D01*
X166658999Y-94835612D01*
X166658999Y-105379001D01*
X166718754Y-105679408D01*
X166888920Y-105934080D01*
X171364917Y-110410076D01*
X171364919Y-110410079D01*
X171619592Y-110580245D01*
X171651418Y-110586576D01*
X172102983Y-111038141D01*
X171971890Y-110948569D01*
X171720000Y-110897560D01*
X169720000Y-110897560D01*
X169484683Y-110941838D01*
X169268559Y-111080910D01*
X169123569Y-111293110D01*
X169072560Y-111545000D01*
X169072560Y-113245000D01*
X169116838Y-113480317D01*
X169255910Y-113696441D01*
X169468110Y-113841431D01*
X169720000Y-113892440D01*
X169935000Y-113892440D01*
X169935000Y-114668560D01*
X169672000Y-114668560D01*
X169436683Y-114712838D01*
X169220559Y-114851910D01*
X169075569Y-115064110D01*
X169024560Y-115316000D01*
X169024560Y-116332000D01*
X169068838Y-116567317D01*
X169207910Y-116783441D01*
X169420110Y-116928431D01*
X169608314Y-116966543D01*
X169436683Y-116998838D01*
X169220559Y-117137910D01*
X169075569Y-117350110D01*
X169024560Y-117602000D01*
X169024560Y-118618000D01*
X169068838Y-118853317D01*
X169207910Y-119069441D01*
X169420110Y-119214431D01*
X169610569Y-119253000D01*
X169545690Y-119253000D01*
X169312301Y-119349673D01*
X169133673Y-119528302D01*
X169037000Y-119761691D01*
X169037000Y-120110250D01*
X169195750Y-120269000D01*
X170561000Y-120269000D01*
X170561000Y-120249000D01*
X170815000Y-120249000D01*
X170815000Y-120269000D01*
X170835000Y-120269000D01*
X170835000Y-120523000D01*
X170815000Y-120523000D01*
X170815000Y-121380250D01*
X170973750Y-121539000D01*
X171830310Y-121539000D01*
X171935000Y-121495636D01*
X171935000Y-121810777D01*
X171839593Y-121829755D01*
X171584921Y-121999921D01*
X171257282Y-122327560D01*
X169720000Y-122327560D01*
X169484683Y-122371838D01*
X169268559Y-122510910D01*
X169123569Y-122723110D01*
X169072560Y-122975000D01*
X169072560Y-124675000D01*
X169116838Y-124910317D01*
X169255910Y-125126441D01*
X169468110Y-125271431D01*
X169720000Y-125322440D01*
X169935000Y-125322440D01*
X169935000Y-126769842D01*
X168623483Y-128081359D01*
X168275000Y-128012041D01*
X167701511Y-128126115D01*
X167215330Y-128450971D01*
X167005000Y-128765752D01*
X166794670Y-128450971D01*
X166308489Y-128126115D01*
X166074787Y-128079629D01*
X163177017Y-125181859D01*
X163308110Y-125271431D01*
X163560000Y-125322440D01*
X165560000Y-125322440D01*
X165784661Y-125280167D01*
X166704838Y-125280167D01*
X166846883Y-125623943D01*
X167109673Y-125887192D01*
X167453201Y-126029838D01*
X167825167Y-126030162D01*
X168168943Y-125888117D01*
X168432192Y-125625327D01*
X168574838Y-125281799D01*
X168575162Y-124909833D01*
X168433117Y-124566057D01*
X168170327Y-124302808D01*
X167826799Y-124160162D01*
X167454833Y-124159838D01*
X167111057Y-124301883D01*
X166847808Y-124564673D01*
X166705162Y-124908201D01*
X166704838Y-125280167D01*
X165784661Y-125280167D01*
X165795317Y-125278162D01*
X166011441Y-125139090D01*
X166156431Y-124926890D01*
X166207440Y-124675000D01*
X166207440Y-122975000D01*
X166163162Y-122739683D01*
X166024090Y-122523559D01*
X165811890Y-122378569D01*
X165560000Y-122327560D01*
X165345000Y-122327560D01*
X165345000Y-121603863D01*
X165399838Y-121471799D01*
X165400162Y-121099833D01*
X165258117Y-120756057D01*
X164995327Y-120492808D01*
X164651799Y-120350162D01*
X164279833Y-120349838D01*
X163980000Y-120473726D01*
X163980000Y-119588005D01*
X163980001Y-119588000D01*
X163920245Y-119287594D01*
X163871359Y-119214431D01*
X163750079Y-119032921D01*
X163750076Y-119032919D01*
X162399079Y-117681921D01*
X162151448Y-117516459D01*
X162147162Y-117493683D01*
X162008090Y-117277559D01*
X161795890Y-117132569D01*
X161607686Y-117094457D01*
X161779317Y-117062162D01*
X161995441Y-116923090D01*
X162140431Y-116710890D01*
X162191440Y-116459000D01*
X162191440Y-116408200D01*
X165468560Y-116408200D01*
X165468560Y-120065800D01*
X165512838Y-120301117D01*
X165651910Y-120517241D01*
X165864110Y-120662231D01*
X166116000Y-120713240D01*
X168148000Y-120713240D01*
X168315354Y-120681750D01*
X169037000Y-120681750D01*
X169037000Y-121030309D01*
X169133673Y-121263698D01*
X169312301Y-121442327D01*
X169545690Y-121539000D01*
X170402250Y-121539000D01*
X170561000Y-121380250D01*
X170561000Y-120523000D01*
X169195750Y-120523000D01*
X169037000Y-120681750D01*
X168315354Y-120681750D01*
X168383317Y-120668962D01*
X168599441Y-120529890D01*
X168744431Y-120317690D01*
X168795440Y-120065800D01*
X168795440Y-116408200D01*
X168751162Y-116172883D01*
X168612090Y-115956759D01*
X168399890Y-115811769D01*
X168148000Y-115760760D01*
X166116000Y-115760760D01*
X165880683Y-115805038D01*
X165664559Y-115944110D01*
X165519569Y-116156310D01*
X165468560Y-116408200D01*
X162191440Y-116408200D01*
X162191440Y-115443000D01*
X162147162Y-115207683D01*
X162008090Y-114991559D01*
X161795890Y-114846569D01*
X161544000Y-114795560D01*
X161345000Y-114795560D01*
X161345000Y-113892440D01*
X161560000Y-113892440D01*
X161795317Y-113848162D01*
X162011441Y-113709090D01*
X162156431Y-113496890D01*
X162207440Y-113245000D01*
X162207440Y-111545000D01*
X162163162Y-111309683D01*
X162024090Y-111093559D01*
X161811890Y-110948569D01*
X161560000Y-110897560D01*
X159560000Y-110897560D01*
X159324683Y-110941838D01*
X159108559Y-111080910D01*
X158963569Y-111293110D01*
X158912560Y-111545000D01*
X158912560Y-113245000D01*
X158956838Y-113480317D01*
X159095910Y-113696441D01*
X159308110Y-113841431D01*
X159560000Y-113892440D01*
X159775000Y-113892440D01*
X159775000Y-114795560D01*
X159512000Y-114795560D01*
X159276683Y-114839838D01*
X159060559Y-114978910D01*
X158915569Y-115191110D01*
X158864560Y-115443000D01*
X158864560Y-116459000D01*
X158908838Y-116694317D01*
X159047910Y-116910441D01*
X159260110Y-117055431D01*
X159448314Y-117093543D01*
X159276683Y-117125838D01*
X159060559Y-117264910D01*
X158915569Y-117477110D01*
X158864560Y-117729000D01*
X158864560Y-118745000D01*
X158908838Y-118980317D01*
X159047910Y-119196441D01*
X159260110Y-119341431D01*
X159450569Y-119380000D01*
X159385690Y-119380000D01*
X159152301Y-119476673D01*
X158973673Y-119655302D01*
X158877000Y-119888691D01*
X158877000Y-120237250D01*
X159035750Y-120396000D01*
X160401000Y-120396000D01*
X160401000Y-120376000D01*
X160655000Y-120376000D01*
X160655000Y-120396000D01*
X162020250Y-120396000D01*
X162179000Y-120237250D01*
X162179000Y-119888691D01*
X162082327Y-119655302D01*
X161903699Y-119476673D01*
X161670310Y-119380000D01*
X161610113Y-119380000D01*
X161779317Y-119348162D01*
X161819285Y-119322443D01*
X162410000Y-119913157D01*
X162410000Y-121014842D01*
X162116398Y-121308444D01*
X162179000Y-121157309D01*
X162179000Y-120808750D01*
X162020250Y-120650000D01*
X160655000Y-120650000D01*
X160655000Y-121507250D01*
X160813750Y-121666000D01*
X161670310Y-121666000D01*
X161821444Y-121603398D01*
X161097282Y-122327560D01*
X159560000Y-122327560D01*
X159324683Y-122371838D01*
X159108559Y-122510910D01*
X158963569Y-122723110D01*
X158912560Y-122975000D01*
X158912560Y-124675000D01*
X158956838Y-124910317D01*
X159095910Y-125126441D01*
X159308110Y-125271431D01*
X159560000Y-125322440D01*
X161097282Y-125322440D01*
X164495279Y-128720437D01*
X164350474Y-128937152D01*
X164236400Y-129510641D01*
X164236400Y-129569359D01*
X164350474Y-130142848D01*
X164661574Y-130608442D01*
X164636083Y-130613238D01*
X164419959Y-130752310D01*
X164274969Y-130964510D01*
X164223960Y-131216400D01*
X164223960Y-131295000D01*
X160280158Y-131295000D01*
X154307598Y-125322440D01*
X155400000Y-125322440D01*
X155635317Y-125278162D01*
X155851441Y-125139090D01*
X155996431Y-124926890D01*
X156047440Y-124675000D01*
X156047440Y-122975000D01*
X156003162Y-122739683D01*
X155864090Y-122523559D01*
X155651890Y-122378569D01*
X155400000Y-122327560D01*
X155185000Y-122327560D01*
X155185000Y-121603863D01*
X155239838Y-121471799D01*
X155240162Y-121099833D01*
X155119890Y-120808750D01*
X158877000Y-120808750D01*
X158877000Y-121157309D01*
X158973673Y-121390698D01*
X159152301Y-121569327D01*
X159385690Y-121666000D01*
X160242250Y-121666000D01*
X160401000Y-121507250D01*
X160401000Y-120650000D01*
X159035750Y-120650000D01*
X158877000Y-120808750D01*
X155119890Y-120808750D01*
X155098117Y-120756057D01*
X154835327Y-120492808D01*
X154491799Y-120350162D01*
X154119833Y-120349838D01*
X153776057Y-120491883D01*
X153512808Y-120754673D01*
X153370162Y-121098201D01*
X153369838Y-121470167D01*
X153511883Y-121813943D01*
X153615000Y-121917240D01*
X153615000Y-122327560D01*
X153400000Y-122327560D01*
X153164683Y-122371838D01*
X152982466Y-122489091D01*
X153125245Y-122275407D01*
X153185000Y-121975000D01*
X153185000Y-118953000D01*
X153134761Y-118700434D01*
X153125245Y-118652593D01*
X152955079Y-118397921D01*
X152112079Y-117554921D01*
X151864448Y-117389459D01*
X151860162Y-117366683D01*
X151721090Y-117150559D01*
X151508890Y-117005569D01*
X151320686Y-116967457D01*
X151492317Y-116935162D01*
X151708441Y-116796090D01*
X151853431Y-116583890D01*
X151904440Y-116332000D01*
X151904440Y-116281200D01*
X155181560Y-116281200D01*
X155181560Y-119938800D01*
X155225838Y-120174117D01*
X155364910Y-120390241D01*
X155577110Y-120535231D01*
X155829000Y-120586240D01*
X157861000Y-120586240D01*
X158096317Y-120541962D01*
X158312441Y-120402890D01*
X158457431Y-120190690D01*
X158508440Y-119938800D01*
X158508440Y-116281200D01*
X158464162Y-116045883D01*
X158325090Y-115829759D01*
X158112890Y-115684769D01*
X157861000Y-115633760D01*
X155829000Y-115633760D01*
X155593683Y-115678038D01*
X155377559Y-115817110D01*
X155232569Y-116029310D01*
X155181560Y-116281200D01*
X151904440Y-116281200D01*
X151904440Y-115316000D01*
X151860162Y-115080683D01*
X151721090Y-114864559D01*
X151508890Y-114719569D01*
X151257000Y-114668560D01*
X151185000Y-114668560D01*
X151185000Y-113892440D01*
X151400000Y-113892440D01*
X151635317Y-113848162D01*
X151851441Y-113709090D01*
X151996431Y-113496890D01*
X152047440Y-113245000D01*
X152047440Y-111545000D01*
X152003162Y-111309683D01*
X151864090Y-111093559D01*
X151651890Y-110948569D01*
X151400000Y-110897560D01*
X149400000Y-110897560D01*
X149267705Y-110922453D01*
X151050079Y-109140079D01*
X151104089Y-109059247D01*
X153056375Y-111011533D01*
X152948559Y-111080910D01*
X152803569Y-111293110D01*
X152752560Y-111545000D01*
X152752560Y-113245000D01*
X152796838Y-113480317D01*
X152935910Y-113696441D01*
X153148110Y-113841431D01*
X153400000Y-113892440D01*
X155400000Y-113892440D01*
X155635317Y-113848162D01*
X155851441Y-113709090D01*
X155996431Y-113496890D01*
X156047440Y-113245000D01*
X156047440Y-111545000D01*
X156003162Y-111309683D01*
X155864090Y-111093559D01*
X155651890Y-110948569D01*
X155400000Y-110897560D01*
X155093819Y-110897560D01*
X154955079Y-110689921D01*
X151915000Y-107649842D01*
X151915000Y-102810750D01*
X152730000Y-102810750D01*
X152730000Y-103301310D01*
X152826673Y-103534699D01*
X153005302Y-103713327D01*
X153238691Y-103810000D01*
X153854250Y-103810000D01*
X154013000Y-103651250D01*
X154013000Y-102652000D01*
X154267000Y-102652000D01*
X154267000Y-103651250D01*
X154425750Y-103810000D01*
X155041309Y-103810000D01*
X155274698Y-103713327D01*
X155453327Y-103534699D01*
X155550000Y-103301310D01*
X155550000Y-102810750D01*
X160680000Y-102810750D01*
X160680000Y-103301310D01*
X160776673Y-103534699D01*
X160955302Y-103713327D01*
X161188691Y-103810000D01*
X161804250Y-103810000D01*
X161963000Y-103651250D01*
X161963000Y-102652000D01*
X162217000Y-102652000D01*
X162217000Y-103651250D01*
X162375750Y-103810000D01*
X162991309Y-103810000D01*
X163224698Y-103713327D01*
X163403327Y-103534699D01*
X163500000Y-103301310D01*
X163500000Y-102810750D01*
X163341250Y-102652000D01*
X162217000Y-102652000D01*
X161963000Y-102652000D01*
X160838750Y-102652000D01*
X160680000Y-102810750D01*
X155550000Y-102810750D01*
X155391250Y-102652000D01*
X154267000Y-102652000D01*
X154013000Y-102652000D01*
X152888750Y-102652000D01*
X152730000Y-102810750D01*
X151915000Y-102810750D01*
X151915000Y-101748690D01*
X152730000Y-101748690D01*
X152730000Y-102239250D01*
X152888750Y-102398000D01*
X154013000Y-102398000D01*
X154013000Y-102378000D01*
X154267000Y-102378000D01*
X154267000Y-102398000D01*
X155391250Y-102398000D01*
X155550000Y-102239250D01*
X155550000Y-101748690D01*
X160680000Y-101748690D01*
X160680000Y-102239250D01*
X160838750Y-102398000D01*
X161963000Y-102398000D01*
X161963000Y-101398750D01*
X162217000Y-101398750D01*
X162217000Y-102398000D01*
X163341250Y-102398000D01*
X163500000Y-102239250D01*
X163500000Y-101748690D01*
X163403327Y-101515301D01*
X163224698Y-101336673D01*
X162991309Y-101240000D01*
X162375750Y-101240000D01*
X162217000Y-101398750D01*
X161963000Y-101398750D01*
X161804250Y-101240000D01*
X161188691Y-101240000D01*
X160955302Y-101336673D01*
X160776673Y-101515301D01*
X160680000Y-101748690D01*
X155550000Y-101748690D01*
X155453327Y-101515301D01*
X155274698Y-101336673D01*
X155041309Y-101240000D01*
X154908299Y-101240000D01*
X154963000Y-100965000D01*
X154903245Y-100664594D01*
X154733079Y-100409921D01*
X154478406Y-100239755D01*
X154178000Y-100180000D01*
X153877593Y-100239755D01*
X153622921Y-100409921D01*
X153584921Y-100447921D01*
X153414755Y-100702593D01*
X153355000Y-101003000D01*
X153402142Y-101240000D01*
X153238691Y-101240000D01*
X153005302Y-101336673D01*
X152826673Y-101515301D01*
X152730000Y-101748690D01*
X151915000Y-101748690D01*
X151915000Y-97150750D01*
X152730000Y-97150750D01*
X152730000Y-97641310D01*
X152826673Y-97874699D01*
X153005302Y-98053327D01*
X153238691Y-98150000D01*
X153854250Y-98150000D01*
X154013000Y-97991250D01*
X154013000Y-96992000D01*
X154267000Y-96992000D01*
X154267000Y-97991250D01*
X154425750Y-98150000D01*
X155041309Y-98150000D01*
X155274698Y-98053327D01*
X155453327Y-97874699D01*
X155550000Y-97641310D01*
X155550000Y-97150750D01*
X160680000Y-97150750D01*
X160680000Y-97641310D01*
X160776673Y-97874699D01*
X160955302Y-98053327D01*
X161188691Y-98150000D01*
X161804250Y-98150000D01*
X161963000Y-97991250D01*
X161963000Y-96992000D01*
X162217000Y-96992000D01*
X162217000Y-97991250D01*
X162375750Y-98150000D01*
X162991309Y-98150000D01*
X163224698Y-98053327D01*
X163403327Y-97874699D01*
X163500000Y-97641310D01*
X163500000Y-97150750D01*
X163341250Y-96992000D01*
X162217000Y-96992000D01*
X161963000Y-96992000D01*
X160838750Y-96992000D01*
X160680000Y-97150750D01*
X155550000Y-97150750D01*
X155391250Y-96992000D01*
X154267000Y-96992000D01*
X154013000Y-96992000D01*
X152888750Y-96992000D01*
X152730000Y-97150750D01*
X151915000Y-97150750D01*
X151915000Y-96088690D01*
X152730000Y-96088690D01*
X152730000Y-96579250D01*
X152888750Y-96738000D01*
X154013000Y-96738000D01*
X154013000Y-95738750D01*
X154267000Y-95738750D01*
X154267000Y-96738000D01*
X155391250Y-96738000D01*
X155550000Y-96579250D01*
X155550000Y-96088690D01*
X160680000Y-96088690D01*
X160680000Y-96579250D01*
X160838750Y-96738000D01*
X161963000Y-96738000D01*
X161963000Y-95738750D01*
X162217000Y-95738750D01*
X162217000Y-96738000D01*
X163341250Y-96738000D01*
X163500000Y-96579250D01*
X163500000Y-96088690D01*
X163403327Y-95855301D01*
X163224698Y-95676673D01*
X162991309Y-95580000D01*
X162375750Y-95580000D01*
X162217000Y-95738750D01*
X161963000Y-95738750D01*
X161804250Y-95580000D01*
X161188691Y-95580000D01*
X160955302Y-95676673D01*
X160776673Y-95855301D01*
X160680000Y-96088690D01*
X155550000Y-96088690D01*
X155453327Y-95855301D01*
X155274698Y-95676673D01*
X155041309Y-95580000D01*
X154425750Y-95580000D01*
X154267000Y-95738750D01*
X154013000Y-95738750D01*
X153854250Y-95580000D01*
X153238691Y-95580000D01*
X153005302Y-95676673D01*
X152826673Y-95855301D01*
X152730000Y-96088690D01*
X151915000Y-96088690D01*
X151915000Y-91362014D01*
X152213201Y-91485838D01*
G36*
X173072560Y-124675000D02*
X173116838Y-124910317D01*
X173255910Y-125126441D01*
X173468110Y-125271431D01*
X173720000Y-125322440D01*
X174026181Y-125322440D01*
X174164921Y-125530079D01*
X176423601Y-127788759D01*
X176423601Y-128155278D01*
X176254026Y-128085042D01*
X176022000Y-128206183D01*
X176022000Y-129413000D01*
X176042000Y-129413000D01*
X176042000Y-129667000D01*
X176022000Y-129667000D01*
X176022000Y-129687000D01*
X175768000Y-129687000D01*
X175768000Y-129667000D01*
X173482000Y-129667000D01*
X173482000Y-129687000D01*
X173228000Y-129687000D01*
X173228000Y-129667000D01*
X173208000Y-129667000D01*
X173208000Y-129413000D01*
X173228000Y-129413000D01*
X173228000Y-128206183D01*
X173482000Y-128206183D01*
X173482000Y-129413000D01*
X175768000Y-129413000D01*
X175768000Y-128206183D01*
X175535974Y-128085042D01*
X175120053Y-128257312D01*
X174688179Y-128651510D01*
X174625000Y-128786313D01*
X174561821Y-128651510D01*
X174129947Y-128257312D01*
X173714026Y-128085042D01*
X173482000Y-128206183D01*
X173228000Y-128206183D01*
X172995974Y-128085042D01*
X172580053Y-128257312D01*
X172148179Y-128651510D01*
X172090664Y-128774228D01*
X171874670Y-128450971D01*
X171388489Y-128126115D01*
X170896838Y-128028320D01*
X171275079Y-127650079D01*
X171445245Y-127395407D01*
X171505000Y-127095000D01*
X171505000Y-125322440D01*
X171720000Y-125322440D01*
X171955317Y-125278162D01*
X172171441Y-125139090D01*
X172316431Y-124926890D01*
X172367440Y-124675000D01*
X172367440Y-123437718D01*
X172465158Y-123340000D01*
X172720000Y-123340000D01*
X173020406Y-123280245D01*
X173072560Y-123245397D01*
X173072560Y-124675000D01*
X173072560Y-124675000D01*
G37*
X173072560Y-124675000D02*
X173116838Y-124910317D01*
X173255910Y-125126441D01*
X173468110Y-125271431D01*
X173720000Y-125322440D01*
X174026181Y-125322440D01*
X174164921Y-125530079D01*
X176423601Y-127788759D01*
X176423601Y-128155278D01*
X176254026Y-128085042D01*
X176022000Y-128206183D01*
X176022000Y-129413000D01*
X176042000Y-129413000D01*
X176042000Y-129667000D01*
X176022000Y-129667000D01*
X176022000Y-129687000D01*
X175768000Y-129687000D01*
X175768000Y-129667000D01*
X173482000Y-129667000D01*
X173482000Y-129687000D01*
X173228000Y-129687000D01*
X173228000Y-129667000D01*
X173208000Y-129667000D01*
X173208000Y-129413000D01*
X173228000Y-129413000D01*
X173228000Y-128206183D01*
X173482000Y-128206183D01*
X173482000Y-129413000D01*
X175768000Y-129413000D01*
X175768000Y-128206183D01*
X175535974Y-128085042D01*
X175120053Y-128257312D01*
X174688179Y-128651510D01*
X174625000Y-128786313D01*
X174561821Y-128651510D01*
X174129947Y-128257312D01*
X173714026Y-128085042D01*
X173482000Y-128206183D01*
X173228000Y-128206183D01*
X172995974Y-128085042D01*
X172580053Y-128257312D01*
X172148179Y-128651510D01*
X172090664Y-128774228D01*
X171874670Y-128450971D01*
X171388489Y-128126115D01*
X170896838Y-128028320D01*
X171275079Y-127650079D01*
X171445245Y-127395407D01*
X171505000Y-127095000D01*
X171505000Y-125322440D01*
X171720000Y-125322440D01*
X171955317Y-125278162D01*
X172171441Y-125139090D01*
X172316431Y-124926890D01*
X172367440Y-124675000D01*
X172367440Y-123437718D01*
X172465158Y-123340000D01*
X172720000Y-123340000D01*
X173020406Y-123280245D01*
X173072560Y-123245397D01*
X173072560Y-124675000D01*
G36*
X147398921Y-76500079D02*
X147627963Y-76653119D01*
X162042404Y-91067560D01*
X161315000Y-91067560D01*
X161079683Y-91111838D01*
X160863559Y-91250910D01*
X160718569Y-91463110D01*
X160694898Y-91580000D01*
X155537038Y-91580000D01*
X155518162Y-91479683D01*
X155379090Y-91263559D01*
X155166890Y-91118569D01*
X154915000Y-91067560D01*
X154833818Y-91067560D01*
X154695079Y-90859921D01*
X153717079Y-89881921D01*
X153462407Y-89711755D01*
X153162000Y-89652000D01*
X152673106Y-89652000D01*
X152586799Y-89616162D01*
X152214833Y-89615838D01*
X151871057Y-89757883D01*
X151607808Y-90020673D01*
X151563217Y-90128059D01*
X149837629Y-88402471D01*
X150035000Y-88442440D01*
X152035000Y-88442440D01*
X152270317Y-88398162D01*
X152486441Y-88259090D01*
X152631431Y-88046890D01*
X152682440Y-87795000D01*
X152682440Y-87280750D01*
X153400000Y-87280750D01*
X153400000Y-87921310D01*
X153496673Y-88154699D01*
X153675302Y-88333327D01*
X153908691Y-88430000D01*
X154749250Y-88430000D01*
X154908000Y-88271250D01*
X154908000Y-87122000D01*
X155162000Y-87122000D01*
X155162000Y-88271250D01*
X155320750Y-88430000D01*
X156161309Y-88430000D01*
X156394698Y-88333327D01*
X156573327Y-88154699D01*
X156670000Y-87921310D01*
X156670000Y-87280750D01*
X156511250Y-87122000D01*
X155162000Y-87122000D01*
X154908000Y-87122000D01*
X153558750Y-87122000D01*
X153400000Y-87280750D01*
X152682440Y-87280750D01*
X152682440Y-86195000D01*
X152658674Y-86068690D01*
X153400000Y-86068690D01*
X153400000Y-86709250D01*
X153558750Y-86868000D01*
X154908000Y-86868000D01*
X154908000Y-85718750D01*
X155162000Y-85718750D01*
X155162000Y-86868000D01*
X156511250Y-86868000D01*
X156670000Y-86709250D01*
X156670000Y-86068690D01*
X156573327Y-85835301D01*
X156394698Y-85656673D01*
X156161309Y-85560000D01*
X155320750Y-85560000D01*
X155162000Y-85718750D01*
X154908000Y-85718750D01*
X154749250Y-85560000D01*
X153908691Y-85560000D01*
X153675302Y-85656673D01*
X153496673Y-85835301D01*
X153400000Y-86068690D01*
X152658674Y-86068690D01*
X152638162Y-85959683D01*
X152499090Y-85743559D01*
X152286890Y-85598569D01*
X152035000Y-85547560D01*
X150989143Y-85547560D01*
X151048838Y-85403799D01*
X151049162Y-85031833D01*
X150907117Y-84688057D01*
X150644327Y-84424808D01*
X150300799Y-84282162D01*
X149928833Y-84281838D01*
X149585057Y-84423883D01*
X149321808Y-84686673D01*
X149179162Y-85030201D01*
X149178838Y-85402167D01*
X149320883Y-85745943D01*
X149329000Y-85754074D01*
X149329000Y-86074000D01*
X149387560Y-86368399D01*
X149387560Y-87795000D01*
X149424042Y-87988884D01*
X148740000Y-87304842D01*
X148740000Y-81277000D01*
X148736976Y-81261797D01*
X148680245Y-80976593D01*
X148510079Y-80721921D01*
X144048385Y-76260227D01*
X144066929Y-76167000D01*
X143976726Y-75713520D01*
X143719851Y-75329078D01*
X143477283Y-75167000D01*
X143719851Y-75004922D01*
X143755212Y-74952000D01*
X145850842Y-74952000D01*
X147398921Y-76500079D01*
X147398921Y-76500079D01*
G37*
X147398921Y-76500079D02*
X147627963Y-76653119D01*
X162042404Y-91067560D01*
X161315000Y-91067560D01*
X161079683Y-91111838D01*
X160863559Y-91250910D01*
X160718569Y-91463110D01*
X160694898Y-91580000D01*
X155537038Y-91580000D01*
X155518162Y-91479683D01*
X155379090Y-91263559D01*
X155166890Y-91118569D01*
X154915000Y-91067560D01*
X154833818Y-91067560D01*
X154695079Y-90859921D01*
X153717079Y-89881921D01*
X153462407Y-89711755D01*
X153162000Y-89652000D01*
X152673106Y-89652000D01*
X152586799Y-89616162D01*
X152214833Y-89615838D01*
X151871057Y-89757883D01*
X151607808Y-90020673D01*
X151563217Y-90128059D01*
X149837629Y-88402471D01*
X150035000Y-88442440D01*
X152035000Y-88442440D01*
X152270317Y-88398162D01*
X152486441Y-88259090D01*
X152631431Y-88046890D01*
X152682440Y-87795000D01*
X152682440Y-87280750D01*
X153400000Y-87280750D01*
X153400000Y-87921310D01*
X153496673Y-88154699D01*
X153675302Y-88333327D01*
X153908691Y-88430000D01*
X154749250Y-88430000D01*
X154908000Y-88271250D01*
X154908000Y-87122000D01*
X155162000Y-87122000D01*
X155162000Y-88271250D01*
X155320750Y-88430000D01*
X156161309Y-88430000D01*
X156394698Y-88333327D01*
X156573327Y-88154699D01*
X156670000Y-87921310D01*
X156670000Y-87280750D01*
X156511250Y-87122000D01*
X155162000Y-87122000D01*
X154908000Y-87122000D01*
X153558750Y-87122000D01*
X153400000Y-87280750D01*
X152682440Y-87280750D01*
X152682440Y-86195000D01*
X152658674Y-86068690D01*
X153400000Y-86068690D01*
X153400000Y-86709250D01*
X153558750Y-86868000D01*
X154908000Y-86868000D01*
X154908000Y-85718750D01*
X155162000Y-85718750D01*
X155162000Y-86868000D01*
X156511250Y-86868000D01*
X156670000Y-86709250D01*
X156670000Y-86068690D01*
X156573327Y-85835301D01*
X156394698Y-85656673D01*
X156161309Y-85560000D01*
X155320750Y-85560000D01*
X155162000Y-85718750D01*
X154908000Y-85718750D01*
X154749250Y-85560000D01*
X153908691Y-85560000D01*
X153675302Y-85656673D01*
X153496673Y-85835301D01*
X153400000Y-86068690D01*
X152658674Y-86068690D01*
X152638162Y-85959683D01*
X152499090Y-85743559D01*
X152286890Y-85598569D01*
X152035000Y-85547560D01*
X150989143Y-85547560D01*
X151048838Y-85403799D01*
X151049162Y-85031833D01*
X150907117Y-84688057D01*
X150644327Y-84424808D01*
X150300799Y-84282162D01*
X149928833Y-84281838D01*
X149585057Y-84423883D01*
X149321808Y-84686673D01*
X149179162Y-85030201D01*
X149178838Y-85402167D01*
X149320883Y-85745943D01*
X149329000Y-85754074D01*
X149329000Y-86074000D01*
X149387560Y-86368399D01*
X149387560Y-87795000D01*
X149424042Y-87988884D01*
X148740000Y-87304842D01*
X148740000Y-81277000D01*
X148736976Y-81261797D01*
X148680245Y-80976593D01*
X148510079Y-80721921D01*
X144048385Y-76260227D01*
X144066929Y-76167000D01*
X143976726Y-75713520D01*
X143719851Y-75329078D01*
X143477283Y-75167000D01*
X143719851Y-75004922D01*
X143755212Y-74952000D01*
X145850842Y-74952000D01*
X147398921Y-76500079D01*
M02*
