G04 #@! TF.FileFunction,Legend,Bot*
%FSLAX46Y46*%
G04 Gerber Fmt 4.6, Leading zero omitted, Abs format (unit mm)*
G04 Created by KiCad (PCBNEW 4.0.2-stable) date Monday, 05 December 2016 'pmt' 11:41:00 pm*
%MOMM*%
G01*
G04 APERTURE LIST*
%ADD10C,0.100000*%
%ADD11C,0.300000*%
%ADD12C,0.010000*%
G04 APERTURE END LIST*
D10*
D11*
X165699286Y-65580000D02*
X165627857Y-65508572D01*
X165556429Y-65365715D01*
X165556429Y-65222857D01*
X165627857Y-65080000D01*
X165699286Y-65008572D01*
X165842143Y-64937143D01*
X165985000Y-64937143D01*
X166127857Y-65008572D01*
X166199286Y-65080000D01*
X166270714Y-65222857D01*
X166270714Y-65365715D01*
X166199286Y-65508572D01*
X166127857Y-65580000D01*
X165556429Y-65580000D02*
X166127857Y-65580000D01*
X166199286Y-65651429D01*
X166199286Y-65722857D01*
X166127857Y-65865715D01*
X165985000Y-65937143D01*
X165627857Y-65937143D01*
X165413571Y-65794286D01*
X165270714Y-65580000D01*
X165199286Y-65294286D01*
X165270714Y-65008572D01*
X165413571Y-64794286D01*
X165627857Y-64651429D01*
X165913571Y-64580000D01*
X166199286Y-64651429D01*
X166413571Y-64794286D01*
X166556429Y-65008572D01*
X166627857Y-65294286D01*
X166556429Y-65580000D01*
X166413571Y-65794286D01*
X166413571Y-66580000D02*
X164913571Y-66580000D01*
X165485000Y-66580000D02*
X165413571Y-66722857D01*
X165413571Y-67008571D01*
X165485000Y-67151428D01*
X165556429Y-67222857D01*
X165699286Y-67294286D01*
X166127857Y-67294286D01*
X166270714Y-67222857D01*
X166342143Y-67151428D01*
X166413571Y-67008571D01*
X166413571Y-66722857D01*
X166342143Y-66580000D01*
X165413571Y-67937143D02*
X166699286Y-67937143D01*
X166842143Y-67865714D01*
X166913571Y-67722857D01*
X166913571Y-67651429D01*
X164913571Y-67937143D02*
X164985000Y-67865714D01*
X165056429Y-67937143D01*
X164985000Y-68008571D01*
X164913571Y-67937143D01*
X165056429Y-67937143D01*
X166413571Y-68651429D02*
X165413571Y-68651429D01*
X165556429Y-68651429D02*
X165485000Y-68722857D01*
X165413571Y-68865715D01*
X165413571Y-69080000D01*
X165485000Y-69222857D01*
X165627857Y-69294286D01*
X166413571Y-69294286D01*
X165627857Y-69294286D02*
X165485000Y-69365715D01*
X165413571Y-69508572D01*
X165413571Y-69722857D01*
X165485000Y-69865715D01*
X165627857Y-69937143D01*
X166413571Y-69937143D01*
X166413571Y-71294286D02*
X165627857Y-71294286D01*
X165485000Y-71222857D01*
X165413571Y-71080000D01*
X165413571Y-70794286D01*
X165485000Y-70651429D01*
X166342143Y-71294286D02*
X166413571Y-71151429D01*
X166413571Y-70794286D01*
X166342143Y-70651429D01*
X166199286Y-70580000D01*
X166056429Y-70580000D01*
X165913571Y-70651429D01*
X165842143Y-70794286D01*
X165842143Y-71151429D01*
X165770714Y-71294286D01*
X165413571Y-71865715D02*
X165413571Y-72651429D01*
X166413571Y-71865715D01*
X166413571Y-72651429D01*
X163445000Y-64783571D02*
X163445000Y-65497857D01*
X163873571Y-64640714D02*
X162373571Y-65140714D01*
X163873571Y-65640714D01*
X163087857Y-67783571D02*
X163159286Y-67997857D01*
X163230714Y-68069285D01*
X163373571Y-68140714D01*
X163587857Y-68140714D01*
X163730714Y-68069285D01*
X163802143Y-67997857D01*
X163873571Y-67854999D01*
X163873571Y-67283571D01*
X162373571Y-67283571D01*
X162373571Y-67783571D01*
X162445000Y-67926428D01*
X162516429Y-67997857D01*
X162659286Y-68069285D01*
X162802143Y-68069285D01*
X162945000Y-67997857D01*
X163016429Y-67926428D01*
X163087857Y-67783571D01*
X163087857Y-67283571D01*
X163873571Y-68783571D02*
X162873571Y-68783571D01*
X163159286Y-68783571D02*
X163016429Y-68854999D01*
X162945000Y-68926428D01*
X162873571Y-69069285D01*
X162873571Y-69212142D01*
X163802143Y-70283570D02*
X163873571Y-70140713D01*
X163873571Y-69854999D01*
X163802143Y-69712142D01*
X163659286Y-69640713D01*
X163087857Y-69640713D01*
X162945000Y-69712142D01*
X162873571Y-69854999D01*
X162873571Y-70140713D01*
X162945000Y-70283570D01*
X163087857Y-70354999D01*
X163230714Y-70354999D01*
X163373571Y-69640713D01*
X162873571Y-70783570D02*
X162873571Y-71354999D01*
X162373571Y-70997856D02*
X163659286Y-70997856D01*
X163802143Y-71069284D01*
X163873571Y-71212142D01*
X163873571Y-71354999D01*
X162873571Y-71640713D02*
X162873571Y-72212142D01*
X162373571Y-71854999D02*
X163659286Y-71854999D01*
X163802143Y-71926427D01*
X163873571Y-72069285D01*
X163873571Y-72212142D01*
X162373571Y-73712142D02*
X163873571Y-74069285D01*
X162802143Y-74354999D01*
X163873571Y-74640713D01*
X162373571Y-74997856D01*
X163873571Y-75569285D02*
X162873571Y-75569285D01*
X162373571Y-75569285D02*
X162445000Y-75497856D01*
X162516429Y-75569285D01*
X162445000Y-75640713D01*
X162373571Y-75569285D01*
X162516429Y-75569285D01*
X163873571Y-76497857D02*
X163802143Y-76354999D01*
X163659286Y-76283571D01*
X162373571Y-76283571D01*
X163873571Y-77069285D02*
X162373571Y-77069285D01*
X163302143Y-77212142D02*
X163873571Y-77640713D01*
X162873571Y-77640713D02*
X163445000Y-77069285D01*
X163873571Y-78283571D02*
X162873571Y-78283571D01*
X162373571Y-78283571D02*
X162445000Y-78212142D01*
X162516429Y-78283571D01*
X162445000Y-78354999D01*
X162373571Y-78283571D01*
X162516429Y-78283571D01*
X162873571Y-78997857D02*
X163873571Y-78997857D01*
X163016429Y-78997857D02*
X162945000Y-79069285D01*
X162873571Y-79212143D01*
X162873571Y-79426428D01*
X162945000Y-79569285D01*
X163087857Y-79640714D01*
X163873571Y-79640714D01*
X163802143Y-80283571D02*
X163873571Y-80426428D01*
X163873571Y-80712143D01*
X163802143Y-80855000D01*
X163659286Y-80926428D01*
X163587857Y-80926428D01*
X163445000Y-80855000D01*
X163373571Y-80712143D01*
X163373571Y-80497857D01*
X163302143Y-80355000D01*
X163159286Y-80283571D01*
X163087857Y-80283571D01*
X162945000Y-80355000D01*
X162873571Y-80497857D01*
X162873571Y-80712143D01*
X162945000Y-80855000D01*
X163730714Y-83569286D02*
X163802143Y-83497857D01*
X163873571Y-83283571D01*
X163873571Y-83140714D01*
X163802143Y-82926429D01*
X163659286Y-82783571D01*
X163516429Y-82712143D01*
X163230714Y-82640714D01*
X163016429Y-82640714D01*
X162730714Y-82712143D01*
X162587857Y-82783571D01*
X162445000Y-82926429D01*
X162373571Y-83140714D01*
X162373571Y-83283571D01*
X162445000Y-83497857D01*
X162516429Y-83569286D01*
X163873571Y-84212143D02*
X162873571Y-84212143D01*
X163159286Y-84212143D02*
X163016429Y-84283571D01*
X162945000Y-84355000D01*
X162873571Y-84497857D01*
X162873571Y-84640714D01*
X163802143Y-85712142D02*
X163873571Y-85569285D01*
X163873571Y-85283571D01*
X163802143Y-85140714D01*
X163659286Y-85069285D01*
X163087857Y-85069285D01*
X162945000Y-85140714D01*
X162873571Y-85283571D01*
X162873571Y-85569285D01*
X162945000Y-85712142D01*
X163087857Y-85783571D01*
X163230714Y-85783571D01*
X163373571Y-85069285D01*
X163873571Y-87069285D02*
X163087857Y-87069285D01*
X162945000Y-86997856D01*
X162873571Y-86854999D01*
X162873571Y-86569285D01*
X162945000Y-86426428D01*
X163802143Y-87069285D02*
X163873571Y-86926428D01*
X163873571Y-86569285D01*
X163802143Y-86426428D01*
X163659286Y-86354999D01*
X163516429Y-86354999D01*
X163373571Y-86426428D01*
X163302143Y-86569285D01*
X163302143Y-86926428D01*
X163230714Y-87069285D01*
X162873571Y-87569285D02*
X162873571Y-88140714D01*
X162373571Y-87783571D02*
X163659286Y-87783571D01*
X163802143Y-87854999D01*
X163873571Y-87997857D01*
X163873571Y-88140714D01*
X163873571Y-88640714D02*
X162873571Y-88640714D01*
X162373571Y-88640714D02*
X162445000Y-88569285D01*
X162516429Y-88640714D01*
X162445000Y-88712142D01*
X162373571Y-88640714D01*
X162516429Y-88640714D01*
X163873571Y-89569286D02*
X163802143Y-89426428D01*
X163730714Y-89355000D01*
X163587857Y-89283571D01*
X163159286Y-89283571D01*
X163016429Y-89355000D01*
X162945000Y-89426428D01*
X162873571Y-89569286D01*
X162873571Y-89783571D01*
X162945000Y-89926428D01*
X163016429Y-89997857D01*
X163159286Y-90069286D01*
X163587857Y-90069286D01*
X163730714Y-89997857D01*
X163802143Y-89926428D01*
X163873571Y-89783571D01*
X163873571Y-89569286D01*
X162873571Y-90712143D02*
X163873571Y-90712143D01*
X163016429Y-90712143D02*
X162945000Y-90783571D01*
X162873571Y-90926429D01*
X162873571Y-91140714D01*
X162945000Y-91283571D01*
X163087857Y-91355000D01*
X163873571Y-91355000D01*
X159833571Y-64562143D02*
X160119286Y-64562143D01*
X159833571Y-65133572D02*
X160119286Y-65133572D01*
X160905000Y-65705000D02*
X160905000Y-66419286D01*
X161333571Y-65562143D02*
X159833571Y-66062143D01*
X161333571Y-66562143D01*
X161333571Y-68205000D02*
X159833571Y-68205000D01*
X160905000Y-68705000D01*
X159833571Y-69205000D01*
X161333571Y-69205000D01*
X161333571Y-70133572D02*
X161262143Y-69990714D01*
X161190714Y-69919286D01*
X161047857Y-69847857D01*
X160619286Y-69847857D01*
X160476429Y-69919286D01*
X160405000Y-69990714D01*
X160333571Y-70133572D01*
X160333571Y-70347857D01*
X160405000Y-70490714D01*
X160476429Y-70562143D01*
X160619286Y-70633572D01*
X161047857Y-70633572D01*
X161190714Y-70562143D01*
X161262143Y-70490714D01*
X161333571Y-70347857D01*
X161333571Y-70133572D01*
X161333571Y-71276429D02*
X160333571Y-71276429D01*
X160476429Y-71276429D02*
X160405000Y-71347857D01*
X160333571Y-71490715D01*
X160333571Y-71705000D01*
X160405000Y-71847857D01*
X160547857Y-71919286D01*
X161333571Y-71919286D01*
X160547857Y-71919286D02*
X160405000Y-71990715D01*
X160333571Y-72133572D01*
X160333571Y-72347857D01*
X160405000Y-72490715D01*
X160547857Y-72562143D01*
X161333571Y-72562143D01*
X161262143Y-73847857D02*
X161333571Y-73705000D01*
X161333571Y-73419286D01*
X161262143Y-73276429D01*
X161119286Y-73205000D01*
X160547857Y-73205000D01*
X160405000Y-73276429D01*
X160333571Y-73419286D01*
X160333571Y-73705000D01*
X160405000Y-73847857D01*
X160547857Y-73919286D01*
X160690714Y-73919286D01*
X160833571Y-73205000D01*
X160333571Y-74562143D02*
X161333571Y-74562143D01*
X160476429Y-74562143D02*
X160405000Y-74633571D01*
X160333571Y-74776429D01*
X160333571Y-74990714D01*
X160405000Y-75133571D01*
X160547857Y-75205000D01*
X161333571Y-75205000D01*
X160333571Y-75705000D02*
X160333571Y-76276429D01*
X159833571Y-75919286D02*
X161119286Y-75919286D01*
X161262143Y-75990714D01*
X161333571Y-76133572D01*
X161333571Y-76276429D01*
X161333571Y-77419286D02*
X160547857Y-77419286D01*
X160405000Y-77347857D01*
X160333571Y-77205000D01*
X160333571Y-76919286D01*
X160405000Y-76776429D01*
X161262143Y-77419286D02*
X161333571Y-77276429D01*
X161333571Y-76919286D01*
X161262143Y-76776429D01*
X161119286Y-76705000D01*
X160976429Y-76705000D01*
X160833571Y-76776429D01*
X160762143Y-76919286D01*
X160762143Y-77276429D01*
X160690714Y-77419286D01*
X161333571Y-78133572D02*
X160333571Y-78133572D01*
X160619286Y-78133572D02*
X160476429Y-78205000D01*
X160405000Y-78276429D01*
X160333571Y-78419286D01*
X160333571Y-78562143D01*
X160333571Y-78919286D02*
X161333571Y-79276429D01*
X160333571Y-79633571D02*
X161333571Y-79276429D01*
X161690714Y-79133571D01*
X161762143Y-79062143D01*
X161833571Y-78919286D01*
X161333571Y-82062143D02*
X161333571Y-81347857D01*
X159833571Y-81347857D01*
X161333571Y-83205000D02*
X160547857Y-83205000D01*
X160405000Y-83133571D01*
X160333571Y-82990714D01*
X160333571Y-82705000D01*
X160405000Y-82562143D01*
X161262143Y-83205000D02*
X161333571Y-83062143D01*
X161333571Y-82705000D01*
X161262143Y-82562143D01*
X161119286Y-82490714D01*
X160976429Y-82490714D01*
X160833571Y-82562143D01*
X160762143Y-82705000D01*
X160762143Y-83062143D01*
X160690714Y-83205000D01*
X160333571Y-83919286D02*
X161833571Y-83919286D01*
X160405000Y-83919286D02*
X160333571Y-84062143D01*
X160333571Y-84347857D01*
X160405000Y-84490714D01*
X160476429Y-84562143D01*
X160619286Y-84633572D01*
X161047857Y-84633572D01*
X161190714Y-84562143D01*
X161262143Y-84490714D01*
X161333571Y-84347857D01*
X161333571Y-84062143D01*
X161262143Y-83919286D01*
X161262143Y-85205000D02*
X161333571Y-85347857D01*
X161333571Y-85633572D01*
X161262143Y-85776429D01*
X161119286Y-85847857D01*
X161047857Y-85847857D01*
X160905000Y-85776429D01*
X160833571Y-85633572D01*
X160833571Y-85419286D01*
X160762143Y-85276429D01*
X160619286Y-85205000D01*
X160547857Y-85205000D01*
X160405000Y-85276429D01*
X160333571Y-85419286D01*
X160333571Y-85633572D01*
X160405000Y-85776429D01*
X161262143Y-87062143D02*
X161333571Y-86919286D01*
X161333571Y-86633572D01*
X161262143Y-86490715D01*
X161119286Y-86419286D01*
X160547857Y-86419286D01*
X160405000Y-86490715D01*
X160333571Y-86633572D01*
X160333571Y-86919286D01*
X160405000Y-87062143D01*
X160547857Y-87133572D01*
X160690714Y-87133572D01*
X160833571Y-86419286D01*
X161333571Y-89133572D02*
X161262143Y-88990714D01*
X161190714Y-88919286D01*
X161047857Y-88847857D01*
X160619286Y-88847857D01*
X160476429Y-88919286D01*
X160405000Y-88990714D01*
X160333571Y-89133572D01*
X160333571Y-89347857D01*
X160405000Y-89490714D01*
X160476429Y-89562143D01*
X160619286Y-89633572D01*
X161047857Y-89633572D01*
X161190714Y-89562143D01*
X161262143Y-89490714D01*
X161333571Y-89347857D01*
X161333571Y-89133572D01*
X160333571Y-90062143D02*
X160333571Y-90633572D01*
X161333571Y-90276429D02*
X160047857Y-90276429D01*
X159905000Y-90347857D01*
X159833571Y-90490715D01*
X159833571Y-90633572D01*
X161262143Y-92205000D02*
X161333571Y-92419286D01*
X161333571Y-92776429D01*
X161262143Y-92919286D01*
X161190714Y-92990715D01*
X161047857Y-93062143D01*
X160905000Y-93062143D01*
X160762143Y-92990715D01*
X160690714Y-92919286D01*
X160619286Y-92776429D01*
X160547857Y-92490715D01*
X160476429Y-92347857D01*
X160405000Y-92276429D01*
X160262143Y-92205000D01*
X160119286Y-92205000D01*
X159976429Y-92276429D01*
X159905000Y-92347857D01*
X159833571Y-92490715D01*
X159833571Y-92847857D01*
X159905000Y-93062143D01*
X161333571Y-94347857D02*
X160547857Y-94347857D01*
X160405000Y-94276428D01*
X160333571Y-94133571D01*
X160333571Y-93847857D01*
X160405000Y-93705000D01*
X161262143Y-94347857D02*
X161333571Y-94205000D01*
X161333571Y-93847857D01*
X161262143Y-93705000D01*
X161119286Y-93633571D01*
X160976429Y-93633571D01*
X160833571Y-93705000D01*
X160762143Y-93847857D01*
X160762143Y-94205000D01*
X160690714Y-94347857D01*
X160333571Y-95062143D02*
X161333571Y-95062143D01*
X160476429Y-95062143D02*
X160405000Y-95133571D01*
X160333571Y-95276429D01*
X160333571Y-95490714D01*
X160405000Y-95633571D01*
X160547857Y-95705000D01*
X161333571Y-95705000D01*
X161333571Y-96419286D02*
X160333571Y-96419286D01*
X159833571Y-96419286D02*
X159905000Y-96347857D01*
X159976429Y-96419286D01*
X159905000Y-96490714D01*
X159833571Y-96419286D01*
X159976429Y-96419286D01*
X160333571Y-96919286D02*
X160333571Y-97490715D01*
X159833571Y-97133572D02*
X161119286Y-97133572D01*
X161262143Y-97205000D01*
X161333571Y-97347858D01*
X161333571Y-97490715D01*
X160333571Y-97847858D02*
X161333571Y-98205001D01*
X160333571Y-98562143D02*
X161333571Y-98205001D01*
X161690714Y-98062143D01*
X161762143Y-97990715D01*
X161833571Y-97847858D01*
X159976429Y-100205000D02*
X159905000Y-100276429D01*
X159833571Y-100419286D01*
X159833571Y-100776429D01*
X159905000Y-100919286D01*
X159976429Y-100990715D01*
X160119286Y-101062143D01*
X160262143Y-101062143D01*
X160476429Y-100990715D01*
X161333571Y-100133572D01*
X161333571Y-101062143D01*
X161190714Y-101705000D02*
X161262143Y-101776428D01*
X161333571Y-101705000D01*
X161262143Y-101633571D01*
X161190714Y-101705000D01*
X161333571Y-101705000D01*
X159833571Y-102705000D02*
X159833571Y-102847857D01*
X159905000Y-102990714D01*
X159976429Y-103062143D01*
X160119286Y-103133572D01*
X160405000Y-103205000D01*
X160762143Y-103205000D01*
X161047857Y-103133572D01*
X161190714Y-103062143D01*
X161262143Y-102990714D01*
X161333571Y-102847857D01*
X161333571Y-102705000D01*
X161262143Y-102562143D01*
X161190714Y-102490714D01*
X161047857Y-102419286D01*
X160762143Y-102347857D01*
X160405000Y-102347857D01*
X160119286Y-102419286D01*
X159976429Y-102490714D01*
X159905000Y-102562143D01*
X159833571Y-102705000D01*
X159833571Y-103776428D02*
X160119286Y-103776428D01*
X159833571Y-104347857D02*
X160119286Y-104347857D01*
D12*
G36*
X154218458Y-119781798D02*
X154316249Y-119902612D01*
X154470639Y-120060003D01*
X154514090Y-120100755D01*
X154724915Y-120318880D01*
X154849199Y-120499329D01*
X154882717Y-120631108D01*
X154821248Y-120703225D01*
X154749500Y-120713500D01*
X154638262Y-120755733D01*
X154615523Y-120875369D01*
X154678209Y-121061812D01*
X154823248Y-121304469D01*
X154981622Y-121513789D01*
X155102566Y-121680231D01*
X155179483Y-121820811D01*
X155194000Y-121875167D01*
X155159936Y-121995823D01*
X155070275Y-122014221D01*
X154943807Y-121931038D01*
X154882604Y-121863978D01*
X154746192Y-121727022D01*
X154607311Y-121675917D01*
X154495335Y-121674865D01*
X154331584Y-121690972D01*
X154227035Y-121712647D01*
X154221488Y-121715125D01*
X154215568Y-121773336D01*
X154290701Y-121872472D01*
X154420558Y-121985650D01*
X154578809Y-122085987D01*
X154590600Y-122092000D01*
X154829697Y-122222267D01*
X155069394Y-122370331D01*
X155282887Y-122517507D01*
X155443369Y-122645111D01*
X155524036Y-122734457D01*
X155528113Y-122745500D01*
X155522304Y-122873528D01*
X155486158Y-123010284D01*
X155466936Y-123195409D01*
X155556140Y-123322896D01*
X155743410Y-123380039D01*
X155789150Y-123381894D01*
X155971975Y-123409686D01*
X156189955Y-123477562D01*
X156259476Y-123506618D01*
X156464514Y-123582344D01*
X156617810Y-123589347D01*
X156696488Y-123567107D01*
X156897452Y-123529634D01*
X157056414Y-123599218D01*
X157187963Y-123767957D01*
X157326047Y-123937693D01*
X157503198Y-124082165D01*
X157515257Y-124089483D01*
X157693138Y-124232605D01*
X157844199Y-124414745D01*
X157854913Y-124432194D01*
X157989610Y-124594037D01*
X158126936Y-124649598D01*
X158245415Y-124595729D01*
X158303154Y-124497918D01*
X158372150Y-124365508D01*
X158428413Y-124303775D01*
X158513028Y-124307945D01*
X158685454Y-124353145D01*
X158916523Y-124430959D01*
X159066146Y-124487806D01*
X159815213Y-124721244D01*
X160631529Y-124858764D01*
X161495599Y-124897210D01*
X161583802Y-124895486D01*
X162290355Y-124877607D01*
X162522637Y-125081553D01*
X162741047Y-125230682D01*
X162961539Y-125279913D01*
X163214217Y-125231005D01*
X163435235Y-125134876D01*
X163680564Y-125026190D01*
X163961280Y-124922265D01*
X164085704Y-124883222D01*
X164367293Y-124769750D01*
X164633036Y-124609712D01*
X164698322Y-124558217D01*
X164839757Y-124428492D01*
X164923081Y-124313233D01*
X164969146Y-124167663D01*
X164998804Y-123947006D01*
X165003249Y-123903437D01*
X165018351Y-123622858D01*
X164998375Y-123356569D01*
X164937825Y-123047411D01*
X164910086Y-122934440D01*
X164836447Y-122669926D01*
X164760071Y-122437784D01*
X164694305Y-122277449D01*
X164677727Y-122247821D01*
X164565367Y-122143801D01*
X164355398Y-122012464D01*
X164070990Y-121865746D01*
X163735315Y-121715584D01*
X163371544Y-121573915D01*
X163364979Y-121571551D01*
X163124767Y-121447381D01*
X162993431Y-121297768D01*
X162973648Y-121140239D01*
X163068093Y-120992321D01*
X163259319Y-120879331D01*
X163444515Y-120791819D01*
X163677607Y-120663770D01*
X163862542Y-120551502D01*
X164091257Y-120387219D01*
X164245121Y-120221286D01*
X164367485Y-120005600D01*
X164381267Y-119975933D01*
X164449670Y-119815547D01*
X164493685Y-119670474D01*
X164517460Y-119507646D01*
X164525143Y-119293993D01*
X164520881Y-118996447D01*
X164517911Y-118886495D01*
X164496750Y-118141750D01*
X164211000Y-117633750D01*
X164064965Y-117383690D01*
X163946201Y-117215585D01*
X163824878Y-117097947D01*
X163671169Y-116999289D01*
X163549298Y-116935250D01*
X163334064Y-116811081D01*
X163152644Y-116679872D01*
X163057907Y-116586000D01*
X162937639Y-116354312D01*
X162900313Y-116124969D01*
X162951507Y-115936970D01*
X162962721Y-115920571D01*
X163009597Y-115872303D01*
X163081389Y-115836425D01*
X163198137Y-115809898D01*
X163379884Y-115789684D01*
X163646669Y-115772744D01*
X164018534Y-115756040D01*
X164058669Y-115754411D01*
X164468468Y-115740514D01*
X164773037Y-115737323D01*
X164993763Y-115745721D01*
X165152035Y-115766596D01*
X165269242Y-115800831D01*
X165279314Y-115804934D01*
X165567237Y-115865412D01*
X165758934Y-115848421D01*
X166072458Y-115824585D01*
X166321305Y-115869424D01*
X166492686Y-115971453D01*
X166573810Y-116119192D01*
X166551889Y-116301159D01*
X166448436Y-116467401D01*
X166338744Y-116639771D01*
X166343095Y-116764996D01*
X166463976Y-116846674D01*
X166703878Y-116888398D01*
X166741665Y-116890943D01*
X166932972Y-116905923D01*
X167029718Y-116936942D01*
X167064146Y-117007046D01*
X167068500Y-117124532D01*
X167024409Y-117342285D01*
X166905867Y-117489003D01*
X166746464Y-117538500D01*
X166641251Y-117567405D01*
X166638647Y-117641811D01*
X166731547Y-117743257D01*
X166856447Y-117824250D01*
X167065857Y-117984329D01*
X167151695Y-118162395D01*
X167114776Y-118350800D01*
X166955913Y-118541896D01*
X166765577Y-118677404D01*
X166707603Y-118723299D01*
X166707603Y-121415434D01*
X166772166Y-121454333D01*
X166809875Y-121551718D01*
X166729282Y-121657673D01*
X166628465Y-121695494D01*
X166570111Y-121619282D01*
X166560500Y-121528416D01*
X166606789Y-121431634D01*
X166707603Y-121415434D01*
X166707603Y-118723299D01*
X166604582Y-118804857D01*
X166428447Y-118991003D01*
X166262142Y-119202932D01*
X166130635Y-119407734D01*
X166058896Y-119572498D01*
X166052500Y-119617245D01*
X166016971Y-119737250D01*
X165929029Y-119895759D01*
X165816640Y-120052942D01*
X165707771Y-120168973D01*
X165639443Y-120205500D01*
X165539879Y-120161185D01*
X165409643Y-120051131D01*
X165375743Y-120015000D01*
X165180343Y-119860506D01*
X165029751Y-119824500D01*
X164863295Y-119853417D01*
X164810969Y-119936749D01*
X164874726Y-120069369D01*
X164917619Y-120118893D01*
X165013316Y-120232362D01*
X165028322Y-120320117D01*
X164969532Y-120444955D01*
X164956022Y-120468588D01*
X164863450Y-120684851D01*
X164871514Y-120866957D01*
X164986198Y-121051377D01*
X165065568Y-121136268D01*
X165211036Y-121267632D01*
X165312557Y-121314387D01*
X165404321Y-121292043D01*
X165406469Y-121290903D01*
X165532141Y-121255762D01*
X165595561Y-121326432D01*
X165608000Y-121446558D01*
X165557722Y-121610782D01*
X165432062Y-121707241D01*
X165294446Y-121712132D01*
X165149745Y-121733382D01*
X165058652Y-121803605D01*
X164983938Y-121943175D01*
X165027468Y-122055294D01*
X165181960Y-122131789D01*
X165377693Y-122161657D01*
X165512124Y-122177894D01*
X165632800Y-122216587D01*
X165757131Y-122291605D01*
X165902523Y-122416816D01*
X166086385Y-122606089D01*
X166326124Y-122873292D01*
X166453374Y-123018638D01*
X166651541Y-123214072D01*
X166860736Y-123341016D01*
X167115145Y-123412401D01*
X167448952Y-123441158D01*
X167576500Y-123443457D01*
X167854602Y-123458664D01*
X168008770Y-123499626D01*
X168039489Y-123566620D01*
X167949838Y-123658119D01*
X167819907Y-123734460D01*
X167736995Y-123762120D01*
X167648219Y-123787815D01*
X167484400Y-123853843D01*
X167322500Y-123926716D01*
X167137975Y-124004565D01*
X166957749Y-124055395D01*
X166743874Y-124085873D01*
X166458407Y-124102669D01*
X166293172Y-124107623D01*
X165947192Y-124122095D01*
X165703803Y-124147715D01*
X165538822Y-124188066D01*
X165447854Y-124232824D01*
X165329859Y-124324027D01*
X165297807Y-124392180D01*
X165359878Y-124440157D01*
X165524249Y-124470829D01*
X165799098Y-124487069D01*
X166185118Y-124491750D01*
X166597748Y-124486467D01*
X166915435Y-124468576D01*
X167169880Y-124435010D01*
X167392782Y-124382704D01*
X167431613Y-124371180D01*
X167686122Y-124305044D01*
X167854298Y-124303331D01*
X167957628Y-124381839D01*
X168017601Y-124556369D01*
X168054344Y-124829054D01*
X168086232Y-125095738D01*
X168125298Y-125352546D01*
X168155333Y-125507750D01*
X168180222Y-125661729D01*
X168208944Y-125912282D01*
X168238511Y-126229166D01*
X168265931Y-126582137D01*
X168275244Y-126720648D01*
X168318549Y-127264576D01*
X168375091Y-127702028D01*
X168451075Y-128053333D01*
X168552708Y-128338820D01*
X168686195Y-128578819D01*
X168857742Y-128793659D01*
X168931417Y-128870160D01*
X169220290Y-129106595D01*
X169611976Y-129351640D01*
X170083528Y-129596179D01*
X170612003Y-129831094D01*
X171174456Y-130047269D01*
X171747941Y-130235586D01*
X172309516Y-130386928D01*
X172836233Y-130492179D01*
X173101000Y-130526938D01*
X173578463Y-130601297D01*
X174010734Y-130718048D01*
X174378021Y-130868866D01*
X174660537Y-131045425D01*
X174838490Y-131239398D01*
X174851959Y-131263606D01*
X174973839Y-131420606D01*
X175120179Y-131524992D01*
X175256901Y-131606192D01*
X175442381Y-131743629D01*
X175613316Y-131887364D01*
X175823225Y-132060505D01*
X176039726Y-132215988D01*
X176183289Y-132302250D01*
X176356023Y-132406946D01*
X176578060Y-132563606D01*
X176803743Y-132739867D01*
X176821620Y-132754707D01*
X177088179Y-132957023D01*
X177399286Y-133164047D01*
X177662898Y-133317344D01*
X177922926Y-133473327D01*
X178175517Y-133656844D01*
X178367130Y-133828895D01*
X178371184Y-133833262D01*
X178518176Y-133982217D01*
X178636524Y-134083355D01*
X178690307Y-134112000D01*
X178700896Y-134048829D01*
X178710548Y-133860633D01*
X178719248Y-133549379D01*
X178726979Y-133117037D01*
X178733722Y-132565579D01*
X178739461Y-131896972D01*
X178744179Y-131113188D01*
X178747859Y-130216196D01*
X178750483Y-129207966D01*
X178752034Y-128090467D01*
X178752500Y-126968250D01*
X178752101Y-125765639D01*
X178750880Y-124686207D01*
X178748799Y-123726131D01*
X178745822Y-122881592D01*
X178741910Y-122148771D01*
X178737026Y-121523845D01*
X178731134Y-121002997D01*
X178724196Y-120582404D01*
X178716174Y-120258248D01*
X178707031Y-120026707D01*
X178696730Y-119883963D01*
X178685234Y-119826193D01*
X178682726Y-119824500D01*
X178587625Y-119874853D01*
X178436974Y-120015588D01*
X178245375Y-120231219D01*
X178027427Y-120506259D01*
X177979300Y-120570625D01*
X177844555Y-120741440D01*
X177733894Y-120861668D01*
X177674228Y-120904000D01*
X177603642Y-120950340D01*
X177493811Y-121067174D01*
X177443550Y-121130045D01*
X177271136Y-121356090D01*
X177468712Y-121780920D01*
X177585407Y-122071324D01*
X177687982Y-122394400D01*
X177744045Y-122630608D01*
X177784894Y-122918493D01*
X177771408Y-123104506D01*
X177688997Y-123207397D01*
X177523073Y-123245915D01*
X177270156Y-123239625D01*
X177051683Y-123214575D01*
X176898809Y-123161498D01*
X176788486Y-123057307D01*
X176697664Y-122878916D01*
X176603293Y-122603240D01*
X176589071Y-122557462D01*
X176494325Y-122290614D01*
X176380685Y-122025936D01*
X176298076Y-121866014D01*
X176192577Y-121651325D01*
X176156318Y-121455210D01*
X176163758Y-121280741D01*
X176237722Y-120946614D01*
X176390679Y-120562878D01*
X176605220Y-120162595D01*
X176863933Y-119778830D01*
X177107833Y-119487900D01*
X177308962Y-119280117D01*
X177458299Y-119147699D01*
X177587208Y-119070021D01*
X177727053Y-119026458D01*
X177839928Y-119006475D01*
X178094665Y-118939323D01*
X178360293Y-118827217D01*
X178458939Y-118771575D01*
X178752272Y-118586250D01*
X178752386Y-118030625D01*
X178749722Y-117782788D01*
X178742505Y-117591909D01*
X178732055Y-117486727D01*
X178726811Y-117475000D01*
X178684675Y-117525624D01*
X178601123Y-117657174D01*
X178512943Y-117808436D01*
X178308977Y-118105556D01*
X178051401Y-118387907D01*
X177775393Y-118621375D01*
X177522009Y-118769415D01*
X177350152Y-118871823D01*
X177157202Y-119030595D01*
X177057348Y-119131759D01*
X176942226Y-119254669D01*
X176753427Y-119450040D01*
X176507534Y-119700989D01*
X176221131Y-119990634D01*
X175910800Y-120302091D01*
X175758518Y-120454076D01*
X175391672Y-120822061D01*
X175106272Y-121118220D01*
X174892303Y-121358839D01*
X174739752Y-121560209D01*
X174638605Y-121738618D01*
X174578850Y-121910354D01*
X174550471Y-122091706D01*
X174543457Y-122298962D01*
X174545040Y-122428000D01*
X174557671Y-123036043D01*
X174569478Y-123530182D01*
X174581460Y-123923498D01*
X174594618Y-124229074D01*
X174609949Y-124459992D01*
X174628452Y-124629333D01*
X174651126Y-124750181D01*
X174678971Y-124835616D01*
X174712985Y-124898722D01*
X174736127Y-124930494D01*
X174835695Y-125116206D01*
X174824664Y-125261565D01*
X174715914Y-125355921D01*
X174522325Y-125388625D01*
X174256776Y-125349026D01*
X174236652Y-125343505D01*
X174045681Y-125307477D01*
X173775139Y-125278740D01*
X173472424Y-125261816D01*
X173355000Y-125259386D01*
X172751750Y-125253750D01*
X172354036Y-124971175D01*
X172127188Y-124819382D01*
X171959891Y-124735771D01*
X171815842Y-124705213D01*
X171719036Y-124706514D01*
X171384506Y-124730621D01*
X171147635Y-124738358D01*
X170979366Y-124721869D01*
X170850644Y-124673299D01*
X170732413Y-124584792D01*
X170595616Y-124448494D01*
X170536905Y-124386924D01*
X170281771Y-124145280D01*
X170068443Y-124009394D01*
X169877518Y-123973747D01*
X169689592Y-124032822D01*
X169569643Y-124111865D01*
X169423836Y-124236851D01*
X169326181Y-124345886D01*
X169310484Y-124373816D01*
X169225497Y-124470319D01*
X169072669Y-124568307D01*
X168906900Y-124636657D01*
X168822439Y-124650500D01*
X168673132Y-124597601D01*
X168579894Y-124453105D01*
X168540633Y-124238313D01*
X168553255Y-123974528D01*
X168615666Y-123683049D01*
X168725774Y-123385180D01*
X168881484Y-123102221D01*
X168988871Y-122956945D01*
X169229648Y-122637531D01*
X169382120Y-122357899D01*
X169461075Y-122083657D01*
X169481500Y-121811202D01*
X169500597Y-121551020D01*
X169550266Y-121244097D01*
X169608500Y-120999250D01*
X169671871Y-120759094D01*
X169717386Y-120551199D01*
X169735480Y-120419428D01*
X169735500Y-120416949D01*
X169676838Y-120235012D01*
X169506613Y-120021193D01*
X169233466Y-119784597D01*
X168945258Y-119584147D01*
X168534325Y-119297128D01*
X168192294Y-119010538D01*
X167927125Y-118734728D01*
X167746780Y-118480048D01*
X167659218Y-118256848D01*
X167672400Y-118075481D01*
X167725132Y-117997652D01*
X167876455Y-117930713D01*
X168113568Y-117931161D01*
X168417515Y-117994570D01*
X168769341Y-118116511D01*
X169150091Y-118292556D01*
X169275264Y-118359772D01*
X169647146Y-118547186D01*
X170032345Y-118707746D01*
X170407804Y-118834943D01*
X170750463Y-118922271D01*
X171037267Y-118963220D01*
X171245157Y-118951283D01*
X171299471Y-118931100D01*
X171412250Y-118836092D01*
X171588304Y-118640453D01*
X171822652Y-118350652D01*
X172110313Y-117973155D01*
X172446304Y-117514431D01*
X172825643Y-116980946D01*
X173056850Y-116649500D01*
X173319647Y-116272013D01*
X173522234Y-115986743D01*
X173675705Y-115780814D01*
X173791157Y-115641349D01*
X173879686Y-115555473D01*
X173952386Y-115510310D01*
X174020353Y-115492983D01*
X174055357Y-115490751D01*
X174206343Y-115502382D01*
X174458603Y-115539363D01*
X174789866Y-115597616D01*
X175177862Y-115673063D01*
X175600322Y-115761626D01*
X175908781Y-115830185D01*
X176136850Y-115890492D01*
X176456525Y-115986439D01*
X176840562Y-116108897D01*
X177261720Y-116248737D01*
X177692757Y-116396830D01*
X178106429Y-116544048D01*
X178475496Y-116681261D01*
X178641375Y-116745880D01*
X178660981Y-116748653D01*
X178678141Y-116735133D01*
X178693017Y-116697484D01*
X178705772Y-116627871D01*
X178716568Y-116518457D01*
X178725567Y-116361407D01*
X178732933Y-116148885D01*
X178738826Y-115873056D01*
X178743409Y-115526084D01*
X178746845Y-115100132D01*
X178749297Y-114587365D01*
X178750925Y-113979948D01*
X178751893Y-113270045D01*
X178752364Y-112449819D01*
X178752498Y-111511436D01*
X178752500Y-111381960D01*
X178752500Y-105973834D01*
X175656875Y-105994719D01*
X174909415Y-106000486D01*
X174279519Y-106007070D01*
X173757748Y-106014776D01*
X173334666Y-106023909D01*
X173000837Y-106034774D01*
X172746824Y-106047677D01*
X172563190Y-106062923D01*
X172440499Y-106080816D01*
X172370750Y-106101011D01*
X172224449Y-106138974D01*
X171971160Y-106174164D01*
X171630894Y-106204380D01*
X171223662Y-106227422D01*
X171219269Y-106227611D01*
X170258288Y-106268805D01*
X169600019Y-106596838D01*
X169010205Y-106932839D01*
X168488092Y-107314888D01*
X168054572Y-107726002D01*
X167774867Y-108080322D01*
X167573956Y-108429604D01*
X167543550Y-108502083D01*
X167543550Y-119403725D01*
X167687798Y-119431440D01*
X167858095Y-119510844D01*
X168046943Y-119640210D01*
X168222063Y-119791605D01*
X168351174Y-119937096D01*
X168401996Y-120048750D01*
X168402000Y-120049456D01*
X168344814Y-120187678D01*
X168197645Y-120290348D01*
X167997071Y-120332431D01*
X167988461Y-120332500D01*
X167832648Y-120348660D01*
X167740760Y-120388007D01*
X167737482Y-120392387D01*
X167715987Y-120481196D01*
X167693313Y-120660552D01*
X167673908Y-120894125D01*
X167671641Y-120930153D01*
X167681613Y-121374167D01*
X167770565Y-121721260D01*
X167938009Y-121970105D01*
X168096577Y-122082583D01*
X168311615Y-122212311D01*
X168482411Y-122354035D01*
X168580076Y-122481708D01*
X168592500Y-122529710D01*
X168546572Y-122620460D01*
X168435027Y-122733012D01*
X168425186Y-122740891D01*
X168190805Y-122855396D01*
X167938489Y-122844216D01*
X167697015Y-122727402D01*
X167514998Y-122563679D01*
X167372878Y-122335186D01*
X167262305Y-122022863D01*
X167174929Y-121607653D01*
X167157189Y-121495284D01*
X167113342Y-121147785D01*
X167101427Y-120870320D01*
X167120580Y-120610230D01*
X167140490Y-120476494D01*
X167177214Y-120216512D01*
X167200740Y-119971223D01*
X167205940Y-119816612D01*
X167240296Y-119580547D01*
X167354873Y-119441287D01*
X167543550Y-119403725D01*
X167543550Y-108502083D01*
X167423026Y-108789379D01*
X167336907Y-109120200D01*
X167322500Y-109283499D01*
X167304453Y-109443872D01*
X167258713Y-109659087D01*
X167230182Y-109764099D01*
X167162924Y-110017676D01*
X167088769Y-110338441D01*
X167013475Y-110696262D01*
X166942799Y-111061008D01*
X166882500Y-111402545D01*
X166838336Y-111690742D01*
X166816064Y-111895468D01*
X166814500Y-111939452D01*
X166792599Y-112110487D01*
X166733704Y-112359647D01*
X166648023Y-112647155D01*
X166588384Y-112820474D01*
X166484323Y-113121929D01*
X166391593Y-113417598D01*
X166323689Y-113663203D01*
X166301938Y-113760250D01*
X166228141Y-114002070D01*
X166120761Y-114169140D01*
X165996462Y-114236203D01*
X165987749Y-114236500D01*
X165916601Y-114204098D01*
X165775789Y-114120566D01*
X165651598Y-114040653D01*
X165356675Y-113889368D01*
X165042364Y-113796555D01*
X165021587Y-113793125D01*
X164778461Y-113749614D01*
X164482952Y-113688517D01*
X164242750Y-113633435D01*
X163959297Y-113575550D01*
X163704363Y-113535176D01*
X163704363Y-114073923D01*
X163939767Y-114097282D01*
X164061840Y-114114414D01*
X164362072Y-114155498D01*
X164670331Y-114192559D01*
X164919949Y-114217581D01*
X164920231Y-114217604D01*
X165165571Y-114253198D01*
X165351248Y-114329211D01*
X165543928Y-114472992D01*
X165545029Y-114473934D01*
X165787793Y-114724977D01*
X165907848Y-114956627D01*
X165904385Y-115166917D01*
X165864435Y-115250734D01*
X165813332Y-115292386D01*
X165709468Y-115318145D01*
X165531589Y-115330097D01*
X165258443Y-115330322D01*
X165087532Y-115326884D01*
X164718074Y-115315406D01*
X164457728Y-115299624D01*
X164288609Y-115276362D01*
X164192834Y-115242447D01*
X164152519Y-115194703D01*
X164147500Y-115160005D01*
X164205329Y-114991653D01*
X164356803Y-114857852D01*
X164568902Y-114783936D01*
X164646659Y-114777002D01*
X164879748Y-114748177D01*
X164996658Y-114674285D01*
X165001083Y-114552192D01*
X164976648Y-114497317D01*
X164913454Y-114410757D01*
X164824343Y-114372908D01*
X164681100Y-114382189D01*
X164455507Y-114437024D01*
X164364321Y-114463060D01*
X164038186Y-114603799D01*
X163773331Y-114823803D01*
X163524816Y-115084986D01*
X163455512Y-114835368D01*
X163396875Y-114539133D01*
X163395640Y-114298478D01*
X163451126Y-114139311D01*
X163474465Y-114114715D01*
X163557627Y-114079730D01*
X163704363Y-114073923D01*
X163704363Y-113535176D01*
X163615852Y-113521158D01*
X163279232Y-113480627D01*
X163226750Y-113475796D01*
X162898236Y-113442862D01*
X162551354Y-113401086D01*
X162394904Y-113378830D01*
X162394904Y-122882341D01*
X162421238Y-122885380D01*
X162470586Y-122901532D01*
X162511421Y-122941587D01*
X162550898Y-123025296D01*
X162596174Y-123172408D01*
X162654406Y-123402674D01*
X162732750Y-123735842D01*
X162738702Y-123761500D01*
X162817934Y-124124027D01*
X162860707Y-124379117D01*
X162867464Y-124540854D01*
X162838650Y-124623320D01*
X162774709Y-124640600D01*
X162766375Y-124639281D01*
X162648791Y-124556404D01*
X162535106Y-124360532D01*
X162431298Y-124065651D01*
X162343345Y-123685748D01*
X162332046Y-123623192D01*
X162283079Y-123282151D01*
X162276447Y-123051500D01*
X162313329Y-122921482D01*
X162394904Y-122882341D01*
X162394904Y-113378830D01*
X162252827Y-113358617D01*
X162210750Y-113351757D01*
X161927904Y-113309041D01*
X161915365Y-113307470D01*
X161915365Y-117939784D01*
X161981252Y-117944310D01*
X162046913Y-118030625D01*
X162087475Y-118168197D01*
X162108318Y-118373919D01*
X162108637Y-118595626D01*
X162107157Y-118608695D01*
X162107157Y-119962353D01*
X162221151Y-119987137D01*
X162285267Y-120051079D01*
X162354513Y-120206862D01*
X162318943Y-120318905D01*
X162186443Y-120364153D01*
X162178130Y-120364250D01*
X162056650Y-120336153D01*
X162005590Y-120227779D01*
X162000122Y-120189263D01*
X162021846Y-120035367D01*
X162107157Y-119962353D01*
X162107157Y-118608695D01*
X162087629Y-118781149D01*
X162059721Y-118861680D01*
X161954676Y-118930632D01*
X161818246Y-118912142D01*
X161695271Y-118820348D01*
X161644746Y-118730836D01*
X161620400Y-118593963D01*
X161651527Y-118435924D01*
X161733698Y-118238711D01*
X161837988Y-118034503D01*
X161915365Y-117939784D01*
X161915365Y-113307470D01*
X161641620Y-113273158D01*
X161448750Y-113254732D01*
X161030563Y-113217828D01*
X160726042Y-113173481D01*
X160521934Y-113118796D01*
X160404986Y-113050878D01*
X160380930Y-113021460D01*
X160327593Y-112950479D01*
X160262426Y-112916918D01*
X160161742Y-112924112D01*
X160001855Y-112975398D01*
X159955762Y-112994139D01*
X159955762Y-116027382D01*
X160252044Y-116109750D01*
X160459823Y-116168480D01*
X160708665Y-116201998D01*
X160793929Y-116205000D01*
X161007249Y-116218870D01*
X161185061Y-116253954D01*
X161238036Y-116274674D01*
X161315957Y-116334685D01*
X161344758Y-116428698D01*
X161334386Y-116597547D01*
X161328312Y-116645211D01*
X161301570Y-116942469D01*
X161287011Y-117314172D01*
X161283958Y-117727840D01*
X161291736Y-118150993D01*
X161309667Y-118551152D01*
X161337076Y-118895835D01*
X161373286Y-119152564D01*
X161381289Y-119189500D01*
X161433166Y-119442560D01*
X161469079Y-119680715D01*
X161480181Y-119824500D01*
X161508983Y-120005639D01*
X161581504Y-120236856D01*
X161648719Y-120396000D01*
X161820609Y-120797785D01*
X161910980Y-121126230D01*
X161921563Y-121403906D01*
X161854085Y-121653384D01*
X161758389Y-121827834D01*
X161708980Y-121919588D01*
X161684378Y-122025604D01*
X161683127Y-122177247D01*
X161703772Y-122405880D01*
X161723752Y-122574351D01*
X161772681Y-122962083D01*
X161812603Y-123250786D01*
X161848139Y-123467701D01*
X161883908Y-123640065D01*
X161924530Y-123795118D01*
X161939369Y-123845730D01*
X161979086Y-124013154D01*
X161965795Y-124103966D01*
X161922922Y-124143783D01*
X161749138Y-124203820D01*
X161485617Y-124238218D01*
X161167231Y-124245886D01*
X160828849Y-124225733D01*
X160555177Y-124186603D01*
X160208692Y-124100298D01*
X159819171Y-123969720D01*
X159418554Y-123808917D01*
X159038779Y-123631941D01*
X158711788Y-123452844D01*
X158469519Y-123285676D01*
X158431045Y-123252157D01*
X158173011Y-123013941D01*
X158296266Y-122768595D01*
X158482741Y-122355145D01*
X158658683Y-121890030D01*
X158800466Y-121438123D01*
X158846518Y-121257701D01*
X158898957Y-120990100D01*
X158909759Y-120789767D01*
X158880801Y-120604659D01*
X158871394Y-120568508D01*
X158820118Y-120276028D01*
X158795755Y-119903087D01*
X158798467Y-119493373D01*
X158828420Y-119090577D01*
X158864921Y-118840250D01*
X158939544Y-118449592D01*
X159005473Y-118150543D01*
X159073072Y-117909146D01*
X159152702Y-117691448D01*
X159254723Y-117463494D01*
X159335141Y-117299368D01*
X159597331Y-116774486D01*
X159427665Y-116597393D01*
X159298401Y-116440951D01*
X159271208Y-116324754D01*
X159345904Y-116213727D01*
X159425313Y-116146108D01*
X159663663Y-116036333D01*
X159955762Y-116027382D01*
X159955762Y-112994139D01*
X159759077Y-113074112D01*
X159636531Y-113126306D01*
X159348651Y-113241259D01*
X159153392Y-113291902D01*
X159031605Y-113274229D01*
X158964140Y-113184232D01*
X158931848Y-113017903D01*
X158928170Y-112978070D01*
X158887517Y-112790882D01*
X158810837Y-112722693D01*
X158704236Y-112772695D01*
X158573818Y-112940079D01*
X158520499Y-113032060D01*
X158362748Y-113271141D01*
X158175579Y-113434936D01*
X158149974Y-113449539D01*
X158149974Y-120860591D01*
X158215490Y-120895916D01*
X158275514Y-121021151D01*
X158323186Y-121199215D01*
X158351644Y-121393026D01*
X158354027Y-121565502D01*
X158323474Y-121679561D01*
X158304931Y-121698101D01*
X158173169Y-121715240D01*
X158039030Y-121644097D01*
X157952153Y-121512248D01*
X157948825Y-121500274D01*
X157945386Y-121349365D01*
X157983579Y-121162758D01*
X158048153Y-120988953D01*
X158123859Y-120876448D01*
X158149974Y-120860591D01*
X158149974Y-113449539D01*
X158042862Y-113510627D01*
X157865345Y-113608691D01*
X157806355Y-113648199D01*
X157806355Y-122306155D01*
X157944040Y-122349490D01*
X157975300Y-122377200D01*
X158047503Y-122514741D01*
X157994200Y-122647185D01*
X157964298Y-122675320D01*
X157836406Y-122719425D01*
X157718218Y-122672496D01*
X157643415Y-122568213D01*
X157645679Y-122440258D01*
X157677179Y-122388201D01*
X157806355Y-122306155D01*
X157806355Y-113648199D01*
X157738009Y-113693974D01*
X157701973Y-113728947D01*
X157636058Y-113799153D01*
X157498813Y-113924750D01*
X157317454Y-114081017D01*
X157279217Y-114112998D01*
X157078074Y-114274476D01*
X156937967Y-114365278D01*
X156826260Y-114400486D01*
X156710317Y-114395181D01*
X156680042Y-114389895D01*
X156498156Y-114379061D01*
X156366574Y-114439720D01*
X156262717Y-114590857D01*
X156176463Y-114813379D01*
X156095335Y-115009375D01*
X156027884Y-115079822D01*
X155985863Y-115032335D01*
X155985863Y-122618500D01*
X156142839Y-122648154D01*
X156344865Y-122722500D01*
X156544034Y-122819614D01*
X156692442Y-122917569D01*
X156732902Y-122960405D01*
X156776090Y-123071053D01*
X156715020Y-123153773D01*
X156653857Y-123190343D01*
X156552538Y-123219862D01*
X156454256Y-123172087D01*
X156361667Y-123081453D01*
X156184801Y-122946522D01*
X156028935Y-122904250D01*
X155894125Y-122873723D01*
X155840984Y-122764967D01*
X155840458Y-122761375D01*
X155848642Y-122655178D01*
X155938108Y-122619982D01*
X155985863Y-122618500D01*
X155985863Y-115032335D01*
X155979877Y-115025570D01*
X155957084Y-114847470D01*
X155956000Y-114780863D01*
X155956000Y-114507221D01*
X155687340Y-114471187D01*
X155517159Y-114454199D01*
X155409482Y-114454417D01*
X155394434Y-114459398D01*
X155394208Y-114529448D01*
X155420015Y-114682445D01*
X155446454Y-114801558D01*
X155483105Y-114994729D01*
X155492869Y-115138641D01*
X155484161Y-115181862D01*
X155403034Y-115205092D01*
X155311462Y-115179935D01*
X155311462Y-115921684D01*
X155390475Y-115998555D01*
X155441985Y-116124249D01*
X155448000Y-116183259D01*
X155434096Y-116289757D01*
X155370272Y-116292628D01*
X155321000Y-116268500D01*
X155220943Y-116162122D01*
X155193843Y-116023993D01*
X155235782Y-115930384D01*
X155311462Y-115921684D01*
X155311462Y-115179935D01*
X155256374Y-115164801D01*
X155076610Y-115078290D01*
X154896170Y-114962862D01*
X154747485Y-114835818D01*
X154682632Y-114754228D01*
X154569155Y-114605497D01*
X154482815Y-114578820D01*
X154422569Y-114675017D01*
X154387370Y-114894908D01*
X154381266Y-114990672D01*
X154381252Y-115209025D01*
X154408258Y-115427143D01*
X154469542Y-115682585D01*
X154572359Y-116012909D01*
X154587641Y-116058792D01*
X154704771Y-116424653D01*
X154775638Y-116696217D01*
X154801976Y-116896767D01*
X154785519Y-117049587D01*
X154728001Y-117177960D01*
X154676402Y-117250528D01*
X154600991Y-117354842D01*
X154572189Y-117444412D01*
X154587594Y-117563725D01*
X154644802Y-117757268D01*
X154648412Y-117768726D01*
X154716944Y-118054298D01*
X154709727Y-118243642D01*
X154625247Y-118343579D01*
X154516177Y-118364000D01*
X154399884Y-118386209D01*
X154389939Y-118455278D01*
X154428975Y-118574058D01*
X154480587Y-118750641D01*
X154491087Y-118788653D01*
X154562095Y-118967717D01*
X154682181Y-119196199D01*
X154812104Y-119404445D01*
X154977681Y-119678991D01*
X155057568Y-119887796D01*
X155050368Y-120023254D01*
X154954685Y-120077757D01*
X154935825Y-120078500D01*
X154703360Y-120022052D01*
X154449525Y-119861662D01*
X154384625Y-119805731D01*
X154271866Y-119727817D01*
X154197765Y-119720120D01*
X154196840Y-119720992D01*
X154218458Y-119781798D01*
X154218458Y-119781798D01*
G37*
X154218458Y-119781798D02*
X154316249Y-119902612D01*
X154470639Y-120060003D01*
X154514090Y-120100755D01*
X154724915Y-120318880D01*
X154849199Y-120499329D01*
X154882717Y-120631108D01*
X154821248Y-120703225D01*
X154749500Y-120713500D01*
X154638262Y-120755733D01*
X154615523Y-120875369D01*
X154678209Y-121061812D01*
X154823248Y-121304469D01*
X154981622Y-121513789D01*
X155102566Y-121680231D01*
X155179483Y-121820811D01*
X155194000Y-121875167D01*
X155159936Y-121995823D01*
X155070275Y-122014221D01*
X154943807Y-121931038D01*
X154882604Y-121863978D01*
X154746192Y-121727022D01*
X154607311Y-121675917D01*
X154495335Y-121674865D01*
X154331584Y-121690972D01*
X154227035Y-121712647D01*
X154221488Y-121715125D01*
X154215568Y-121773336D01*
X154290701Y-121872472D01*
X154420558Y-121985650D01*
X154578809Y-122085987D01*
X154590600Y-122092000D01*
X154829697Y-122222267D01*
X155069394Y-122370331D01*
X155282887Y-122517507D01*
X155443369Y-122645111D01*
X155524036Y-122734457D01*
X155528113Y-122745500D01*
X155522304Y-122873528D01*
X155486158Y-123010284D01*
X155466936Y-123195409D01*
X155556140Y-123322896D01*
X155743410Y-123380039D01*
X155789150Y-123381894D01*
X155971975Y-123409686D01*
X156189955Y-123477562D01*
X156259476Y-123506618D01*
X156464514Y-123582344D01*
X156617810Y-123589347D01*
X156696488Y-123567107D01*
X156897452Y-123529634D01*
X157056414Y-123599218D01*
X157187963Y-123767957D01*
X157326047Y-123937693D01*
X157503198Y-124082165D01*
X157515257Y-124089483D01*
X157693138Y-124232605D01*
X157844199Y-124414745D01*
X157854913Y-124432194D01*
X157989610Y-124594037D01*
X158126936Y-124649598D01*
X158245415Y-124595729D01*
X158303154Y-124497918D01*
X158372150Y-124365508D01*
X158428413Y-124303775D01*
X158513028Y-124307945D01*
X158685454Y-124353145D01*
X158916523Y-124430959D01*
X159066146Y-124487806D01*
X159815213Y-124721244D01*
X160631529Y-124858764D01*
X161495599Y-124897210D01*
X161583802Y-124895486D01*
X162290355Y-124877607D01*
X162522637Y-125081553D01*
X162741047Y-125230682D01*
X162961539Y-125279913D01*
X163214217Y-125231005D01*
X163435235Y-125134876D01*
X163680564Y-125026190D01*
X163961280Y-124922265D01*
X164085704Y-124883222D01*
X164367293Y-124769750D01*
X164633036Y-124609712D01*
X164698322Y-124558217D01*
X164839757Y-124428492D01*
X164923081Y-124313233D01*
X164969146Y-124167663D01*
X164998804Y-123947006D01*
X165003249Y-123903437D01*
X165018351Y-123622858D01*
X164998375Y-123356569D01*
X164937825Y-123047411D01*
X164910086Y-122934440D01*
X164836447Y-122669926D01*
X164760071Y-122437784D01*
X164694305Y-122277449D01*
X164677727Y-122247821D01*
X164565367Y-122143801D01*
X164355398Y-122012464D01*
X164070990Y-121865746D01*
X163735315Y-121715584D01*
X163371544Y-121573915D01*
X163364979Y-121571551D01*
X163124767Y-121447381D01*
X162993431Y-121297768D01*
X162973648Y-121140239D01*
X163068093Y-120992321D01*
X163259319Y-120879331D01*
X163444515Y-120791819D01*
X163677607Y-120663770D01*
X163862542Y-120551502D01*
X164091257Y-120387219D01*
X164245121Y-120221286D01*
X164367485Y-120005600D01*
X164381267Y-119975933D01*
X164449670Y-119815547D01*
X164493685Y-119670474D01*
X164517460Y-119507646D01*
X164525143Y-119293993D01*
X164520881Y-118996447D01*
X164517911Y-118886495D01*
X164496750Y-118141750D01*
X164211000Y-117633750D01*
X164064965Y-117383690D01*
X163946201Y-117215585D01*
X163824878Y-117097947D01*
X163671169Y-116999289D01*
X163549298Y-116935250D01*
X163334064Y-116811081D01*
X163152644Y-116679872D01*
X163057907Y-116586000D01*
X162937639Y-116354312D01*
X162900313Y-116124969D01*
X162951507Y-115936970D01*
X162962721Y-115920571D01*
X163009597Y-115872303D01*
X163081389Y-115836425D01*
X163198137Y-115809898D01*
X163379884Y-115789684D01*
X163646669Y-115772744D01*
X164018534Y-115756040D01*
X164058669Y-115754411D01*
X164468468Y-115740514D01*
X164773037Y-115737323D01*
X164993763Y-115745721D01*
X165152035Y-115766596D01*
X165269242Y-115800831D01*
X165279314Y-115804934D01*
X165567237Y-115865412D01*
X165758934Y-115848421D01*
X166072458Y-115824585D01*
X166321305Y-115869424D01*
X166492686Y-115971453D01*
X166573810Y-116119192D01*
X166551889Y-116301159D01*
X166448436Y-116467401D01*
X166338744Y-116639771D01*
X166343095Y-116764996D01*
X166463976Y-116846674D01*
X166703878Y-116888398D01*
X166741665Y-116890943D01*
X166932972Y-116905923D01*
X167029718Y-116936942D01*
X167064146Y-117007046D01*
X167068500Y-117124532D01*
X167024409Y-117342285D01*
X166905867Y-117489003D01*
X166746464Y-117538500D01*
X166641251Y-117567405D01*
X166638647Y-117641811D01*
X166731547Y-117743257D01*
X166856447Y-117824250D01*
X167065857Y-117984329D01*
X167151695Y-118162395D01*
X167114776Y-118350800D01*
X166955913Y-118541896D01*
X166765577Y-118677404D01*
X166707603Y-118723299D01*
X166707603Y-121415434D01*
X166772166Y-121454333D01*
X166809875Y-121551718D01*
X166729282Y-121657673D01*
X166628465Y-121695494D01*
X166570111Y-121619282D01*
X166560500Y-121528416D01*
X166606789Y-121431634D01*
X166707603Y-121415434D01*
X166707603Y-118723299D01*
X166604582Y-118804857D01*
X166428447Y-118991003D01*
X166262142Y-119202932D01*
X166130635Y-119407734D01*
X166058896Y-119572498D01*
X166052500Y-119617245D01*
X166016971Y-119737250D01*
X165929029Y-119895759D01*
X165816640Y-120052942D01*
X165707771Y-120168973D01*
X165639443Y-120205500D01*
X165539879Y-120161185D01*
X165409643Y-120051131D01*
X165375743Y-120015000D01*
X165180343Y-119860506D01*
X165029751Y-119824500D01*
X164863295Y-119853417D01*
X164810969Y-119936749D01*
X164874726Y-120069369D01*
X164917619Y-120118893D01*
X165013316Y-120232362D01*
X165028322Y-120320117D01*
X164969532Y-120444955D01*
X164956022Y-120468588D01*
X164863450Y-120684851D01*
X164871514Y-120866957D01*
X164986198Y-121051377D01*
X165065568Y-121136268D01*
X165211036Y-121267632D01*
X165312557Y-121314387D01*
X165404321Y-121292043D01*
X165406469Y-121290903D01*
X165532141Y-121255762D01*
X165595561Y-121326432D01*
X165608000Y-121446558D01*
X165557722Y-121610782D01*
X165432062Y-121707241D01*
X165294446Y-121712132D01*
X165149745Y-121733382D01*
X165058652Y-121803605D01*
X164983938Y-121943175D01*
X165027468Y-122055294D01*
X165181960Y-122131789D01*
X165377693Y-122161657D01*
X165512124Y-122177894D01*
X165632800Y-122216587D01*
X165757131Y-122291605D01*
X165902523Y-122416816D01*
X166086385Y-122606089D01*
X166326124Y-122873292D01*
X166453374Y-123018638D01*
X166651541Y-123214072D01*
X166860736Y-123341016D01*
X167115145Y-123412401D01*
X167448952Y-123441158D01*
X167576500Y-123443457D01*
X167854602Y-123458664D01*
X168008770Y-123499626D01*
X168039489Y-123566620D01*
X167949838Y-123658119D01*
X167819907Y-123734460D01*
X167736995Y-123762120D01*
X167648219Y-123787815D01*
X167484400Y-123853843D01*
X167322500Y-123926716D01*
X167137975Y-124004565D01*
X166957749Y-124055395D01*
X166743874Y-124085873D01*
X166458407Y-124102669D01*
X166293172Y-124107623D01*
X165947192Y-124122095D01*
X165703803Y-124147715D01*
X165538822Y-124188066D01*
X165447854Y-124232824D01*
X165329859Y-124324027D01*
X165297807Y-124392180D01*
X165359878Y-124440157D01*
X165524249Y-124470829D01*
X165799098Y-124487069D01*
X166185118Y-124491750D01*
X166597748Y-124486467D01*
X166915435Y-124468576D01*
X167169880Y-124435010D01*
X167392782Y-124382704D01*
X167431613Y-124371180D01*
X167686122Y-124305044D01*
X167854298Y-124303331D01*
X167957628Y-124381839D01*
X168017601Y-124556369D01*
X168054344Y-124829054D01*
X168086232Y-125095738D01*
X168125298Y-125352546D01*
X168155333Y-125507750D01*
X168180222Y-125661729D01*
X168208944Y-125912282D01*
X168238511Y-126229166D01*
X168265931Y-126582137D01*
X168275244Y-126720648D01*
X168318549Y-127264576D01*
X168375091Y-127702028D01*
X168451075Y-128053333D01*
X168552708Y-128338820D01*
X168686195Y-128578819D01*
X168857742Y-128793659D01*
X168931417Y-128870160D01*
X169220290Y-129106595D01*
X169611976Y-129351640D01*
X170083528Y-129596179D01*
X170612003Y-129831094D01*
X171174456Y-130047269D01*
X171747941Y-130235586D01*
X172309516Y-130386928D01*
X172836233Y-130492179D01*
X173101000Y-130526938D01*
X173578463Y-130601297D01*
X174010734Y-130718048D01*
X174378021Y-130868866D01*
X174660537Y-131045425D01*
X174838490Y-131239398D01*
X174851959Y-131263606D01*
X174973839Y-131420606D01*
X175120179Y-131524992D01*
X175256901Y-131606192D01*
X175442381Y-131743629D01*
X175613316Y-131887364D01*
X175823225Y-132060505D01*
X176039726Y-132215988D01*
X176183289Y-132302250D01*
X176356023Y-132406946D01*
X176578060Y-132563606D01*
X176803743Y-132739867D01*
X176821620Y-132754707D01*
X177088179Y-132957023D01*
X177399286Y-133164047D01*
X177662898Y-133317344D01*
X177922926Y-133473327D01*
X178175517Y-133656844D01*
X178367130Y-133828895D01*
X178371184Y-133833262D01*
X178518176Y-133982217D01*
X178636524Y-134083355D01*
X178690307Y-134112000D01*
X178700896Y-134048829D01*
X178710548Y-133860633D01*
X178719248Y-133549379D01*
X178726979Y-133117037D01*
X178733722Y-132565579D01*
X178739461Y-131896972D01*
X178744179Y-131113188D01*
X178747859Y-130216196D01*
X178750483Y-129207966D01*
X178752034Y-128090467D01*
X178752500Y-126968250D01*
X178752101Y-125765639D01*
X178750880Y-124686207D01*
X178748799Y-123726131D01*
X178745822Y-122881592D01*
X178741910Y-122148771D01*
X178737026Y-121523845D01*
X178731134Y-121002997D01*
X178724196Y-120582404D01*
X178716174Y-120258248D01*
X178707031Y-120026707D01*
X178696730Y-119883963D01*
X178685234Y-119826193D01*
X178682726Y-119824500D01*
X178587625Y-119874853D01*
X178436974Y-120015588D01*
X178245375Y-120231219D01*
X178027427Y-120506259D01*
X177979300Y-120570625D01*
X177844555Y-120741440D01*
X177733894Y-120861668D01*
X177674228Y-120904000D01*
X177603642Y-120950340D01*
X177493811Y-121067174D01*
X177443550Y-121130045D01*
X177271136Y-121356090D01*
X177468712Y-121780920D01*
X177585407Y-122071324D01*
X177687982Y-122394400D01*
X177744045Y-122630608D01*
X177784894Y-122918493D01*
X177771408Y-123104506D01*
X177688997Y-123207397D01*
X177523073Y-123245915D01*
X177270156Y-123239625D01*
X177051683Y-123214575D01*
X176898809Y-123161498D01*
X176788486Y-123057307D01*
X176697664Y-122878916D01*
X176603293Y-122603240D01*
X176589071Y-122557462D01*
X176494325Y-122290614D01*
X176380685Y-122025936D01*
X176298076Y-121866014D01*
X176192577Y-121651325D01*
X176156318Y-121455210D01*
X176163758Y-121280741D01*
X176237722Y-120946614D01*
X176390679Y-120562878D01*
X176605220Y-120162595D01*
X176863933Y-119778830D01*
X177107833Y-119487900D01*
X177308962Y-119280117D01*
X177458299Y-119147699D01*
X177587208Y-119070021D01*
X177727053Y-119026458D01*
X177839928Y-119006475D01*
X178094665Y-118939323D01*
X178360293Y-118827217D01*
X178458939Y-118771575D01*
X178752272Y-118586250D01*
X178752386Y-118030625D01*
X178749722Y-117782788D01*
X178742505Y-117591909D01*
X178732055Y-117486727D01*
X178726811Y-117475000D01*
X178684675Y-117525624D01*
X178601123Y-117657174D01*
X178512943Y-117808436D01*
X178308977Y-118105556D01*
X178051401Y-118387907D01*
X177775393Y-118621375D01*
X177522009Y-118769415D01*
X177350152Y-118871823D01*
X177157202Y-119030595D01*
X177057348Y-119131759D01*
X176942226Y-119254669D01*
X176753427Y-119450040D01*
X176507534Y-119700989D01*
X176221131Y-119990634D01*
X175910800Y-120302091D01*
X175758518Y-120454076D01*
X175391672Y-120822061D01*
X175106272Y-121118220D01*
X174892303Y-121358839D01*
X174739752Y-121560209D01*
X174638605Y-121738618D01*
X174578850Y-121910354D01*
X174550471Y-122091706D01*
X174543457Y-122298962D01*
X174545040Y-122428000D01*
X174557671Y-123036043D01*
X174569478Y-123530182D01*
X174581460Y-123923498D01*
X174594618Y-124229074D01*
X174609949Y-124459992D01*
X174628452Y-124629333D01*
X174651126Y-124750181D01*
X174678971Y-124835616D01*
X174712985Y-124898722D01*
X174736127Y-124930494D01*
X174835695Y-125116206D01*
X174824664Y-125261565D01*
X174715914Y-125355921D01*
X174522325Y-125388625D01*
X174256776Y-125349026D01*
X174236652Y-125343505D01*
X174045681Y-125307477D01*
X173775139Y-125278740D01*
X173472424Y-125261816D01*
X173355000Y-125259386D01*
X172751750Y-125253750D01*
X172354036Y-124971175D01*
X172127188Y-124819382D01*
X171959891Y-124735771D01*
X171815842Y-124705213D01*
X171719036Y-124706514D01*
X171384506Y-124730621D01*
X171147635Y-124738358D01*
X170979366Y-124721869D01*
X170850644Y-124673299D01*
X170732413Y-124584792D01*
X170595616Y-124448494D01*
X170536905Y-124386924D01*
X170281771Y-124145280D01*
X170068443Y-124009394D01*
X169877518Y-123973747D01*
X169689592Y-124032822D01*
X169569643Y-124111865D01*
X169423836Y-124236851D01*
X169326181Y-124345886D01*
X169310484Y-124373816D01*
X169225497Y-124470319D01*
X169072669Y-124568307D01*
X168906900Y-124636657D01*
X168822439Y-124650500D01*
X168673132Y-124597601D01*
X168579894Y-124453105D01*
X168540633Y-124238313D01*
X168553255Y-123974528D01*
X168615666Y-123683049D01*
X168725774Y-123385180D01*
X168881484Y-123102221D01*
X168988871Y-122956945D01*
X169229648Y-122637531D01*
X169382120Y-122357899D01*
X169461075Y-122083657D01*
X169481500Y-121811202D01*
X169500597Y-121551020D01*
X169550266Y-121244097D01*
X169608500Y-120999250D01*
X169671871Y-120759094D01*
X169717386Y-120551199D01*
X169735480Y-120419428D01*
X169735500Y-120416949D01*
X169676838Y-120235012D01*
X169506613Y-120021193D01*
X169233466Y-119784597D01*
X168945258Y-119584147D01*
X168534325Y-119297128D01*
X168192294Y-119010538D01*
X167927125Y-118734728D01*
X167746780Y-118480048D01*
X167659218Y-118256848D01*
X167672400Y-118075481D01*
X167725132Y-117997652D01*
X167876455Y-117930713D01*
X168113568Y-117931161D01*
X168417515Y-117994570D01*
X168769341Y-118116511D01*
X169150091Y-118292556D01*
X169275264Y-118359772D01*
X169647146Y-118547186D01*
X170032345Y-118707746D01*
X170407804Y-118834943D01*
X170750463Y-118922271D01*
X171037267Y-118963220D01*
X171245157Y-118951283D01*
X171299471Y-118931100D01*
X171412250Y-118836092D01*
X171588304Y-118640453D01*
X171822652Y-118350652D01*
X172110313Y-117973155D01*
X172446304Y-117514431D01*
X172825643Y-116980946D01*
X173056850Y-116649500D01*
X173319647Y-116272013D01*
X173522234Y-115986743D01*
X173675705Y-115780814D01*
X173791157Y-115641349D01*
X173879686Y-115555473D01*
X173952386Y-115510310D01*
X174020353Y-115492983D01*
X174055357Y-115490751D01*
X174206343Y-115502382D01*
X174458603Y-115539363D01*
X174789866Y-115597616D01*
X175177862Y-115673063D01*
X175600322Y-115761626D01*
X175908781Y-115830185D01*
X176136850Y-115890492D01*
X176456525Y-115986439D01*
X176840562Y-116108897D01*
X177261720Y-116248737D01*
X177692757Y-116396830D01*
X178106429Y-116544048D01*
X178475496Y-116681261D01*
X178641375Y-116745880D01*
X178660981Y-116748653D01*
X178678141Y-116735133D01*
X178693017Y-116697484D01*
X178705772Y-116627871D01*
X178716568Y-116518457D01*
X178725567Y-116361407D01*
X178732933Y-116148885D01*
X178738826Y-115873056D01*
X178743409Y-115526084D01*
X178746845Y-115100132D01*
X178749297Y-114587365D01*
X178750925Y-113979948D01*
X178751893Y-113270045D01*
X178752364Y-112449819D01*
X178752498Y-111511436D01*
X178752500Y-111381960D01*
X178752500Y-105973834D01*
X175656875Y-105994719D01*
X174909415Y-106000486D01*
X174279519Y-106007070D01*
X173757748Y-106014776D01*
X173334666Y-106023909D01*
X173000837Y-106034774D01*
X172746824Y-106047677D01*
X172563190Y-106062923D01*
X172440499Y-106080816D01*
X172370750Y-106101011D01*
X172224449Y-106138974D01*
X171971160Y-106174164D01*
X171630894Y-106204380D01*
X171223662Y-106227422D01*
X171219269Y-106227611D01*
X170258288Y-106268805D01*
X169600019Y-106596838D01*
X169010205Y-106932839D01*
X168488092Y-107314888D01*
X168054572Y-107726002D01*
X167774867Y-108080322D01*
X167573956Y-108429604D01*
X167543550Y-108502083D01*
X167543550Y-119403725D01*
X167687798Y-119431440D01*
X167858095Y-119510844D01*
X168046943Y-119640210D01*
X168222063Y-119791605D01*
X168351174Y-119937096D01*
X168401996Y-120048750D01*
X168402000Y-120049456D01*
X168344814Y-120187678D01*
X168197645Y-120290348D01*
X167997071Y-120332431D01*
X167988461Y-120332500D01*
X167832648Y-120348660D01*
X167740760Y-120388007D01*
X167737482Y-120392387D01*
X167715987Y-120481196D01*
X167693313Y-120660552D01*
X167673908Y-120894125D01*
X167671641Y-120930153D01*
X167681613Y-121374167D01*
X167770565Y-121721260D01*
X167938009Y-121970105D01*
X168096577Y-122082583D01*
X168311615Y-122212311D01*
X168482411Y-122354035D01*
X168580076Y-122481708D01*
X168592500Y-122529710D01*
X168546572Y-122620460D01*
X168435027Y-122733012D01*
X168425186Y-122740891D01*
X168190805Y-122855396D01*
X167938489Y-122844216D01*
X167697015Y-122727402D01*
X167514998Y-122563679D01*
X167372878Y-122335186D01*
X167262305Y-122022863D01*
X167174929Y-121607653D01*
X167157189Y-121495284D01*
X167113342Y-121147785D01*
X167101427Y-120870320D01*
X167120580Y-120610230D01*
X167140490Y-120476494D01*
X167177214Y-120216512D01*
X167200740Y-119971223D01*
X167205940Y-119816612D01*
X167240296Y-119580547D01*
X167354873Y-119441287D01*
X167543550Y-119403725D01*
X167543550Y-108502083D01*
X167423026Y-108789379D01*
X167336907Y-109120200D01*
X167322500Y-109283499D01*
X167304453Y-109443872D01*
X167258713Y-109659087D01*
X167230182Y-109764099D01*
X167162924Y-110017676D01*
X167088769Y-110338441D01*
X167013475Y-110696262D01*
X166942799Y-111061008D01*
X166882500Y-111402545D01*
X166838336Y-111690742D01*
X166816064Y-111895468D01*
X166814500Y-111939452D01*
X166792599Y-112110487D01*
X166733704Y-112359647D01*
X166648023Y-112647155D01*
X166588384Y-112820474D01*
X166484323Y-113121929D01*
X166391593Y-113417598D01*
X166323689Y-113663203D01*
X166301938Y-113760250D01*
X166228141Y-114002070D01*
X166120761Y-114169140D01*
X165996462Y-114236203D01*
X165987749Y-114236500D01*
X165916601Y-114204098D01*
X165775789Y-114120566D01*
X165651598Y-114040653D01*
X165356675Y-113889368D01*
X165042364Y-113796555D01*
X165021587Y-113793125D01*
X164778461Y-113749614D01*
X164482952Y-113688517D01*
X164242750Y-113633435D01*
X163959297Y-113575550D01*
X163704363Y-113535176D01*
X163704363Y-114073923D01*
X163939767Y-114097282D01*
X164061840Y-114114414D01*
X164362072Y-114155498D01*
X164670331Y-114192559D01*
X164919949Y-114217581D01*
X164920231Y-114217604D01*
X165165571Y-114253198D01*
X165351248Y-114329211D01*
X165543928Y-114472992D01*
X165545029Y-114473934D01*
X165787793Y-114724977D01*
X165907848Y-114956627D01*
X165904385Y-115166917D01*
X165864435Y-115250734D01*
X165813332Y-115292386D01*
X165709468Y-115318145D01*
X165531589Y-115330097D01*
X165258443Y-115330322D01*
X165087532Y-115326884D01*
X164718074Y-115315406D01*
X164457728Y-115299624D01*
X164288609Y-115276362D01*
X164192834Y-115242447D01*
X164152519Y-115194703D01*
X164147500Y-115160005D01*
X164205329Y-114991653D01*
X164356803Y-114857852D01*
X164568902Y-114783936D01*
X164646659Y-114777002D01*
X164879748Y-114748177D01*
X164996658Y-114674285D01*
X165001083Y-114552192D01*
X164976648Y-114497317D01*
X164913454Y-114410757D01*
X164824343Y-114372908D01*
X164681100Y-114382189D01*
X164455507Y-114437024D01*
X164364321Y-114463060D01*
X164038186Y-114603799D01*
X163773331Y-114823803D01*
X163524816Y-115084986D01*
X163455512Y-114835368D01*
X163396875Y-114539133D01*
X163395640Y-114298478D01*
X163451126Y-114139311D01*
X163474465Y-114114715D01*
X163557627Y-114079730D01*
X163704363Y-114073923D01*
X163704363Y-113535176D01*
X163615852Y-113521158D01*
X163279232Y-113480627D01*
X163226750Y-113475796D01*
X162898236Y-113442862D01*
X162551354Y-113401086D01*
X162394904Y-113378830D01*
X162394904Y-122882341D01*
X162421238Y-122885380D01*
X162470586Y-122901532D01*
X162511421Y-122941587D01*
X162550898Y-123025296D01*
X162596174Y-123172408D01*
X162654406Y-123402674D01*
X162732750Y-123735842D01*
X162738702Y-123761500D01*
X162817934Y-124124027D01*
X162860707Y-124379117D01*
X162867464Y-124540854D01*
X162838650Y-124623320D01*
X162774709Y-124640600D01*
X162766375Y-124639281D01*
X162648791Y-124556404D01*
X162535106Y-124360532D01*
X162431298Y-124065651D01*
X162343345Y-123685748D01*
X162332046Y-123623192D01*
X162283079Y-123282151D01*
X162276447Y-123051500D01*
X162313329Y-122921482D01*
X162394904Y-122882341D01*
X162394904Y-113378830D01*
X162252827Y-113358617D01*
X162210750Y-113351757D01*
X161927904Y-113309041D01*
X161915365Y-113307470D01*
X161915365Y-117939784D01*
X161981252Y-117944310D01*
X162046913Y-118030625D01*
X162087475Y-118168197D01*
X162108318Y-118373919D01*
X162108637Y-118595626D01*
X162107157Y-118608695D01*
X162107157Y-119962353D01*
X162221151Y-119987137D01*
X162285267Y-120051079D01*
X162354513Y-120206862D01*
X162318943Y-120318905D01*
X162186443Y-120364153D01*
X162178130Y-120364250D01*
X162056650Y-120336153D01*
X162005590Y-120227779D01*
X162000122Y-120189263D01*
X162021846Y-120035367D01*
X162107157Y-119962353D01*
X162107157Y-118608695D01*
X162087629Y-118781149D01*
X162059721Y-118861680D01*
X161954676Y-118930632D01*
X161818246Y-118912142D01*
X161695271Y-118820348D01*
X161644746Y-118730836D01*
X161620400Y-118593963D01*
X161651527Y-118435924D01*
X161733698Y-118238711D01*
X161837988Y-118034503D01*
X161915365Y-117939784D01*
X161915365Y-113307470D01*
X161641620Y-113273158D01*
X161448750Y-113254732D01*
X161030563Y-113217828D01*
X160726042Y-113173481D01*
X160521934Y-113118796D01*
X160404986Y-113050878D01*
X160380930Y-113021460D01*
X160327593Y-112950479D01*
X160262426Y-112916918D01*
X160161742Y-112924112D01*
X160001855Y-112975398D01*
X159955762Y-112994139D01*
X159955762Y-116027382D01*
X160252044Y-116109750D01*
X160459823Y-116168480D01*
X160708665Y-116201998D01*
X160793929Y-116205000D01*
X161007249Y-116218870D01*
X161185061Y-116253954D01*
X161238036Y-116274674D01*
X161315957Y-116334685D01*
X161344758Y-116428698D01*
X161334386Y-116597547D01*
X161328312Y-116645211D01*
X161301570Y-116942469D01*
X161287011Y-117314172D01*
X161283958Y-117727840D01*
X161291736Y-118150993D01*
X161309667Y-118551152D01*
X161337076Y-118895835D01*
X161373286Y-119152564D01*
X161381289Y-119189500D01*
X161433166Y-119442560D01*
X161469079Y-119680715D01*
X161480181Y-119824500D01*
X161508983Y-120005639D01*
X161581504Y-120236856D01*
X161648719Y-120396000D01*
X161820609Y-120797785D01*
X161910980Y-121126230D01*
X161921563Y-121403906D01*
X161854085Y-121653384D01*
X161758389Y-121827834D01*
X161708980Y-121919588D01*
X161684378Y-122025604D01*
X161683127Y-122177247D01*
X161703772Y-122405880D01*
X161723752Y-122574351D01*
X161772681Y-122962083D01*
X161812603Y-123250786D01*
X161848139Y-123467701D01*
X161883908Y-123640065D01*
X161924530Y-123795118D01*
X161939369Y-123845730D01*
X161979086Y-124013154D01*
X161965795Y-124103966D01*
X161922922Y-124143783D01*
X161749138Y-124203820D01*
X161485617Y-124238218D01*
X161167231Y-124245886D01*
X160828849Y-124225733D01*
X160555177Y-124186603D01*
X160208692Y-124100298D01*
X159819171Y-123969720D01*
X159418554Y-123808917D01*
X159038779Y-123631941D01*
X158711788Y-123452844D01*
X158469519Y-123285676D01*
X158431045Y-123252157D01*
X158173011Y-123013941D01*
X158296266Y-122768595D01*
X158482741Y-122355145D01*
X158658683Y-121890030D01*
X158800466Y-121438123D01*
X158846518Y-121257701D01*
X158898957Y-120990100D01*
X158909759Y-120789767D01*
X158880801Y-120604659D01*
X158871394Y-120568508D01*
X158820118Y-120276028D01*
X158795755Y-119903087D01*
X158798467Y-119493373D01*
X158828420Y-119090577D01*
X158864921Y-118840250D01*
X158939544Y-118449592D01*
X159005473Y-118150543D01*
X159073072Y-117909146D01*
X159152702Y-117691448D01*
X159254723Y-117463494D01*
X159335141Y-117299368D01*
X159597331Y-116774486D01*
X159427665Y-116597393D01*
X159298401Y-116440951D01*
X159271208Y-116324754D01*
X159345904Y-116213727D01*
X159425313Y-116146108D01*
X159663663Y-116036333D01*
X159955762Y-116027382D01*
X159955762Y-112994139D01*
X159759077Y-113074112D01*
X159636531Y-113126306D01*
X159348651Y-113241259D01*
X159153392Y-113291902D01*
X159031605Y-113274229D01*
X158964140Y-113184232D01*
X158931848Y-113017903D01*
X158928170Y-112978070D01*
X158887517Y-112790882D01*
X158810837Y-112722693D01*
X158704236Y-112772695D01*
X158573818Y-112940079D01*
X158520499Y-113032060D01*
X158362748Y-113271141D01*
X158175579Y-113434936D01*
X158149974Y-113449539D01*
X158149974Y-120860591D01*
X158215490Y-120895916D01*
X158275514Y-121021151D01*
X158323186Y-121199215D01*
X158351644Y-121393026D01*
X158354027Y-121565502D01*
X158323474Y-121679561D01*
X158304931Y-121698101D01*
X158173169Y-121715240D01*
X158039030Y-121644097D01*
X157952153Y-121512248D01*
X157948825Y-121500274D01*
X157945386Y-121349365D01*
X157983579Y-121162758D01*
X158048153Y-120988953D01*
X158123859Y-120876448D01*
X158149974Y-120860591D01*
X158149974Y-113449539D01*
X158042862Y-113510627D01*
X157865345Y-113608691D01*
X157806355Y-113648199D01*
X157806355Y-122306155D01*
X157944040Y-122349490D01*
X157975300Y-122377200D01*
X158047503Y-122514741D01*
X157994200Y-122647185D01*
X157964298Y-122675320D01*
X157836406Y-122719425D01*
X157718218Y-122672496D01*
X157643415Y-122568213D01*
X157645679Y-122440258D01*
X157677179Y-122388201D01*
X157806355Y-122306155D01*
X157806355Y-113648199D01*
X157738009Y-113693974D01*
X157701973Y-113728947D01*
X157636058Y-113799153D01*
X157498813Y-113924750D01*
X157317454Y-114081017D01*
X157279217Y-114112998D01*
X157078074Y-114274476D01*
X156937967Y-114365278D01*
X156826260Y-114400486D01*
X156710317Y-114395181D01*
X156680042Y-114389895D01*
X156498156Y-114379061D01*
X156366574Y-114439720D01*
X156262717Y-114590857D01*
X156176463Y-114813379D01*
X156095335Y-115009375D01*
X156027884Y-115079822D01*
X155985863Y-115032335D01*
X155985863Y-122618500D01*
X156142839Y-122648154D01*
X156344865Y-122722500D01*
X156544034Y-122819614D01*
X156692442Y-122917569D01*
X156732902Y-122960405D01*
X156776090Y-123071053D01*
X156715020Y-123153773D01*
X156653857Y-123190343D01*
X156552538Y-123219862D01*
X156454256Y-123172087D01*
X156361667Y-123081453D01*
X156184801Y-122946522D01*
X156028935Y-122904250D01*
X155894125Y-122873723D01*
X155840984Y-122764967D01*
X155840458Y-122761375D01*
X155848642Y-122655178D01*
X155938108Y-122619982D01*
X155985863Y-122618500D01*
X155985863Y-115032335D01*
X155979877Y-115025570D01*
X155957084Y-114847470D01*
X155956000Y-114780863D01*
X155956000Y-114507221D01*
X155687340Y-114471187D01*
X155517159Y-114454199D01*
X155409482Y-114454417D01*
X155394434Y-114459398D01*
X155394208Y-114529448D01*
X155420015Y-114682445D01*
X155446454Y-114801558D01*
X155483105Y-114994729D01*
X155492869Y-115138641D01*
X155484161Y-115181862D01*
X155403034Y-115205092D01*
X155311462Y-115179935D01*
X155311462Y-115921684D01*
X155390475Y-115998555D01*
X155441985Y-116124249D01*
X155448000Y-116183259D01*
X155434096Y-116289757D01*
X155370272Y-116292628D01*
X155321000Y-116268500D01*
X155220943Y-116162122D01*
X155193843Y-116023993D01*
X155235782Y-115930384D01*
X155311462Y-115921684D01*
X155311462Y-115179935D01*
X155256374Y-115164801D01*
X155076610Y-115078290D01*
X154896170Y-114962862D01*
X154747485Y-114835818D01*
X154682632Y-114754228D01*
X154569155Y-114605497D01*
X154482815Y-114578820D01*
X154422569Y-114675017D01*
X154387370Y-114894908D01*
X154381266Y-114990672D01*
X154381252Y-115209025D01*
X154408258Y-115427143D01*
X154469542Y-115682585D01*
X154572359Y-116012909D01*
X154587641Y-116058792D01*
X154704771Y-116424653D01*
X154775638Y-116696217D01*
X154801976Y-116896767D01*
X154785519Y-117049587D01*
X154728001Y-117177960D01*
X154676402Y-117250528D01*
X154600991Y-117354842D01*
X154572189Y-117444412D01*
X154587594Y-117563725D01*
X154644802Y-117757268D01*
X154648412Y-117768726D01*
X154716944Y-118054298D01*
X154709727Y-118243642D01*
X154625247Y-118343579D01*
X154516177Y-118364000D01*
X154399884Y-118386209D01*
X154389939Y-118455278D01*
X154428975Y-118574058D01*
X154480587Y-118750641D01*
X154491087Y-118788653D01*
X154562095Y-118967717D01*
X154682181Y-119196199D01*
X154812104Y-119404445D01*
X154977681Y-119678991D01*
X155057568Y-119887796D01*
X155050368Y-120023254D01*
X154954685Y-120077757D01*
X154935825Y-120078500D01*
X154703360Y-120022052D01*
X154449525Y-119861662D01*
X154384625Y-119805731D01*
X154271866Y-119727817D01*
X154197765Y-119720120D01*
X154196840Y-119720992D01*
X154218458Y-119781798D01*
G36*
X177010963Y-122508581D02*
X177012225Y-122512718D01*
X177089220Y-122658268D01*
X177188086Y-122718473D01*
X177241343Y-122705812D01*
X177289526Y-122612746D01*
X177272419Y-122478384D01*
X177199531Y-122366808D01*
X177083145Y-122320170D01*
X177009839Y-122375568D01*
X177010963Y-122508581D01*
X177010963Y-122508581D01*
G37*
X177010963Y-122508581D02*
X177012225Y-122512718D01*
X177089220Y-122658268D01*
X177188086Y-122718473D01*
X177241343Y-122705812D01*
X177289526Y-122612746D01*
X177272419Y-122478384D01*
X177199531Y-122366808D01*
X177083145Y-122320170D01*
X177009839Y-122375568D01*
X177010963Y-122508581D01*
G36*
X176740877Y-121310011D02*
X176811857Y-121395206D01*
X176904190Y-121376657D01*
X177001475Y-121271881D01*
X177087312Y-121098392D01*
X177144460Y-120878966D01*
X177158585Y-120724172D01*
X177126501Y-120659156D01*
X177077233Y-120650000D01*
X176988257Y-120704407D01*
X176888589Y-120839543D01*
X176799698Y-121013274D01*
X176743056Y-121183470D01*
X176740134Y-121307999D01*
X176740877Y-121310011D01*
X176740877Y-121310011D01*
G37*
X176740877Y-121310011D02*
X176811857Y-121395206D01*
X176904190Y-121376657D01*
X177001475Y-121271881D01*
X177087312Y-121098392D01*
X177144460Y-120878966D01*
X177158585Y-120724172D01*
X177126501Y-120659156D01*
X177077233Y-120650000D01*
X176988257Y-120704407D01*
X176888589Y-120839543D01*
X176799698Y-121013274D01*
X176743056Y-121183470D01*
X176740134Y-121307999D01*
X176740877Y-121310011D01*
G36*
X176437355Y-116640768D02*
X176522011Y-116622965D01*
X176588808Y-116559903D01*
X176627193Y-116465435D01*
X176596583Y-116429155D01*
X176487584Y-116419082D01*
X176412413Y-116501502D01*
X176403000Y-116557997D01*
X176437355Y-116640768D01*
X176437355Y-116640768D01*
G37*
X176437355Y-116640768D02*
X176522011Y-116622965D01*
X176588808Y-116559903D01*
X176627193Y-116465435D01*
X176596583Y-116429155D01*
X176487584Y-116419082D01*
X176412413Y-116501502D01*
X176403000Y-116557997D01*
X176437355Y-116640768D01*
G36*
X173766429Y-123056426D02*
X173850883Y-123091941D01*
X173979108Y-123010242D01*
X173987683Y-123001816D01*
X174082436Y-122852821D01*
X174115034Y-122686536D01*
X174079843Y-122552157D01*
X174043216Y-122516894D01*
X173954317Y-122525475D01*
X173854071Y-122617401D01*
X173771603Y-122755638D01*
X173736037Y-122903153D01*
X173736000Y-122907537D01*
X173766429Y-123056426D01*
X173766429Y-123056426D01*
G37*
X173766429Y-123056426D02*
X173850883Y-123091941D01*
X173979108Y-123010242D01*
X173987683Y-123001816D01*
X174082436Y-122852821D01*
X174115034Y-122686536D01*
X174079843Y-122552157D01*
X174043216Y-122516894D01*
X173954317Y-122525475D01*
X173854071Y-122617401D01*
X173771603Y-122755638D01*
X173736037Y-122903153D01*
X173736000Y-122907537D01*
X173766429Y-123056426D01*
G36*
X173440770Y-121651271D02*
X173497313Y-121727999D01*
X173572729Y-121684293D01*
X173651616Y-121518379D01*
X173662448Y-121484007D01*
X173722981Y-121240327D01*
X173726848Y-121087039D01*
X173674069Y-121000889D01*
X173662866Y-120993296D01*
X173571505Y-120995419D01*
X173490888Y-121097394D01*
X173435330Y-121272121D01*
X173418500Y-121455886D01*
X173440770Y-121651271D01*
X173440770Y-121651271D01*
G37*
X173440770Y-121651271D02*
X173497313Y-121727999D01*
X173572729Y-121684293D01*
X173651616Y-121518379D01*
X173662448Y-121484007D01*
X173722981Y-121240327D01*
X173726848Y-121087039D01*
X173674069Y-121000889D01*
X173662866Y-120993296D01*
X173571505Y-120995419D01*
X173490888Y-121097394D01*
X173435330Y-121272121D01*
X173418500Y-121455886D01*
X173440770Y-121651271D01*
G36*
X170446947Y-119854540D02*
X170491350Y-120019899D01*
X170573369Y-120070222D01*
X170682213Y-120007885D01*
X170807090Y-119835264D01*
X170843625Y-119767165D01*
X170944102Y-119565049D01*
X170990991Y-119447476D01*
X170988474Y-119385885D01*
X170940733Y-119351719D01*
X170906459Y-119338008D01*
X170791659Y-119355539D01*
X170638342Y-119462539D01*
X170617781Y-119481687D01*
X170484252Y-119643953D01*
X170444361Y-119803462D01*
X170446947Y-119854540D01*
X170446947Y-119854540D01*
G37*
X170446947Y-119854540D02*
X170491350Y-120019899D01*
X170573369Y-120070222D01*
X170682213Y-120007885D01*
X170807090Y-119835264D01*
X170843625Y-119767165D01*
X170944102Y-119565049D01*
X170990991Y-119447476D01*
X170988474Y-119385885D01*
X170940733Y-119351719D01*
X170906459Y-119338008D01*
X170791659Y-119355539D01*
X170638342Y-119462539D01*
X170617781Y-119481687D01*
X170484252Y-119643953D01*
X170444361Y-119803462D01*
X170446947Y-119854540D01*
G36*
X165468387Y-116516849D02*
X165504974Y-116522500D01*
X165606435Y-116485249D01*
X165686189Y-116404064D01*
X165702888Y-116324793D01*
X165694349Y-116312516D01*
X165613920Y-116306302D01*
X165504269Y-116356953D01*
X165426234Y-116431789D01*
X165417500Y-116461234D01*
X165468387Y-116516849D01*
X165468387Y-116516849D01*
G37*
X165468387Y-116516849D02*
X165504974Y-116522500D01*
X165606435Y-116485249D01*
X165686189Y-116404064D01*
X165702888Y-116324793D01*
X165694349Y-116312516D01*
X165613920Y-116306302D01*
X165504269Y-116356953D01*
X165426234Y-116431789D01*
X165417500Y-116461234D01*
X165468387Y-116516849D01*
M02*
