M48
;DRILL file {KiCad 4.0.4-stable} date Monday, 12 December 2016 'PMt' 10:19:37 PM
;FORMAT={-:-/ absolute / metric / decimal}
FMAT,2
METRIC,TZ
T1C0.400
T2C1.016
%
G90
G05
M71
T1
X139.192Y-106.68
X142.24Y-92.837
X145.796Y-117.348
X146.05Y-85.217
X146.812Y-114.808
X148.336Y-108.204
X150.114Y-85.217
X152.4Y-90.551
X154.94Y-89.281
X155.956Y-117.348
X163.83Y-106.68
X164.846Y-85.217
X166.116Y-117.348
X166.37Y-80.645
X171.45Y-98.425
X173.736Y-109.22
X176.276Y-117.348
X177.292Y-125.476
T2
X139.192Y-125.476
X141.732Y-125.476
X163.576Y-122.936
X163.576Y-125.476
X166.116Y-122.936
X166.116Y-125.476
X168.656Y-122.936
X168.656Y-125.476
X171.196Y-122.936
X171.196Y-125.476
X173.736Y-122.936
X173.736Y-125.476
X175.26Y-67.945
X175.26Y-70.485
X175.26Y-73.025
X175.26Y-75.565
X175.26Y-78.105
X175.26Y-80.645
T0
M30
