G04 #@! TF.FileFunction,Legend,Bot*
%FSLAX46Y46*%
G04 Gerber Fmt 4.6, Leading zero omitted, Abs format (unit mm)*
G04 Created by KiCad (PCBNEW 4.0.4-stable) date Monday, 12 December 2016 'PMt' 10:19:35 PM*
%MOMM*%
%LPD*%
G01*
G04 APERTURE LIST*
%ADD10C,0.100000*%
%ADD11C,0.300000*%
%ADD12C,0.010000*%
G04 APERTURE END LIST*
D10*
D11*
X149824286Y-119428000D02*
X149752857Y-119356572D01*
X149681429Y-119213715D01*
X149681429Y-119070857D01*
X149752857Y-118928000D01*
X149824286Y-118856572D01*
X149967143Y-118785143D01*
X150110000Y-118785143D01*
X150252857Y-118856572D01*
X150324286Y-118928000D01*
X150395714Y-119070857D01*
X150395714Y-119213715D01*
X150324286Y-119356572D01*
X150252857Y-119428000D01*
X149681429Y-119428000D02*
X150252857Y-119428000D01*
X150324286Y-119499429D01*
X150324286Y-119570857D01*
X150252857Y-119713715D01*
X150110000Y-119785143D01*
X149752857Y-119785143D01*
X149538571Y-119642286D01*
X149395714Y-119428000D01*
X149324286Y-119142286D01*
X149395714Y-118856572D01*
X149538571Y-118642286D01*
X149752857Y-118499429D01*
X150038571Y-118428000D01*
X150324286Y-118499429D01*
X150538571Y-118642286D01*
X150681429Y-118856572D01*
X150752857Y-119142286D01*
X150681429Y-119428000D01*
X150538571Y-119642286D01*
X150538571Y-120428000D02*
X149038571Y-120428000D01*
X149610000Y-120428000D02*
X149538571Y-120570857D01*
X149538571Y-120856571D01*
X149610000Y-120999428D01*
X149681429Y-121070857D01*
X149824286Y-121142286D01*
X150252857Y-121142286D01*
X150395714Y-121070857D01*
X150467143Y-120999428D01*
X150538571Y-120856571D01*
X150538571Y-120570857D01*
X150467143Y-120428000D01*
X149538571Y-121785143D02*
X150824286Y-121785143D01*
X150967143Y-121713714D01*
X151038571Y-121570857D01*
X151038571Y-121499429D01*
X149038571Y-121785143D02*
X149110000Y-121713714D01*
X149181429Y-121785143D01*
X149110000Y-121856571D01*
X149038571Y-121785143D01*
X149181429Y-121785143D01*
X150538571Y-122499429D02*
X149538571Y-122499429D01*
X149681429Y-122499429D02*
X149610000Y-122570857D01*
X149538571Y-122713715D01*
X149538571Y-122928000D01*
X149610000Y-123070857D01*
X149752857Y-123142286D01*
X150538571Y-123142286D01*
X149752857Y-123142286D02*
X149610000Y-123213715D01*
X149538571Y-123356572D01*
X149538571Y-123570857D01*
X149610000Y-123713715D01*
X149752857Y-123785143D01*
X150538571Y-123785143D01*
X150538571Y-125142286D02*
X149752857Y-125142286D01*
X149610000Y-125070857D01*
X149538571Y-124928000D01*
X149538571Y-124642286D01*
X149610000Y-124499429D01*
X150467143Y-125142286D02*
X150538571Y-124999429D01*
X150538571Y-124642286D01*
X150467143Y-124499429D01*
X150324286Y-124428000D01*
X150181429Y-124428000D01*
X150038571Y-124499429D01*
X149967143Y-124642286D01*
X149967143Y-124999429D01*
X149895714Y-125142286D01*
X149538571Y-125713715D02*
X149538571Y-126499429D01*
X150538571Y-125713715D01*
X150538571Y-126499429D01*
X147570000Y-99962571D02*
X147570000Y-100676857D01*
X147998571Y-99819714D02*
X146498571Y-100319714D01*
X147998571Y-100819714D01*
X147212857Y-102962571D02*
X147284286Y-103176857D01*
X147355714Y-103248285D01*
X147498571Y-103319714D01*
X147712857Y-103319714D01*
X147855714Y-103248285D01*
X147927143Y-103176857D01*
X147998571Y-103033999D01*
X147998571Y-102462571D01*
X146498571Y-102462571D01*
X146498571Y-102962571D01*
X146570000Y-103105428D01*
X146641429Y-103176857D01*
X146784286Y-103248285D01*
X146927143Y-103248285D01*
X147070000Y-103176857D01*
X147141429Y-103105428D01*
X147212857Y-102962571D01*
X147212857Y-102462571D01*
X147998571Y-103962571D02*
X146998571Y-103962571D01*
X147284286Y-103962571D02*
X147141429Y-104033999D01*
X147070000Y-104105428D01*
X146998571Y-104248285D01*
X146998571Y-104391142D01*
X147927143Y-105462570D02*
X147998571Y-105319713D01*
X147998571Y-105033999D01*
X147927143Y-104891142D01*
X147784286Y-104819713D01*
X147212857Y-104819713D01*
X147070000Y-104891142D01*
X146998571Y-105033999D01*
X146998571Y-105319713D01*
X147070000Y-105462570D01*
X147212857Y-105533999D01*
X147355714Y-105533999D01*
X147498571Y-104819713D01*
X146998571Y-105962570D02*
X146998571Y-106533999D01*
X146498571Y-106176856D02*
X147784286Y-106176856D01*
X147927143Y-106248284D01*
X147998571Y-106391142D01*
X147998571Y-106533999D01*
X146998571Y-106819713D02*
X146998571Y-107391142D01*
X146498571Y-107033999D02*
X147784286Y-107033999D01*
X147927143Y-107105427D01*
X147998571Y-107248285D01*
X147998571Y-107391142D01*
X146498571Y-108891142D02*
X147998571Y-109248285D01*
X146927143Y-109533999D01*
X147998571Y-109819713D01*
X146498571Y-110176856D01*
X147998571Y-110748285D02*
X146998571Y-110748285D01*
X146498571Y-110748285D02*
X146570000Y-110676856D01*
X146641429Y-110748285D01*
X146570000Y-110819713D01*
X146498571Y-110748285D01*
X146641429Y-110748285D01*
X147998571Y-111676857D02*
X147927143Y-111533999D01*
X147784286Y-111462571D01*
X146498571Y-111462571D01*
X147998571Y-112248285D02*
X146498571Y-112248285D01*
X147427143Y-112391142D02*
X147998571Y-112819713D01*
X146998571Y-112819713D02*
X147570000Y-112248285D01*
X147998571Y-113462571D02*
X146998571Y-113462571D01*
X146498571Y-113462571D02*
X146570000Y-113391142D01*
X146641429Y-113462571D01*
X146570000Y-113533999D01*
X146498571Y-113462571D01*
X146641429Y-113462571D01*
X146998571Y-114176857D02*
X147998571Y-114176857D01*
X147141429Y-114176857D02*
X147070000Y-114248285D01*
X146998571Y-114391143D01*
X146998571Y-114605428D01*
X147070000Y-114748285D01*
X147212857Y-114819714D01*
X147998571Y-114819714D01*
X147927143Y-115462571D02*
X147998571Y-115605428D01*
X147998571Y-115891143D01*
X147927143Y-116034000D01*
X147784286Y-116105428D01*
X147712857Y-116105428D01*
X147570000Y-116034000D01*
X147498571Y-115891143D01*
X147498571Y-115676857D01*
X147427143Y-115534000D01*
X147284286Y-115462571D01*
X147212857Y-115462571D01*
X147070000Y-115534000D01*
X146998571Y-115676857D01*
X146998571Y-115891143D01*
X147070000Y-116034000D01*
X147855714Y-118748286D02*
X147927143Y-118676857D01*
X147998571Y-118462571D01*
X147998571Y-118319714D01*
X147927143Y-118105429D01*
X147784286Y-117962571D01*
X147641429Y-117891143D01*
X147355714Y-117819714D01*
X147141429Y-117819714D01*
X146855714Y-117891143D01*
X146712857Y-117962571D01*
X146570000Y-118105429D01*
X146498571Y-118319714D01*
X146498571Y-118462571D01*
X146570000Y-118676857D01*
X146641429Y-118748286D01*
X147998571Y-119391143D02*
X146998571Y-119391143D01*
X147284286Y-119391143D02*
X147141429Y-119462571D01*
X147070000Y-119534000D01*
X146998571Y-119676857D01*
X146998571Y-119819714D01*
X147927143Y-120891142D02*
X147998571Y-120748285D01*
X147998571Y-120462571D01*
X147927143Y-120319714D01*
X147784286Y-120248285D01*
X147212857Y-120248285D01*
X147070000Y-120319714D01*
X146998571Y-120462571D01*
X146998571Y-120748285D01*
X147070000Y-120891142D01*
X147212857Y-120962571D01*
X147355714Y-120962571D01*
X147498571Y-120248285D01*
X147998571Y-122248285D02*
X147212857Y-122248285D01*
X147070000Y-122176856D01*
X146998571Y-122033999D01*
X146998571Y-121748285D01*
X147070000Y-121605428D01*
X147927143Y-122248285D02*
X147998571Y-122105428D01*
X147998571Y-121748285D01*
X147927143Y-121605428D01*
X147784286Y-121533999D01*
X147641429Y-121533999D01*
X147498571Y-121605428D01*
X147427143Y-121748285D01*
X147427143Y-122105428D01*
X147355714Y-122248285D01*
X146998571Y-122748285D02*
X146998571Y-123319714D01*
X146498571Y-122962571D02*
X147784286Y-122962571D01*
X147927143Y-123033999D01*
X147998571Y-123176857D01*
X147998571Y-123319714D01*
X147998571Y-123819714D02*
X146998571Y-123819714D01*
X146498571Y-123819714D02*
X146570000Y-123748285D01*
X146641429Y-123819714D01*
X146570000Y-123891142D01*
X146498571Y-123819714D01*
X146641429Y-123819714D01*
X147998571Y-124748286D02*
X147927143Y-124605428D01*
X147855714Y-124534000D01*
X147712857Y-124462571D01*
X147284286Y-124462571D01*
X147141429Y-124534000D01*
X147070000Y-124605428D01*
X146998571Y-124748286D01*
X146998571Y-124962571D01*
X147070000Y-125105428D01*
X147141429Y-125176857D01*
X147284286Y-125248286D01*
X147712857Y-125248286D01*
X147855714Y-125176857D01*
X147927143Y-125105428D01*
X147998571Y-124962571D01*
X147998571Y-124748286D01*
X146998571Y-125891143D02*
X147998571Y-125891143D01*
X147141429Y-125891143D02*
X147070000Y-125962571D01*
X146998571Y-126105429D01*
X146998571Y-126319714D01*
X147070000Y-126462571D01*
X147212857Y-126534000D01*
X147998571Y-126534000D01*
X144085571Y-86406143D02*
X144371286Y-86406143D01*
X144085571Y-86977572D02*
X144371286Y-86977572D01*
X145157000Y-87549000D02*
X145157000Y-88263286D01*
X145585571Y-87406143D02*
X144085571Y-87906143D01*
X145585571Y-88406143D01*
X145585571Y-90049000D02*
X144085571Y-90049000D01*
X145157000Y-90549000D01*
X144085571Y-91049000D01*
X145585571Y-91049000D01*
X145585571Y-91977572D02*
X145514143Y-91834714D01*
X145442714Y-91763286D01*
X145299857Y-91691857D01*
X144871286Y-91691857D01*
X144728429Y-91763286D01*
X144657000Y-91834714D01*
X144585571Y-91977572D01*
X144585571Y-92191857D01*
X144657000Y-92334714D01*
X144728429Y-92406143D01*
X144871286Y-92477572D01*
X145299857Y-92477572D01*
X145442714Y-92406143D01*
X145514143Y-92334714D01*
X145585571Y-92191857D01*
X145585571Y-91977572D01*
X145585571Y-93120429D02*
X144585571Y-93120429D01*
X144728429Y-93120429D02*
X144657000Y-93191857D01*
X144585571Y-93334715D01*
X144585571Y-93549000D01*
X144657000Y-93691857D01*
X144799857Y-93763286D01*
X145585571Y-93763286D01*
X144799857Y-93763286D02*
X144657000Y-93834715D01*
X144585571Y-93977572D01*
X144585571Y-94191857D01*
X144657000Y-94334715D01*
X144799857Y-94406143D01*
X145585571Y-94406143D01*
X145514143Y-95691857D02*
X145585571Y-95549000D01*
X145585571Y-95263286D01*
X145514143Y-95120429D01*
X145371286Y-95049000D01*
X144799857Y-95049000D01*
X144657000Y-95120429D01*
X144585571Y-95263286D01*
X144585571Y-95549000D01*
X144657000Y-95691857D01*
X144799857Y-95763286D01*
X144942714Y-95763286D01*
X145085571Y-95049000D01*
X144585571Y-96406143D02*
X145585571Y-96406143D01*
X144728429Y-96406143D02*
X144657000Y-96477571D01*
X144585571Y-96620429D01*
X144585571Y-96834714D01*
X144657000Y-96977571D01*
X144799857Y-97049000D01*
X145585571Y-97049000D01*
X144585571Y-97549000D02*
X144585571Y-98120429D01*
X144085571Y-97763286D02*
X145371286Y-97763286D01*
X145514143Y-97834714D01*
X145585571Y-97977572D01*
X145585571Y-98120429D01*
X145585571Y-99263286D02*
X144799857Y-99263286D01*
X144657000Y-99191857D01*
X144585571Y-99049000D01*
X144585571Y-98763286D01*
X144657000Y-98620429D01*
X145514143Y-99263286D02*
X145585571Y-99120429D01*
X145585571Y-98763286D01*
X145514143Y-98620429D01*
X145371286Y-98549000D01*
X145228429Y-98549000D01*
X145085571Y-98620429D01*
X145014143Y-98763286D01*
X145014143Y-99120429D01*
X144942714Y-99263286D01*
X145585571Y-99977572D02*
X144585571Y-99977572D01*
X144871286Y-99977572D02*
X144728429Y-100049000D01*
X144657000Y-100120429D01*
X144585571Y-100263286D01*
X144585571Y-100406143D01*
X144585571Y-100763286D02*
X145585571Y-101120429D01*
X144585571Y-101477571D02*
X145585571Y-101120429D01*
X145942714Y-100977571D01*
X146014143Y-100906143D01*
X146085571Y-100763286D01*
X145585571Y-103906143D02*
X145585571Y-103191857D01*
X144085571Y-103191857D01*
X145585571Y-105049000D02*
X144799857Y-105049000D01*
X144657000Y-104977571D01*
X144585571Y-104834714D01*
X144585571Y-104549000D01*
X144657000Y-104406143D01*
X145514143Y-105049000D02*
X145585571Y-104906143D01*
X145585571Y-104549000D01*
X145514143Y-104406143D01*
X145371286Y-104334714D01*
X145228429Y-104334714D01*
X145085571Y-104406143D01*
X145014143Y-104549000D01*
X145014143Y-104906143D01*
X144942714Y-105049000D01*
X144585571Y-105763286D02*
X146085571Y-105763286D01*
X144657000Y-105763286D02*
X144585571Y-105906143D01*
X144585571Y-106191857D01*
X144657000Y-106334714D01*
X144728429Y-106406143D01*
X144871286Y-106477572D01*
X145299857Y-106477572D01*
X145442714Y-106406143D01*
X145514143Y-106334714D01*
X145585571Y-106191857D01*
X145585571Y-105906143D01*
X145514143Y-105763286D01*
X145514143Y-107049000D02*
X145585571Y-107191857D01*
X145585571Y-107477572D01*
X145514143Y-107620429D01*
X145371286Y-107691857D01*
X145299857Y-107691857D01*
X145157000Y-107620429D01*
X145085571Y-107477572D01*
X145085571Y-107263286D01*
X145014143Y-107120429D01*
X144871286Y-107049000D01*
X144799857Y-107049000D01*
X144657000Y-107120429D01*
X144585571Y-107263286D01*
X144585571Y-107477572D01*
X144657000Y-107620429D01*
X145514143Y-108906143D02*
X145585571Y-108763286D01*
X145585571Y-108477572D01*
X145514143Y-108334715D01*
X145371286Y-108263286D01*
X144799857Y-108263286D01*
X144657000Y-108334715D01*
X144585571Y-108477572D01*
X144585571Y-108763286D01*
X144657000Y-108906143D01*
X144799857Y-108977572D01*
X144942714Y-108977572D01*
X145085571Y-108263286D01*
X145585571Y-110977572D02*
X145514143Y-110834714D01*
X145442714Y-110763286D01*
X145299857Y-110691857D01*
X144871286Y-110691857D01*
X144728429Y-110763286D01*
X144657000Y-110834714D01*
X144585571Y-110977572D01*
X144585571Y-111191857D01*
X144657000Y-111334714D01*
X144728429Y-111406143D01*
X144871286Y-111477572D01*
X145299857Y-111477572D01*
X145442714Y-111406143D01*
X145514143Y-111334714D01*
X145585571Y-111191857D01*
X145585571Y-110977572D01*
X144585571Y-111906143D02*
X144585571Y-112477572D01*
X145585571Y-112120429D02*
X144299857Y-112120429D01*
X144157000Y-112191857D01*
X144085571Y-112334715D01*
X144085571Y-112477572D01*
X145514143Y-114049000D02*
X145585571Y-114263286D01*
X145585571Y-114620429D01*
X145514143Y-114763286D01*
X145442714Y-114834715D01*
X145299857Y-114906143D01*
X145157000Y-114906143D01*
X145014143Y-114834715D01*
X144942714Y-114763286D01*
X144871286Y-114620429D01*
X144799857Y-114334715D01*
X144728429Y-114191857D01*
X144657000Y-114120429D01*
X144514143Y-114049000D01*
X144371286Y-114049000D01*
X144228429Y-114120429D01*
X144157000Y-114191857D01*
X144085571Y-114334715D01*
X144085571Y-114691857D01*
X144157000Y-114906143D01*
X145585571Y-116191857D02*
X144799857Y-116191857D01*
X144657000Y-116120428D01*
X144585571Y-115977571D01*
X144585571Y-115691857D01*
X144657000Y-115549000D01*
X145514143Y-116191857D02*
X145585571Y-116049000D01*
X145585571Y-115691857D01*
X145514143Y-115549000D01*
X145371286Y-115477571D01*
X145228429Y-115477571D01*
X145085571Y-115549000D01*
X145014143Y-115691857D01*
X145014143Y-116049000D01*
X144942714Y-116191857D01*
X144585571Y-116906143D02*
X145585571Y-116906143D01*
X144728429Y-116906143D02*
X144657000Y-116977571D01*
X144585571Y-117120429D01*
X144585571Y-117334714D01*
X144657000Y-117477571D01*
X144799857Y-117549000D01*
X145585571Y-117549000D01*
X145585571Y-118263286D02*
X144585571Y-118263286D01*
X144085571Y-118263286D02*
X144157000Y-118191857D01*
X144228429Y-118263286D01*
X144157000Y-118334714D01*
X144085571Y-118263286D01*
X144228429Y-118263286D01*
X144585571Y-118763286D02*
X144585571Y-119334715D01*
X144085571Y-118977572D02*
X145371286Y-118977572D01*
X145514143Y-119049000D01*
X145585571Y-119191858D01*
X145585571Y-119334715D01*
X144585571Y-119691858D02*
X145585571Y-120049001D01*
X144585571Y-120406143D02*
X145585571Y-120049001D01*
X145942714Y-119906143D01*
X146014143Y-119834715D01*
X146085571Y-119691858D01*
X144228429Y-122049000D02*
X144157000Y-122120429D01*
X144085571Y-122263286D01*
X144085571Y-122620429D01*
X144157000Y-122763286D01*
X144228429Y-122834715D01*
X144371286Y-122906143D01*
X144514143Y-122906143D01*
X144728429Y-122834715D01*
X145585571Y-121977572D01*
X145585571Y-122906143D01*
X145442714Y-123549000D02*
X145514143Y-123620428D01*
X145585571Y-123549000D01*
X145514143Y-123477571D01*
X145442714Y-123549000D01*
X145585571Y-123549000D01*
X144085571Y-124549000D02*
X144085571Y-124691857D01*
X144157000Y-124834714D01*
X144228429Y-124906143D01*
X144371286Y-124977572D01*
X144657000Y-125049000D01*
X145014143Y-125049000D01*
X145299857Y-124977572D01*
X145442714Y-124906143D01*
X145514143Y-124834714D01*
X145585571Y-124691857D01*
X145585571Y-124549000D01*
X145514143Y-124406143D01*
X145442714Y-124334714D01*
X145299857Y-124263286D01*
X145014143Y-124191857D01*
X144657000Y-124191857D01*
X144371286Y-124263286D01*
X144228429Y-124334714D01*
X144157000Y-124406143D01*
X144085571Y-124549000D01*
X144085571Y-125620428D02*
X144371286Y-125620428D01*
X144085571Y-126191857D02*
X144371286Y-126191857D01*
D12*
G36*
X153964458Y-110002798D02*
X154062249Y-110123612D01*
X154216639Y-110281003D01*
X154260090Y-110321755D01*
X154470915Y-110539880D01*
X154595199Y-110720329D01*
X154628717Y-110852108D01*
X154567248Y-110924225D01*
X154495500Y-110934500D01*
X154384262Y-110976733D01*
X154361523Y-111096369D01*
X154424209Y-111282812D01*
X154569248Y-111525469D01*
X154727622Y-111734789D01*
X154848566Y-111901231D01*
X154925483Y-112041811D01*
X154940000Y-112096167D01*
X154905936Y-112216823D01*
X154816275Y-112235221D01*
X154689807Y-112152038D01*
X154628604Y-112084978D01*
X154492192Y-111948022D01*
X154353311Y-111896917D01*
X154241335Y-111895865D01*
X154077584Y-111911972D01*
X153973035Y-111933647D01*
X153967488Y-111936125D01*
X153961568Y-111994336D01*
X154036701Y-112093472D01*
X154166558Y-112206650D01*
X154324809Y-112306987D01*
X154336600Y-112313000D01*
X154575697Y-112443267D01*
X154815394Y-112591331D01*
X155028887Y-112738507D01*
X155189369Y-112866111D01*
X155270036Y-112955457D01*
X155274113Y-112966500D01*
X155268304Y-113094528D01*
X155232158Y-113231284D01*
X155212936Y-113416409D01*
X155302140Y-113543896D01*
X155489410Y-113601039D01*
X155535150Y-113602894D01*
X155717975Y-113630686D01*
X155935955Y-113698562D01*
X156005476Y-113727618D01*
X156210514Y-113803344D01*
X156363810Y-113810347D01*
X156442488Y-113788107D01*
X156643452Y-113750634D01*
X156802414Y-113820218D01*
X156933963Y-113988957D01*
X157072047Y-114158693D01*
X157249198Y-114303165D01*
X157261257Y-114310483D01*
X157439138Y-114453605D01*
X157590199Y-114635745D01*
X157600913Y-114653194D01*
X157735610Y-114815037D01*
X157872936Y-114870598D01*
X157991415Y-114816729D01*
X158049154Y-114718918D01*
X158118150Y-114586508D01*
X158174413Y-114524775D01*
X158259028Y-114528945D01*
X158431454Y-114574145D01*
X158662523Y-114651959D01*
X158812146Y-114708806D01*
X159561213Y-114942244D01*
X160377529Y-115079764D01*
X161241599Y-115118210D01*
X161329802Y-115116486D01*
X162036355Y-115098607D01*
X162268637Y-115302553D01*
X162487047Y-115451682D01*
X162707539Y-115500913D01*
X162960217Y-115452005D01*
X163181235Y-115355876D01*
X163426564Y-115247190D01*
X163707280Y-115143265D01*
X163831704Y-115104222D01*
X164113293Y-114990750D01*
X164379036Y-114830712D01*
X164444322Y-114779217D01*
X164585757Y-114649492D01*
X164669081Y-114534233D01*
X164715146Y-114388663D01*
X164744804Y-114168006D01*
X164749249Y-114124437D01*
X164764351Y-113843858D01*
X164744375Y-113577569D01*
X164683825Y-113268411D01*
X164656086Y-113155440D01*
X164582447Y-112890926D01*
X164506071Y-112658784D01*
X164440305Y-112498449D01*
X164423727Y-112468821D01*
X164311367Y-112364801D01*
X164101398Y-112233464D01*
X163816990Y-112086746D01*
X163481315Y-111936584D01*
X163117544Y-111794915D01*
X163110979Y-111792551D01*
X162870767Y-111668381D01*
X162739431Y-111518768D01*
X162719648Y-111361239D01*
X162814093Y-111213321D01*
X163005319Y-111100331D01*
X163190515Y-111012819D01*
X163423607Y-110884770D01*
X163608542Y-110772502D01*
X163837257Y-110608219D01*
X163991121Y-110442286D01*
X164113485Y-110226600D01*
X164127267Y-110196933D01*
X164195670Y-110036547D01*
X164239685Y-109891474D01*
X164263460Y-109728646D01*
X164271143Y-109514993D01*
X164266881Y-109217447D01*
X164263911Y-109107495D01*
X164242750Y-108362750D01*
X163957000Y-107854750D01*
X163810965Y-107604690D01*
X163692201Y-107436585D01*
X163570878Y-107318947D01*
X163417169Y-107220289D01*
X163295298Y-107156250D01*
X163080064Y-107032081D01*
X162898644Y-106900872D01*
X162803907Y-106807000D01*
X162683639Y-106575312D01*
X162646313Y-106345969D01*
X162697507Y-106157970D01*
X162708721Y-106141571D01*
X162755597Y-106093303D01*
X162827389Y-106057425D01*
X162944137Y-106030898D01*
X163125884Y-106010684D01*
X163392669Y-105993744D01*
X163764534Y-105977040D01*
X163804669Y-105975411D01*
X164214468Y-105961514D01*
X164519037Y-105958323D01*
X164739763Y-105966721D01*
X164898035Y-105987596D01*
X165015242Y-106021831D01*
X165025314Y-106025934D01*
X165313237Y-106086412D01*
X165504934Y-106069421D01*
X165818458Y-106045585D01*
X166067305Y-106090424D01*
X166238686Y-106192453D01*
X166319810Y-106340192D01*
X166297889Y-106522159D01*
X166194436Y-106688401D01*
X166084744Y-106860771D01*
X166089095Y-106985996D01*
X166209976Y-107067674D01*
X166449878Y-107109398D01*
X166487665Y-107111943D01*
X166678972Y-107126923D01*
X166775718Y-107157942D01*
X166810146Y-107228046D01*
X166814500Y-107345532D01*
X166770409Y-107563285D01*
X166651867Y-107710003D01*
X166492464Y-107759500D01*
X166387251Y-107788405D01*
X166384647Y-107862811D01*
X166477547Y-107964257D01*
X166602447Y-108045250D01*
X166811857Y-108205329D01*
X166897695Y-108383395D01*
X166860776Y-108571800D01*
X166701913Y-108762896D01*
X166511577Y-108898404D01*
X166453603Y-108944299D01*
X166453603Y-111636434D01*
X166518166Y-111675333D01*
X166555875Y-111772718D01*
X166475282Y-111878673D01*
X166374465Y-111916494D01*
X166316111Y-111840282D01*
X166306500Y-111749416D01*
X166352789Y-111652634D01*
X166453603Y-111636434D01*
X166453603Y-108944299D01*
X166350582Y-109025857D01*
X166174447Y-109212003D01*
X166008142Y-109423932D01*
X165876635Y-109628734D01*
X165804896Y-109793498D01*
X165798500Y-109838245D01*
X165762971Y-109958250D01*
X165675029Y-110116759D01*
X165562640Y-110273942D01*
X165453771Y-110389973D01*
X165385443Y-110426500D01*
X165285879Y-110382185D01*
X165155643Y-110272131D01*
X165121743Y-110236000D01*
X164926343Y-110081506D01*
X164775751Y-110045500D01*
X164609295Y-110074417D01*
X164556969Y-110157749D01*
X164620726Y-110290369D01*
X164663619Y-110339893D01*
X164759316Y-110453362D01*
X164774322Y-110541117D01*
X164715532Y-110665955D01*
X164702022Y-110689588D01*
X164609450Y-110905851D01*
X164617514Y-111087957D01*
X164732198Y-111272377D01*
X164811568Y-111357268D01*
X164957036Y-111488632D01*
X165058557Y-111535387D01*
X165150321Y-111513043D01*
X165152469Y-111511903D01*
X165278141Y-111476762D01*
X165341561Y-111547432D01*
X165354000Y-111667558D01*
X165303722Y-111831782D01*
X165178062Y-111928241D01*
X165040446Y-111933132D01*
X164895745Y-111954382D01*
X164804652Y-112024605D01*
X164729938Y-112164175D01*
X164773468Y-112276294D01*
X164927960Y-112352789D01*
X165123693Y-112382657D01*
X165258124Y-112398894D01*
X165378800Y-112437587D01*
X165503131Y-112512605D01*
X165648523Y-112637816D01*
X165832385Y-112827089D01*
X166072124Y-113094292D01*
X166199374Y-113239638D01*
X166397541Y-113435072D01*
X166606736Y-113562016D01*
X166861145Y-113633401D01*
X167194952Y-113662158D01*
X167322500Y-113664457D01*
X167600602Y-113679664D01*
X167754770Y-113720626D01*
X167785489Y-113787620D01*
X167695838Y-113879119D01*
X167565907Y-113955460D01*
X167482995Y-113983120D01*
X167394219Y-114008815D01*
X167230400Y-114074843D01*
X167068500Y-114147716D01*
X166883975Y-114225565D01*
X166703749Y-114276395D01*
X166489874Y-114306873D01*
X166204407Y-114323669D01*
X166039172Y-114328623D01*
X165693192Y-114343095D01*
X165449803Y-114368715D01*
X165284822Y-114409066D01*
X165193854Y-114453824D01*
X165075859Y-114545027D01*
X165043807Y-114613180D01*
X165105878Y-114661157D01*
X165270249Y-114691829D01*
X165545098Y-114708069D01*
X165931118Y-114712750D01*
X166343748Y-114707467D01*
X166661435Y-114689576D01*
X166915880Y-114656010D01*
X167138782Y-114603704D01*
X167177613Y-114592180D01*
X167432122Y-114526044D01*
X167600298Y-114524331D01*
X167703628Y-114602839D01*
X167763601Y-114777369D01*
X167800344Y-115050054D01*
X167832232Y-115316738D01*
X167871298Y-115573546D01*
X167901333Y-115728750D01*
X167926222Y-115882729D01*
X167954944Y-116133282D01*
X167984511Y-116450166D01*
X168011931Y-116803137D01*
X168021244Y-116941648D01*
X168064549Y-117485576D01*
X168121091Y-117923028D01*
X168197075Y-118274333D01*
X168298708Y-118559820D01*
X168432195Y-118799819D01*
X168603742Y-119014659D01*
X168677417Y-119091160D01*
X168966290Y-119327595D01*
X169357976Y-119572640D01*
X169829528Y-119817179D01*
X170358003Y-120052094D01*
X170920456Y-120268269D01*
X171493941Y-120456586D01*
X172055516Y-120607928D01*
X172582233Y-120713179D01*
X172847000Y-120747938D01*
X173324463Y-120822297D01*
X173756734Y-120939048D01*
X174124021Y-121089866D01*
X174406537Y-121266425D01*
X174584490Y-121460398D01*
X174597959Y-121484606D01*
X174719839Y-121641606D01*
X174866179Y-121745992D01*
X175002901Y-121827192D01*
X175188381Y-121964629D01*
X175359316Y-122108364D01*
X175569225Y-122281505D01*
X175785726Y-122436988D01*
X175929289Y-122523250D01*
X176102023Y-122627946D01*
X176324060Y-122784606D01*
X176549743Y-122960867D01*
X176567620Y-122975707D01*
X176834179Y-123178023D01*
X177145286Y-123385047D01*
X177408898Y-123538344D01*
X177668926Y-123694327D01*
X177921517Y-123877844D01*
X178113130Y-124049895D01*
X178117184Y-124054262D01*
X178264176Y-124203217D01*
X178382524Y-124304355D01*
X178436307Y-124333000D01*
X178446896Y-124269829D01*
X178456548Y-124081633D01*
X178465248Y-123770379D01*
X178472979Y-123338037D01*
X178479722Y-122786579D01*
X178485461Y-122117972D01*
X178490179Y-121334188D01*
X178493859Y-120437196D01*
X178496483Y-119428966D01*
X178498034Y-118311467D01*
X178498500Y-117189250D01*
X178498101Y-115986639D01*
X178496880Y-114907207D01*
X178494799Y-113947131D01*
X178491822Y-113102592D01*
X178487910Y-112369771D01*
X178483026Y-111744845D01*
X178477134Y-111223997D01*
X178470196Y-110803404D01*
X178462174Y-110479248D01*
X178453031Y-110247707D01*
X178442730Y-110104963D01*
X178431234Y-110047193D01*
X178428726Y-110045500D01*
X178333625Y-110095853D01*
X178182974Y-110236588D01*
X177991375Y-110452219D01*
X177773427Y-110727259D01*
X177725300Y-110791625D01*
X177590555Y-110962440D01*
X177479894Y-111082668D01*
X177420228Y-111125000D01*
X177349642Y-111171340D01*
X177239811Y-111288174D01*
X177189550Y-111351045D01*
X177017136Y-111577090D01*
X177214712Y-112001920D01*
X177331407Y-112292324D01*
X177433982Y-112615400D01*
X177490045Y-112851608D01*
X177530894Y-113139493D01*
X177517408Y-113325506D01*
X177434997Y-113428397D01*
X177269073Y-113466915D01*
X177016156Y-113460625D01*
X176797683Y-113435575D01*
X176644809Y-113382498D01*
X176534486Y-113278307D01*
X176443664Y-113099916D01*
X176349293Y-112824240D01*
X176335071Y-112778462D01*
X176240325Y-112511614D01*
X176126685Y-112246936D01*
X176044076Y-112087014D01*
X175938577Y-111872325D01*
X175902318Y-111676210D01*
X175909758Y-111501741D01*
X175983722Y-111167614D01*
X176136679Y-110783878D01*
X176351220Y-110383595D01*
X176609933Y-109999830D01*
X176853833Y-109708900D01*
X177054962Y-109501117D01*
X177204299Y-109368699D01*
X177333208Y-109291021D01*
X177473053Y-109247458D01*
X177585928Y-109227475D01*
X177840665Y-109160323D01*
X178106293Y-109048217D01*
X178204939Y-108992575D01*
X178498272Y-108807250D01*
X178498386Y-108251625D01*
X178495722Y-108003788D01*
X178488505Y-107812909D01*
X178478055Y-107707727D01*
X178472811Y-107696000D01*
X178430675Y-107746624D01*
X178347123Y-107878174D01*
X178258943Y-108029436D01*
X178054977Y-108326556D01*
X177797401Y-108608907D01*
X177521393Y-108842375D01*
X177268009Y-108990415D01*
X177096152Y-109092823D01*
X176903202Y-109251595D01*
X176803348Y-109352759D01*
X176688226Y-109475669D01*
X176499427Y-109671040D01*
X176253534Y-109921989D01*
X175967131Y-110211634D01*
X175656800Y-110523091D01*
X175504518Y-110675076D01*
X175137672Y-111043061D01*
X174852272Y-111339220D01*
X174638303Y-111579839D01*
X174485752Y-111781209D01*
X174384605Y-111959618D01*
X174324850Y-112131354D01*
X174296471Y-112312706D01*
X174289457Y-112519962D01*
X174291040Y-112649000D01*
X174303671Y-113257043D01*
X174315478Y-113751182D01*
X174327460Y-114144498D01*
X174340618Y-114450074D01*
X174355949Y-114680992D01*
X174374452Y-114850333D01*
X174397126Y-114971181D01*
X174424971Y-115056616D01*
X174458985Y-115119722D01*
X174482127Y-115151494D01*
X174581695Y-115337206D01*
X174570664Y-115482565D01*
X174461914Y-115576921D01*
X174268325Y-115609625D01*
X174002776Y-115570026D01*
X173982652Y-115564505D01*
X173791681Y-115528477D01*
X173521139Y-115499740D01*
X173218424Y-115482816D01*
X173101000Y-115480386D01*
X172497750Y-115474750D01*
X172100036Y-115192175D01*
X171873188Y-115040382D01*
X171705891Y-114956771D01*
X171561842Y-114926213D01*
X171465036Y-114927514D01*
X171130506Y-114951621D01*
X170893635Y-114959358D01*
X170725366Y-114942869D01*
X170596644Y-114894299D01*
X170478413Y-114805792D01*
X170341616Y-114669494D01*
X170282905Y-114607924D01*
X170027771Y-114366280D01*
X169814443Y-114230394D01*
X169623518Y-114194747D01*
X169435592Y-114253822D01*
X169315643Y-114332865D01*
X169169836Y-114457851D01*
X169072181Y-114566886D01*
X169056484Y-114594816D01*
X168971497Y-114691319D01*
X168818669Y-114789307D01*
X168652900Y-114857657D01*
X168568439Y-114871500D01*
X168419132Y-114818601D01*
X168325894Y-114674105D01*
X168286633Y-114459313D01*
X168299255Y-114195528D01*
X168361666Y-113904049D01*
X168471774Y-113606180D01*
X168627484Y-113323221D01*
X168734871Y-113177945D01*
X168975648Y-112858531D01*
X169128120Y-112578899D01*
X169207075Y-112304657D01*
X169227500Y-112032202D01*
X169246597Y-111772020D01*
X169296266Y-111465097D01*
X169354500Y-111220250D01*
X169417871Y-110980094D01*
X169463386Y-110772199D01*
X169481480Y-110640428D01*
X169481500Y-110637949D01*
X169422838Y-110456012D01*
X169252613Y-110242193D01*
X168979466Y-110005597D01*
X168691258Y-109805147D01*
X168280325Y-109518128D01*
X167938294Y-109231538D01*
X167673125Y-108955728D01*
X167492780Y-108701048D01*
X167405218Y-108477848D01*
X167418400Y-108296481D01*
X167471132Y-108218652D01*
X167622455Y-108151713D01*
X167859568Y-108152161D01*
X168163515Y-108215570D01*
X168515341Y-108337511D01*
X168896091Y-108513556D01*
X169021264Y-108580772D01*
X169393146Y-108768186D01*
X169778345Y-108928746D01*
X170153804Y-109055943D01*
X170496463Y-109143271D01*
X170783267Y-109184220D01*
X170991157Y-109172283D01*
X171045471Y-109152100D01*
X171158250Y-109057092D01*
X171334304Y-108861453D01*
X171568652Y-108571652D01*
X171856313Y-108194155D01*
X172192304Y-107735431D01*
X172571643Y-107201946D01*
X172802850Y-106870500D01*
X173065647Y-106493013D01*
X173268234Y-106207743D01*
X173421705Y-106001814D01*
X173537157Y-105862349D01*
X173625686Y-105776473D01*
X173698386Y-105731310D01*
X173766353Y-105713983D01*
X173801357Y-105711751D01*
X173952343Y-105723382D01*
X174204603Y-105760363D01*
X174535866Y-105818616D01*
X174923862Y-105894063D01*
X175346322Y-105982626D01*
X175654781Y-106051185D01*
X175882850Y-106111492D01*
X176202525Y-106207439D01*
X176586562Y-106329897D01*
X177007720Y-106469737D01*
X177438757Y-106617830D01*
X177852429Y-106765048D01*
X178221496Y-106902261D01*
X178387375Y-106966880D01*
X178406981Y-106969653D01*
X178424141Y-106956133D01*
X178439017Y-106918484D01*
X178451772Y-106848871D01*
X178462568Y-106739457D01*
X178471567Y-106582407D01*
X178478933Y-106369885D01*
X178484826Y-106094056D01*
X178489409Y-105747084D01*
X178492845Y-105321132D01*
X178495297Y-104808365D01*
X178496925Y-104200948D01*
X178497893Y-103491045D01*
X178498364Y-102670819D01*
X178498498Y-101732436D01*
X178498500Y-101602960D01*
X178498500Y-96194834D01*
X175402875Y-96215719D01*
X174655415Y-96221486D01*
X174025519Y-96228070D01*
X173503748Y-96235776D01*
X173080666Y-96244909D01*
X172746837Y-96255774D01*
X172492824Y-96268677D01*
X172309190Y-96283923D01*
X172186499Y-96301816D01*
X172116750Y-96322011D01*
X171970449Y-96359974D01*
X171717160Y-96395164D01*
X171376894Y-96425380D01*
X170969662Y-96448422D01*
X170965269Y-96448611D01*
X170004288Y-96489805D01*
X169346019Y-96817838D01*
X168756205Y-97153839D01*
X168234092Y-97535888D01*
X167800572Y-97947002D01*
X167520867Y-98301322D01*
X167319956Y-98650604D01*
X167289550Y-98723083D01*
X167289550Y-109624725D01*
X167433798Y-109652440D01*
X167604095Y-109731844D01*
X167792943Y-109861210D01*
X167968063Y-110012605D01*
X168097174Y-110158096D01*
X168147996Y-110269750D01*
X168148000Y-110270456D01*
X168090814Y-110408678D01*
X167943645Y-110511348D01*
X167743071Y-110553431D01*
X167734461Y-110553500D01*
X167578648Y-110569660D01*
X167486760Y-110609007D01*
X167483482Y-110613387D01*
X167461987Y-110702196D01*
X167439313Y-110881552D01*
X167419908Y-111115125D01*
X167417641Y-111151153D01*
X167427613Y-111595167D01*
X167516565Y-111942260D01*
X167684009Y-112191105D01*
X167842577Y-112303583D01*
X168057615Y-112433311D01*
X168228411Y-112575035D01*
X168326076Y-112702708D01*
X168338500Y-112750710D01*
X168292572Y-112841460D01*
X168181027Y-112954012D01*
X168171186Y-112961891D01*
X167936805Y-113076396D01*
X167684489Y-113065216D01*
X167443015Y-112948402D01*
X167260998Y-112784679D01*
X167118878Y-112556186D01*
X167008305Y-112243863D01*
X166920929Y-111828653D01*
X166903189Y-111716284D01*
X166859342Y-111368785D01*
X166847427Y-111091320D01*
X166866580Y-110831230D01*
X166886490Y-110697494D01*
X166923214Y-110437512D01*
X166946740Y-110192223D01*
X166951940Y-110037612D01*
X166986296Y-109801547D01*
X167100873Y-109662287D01*
X167289550Y-109624725D01*
X167289550Y-98723083D01*
X167169026Y-99010379D01*
X167082907Y-99341200D01*
X167068500Y-99504499D01*
X167050453Y-99664872D01*
X167004713Y-99880087D01*
X166976182Y-99985099D01*
X166908924Y-100238676D01*
X166834769Y-100559441D01*
X166759475Y-100917262D01*
X166688799Y-101282008D01*
X166628500Y-101623545D01*
X166584336Y-101911742D01*
X166562064Y-102116468D01*
X166560500Y-102160452D01*
X166538599Y-102331487D01*
X166479704Y-102580647D01*
X166394023Y-102868155D01*
X166334384Y-103041474D01*
X166230323Y-103342929D01*
X166137593Y-103638598D01*
X166069689Y-103884203D01*
X166047938Y-103981250D01*
X165974141Y-104223070D01*
X165866761Y-104390140D01*
X165742462Y-104457203D01*
X165733749Y-104457500D01*
X165662601Y-104425098D01*
X165521789Y-104341566D01*
X165397598Y-104261653D01*
X165102675Y-104110368D01*
X164788364Y-104017555D01*
X164767587Y-104014125D01*
X164524461Y-103970614D01*
X164228952Y-103909517D01*
X163988750Y-103854435D01*
X163705297Y-103796550D01*
X163450363Y-103756176D01*
X163450363Y-104294923D01*
X163685767Y-104318282D01*
X163807840Y-104335414D01*
X164108072Y-104376498D01*
X164416331Y-104413559D01*
X164665949Y-104438581D01*
X164666231Y-104438604D01*
X164911571Y-104474198D01*
X165097248Y-104550211D01*
X165289928Y-104693992D01*
X165291029Y-104694934D01*
X165533793Y-104945977D01*
X165653848Y-105177627D01*
X165650385Y-105387917D01*
X165610435Y-105471734D01*
X165559332Y-105513386D01*
X165455468Y-105539145D01*
X165277589Y-105551097D01*
X165004443Y-105551322D01*
X164833532Y-105547884D01*
X164464074Y-105536406D01*
X164203728Y-105520624D01*
X164034609Y-105497362D01*
X163938834Y-105463447D01*
X163898519Y-105415703D01*
X163893500Y-105381005D01*
X163951329Y-105212653D01*
X164102803Y-105078852D01*
X164314902Y-105004936D01*
X164392659Y-104998002D01*
X164625748Y-104969177D01*
X164742658Y-104895285D01*
X164747083Y-104773192D01*
X164722648Y-104718317D01*
X164659454Y-104631757D01*
X164570343Y-104593908D01*
X164427100Y-104603189D01*
X164201507Y-104658024D01*
X164110321Y-104684060D01*
X163784186Y-104824799D01*
X163519331Y-105044803D01*
X163270816Y-105305986D01*
X163201512Y-105056368D01*
X163142875Y-104760133D01*
X163141640Y-104519478D01*
X163197126Y-104360311D01*
X163220465Y-104335715D01*
X163303627Y-104300730D01*
X163450363Y-104294923D01*
X163450363Y-103756176D01*
X163361852Y-103742158D01*
X163025232Y-103701627D01*
X162972750Y-103696796D01*
X162644236Y-103663862D01*
X162297354Y-103622086D01*
X162140904Y-103599830D01*
X162140904Y-113103341D01*
X162167238Y-113106380D01*
X162216586Y-113122532D01*
X162257421Y-113162587D01*
X162296898Y-113246296D01*
X162342174Y-113393408D01*
X162400406Y-113623674D01*
X162478750Y-113956842D01*
X162484702Y-113982500D01*
X162563934Y-114345027D01*
X162606707Y-114600117D01*
X162613464Y-114761854D01*
X162584650Y-114844320D01*
X162520709Y-114861600D01*
X162512375Y-114860281D01*
X162394791Y-114777404D01*
X162281106Y-114581532D01*
X162177298Y-114286651D01*
X162089345Y-113906748D01*
X162078046Y-113844192D01*
X162029079Y-113503151D01*
X162022447Y-113272500D01*
X162059329Y-113142482D01*
X162140904Y-113103341D01*
X162140904Y-103599830D01*
X161998827Y-103579617D01*
X161956750Y-103572757D01*
X161673904Y-103530041D01*
X161661365Y-103528470D01*
X161661365Y-108160784D01*
X161727252Y-108165310D01*
X161792913Y-108251625D01*
X161833475Y-108389197D01*
X161854318Y-108594919D01*
X161854637Y-108816626D01*
X161853157Y-108829695D01*
X161853157Y-110183353D01*
X161967151Y-110208137D01*
X162031267Y-110272079D01*
X162100513Y-110427862D01*
X162064943Y-110539905D01*
X161932443Y-110585153D01*
X161924130Y-110585250D01*
X161802650Y-110557153D01*
X161751590Y-110448779D01*
X161746122Y-110410263D01*
X161767846Y-110256367D01*
X161853157Y-110183353D01*
X161853157Y-108829695D01*
X161833629Y-109002149D01*
X161805721Y-109082680D01*
X161700676Y-109151632D01*
X161564246Y-109133142D01*
X161441271Y-109041348D01*
X161390746Y-108951836D01*
X161366400Y-108814963D01*
X161397527Y-108656924D01*
X161479698Y-108459711D01*
X161583988Y-108255503D01*
X161661365Y-108160784D01*
X161661365Y-103528470D01*
X161387620Y-103494158D01*
X161194750Y-103475732D01*
X160776563Y-103438828D01*
X160472042Y-103394481D01*
X160267934Y-103339796D01*
X160150986Y-103271878D01*
X160126930Y-103242460D01*
X160073593Y-103171479D01*
X160008426Y-103137918D01*
X159907742Y-103145112D01*
X159747855Y-103196398D01*
X159701762Y-103215139D01*
X159701762Y-106248382D01*
X159998044Y-106330750D01*
X160205823Y-106389480D01*
X160454665Y-106422998D01*
X160539929Y-106426000D01*
X160753249Y-106439870D01*
X160931061Y-106474954D01*
X160984036Y-106495674D01*
X161061957Y-106555685D01*
X161090758Y-106649698D01*
X161080386Y-106818547D01*
X161074312Y-106866211D01*
X161047570Y-107163469D01*
X161033011Y-107535172D01*
X161029958Y-107948840D01*
X161037736Y-108371993D01*
X161055667Y-108772152D01*
X161083076Y-109116835D01*
X161119286Y-109373564D01*
X161127289Y-109410500D01*
X161179166Y-109663560D01*
X161215079Y-109901715D01*
X161226181Y-110045500D01*
X161254983Y-110226639D01*
X161327504Y-110457856D01*
X161394719Y-110617000D01*
X161566609Y-111018785D01*
X161656980Y-111347230D01*
X161667563Y-111624906D01*
X161600085Y-111874384D01*
X161504389Y-112048834D01*
X161454980Y-112140588D01*
X161430378Y-112246604D01*
X161429127Y-112398247D01*
X161449772Y-112626880D01*
X161469752Y-112795351D01*
X161518681Y-113183083D01*
X161558603Y-113471786D01*
X161594139Y-113688701D01*
X161629908Y-113861065D01*
X161670530Y-114016118D01*
X161685369Y-114066730D01*
X161725086Y-114234154D01*
X161711795Y-114324966D01*
X161668922Y-114364783D01*
X161495138Y-114424820D01*
X161231617Y-114459218D01*
X160913231Y-114466886D01*
X160574849Y-114446733D01*
X160301177Y-114407603D01*
X159954692Y-114321298D01*
X159565171Y-114190720D01*
X159164554Y-114029917D01*
X158784779Y-113852941D01*
X158457788Y-113673844D01*
X158215519Y-113506676D01*
X158177045Y-113473157D01*
X157919011Y-113234941D01*
X158042266Y-112989595D01*
X158228741Y-112576145D01*
X158404683Y-112111030D01*
X158546466Y-111659123D01*
X158592518Y-111478701D01*
X158644957Y-111211100D01*
X158655759Y-111010767D01*
X158626801Y-110825659D01*
X158617394Y-110789508D01*
X158566118Y-110497028D01*
X158541755Y-110124087D01*
X158544467Y-109714373D01*
X158574420Y-109311577D01*
X158610921Y-109061250D01*
X158685544Y-108670592D01*
X158751473Y-108371543D01*
X158819072Y-108130146D01*
X158898702Y-107912448D01*
X159000723Y-107684494D01*
X159081141Y-107520368D01*
X159343331Y-106995486D01*
X159173665Y-106818393D01*
X159044401Y-106661951D01*
X159017208Y-106545754D01*
X159091904Y-106434727D01*
X159171313Y-106367108D01*
X159409663Y-106257333D01*
X159701762Y-106248382D01*
X159701762Y-103215139D01*
X159505077Y-103295112D01*
X159382531Y-103347306D01*
X159094651Y-103462259D01*
X158899392Y-103512902D01*
X158777605Y-103495229D01*
X158710140Y-103405232D01*
X158677848Y-103238903D01*
X158674170Y-103199070D01*
X158633517Y-103011882D01*
X158556837Y-102943693D01*
X158450236Y-102993695D01*
X158319818Y-103161079D01*
X158266499Y-103253060D01*
X158108748Y-103492141D01*
X157921579Y-103655936D01*
X157895974Y-103670539D01*
X157895974Y-111081591D01*
X157961490Y-111116916D01*
X158021514Y-111242151D01*
X158069186Y-111420215D01*
X158097644Y-111614026D01*
X158100027Y-111786502D01*
X158069474Y-111900561D01*
X158050931Y-111919101D01*
X157919169Y-111936240D01*
X157785030Y-111865097D01*
X157698153Y-111733248D01*
X157694825Y-111721274D01*
X157691386Y-111570365D01*
X157729579Y-111383758D01*
X157794153Y-111209953D01*
X157869859Y-111097448D01*
X157895974Y-111081591D01*
X157895974Y-103670539D01*
X157788862Y-103731627D01*
X157611345Y-103829691D01*
X157552355Y-103869199D01*
X157552355Y-112527155D01*
X157690040Y-112570490D01*
X157721300Y-112598200D01*
X157793503Y-112735741D01*
X157740200Y-112868185D01*
X157710298Y-112896320D01*
X157582406Y-112940425D01*
X157464218Y-112893496D01*
X157389415Y-112789213D01*
X157391679Y-112661258D01*
X157423179Y-112609201D01*
X157552355Y-112527155D01*
X157552355Y-103869199D01*
X157484009Y-103914974D01*
X157447973Y-103949947D01*
X157382058Y-104020153D01*
X157244813Y-104145750D01*
X157063454Y-104302017D01*
X157025217Y-104333998D01*
X156824074Y-104495476D01*
X156683967Y-104586278D01*
X156572260Y-104621486D01*
X156456317Y-104616181D01*
X156426042Y-104610895D01*
X156244156Y-104600061D01*
X156112574Y-104660720D01*
X156008717Y-104811857D01*
X155922463Y-105034379D01*
X155841335Y-105230375D01*
X155773884Y-105300822D01*
X155731863Y-105253335D01*
X155731863Y-112839500D01*
X155888839Y-112869154D01*
X156090865Y-112943500D01*
X156290034Y-113040614D01*
X156438442Y-113138569D01*
X156478902Y-113181405D01*
X156522090Y-113292053D01*
X156461020Y-113374773D01*
X156399857Y-113411343D01*
X156298538Y-113440862D01*
X156200256Y-113393087D01*
X156107667Y-113302453D01*
X155930801Y-113167522D01*
X155774935Y-113125250D01*
X155640125Y-113094723D01*
X155586984Y-112985967D01*
X155586458Y-112982375D01*
X155594642Y-112876178D01*
X155684108Y-112840982D01*
X155731863Y-112839500D01*
X155731863Y-105253335D01*
X155725877Y-105246570D01*
X155703084Y-105068470D01*
X155702000Y-105001863D01*
X155702000Y-104728221D01*
X155433340Y-104692187D01*
X155263159Y-104675199D01*
X155155482Y-104675417D01*
X155140434Y-104680398D01*
X155140208Y-104750448D01*
X155166015Y-104903445D01*
X155192454Y-105022558D01*
X155229105Y-105215729D01*
X155238869Y-105359641D01*
X155230161Y-105402862D01*
X155149034Y-105426092D01*
X155057462Y-105400935D01*
X155057462Y-106142684D01*
X155136475Y-106219555D01*
X155187985Y-106345249D01*
X155194000Y-106404259D01*
X155180096Y-106510757D01*
X155116272Y-106513628D01*
X155067000Y-106489500D01*
X154966943Y-106383122D01*
X154939843Y-106244993D01*
X154981782Y-106151384D01*
X155057462Y-106142684D01*
X155057462Y-105400935D01*
X155002374Y-105385801D01*
X154822610Y-105299290D01*
X154642170Y-105183862D01*
X154493485Y-105056818D01*
X154428632Y-104975228D01*
X154315155Y-104826497D01*
X154228815Y-104799820D01*
X154168569Y-104896017D01*
X154133370Y-105115908D01*
X154127266Y-105211672D01*
X154127252Y-105430025D01*
X154154258Y-105648143D01*
X154215542Y-105903585D01*
X154318359Y-106233909D01*
X154333641Y-106279792D01*
X154450771Y-106645653D01*
X154521638Y-106917217D01*
X154547976Y-107117767D01*
X154531519Y-107270587D01*
X154474001Y-107398960D01*
X154422402Y-107471528D01*
X154346991Y-107575842D01*
X154318189Y-107665412D01*
X154333594Y-107784725D01*
X154390802Y-107978268D01*
X154394412Y-107989726D01*
X154462944Y-108275298D01*
X154455727Y-108464642D01*
X154371247Y-108564579D01*
X154262177Y-108585000D01*
X154145884Y-108607209D01*
X154135939Y-108676278D01*
X154174975Y-108795058D01*
X154226587Y-108971641D01*
X154237087Y-109009653D01*
X154308095Y-109188717D01*
X154428181Y-109417199D01*
X154558104Y-109625445D01*
X154723681Y-109899991D01*
X154803568Y-110108796D01*
X154796368Y-110244254D01*
X154700685Y-110298757D01*
X154681825Y-110299500D01*
X154449360Y-110243052D01*
X154195525Y-110082662D01*
X154130625Y-110026731D01*
X154017866Y-109948817D01*
X153943765Y-109941120D01*
X153942840Y-109941992D01*
X153964458Y-110002798D01*
X153964458Y-110002798D01*
G37*
X153964458Y-110002798D02*
X154062249Y-110123612D01*
X154216639Y-110281003D01*
X154260090Y-110321755D01*
X154470915Y-110539880D01*
X154595199Y-110720329D01*
X154628717Y-110852108D01*
X154567248Y-110924225D01*
X154495500Y-110934500D01*
X154384262Y-110976733D01*
X154361523Y-111096369D01*
X154424209Y-111282812D01*
X154569248Y-111525469D01*
X154727622Y-111734789D01*
X154848566Y-111901231D01*
X154925483Y-112041811D01*
X154940000Y-112096167D01*
X154905936Y-112216823D01*
X154816275Y-112235221D01*
X154689807Y-112152038D01*
X154628604Y-112084978D01*
X154492192Y-111948022D01*
X154353311Y-111896917D01*
X154241335Y-111895865D01*
X154077584Y-111911972D01*
X153973035Y-111933647D01*
X153967488Y-111936125D01*
X153961568Y-111994336D01*
X154036701Y-112093472D01*
X154166558Y-112206650D01*
X154324809Y-112306987D01*
X154336600Y-112313000D01*
X154575697Y-112443267D01*
X154815394Y-112591331D01*
X155028887Y-112738507D01*
X155189369Y-112866111D01*
X155270036Y-112955457D01*
X155274113Y-112966500D01*
X155268304Y-113094528D01*
X155232158Y-113231284D01*
X155212936Y-113416409D01*
X155302140Y-113543896D01*
X155489410Y-113601039D01*
X155535150Y-113602894D01*
X155717975Y-113630686D01*
X155935955Y-113698562D01*
X156005476Y-113727618D01*
X156210514Y-113803344D01*
X156363810Y-113810347D01*
X156442488Y-113788107D01*
X156643452Y-113750634D01*
X156802414Y-113820218D01*
X156933963Y-113988957D01*
X157072047Y-114158693D01*
X157249198Y-114303165D01*
X157261257Y-114310483D01*
X157439138Y-114453605D01*
X157590199Y-114635745D01*
X157600913Y-114653194D01*
X157735610Y-114815037D01*
X157872936Y-114870598D01*
X157991415Y-114816729D01*
X158049154Y-114718918D01*
X158118150Y-114586508D01*
X158174413Y-114524775D01*
X158259028Y-114528945D01*
X158431454Y-114574145D01*
X158662523Y-114651959D01*
X158812146Y-114708806D01*
X159561213Y-114942244D01*
X160377529Y-115079764D01*
X161241599Y-115118210D01*
X161329802Y-115116486D01*
X162036355Y-115098607D01*
X162268637Y-115302553D01*
X162487047Y-115451682D01*
X162707539Y-115500913D01*
X162960217Y-115452005D01*
X163181235Y-115355876D01*
X163426564Y-115247190D01*
X163707280Y-115143265D01*
X163831704Y-115104222D01*
X164113293Y-114990750D01*
X164379036Y-114830712D01*
X164444322Y-114779217D01*
X164585757Y-114649492D01*
X164669081Y-114534233D01*
X164715146Y-114388663D01*
X164744804Y-114168006D01*
X164749249Y-114124437D01*
X164764351Y-113843858D01*
X164744375Y-113577569D01*
X164683825Y-113268411D01*
X164656086Y-113155440D01*
X164582447Y-112890926D01*
X164506071Y-112658784D01*
X164440305Y-112498449D01*
X164423727Y-112468821D01*
X164311367Y-112364801D01*
X164101398Y-112233464D01*
X163816990Y-112086746D01*
X163481315Y-111936584D01*
X163117544Y-111794915D01*
X163110979Y-111792551D01*
X162870767Y-111668381D01*
X162739431Y-111518768D01*
X162719648Y-111361239D01*
X162814093Y-111213321D01*
X163005319Y-111100331D01*
X163190515Y-111012819D01*
X163423607Y-110884770D01*
X163608542Y-110772502D01*
X163837257Y-110608219D01*
X163991121Y-110442286D01*
X164113485Y-110226600D01*
X164127267Y-110196933D01*
X164195670Y-110036547D01*
X164239685Y-109891474D01*
X164263460Y-109728646D01*
X164271143Y-109514993D01*
X164266881Y-109217447D01*
X164263911Y-109107495D01*
X164242750Y-108362750D01*
X163957000Y-107854750D01*
X163810965Y-107604690D01*
X163692201Y-107436585D01*
X163570878Y-107318947D01*
X163417169Y-107220289D01*
X163295298Y-107156250D01*
X163080064Y-107032081D01*
X162898644Y-106900872D01*
X162803907Y-106807000D01*
X162683639Y-106575312D01*
X162646313Y-106345969D01*
X162697507Y-106157970D01*
X162708721Y-106141571D01*
X162755597Y-106093303D01*
X162827389Y-106057425D01*
X162944137Y-106030898D01*
X163125884Y-106010684D01*
X163392669Y-105993744D01*
X163764534Y-105977040D01*
X163804669Y-105975411D01*
X164214468Y-105961514D01*
X164519037Y-105958323D01*
X164739763Y-105966721D01*
X164898035Y-105987596D01*
X165015242Y-106021831D01*
X165025314Y-106025934D01*
X165313237Y-106086412D01*
X165504934Y-106069421D01*
X165818458Y-106045585D01*
X166067305Y-106090424D01*
X166238686Y-106192453D01*
X166319810Y-106340192D01*
X166297889Y-106522159D01*
X166194436Y-106688401D01*
X166084744Y-106860771D01*
X166089095Y-106985996D01*
X166209976Y-107067674D01*
X166449878Y-107109398D01*
X166487665Y-107111943D01*
X166678972Y-107126923D01*
X166775718Y-107157942D01*
X166810146Y-107228046D01*
X166814500Y-107345532D01*
X166770409Y-107563285D01*
X166651867Y-107710003D01*
X166492464Y-107759500D01*
X166387251Y-107788405D01*
X166384647Y-107862811D01*
X166477547Y-107964257D01*
X166602447Y-108045250D01*
X166811857Y-108205329D01*
X166897695Y-108383395D01*
X166860776Y-108571800D01*
X166701913Y-108762896D01*
X166511577Y-108898404D01*
X166453603Y-108944299D01*
X166453603Y-111636434D01*
X166518166Y-111675333D01*
X166555875Y-111772718D01*
X166475282Y-111878673D01*
X166374465Y-111916494D01*
X166316111Y-111840282D01*
X166306500Y-111749416D01*
X166352789Y-111652634D01*
X166453603Y-111636434D01*
X166453603Y-108944299D01*
X166350582Y-109025857D01*
X166174447Y-109212003D01*
X166008142Y-109423932D01*
X165876635Y-109628734D01*
X165804896Y-109793498D01*
X165798500Y-109838245D01*
X165762971Y-109958250D01*
X165675029Y-110116759D01*
X165562640Y-110273942D01*
X165453771Y-110389973D01*
X165385443Y-110426500D01*
X165285879Y-110382185D01*
X165155643Y-110272131D01*
X165121743Y-110236000D01*
X164926343Y-110081506D01*
X164775751Y-110045500D01*
X164609295Y-110074417D01*
X164556969Y-110157749D01*
X164620726Y-110290369D01*
X164663619Y-110339893D01*
X164759316Y-110453362D01*
X164774322Y-110541117D01*
X164715532Y-110665955D01*
X164702022Y-110689588D01*
X164609450Y-110905851D01*
X164617514Y-111087957D01*
X164732198Y-111272377D01*
X164811568Y-111357268D01*
X164957036Y-111488632D01*
X165058557Y-111535387D01*
X165150321Y-111513043D01*
X165152469Y-111511903D01*
X165278141Y-111476762D01*
X165341561Y-111547432D01*
X165354000Y-111667558D01*
X165303722Y-111831782D01*
X165178062Y-111928241D01*
X165040446Y-111933132D01*
X164895745Y-111954382D01*
X164804652Y-112024605D01*
X164729938Y-112164175D01*
X164773468Y-112276294D01*
X164927960Y-112352789D01*
X165123693Y-112382657D01*
X165258124Y-112398894D01*
X165378800Y-112437587D01*
X165503131Y-112512605D01*
X165648523Y-112637816D01*
X165832385Y-112827089D01*
X166072124Y-113094292D01*
X166199374Y-113239638D01*
X166397541Y-113435072D01*
X166606736Y-113562016D01*
X166861145Y-113633401D01*
X167194952Y-113662158D01*
X167322500Y-113664457D01*
X167600602Y-113679664D01*
X167754770Y-113720626D01*
X167785489Y-113787620D01*
X167695838Y-113879119D01*
X167565907Y-113955460D01*
X167482995Y-113983120D01*
X167394219Y-114008815D01*
X167230400Y-114074843D01*
X167068500Y-114147716D01*
X166883975Y-114225565D01*
X166703749Y-114276395D01*
X166489874Y-114306873D01*
X166204407Y-114323669D01*
X166039172Y-114328623D01*
X165693192Y-114343095D01*
X165449803Y-114368715D01*
X165284822Y-114409066D01*
X165193854Y-114453824D01*
X165075859Y-114545027D01*
X165043807Y-114613180D01*
X165105878Y-114661157D01*
X165270249Y-114691829D01*
X165545098Y-114708069D01*
X165931118Y-114712750D01*
X166343748Y-114707467D01*
X166661435Y-114689576D01*
X166915880Y-114656010D01*
X167138782Y-114603704D01*
X167177613Y-114592180D01*
X167432122Y-114526044D01*
X167600298Y-114524331D01*
X167703628Y-114602839D01*
X167763601Y-114777369D01*
X167800344Y-115050054D01*
X167832232Y-115316738D01*
X167871298Y-115573546D01*
X167901333Y-115728750D01*
X167926222Y-115882729D01*
X167954944Y-116133282D01*
X167984511Y-116450166D01*
X168011931Y-116803137D01*
X168021244Y-116941648D01*
X168064549Y-117485576D01*
X168121091Y-117923028D01*
X168197075Y-118274333D01*
X168298708Y-118559820D01*
X168432195Y-118799819D01*
X168603742Y-119014659D01*
X168677417Y-119091160D01*
X168966290Y-119327595D01*
X169357976Y-119572640D01*
X169829528Y-119817179D01*
X170358003Y-120052094D01*
X170920456Y-120268269D01*
X171493941Y-120456586D01*
X172055516Y-120607928D01*
X172582233Y-120713179D01*
X172847000Y-120747938D01*
X173324463Y-120822297D01*
X173756734Y-120939048D01*
X174124021Y-121089866D01*
X174406537Y-121266425D01*
X174584490Y-121460398D01*
X174597959Y-121484606D01*
X174719839Y-121641606D01*
X174866179Y-121745992D01*
X175002901Y-121827192D01*
X175188381Y-121964629D01*
X175359316Y-122108364D01*
X175569225Y-122281505D01*
X175785726Y-122436988D01*
X175929289Y-122523250D01*
X176102023Y-122627946D01*
X176324060Y-122784606D01*
X176549743Y-122960867D01*
X176567620Y-122975707D01*
X176834179Y-123178023D01*
X177145286Y-123385047D01*
X177408898Y-123538344D01*
X177668926Y-123694327D01*
X177921517Y-123877844D01*
X178113130Y-124049895D01*
X178117184Y-124054262D01*
X178264176Y-124203217D01*
X178382524Y-124304355D01*
X178436307Y-124333000D01*
X178446896Y-124269829D01*
X178456548Y-124081633D01*
X178465248Y-123770379D01*
X178472979Y-123338037D01*
X178479722Y-122786579D01*
X178485461Y-122117972D01*
X178490179Y-121334188D01*
X178493859Y-120437196D01*
X178496483Y-119428966D01*
X178498034Y-118311467D01*
X178498500Y-117189250D01*
X178498101Y-115986639D01*
X178496880Y-114907207D01*
X178494799Y-113947131D01*
X178491822Y-113102592D01*
X178487910Y-112369771D01*
X178483026Y-111744845D01*
X178477134Y-111223997D01*
X178470196Y-110803404D01*
X178462174Y-110479248D01*
X178453031Y-110247707D01*
X178442730Y-110104963D01*
X178431234Y-110047193D01*
X178428726Y-110045500D01*
X178333625Y-110095853D01*
X178182974Y-110236588D01*
X177991375Y-110452219D01*
X177773427Y-110727259D01*
X177725300Y-110791625D01*
X177590555Y-110962440D01*
X177479894Y-111082668D01*
X177420228Y-111125000D01*
X177349642Y-111171340D01*
X177239811Y-111288174D01*
X177189550Y-111351045D01*
X177017136Y-111577090D01*
X177214712Y-112001920D01*
X177331407Y-112292324D01*
X177433982Y-112615400D01*
X177490045Y-112851608D01*
X177530894Y-113139493D01*
X177517408Y-113325506D01*
X177434997Y-113428397D01*
X177269073Y-113466915D01*
X177016156Y-113460625D01*
X176797683Y-113435575D01*
X176644809Y-113382498D01*
X176534486Y-113278307D01*
X176443664Y-113099916D01*
X176349293Y-112824240D01*
X176335071Y-112778462D01*
X176240325Y-112511614D01*
X176126685Y-112246936D01*
X176044076Y-112087014D01*
X175938577Y-111872325D01*
X175902318Y-111676210D01*
X175909758Y-111501741D01*
X175983722Y-111167614D01*
X176136679Y-110783878D01*
X176351220Y-110383595D01*
X176609933Y-109999830D01*
X176853833Y-109708900D01*
X177054962Y-109501117D01*
X177204299Y-109368699D01*
X177333208Y-109291021D01*
X177473053Y-109247458D01*
X177585928Y-109227475D01*
X177840665Y-109160323D01*
X178106293Y-109048217D01*
X178204939Y-108992575D01*
X178498272Y-108807250D01*
X178498386Y-108251625D01*
X178495722Y-108003788D01*
X178488505Y-107812909D01*
X178478055Y-107707727D01*
X178472811Y-107696000D01*
X178430675Y-107746624D01*
X178347123Y-107878174D01*
X178258943Y-108029436D01*
X178054977Y-108326556D01*
X177797401Y-108608907D01*
X177521393Y-108842375D01*
X177268009Y-108990415D01*
X177096152Y-109092823D01*
X176903202Y-109251595D01*
X176803348Y-109352759D01*
X176688226Y-109475669D01*
X176499427Y-109671040D01*
X176253534Y-109921989D01*
X175967131Y-110211634D01*
X175656800Y-110523091D01*
X175504518Y-110675076D01*
X175137672Y-111043061D01*
X174852272Y-111339220D01*
X174638303Y-111579839D01*
X174485752Y-111781209D01*
X174384605Y-111959618D01*
X174324850Y-112131354D01*
X174296471Y-112312706D01*
X174289457Y-112519962D01*
X174291040Y-112649000D01*
X174303671Y-113257043D01*
X174315478Y-113751182D01*
X174327460Y-114144498D01*
X174340618Y-114450074D01*
X174355949Y-114680992D01*
X174374452Y-114850333D01*
X174397126Y-114971181D01*
X174424971Y-115056616D01*
X174458985Y-115119722D01*
X174482127Y-115151494D01*
X174581695Y-115337206D01*
X174570664Y-115482565D01*
X174461914Y-115576921D01*
X174268325Y-115609625D01*
X174002776Y-115570026D01*
X173982652Y-115564505D01*
X173791681Y-115528477D01*
X173521139Y-115499740D01*
X173218424Y-115482816D01*
X173101000Y-115480386D01*
X172497750Y-115474750D01*
X172100036Y-115192175D01*
X171873188Y-115040382D01*
X171705891Y-114956771D01*
X171561842Y-114926213D01*
X171465036Y-114927514D01*
X171130506Y-114951621D01*
X170893635Y-114959358D01*
X170725366Y-114942869D01*
X170596644Y-114894299D01*
X170478413Y-114805792D01*
X170341616Y-114669494D01*
X170282905Y-114607924D01*
X170027771Y-114366280D01*
X169814443Y-114230394D01*
X169623518Y-114194747D01*
X169435592Y-114253822D01*
X169315643Y-114332865D01*
X169169836Y-114457851D01*
X169072181Y-114566886D01*
X169056484Y-114594816D01*
X168971497Y-114691319D01*
X168818669Y-114789307D01*
X168652900Y-114857657D01*
X168568439Y-114871500D01*
X168419132Y-114818601D01*
X168325894Y-114674105D01*
X168286633Y-114459313D01*
X168299255Y-114195528D01*
X168361666Y-113904049D01*
X168471774Y-113606180D01*
X168627484Y-113323221D01*
X168734871Y-113177945D01*
X168975648Y-112858531D01*
X169128120Y-112578899D01*
X169207075Y-112304657D01*
X169227500Y-112032202D01*
X169246597Y-111772020D01*
X169296266Y-111465097D01*
X169354500Y-111220250D01*
X169417871Y-110980094D01*
X169463386Y-110772199D01*
X169481480Y-110640428D01*
X169481500Y-110637949D01*
X169422838Y-110456012D01*
X169252613Y-110242193D01*
X168979466Y-110005597D01*
X168691258Y-109805147D01*
X168280325Y-109518128D01*
X167938294Y-109231538D01*
X167673125Y-108955728D01*
X167492780Y-108701048D01*
X167405218Y-108477848D01*
X167418400Y-108296481D01*
X167471132Y-108218652D01*
X167622455Y-108151713D01*
X167859568Y-108152161D01*
X168163515Y-108215570D01*
X168515341Y-108337511D01*
X168896091Y-108513556D01*
X169021264Y-108580772D01*
X169393146Y-108768186D01*
X169778345Y-108928746D01*
X170153804Y-109055943D01*
X170496463Y-109143271D01*
X170783267Y-109184220D01*
X170991157Y-109172283D01*
X171045471Y-109152100D01*
X171158250Y-109057092D01*
X171334304Y-108861453D01*
X171568652Y-108571652D01*
X171856313Y-108194155D01*
X172192304Y-107735431D01*
X172571643Y-107201946D01*
X172802850Y-106870500D01*
X173065647Y-106493013D01*
X173268234Y-106207743D01*
X173421705Y-106001814D01*
X173537157Y-105862349D01*
X173625686Y-105776473D01*
X173698386Y-105731310D01*
X173766353Y-105713983D01*
X173801357Y-105711751D01*
X173952343Y-105723382D01*
X174204603Y-105760363D01*
X174535866Y-105818616D01*
X174923862Y-105894063D01*
X175346322Y-105982626D01*
X175654781Y-106051185D01*
X175882850Y-106111492D01*
X176202525Y-106207439D01*
X176586562Y-106329897D01*
X177007720Y-106469737D01*
X177438757Y-106617830D01*
X177852429Y-106765048D01*
X178221496Y-106902261D01*
X178387375Y-106966880D01*
X178406981Y-106969653D01*
X178424141Y-106956133D01*
X178439017Y-106918484D01*
X178451772Y-106848871D01*
X178462568Y-106739457D01*
X178471567Y-106582407D01*
X178478933Y-106369885D01*
X178484826Y-106094056D01*
X178489409Y-105747084D01*
X178492845Y-105321132D01*
X178495297Y-104808365D01*
X178496925Y-104200948D01*
X178497893Y-103491045D01*
X178498364Y-102670819D01*
X178498498Y-101732436D01*
X178498500Y-101602960D01*
X178498500Y-96194834D01*
X175402875Y-96215719D01*
X174655415Y-96221486D01*
X174025519Y-96228070D01*
X173503748Y-96235776D01*
X173080666Y-96244909D01*
X172746837Y-96255774D01*
X172492824Y-96268677D01*
X172309190Y-96283923D01*
X172186499Y-96301816D01*
X172116750Y-96322011D01*
X171970449Y-96359974D01*
X171717160Y-96395164D01*
X171376894Y-96425380D01*
X170969662Y-96448422D01*
X170965269Y-96448611D01*
X170004288Y-96489805D01*
X169346019Y-96817838D01*
X168756205Y-97153839D01*
X168234092Y-97535888D01*
X167800572Y-97947002D01*
X167520867Y-98301322D01*
X167319956Y-98650604D01*
X167289550Y-98723083D01*
X167289550Y-109624725D01*
X167433798Y-109652440D01*
X167604095Y-109731844D01*
X167792943Y-109861210D01*
X167968063Y-110012605D01*
X168097174Y-110158096D01*
X168147996Y-110269750D01*
X168148000Y-110270456D01*
X168090814Y-110408678D01*
X167943645Y-110511348D01*
X167743071Y-110553431D01*
X167734461Y-110553500D01*
X167578648Y-110569660D01*
X167486760Y-110609007D01*
X167483482Y-110613387D01*
X167461987Y-110702196D01*
X167439313Y-110881552D01*
X167419908Y-111115125D01*
X167417641Y-111151153D01*
X167427613Y-111595167D01*
X167516565Y-111942260D01*
X167684009Y-112191105D01*
X167842577Y-112303583D01*
X168057615Y-112433311D01*
X168228411Y-112575035D01*
X168326076Y-112702708D01*
X168338500Y-112750710D01*
X168292572Y-112841460D01*
X168181027Y-112954012D01*
X168171186Y-112961891D01*
X167936805Y-113076396D01*
X167684489Y-113065216D01*
X167443015Y-112948402D01*
X167260998Y-112784679D01*
X167118878Y-112556186D01*
X167008305Y-112243863D01*
X166920929Y-111828653D01*
X166903189Y-111716284D01*
X166859342Y-111368785D01*
X166847427Y-111091320D01*
X166866580Y-110831230D01*
X166886490Y-110697494D01*
X166923214Y-110437512D01*
X166946740Y-110192223D01*
X166951940Y-110037612D01*
X166986296Y-109801547D01*
X167100873Y-109662287D01*
X167289550Y-109624725D01*
X167289550Y-98723083D01*
X167169026Y-99010379D01*
X167082907Y-99341200D01*
X167068500Y-99504499D01*
X167050453Y-99664872D01*
X167004713Y-99880087D01*
X166976182Y-99985099D01*
X166908924Y-100238676D01*
X166834769Y-100559441D01*
X166759475Y-100917262D01*
X166688799Y-101282008D01*
X166628500Y-101623545D01*
X166584336Y-101911742D01*
X166562064Y-102116468D01*
X166560500Y-102160452D01*
X166538599Y-102331487D01*
X166479704Y-102580647D01*
X166394023Y-102868155D01*
X166334384Y-103041474D01*
X166230323Y-103342929D01*
X166137593Y-103638598D01*
X166069689Y-103884203D01*
X166047938Y-103981250D01*
X165974141Y-104223070D01*
X165866761Y-104390140D01*
X165742462Y-104457203D01*
X165733749Y-104457500D01*
X165662601Y-104425098D01*
X165521789Y-104341566D01*
X165397598Y-104261653D01*
X165102675Y-104110368D01*
X164788364Y-104017555D01*
X164767587Y-104014125D01*
X164524461Y-103970614D01*
X164228952Y-103909517D01*
X163988750Y-103854435D01*
X163705297Y-103796550D01*
X163450363Y-103756176D01*
X163450363Y-104294923D01*
X163685767Y-104318282D01*
X163807840Y-104335414D01*
X164108072Y-104376498D01*
X164416331Y-104413559D01*
X164665949Y-104438581D01*
X164666231Y-104438604D01*
X164911571Y-104474198D01*
X165097248Y-104550211D01*
X165289928Y-104693992D01*
X165291029Y-104694934D01*
X165533793Y-104945977D01*
X165653848Y-105177627D01*
X165650385Y-105387917D01*
X165610435Y-105471734D01*
X165559332Y-105513386D01*
X165455468Y-105539145D01*
X165277589Y-105551097D01*
X165004443Y-105551322D01*
X164833532Y-105547884D01*
X164464074Y-105536406D01*
X164203728Y-105520624D01*
X164034609Y-105497362D01*
X163938834Y-105463447D01*
X163898519Y-105415703D01*
X163893500Y-105381005D01*
X163951329Y-105212653D01*
X164102803Y-105078852D01*
X164314902Y-105004936D01*
X164392659Y-104998002D01*
X164625748Y-104969177D01*
X164742658Y-104895285D01*
X164747083Y-104773192D01*
X164722648Y-104718317D01*
X164659454Y-104631757D01*
X164570343Y-104593908D01*
X164427100Y-104603189D01*
X164201507Y-104658024D01*
X164110321Y-104684060D01*
X163784186Y-104824799D01*
X163519331Y-105044803D01*
X163270816Y-105305986D01*
X163201512Y-105056368D01*
X163142875Y-104760133D01*
X163141640Y-104519478D01*
X163197126Y-104360311D01*
X163220465Y-104335715D01*
X163303627Y-104300730D01*
X163450363Y-104294923D01*
X163450363Y-103756176D01*
X163361852Y-103742158D01*
X163025232Y-103701627D01*
X162972750Y-103696796D01*
X162644236Y-103663862D01*
X162297354Y-103622086D01*
X162140904Y-103599830D01*
X162140904Y-113103341D01*
X162167238Y-113106380D01*
X162216586Y-113122532D01*
X162257421Y-113162587D01*
X162296898Y-113246296D01*
X162342174Y-113393408D01*
X162400406Y-113623674D01*
X162478750Y-113956842D01*
X162484702Y-113982500D01*
X162563934Y-114345027D01*
X162606707Y-114600117D01*
X162613464Y-114761854D01*
X162584650Y-114844320D01*
X162520709Y-114861600D01*
X162512375Y-114860281D01*
X162394791Y-114777404D01*
X162281106Y-114581532D01*
X162177298Y-114286651D01*
X162089345Y-113906748D01*
X162078046Y-113844192D01*
X162029079Y-113503151D01*
X162022447Y-113272500D01*
X162059329Y-113142482D01*
X162140904Y-113103341D01*
X162140904Y-103599830D01*
X161998827Y-103579617D01*
X161956750Y-103572757D01*
X161673904Y-103530041D01*
X161661365Y-103528470D01*
X161661365Y-108160784D01*
X161727252Y-108165310D01*
X161792913Y-108251625D01*
X161833475Y-108389197D01*
X161854318Y-108594919D01*
X161854637Y-108816626D01*
X161853157Y-108829695D01*
X161853157Y-110183353D01*
X161967151Y-110208137D01*
X162031267Y-110272079D01*
X162100513Y-110427862D01*
X162064943Y-110539905D01*
X161932443Y-110585153D01*
X161924130Y-110585250D01*
X161802650Y-110557153D01*
X161751590Y-110448779D01*
X161746122Y-110410263D01*
X161767846Y-110256367D01*
X161853157Y-110183353D01*
X161853157Y-108829695D01*
X161833629Y-109002149D01*
X161805721Y-109082680D01*
X161700676Y-109151632D01*
X161564246Y-109133142D01*
X161441271Y-109041348D01*
X161390746Y-108951836D01*
X161366400Y-108814963D01*
X161397527Y-108656924D01*
X161479698Y-108459711D01*
X161583988Y-108255503D01*
X161661365Y-108160784D01*
X161661365Y-103528470D01*
X161387620Y-103494158D01*
X161194750Y-103475732D01*
X160776563Y-103438828D01*
X160472042Y-103394481D01*
X160267934Y-103339796D01*
X160150986Y-103271878D01*
X160126930Y-103242460D01*
X160073593Y-103171479D01*
X160008426Y-103137918D01*
X159907742Y-103145112D01*
X159747855Y-103196398D01*
X159701762Y-103215139D01*
X159701762Y-106248382D01*
X159998044Y-106330750D01*
X160205823Y-106389480D01*
X160454665Y-106422998D01*
X160539929Y-106426000D01*
X160753249Y-106439870D01*
X160931061Y-106474954D01*
X160984036Y-106495674D01*
X161061957Y-106555685D01*
X161090758Y-106649698D01*
X161080386Y-106818547D01*
X161074312Y-106866211D01*
X161047570Y-107163469D01*
X161033011Y-107535172D01*
X161029958Y-107948840D01*
X161037736Y-108371993D01*
X161055667Y-108772152D01*
X161083076Y-109116835D01*
X161119286Y-109373564D01*
X161127289Y-109410500D01*
X161179166Y-109663560D01*
X161215079Y-109901715D01*
X161226181Y-110045500D01*
X161254983Y-110226639D01*
X161327504Y-110457856D01*
X161394719Y-110617000D01*
X161566609Y-111018785D01*
X161656980Y-111347230D01*
X161667563Y-111624906D01*
X161600085Y-111874384D01*
X161504389Y-112048834D01*
X161454980Y-112140588D01*
X161430378Y-112246604D01*
X161429127Y-112398247D01*
X161449772Y-112626880D01*
X161469752Y-112795351D01*
X161518681Y-113183083D01*
X161558603Y-113471786D01*
X161594139Y-113688701D01*
X161629908Y-113861065D01*
X161670530Y-114016118D01*
X161685369Y-114066730D01*
X161725086Y-114234154D01*
X161711795Y-114324966D01*
X161668922Y-114364783D01*
X161495138Y-114424820D01*
X161231617Y-114459218D01*
X160913231Y-114466886D01*
X160574849Y-114446733D01*
X160301177Y-114407603D01*
X159954692Y-114321298D01*
X159565171Y-114190720D01*
X159164554Y-114029917D01*
X158784779Y-113852941D01*
X158457788Y-113673844D01*
X158215519Y-113506676D01*
X158177045Y-113473157D01*
X157919011Y-113234941D01*
X158042266Y-112989595D01*
X158228741Y-112576145D01*
X158404683Y-112111030D01*
X158546466Y-111659123D01*
X158592518Y-111478701D01*
X158644957Y-111211100D01*
X158655759Y-111010767D01*
X158626801Y-110825659D01*
X158617394Y-110789508D01*
X158566118Y-110497028D01*
X158541755Y-110124087D01*
X158544467Y-109714373D01*
X158574420Y-109311577D01*
X158610921Y-109061250D01*
X158685544Y-108670592D01*
X158751473Y-108371543D01*
X158819072Y-108130146D01*
X158898702Y-107912448D01*
X159000723Y-107684494D01*
X159081141Y-107520368D01*
X159343331Y-106995486D01*
X159173665Y-106818393D01*
X159044401Y-106661951D01*
X159017208Y-106545754D01*
X159091904Y-106434727D01*
X159171313Y-106367108D01*
X159409663Y-106257333D01*
X159701762Y-106248382D01*
X159701762Y-103215139D01*
X159505077Y-103295112D01*
X159382531Y-103347306D01*
X159094651Y-103462259D01*
X158899392Y-103512902D01*
X158777605Y-103495229D01*
X158710140Y-103405232D01*
X158677848Y-103238903D01*
X158674170Y-103199070D01*
X158633517Y-103011882D01*
X158556837Y-102943693D01*
X158450236Y-102993695D01*
X158319818Y-103161079D01*
X158266499Y-103253060D01*
X158108748Y-103492141D01*
X157921579Y-103655936D01*
X157895974Y-103670539D01*
X157895974Y-111081591D01*
X157961490Y-111116916D01*
X158021514Y-111242151D01*
X158069186Y-111420215D01*
X158097644Y-111614026D01*
X158100027Y-111786502D01*
X158069474Y-111900561D01*
X158050931Y-111919101D01*
X157919169Y-111936240D01*
X157785030Y-111865097D01*
X157698153Y-111733248D01*
X157694825Y-111721274D01*
X157691386Y-111570365D01*
X157729579Y-111383758D01*
X157794153Y-111209953D01*
X157869859Y-111097448D01*
X157895974Y-111081591D01*
X157895974Y-103670539D01*
X157788862Y-103731627D01*
X157611345Y-103829691D01*
X157552355Y-103869199D01*
X157552355Y-112527155D01*
X157690040Y-112570490D01*
X157721300Y-112598200D01*
X157793503Y-112735741D01*
X157740200Y-112868185D01*
X157710298Y-112896320D01*
X157582406Y-112940425D01*
X157464218Y-112893496D01*
X157389415Y-112789213D01*
X157391679Y-112661258D01*
X157423179Y-112609201D01*
X157552355Y-112527155D01*
X157552355Y-103869199D01*
X157484009Y-103914974D01*
X157447973Y-103949947D01*
X157382058Y-104020153D01*
X157244813Y-104145750D01*
X157063454Y-104302017D01*
X157025217Y-104333998D01*
X156824074Y-104495476D01*
X156683967Y-104586278D01*
X156572260Y-104621486D01*
X156456317Y-104616181D01*
X156426042Y-104610895D01*
X156244156Y-104600061D01*
X156112574Y-104660720D01*
X156008717Y-104811857D01*
X155922463Y-105034379D01*
X155841335Y-105230375D01*
X155773884Y-105300822D01*
X155731863Y-105253335D01*
X155731863Y-112839500D01*
X155888839Y-112869154D01*
X156090865Y-112943500D01*
X156290034Y-113040614D01*
X156438442Y-113138569D01*
X156478902Y-113181405D01*
X156522090Y-113292053D01*
X156461020Y-113374773D01*
X156399857Y-113411343D01*
X156298538Y-113440862D01*
X156200256Y-113393087D01*
X156107667Y-113302453D01*
X155930801Y-113167522D01*
X155774935Y-113125250D01*
X155640125Y-113094723D01*
X155586984Y-112985967D01*
X155586458Y-112982375D01*
X155594642Y-112876178D01*
X155684108Y-112840982D01*
X155731863Y-112839500D01*
X155731863Y-105253335D01*
X155725877Y-105246570D01*
X155703084Y-105068470D01*
X155702000Y-105001863D01*
X155702000Y-104728221D01*
X155433340Y-104692187D01*
X155263159Y-104675199D01*
X155155482Y-104675417D01*
X155140434Y-104680398D01*
X155140208Y-104750448D01*
X155166015Y-104903445D01*
X155192454Y-105022558D01*
X155229105Y-105215729D01*
X155238869Y-105359641D01*
X155230161Y-105402862D01*
X155149034Y-105426092D01*
X155057462Y-105400935D01*
X155057462Y-106142684D01*
X155136475Y-106219555D01*
X155187985Y-106345249D01*
X155194000Y-106404259D01*
X155180096Y-106510757D01*
X155116272Y-106513628D01*
X155067000Y-106489500D01*
X154966943Y-106383122D01*
X154939843Y-106244993D01*
X154981782Y-106151384D01*
X155057462Y-106142684D01*
X155057462Y-105400935D01*
X155002374Y-105385801D01*
X154822610Y-105299290D01*
X154642170Y-105183862D01*
X154493485Y-105056818D01*
X154428632Y-104975228D01*
X154315155Y-104826497D01*
X154228815Y-104799820D01*
X154168569Y-104896017D01*
X154133370Y-105115908D01*
X154127266Y-105211672D01*
X154127252Y-105430025D01*
X154154258Y-105648143D01*
X154215542Y-105903585D01*
X154318359Y-106233909D01*
X154333641Y-106279792D01*
X154450771Y-106645653D01*
X154521638Y-106917217D01*
X154547976Y-107117767D01*
X154531519Y-107270587D01*
X154474001Y-107398960D01*
X154422402Y-107471528D01*
X154346991Y-107575842D01*
X154318189Y-107665412D01*
X154333594Y-107784725D01*
X154390802Y-107978268D01*
X154394412Y-107989726D01*
X154462944Y-108275298D01*
X154455727Y-108464642D01*
X154371247Y-108564579D01*
X154262177Y-108585000D01*
X154145884Y-108607209D01*
X154135939Y-108676278D01*
X154174975Y-108795058D01*
X154226587Y-108971641D01*
X154237087Y-109009653D01*
X154308095Y-109188717D01*
X154428181Y-109417199D01*
X154558104Y-109625445D01*
X154723681Y-109899991D01*
X154803568Y-110108796D01*
X154796368Y-110244254D01*
X154700685Y-110298757D01*
X154681825Y-110299500D01*
X154449360Y-110243052D01*
X154195525Y-110082662D01*
X154130625Y-110026731D01*
X154017866Y-109948817D01*
X153943765Y-109941120D01*
X153942840Y-109941992D01*
X153964458Y-110002798D01*
G36*
X176756963Y-112729581D02*
X176758225Y-112733718D01*
X176835220Y-112879268D01*
X176934086Y-112939473D01*
X176987343Y-112926812D01*
X177035526Y-112833746D01*
X177018419Y-112699384D01*
X176945531Y-112587808D01*
X176829145Y-112541170D01*
X176755839Y-112596568D01*
X176756963Y-112729581D01*
X176756963Y-112729581D01*
G37*
X176756963Y-112729581D02*
X176758225Y-112733718D01*
X176835220Y-112879268D01*
X176934086Y-112939473D01*
X176987343Y-112926812D01*
X177035526Y-112833746D01*
X177018419Y-112699384D01*
X176945531Y-112587808D01*
X176829145Y-112541170D01*
X176755839Y-112596568D01*
X176756963Y-112729581D01*
G36*
X176486877Y-111531011D02*
X176557857Y-111616206D01*
X176650190Y-111597657D01*
X176747475Y-111492881D01*
X176833312Y-111319392D01*
X176890460Y-111099966D01*
X176904585Y-110945172D01*
X176872501Y-110880156D01*
X176823233Y-110871000D01*
X176734257Y-110925407D01*
X176634589Y-111060543D01*
X176545698Y-111234274D01*
X176489056Y-111404470D01*
X176486134Y-111528999D01*
X176486877Y-111531011D01*
X176486877Y-111531011D01*
G37*
X176486877Y-111531011D02*
X176557857Y-111616206D01*
X176650190Y-111597657D01*
X176747475Y-111492881D01*
X176833312Y-111319392D01*
X176890460Y-111099966D01*
X176904585Y-110945172D01*
X176872501Y-110880156D01*
X176823233Y-110871000D01*
X176734257Y-110925407D01*
X176634589Y-111060543D01*
X176545698Y-111234274D01*
X176489056Y-111404470D01*
X176486134Y-111528999D01*
X176486877Y-111531011D01*
G36*
X176183355Y-106861768D02*
X176268011Y-106843965D01*
X176334808Y-106780903D01*
X176373193Y-106686435D01*
X176342583Y-106650155D01*
X176233584Y-106640082D01*
X176158413Y-106722502D01*
X176149000Y-106778997D01*
X176183355Y-106861768D01*
X176183355Y-106861768D01*
G37*
X176183355Y-106861768D02*
X176268011Y-106843965D01*
X176334808Y-106780903D01*
X176373193Y-106686435D01*
X176342583Y-106650155D01*
X176233584Y-106640082D01*
X176158413Y-106722502D01*
X176149000Y-106778997D01*
X176183355Y-106861768D01*
G36*
X173512429Y-113277426D02*
X173596883Y-113312941D01*
X173725108Y-113231242D01*
X173733683Y-113222816D01*
X173828436Y-113073821D01*
X173861034Y-112907536D01*
X173825843Y-112773157D01*
X173789216Y-112737894D01*
X173700317Y-112746475D01*
X173600071Y-112838401D01*
X173517603Y-112976638D01*
X173482037Y-113124153D01*
X173482000Y-113128537D01*
X173512429Y-113277426D01*
X173512429Y-113277426D01*
G37*
X173512429Y-113277426D02*
X173596883Y-113312941D01*
X173725108Y-113231242D01*
X173733683Y-113222816D01*
X173828436Y-113073821D01*
X173861034Y-112907536D01*
X173825843Y-112773157D01*
X173789216Y-112737894D01*
X173700317Y-112746475D01*
X173600071Y-112838401D01*
X173517603Y-112976638D01*
X173482037Y-113124153D01*
X173482000Y-113128537D01*
X173512429Y-113277426D01*
G36*
X173186770Y-111872271D02*
X173243313Y-111948999D01*
X173318729Y-111905293D01*
X173397616Y-111739379D01*
X173408448Y-111705007D01*
X173468981Y-111461327D01*
X173472848Y-111308039D01*
X173420069Y-111221889D01*
X173408866Y-111214296D01*
X173317505Y-111216419D01*
X173236888Y-111318394D01*
X173181330Y-111493121D01*
X173164500Y-111676886D01*
X173186770Y-111872271D01*
X173186770Y-111872271D01*
G37*
X173186770Y-111872271D02*
X173243313Y-111948999D01*
X173318729Y-111905293D01*
X173397616Y-111739379D01*
X173408448Y-111705007D01*
X173468981Y-111461327D01*
X173472848Y-111308039D01*
X173420069Y-111221889D01*
X173408866Y-111214296D01*
X173317505Y-111216419D01*
X173236888Y-111318394D01*
X173181330Y-111493121D01*
X173164500Y-111676886D01*
X173186770Y-111872271D01*
G36*
X170192947Y-110075540D02*
X170237350Y-110240899D01*
X170319369Y-110291222D01*
X170428213Y-110228885D01*
X170553090Y-110056264D01*
X170589625Y-109988165D01*
X170690102Y-109786049D01*
X170736991Y-109668476D01*
X170734474Y-109606885D01*
X170686733Y-109572719D01*
X170652459Y-109559008D01*
X170537659Y-109576539D01*
X170384342Y-109683539D01*
X170363781Y-109702687D01*
X170230252Y-109864953D01*
X170190361Y-110024462D01*
X170192947Y-110075540D01*
X170192947Y-110075540D01*
G37*
X170192947Y-110075540D02*
X170237350Y-110240899D01*
X170319369Y-110291222D01*
X170428213Y-110228885D01*
X170553090Y-110056264D01*
X170589625Y-109988165D01*
X170690102Y-109786049D01*
X170736991Y-109668476D01*
X170734474Y-109606885D01*
X170686733Y-109572719D01*
X170652459Y-109559008D01*
X170537659Y-109576539D01*
X170384342Y-109683539D01*
X170363781Y-109702687D01*
X170230252Y-109864953D01*
X170190361Y-110024462D01*
X170192947Y-110075540D01*
G36*
X165214387Y-106737849D02*
X165250974Y-106743500D01*
X165352435Y-106706249D01*
X165432189Y-106625064D01*
X165448888Y-106545793D01*
X165440349Y-106533516D01*
X165359920Y-106527302D01*
X165250269Y-106577953D01*
X165172234Y-106652789D01*
X165163500Y-106682234D01*
X165214387Y-106737849D01*
X165214387Y-106737849D01*
G37*
X165214387Y-106737849D02*
X165250974Y-106743500D01*
X165352435Y-106706249D01*
X165432189Y-106625064D01*
X165448888Y-106545793D01*
X165440349Y-106533516D01*
X165359920Y-106527302D01*
X165250269Y-106577953D01*
X165172234Y-106652789D01*
X165163500Y-106682234D01*
X165214387Y-106737849D01*
M02*
