M48
;DRILL file {KiCad 4.0.2-stable} date Sunday, 04 December 2016 'pmt' 11:36:35 pm
;FORMAT={-:-/ absolute / metric / decimal}
FMAT,2
METRIC,TZ
T1C0.400
T2C0.650
T3C1.016
%
G90
G05
M71
T1
X140.335Y-84.455
X142.24Y-119.38
X142.475Y-87.63
X144.145Y-121.285
X147.955Y-121.285
X148.59Y-96.52
X149.225Y-97.79
X149.595Y-89.535
X154.305Y-121.285
X156.845Y-111.125
X163.83Y-110.605
X164.465Y-121.285
X166.37Y-80.645
X166.37Y-90.17
X168.275Y-121.92
X171.45Y-98.425
X172.085Y-126.365
X173.99Y-133.985
X174.625Y-121.285
T2
X142.845Y-67.945
X142.845Y-69.945
X142.845Y-71.945
X142.845Y-73.945
X142.845Y-75.945
X142.845Y-77.945
X142.845Y-79.945
X142.845Y-81.945
X156.845Y-67.945
X156.845Y-69.945
X156.845Y-71.945
X156.845Y-73.945
X156.845Y-75.945
X156.845Y-77.945
X156.845Y-79.945
X156.845Y-81.945
T3
X139.7Y-133.35
X142.24Y-133.35
X165.735Y-129.54
X165.735Y-132.08
X168.275Y-129.54
X168.275Y-132.08
X170.815Y-129.54
X170.815Y-132.08
X173.355Y-129.54
X173.355Y-132.08
X175.26Y-67.945
X175.26Y-70.485
X175.26Y-73.025
X175.26Y-75.565
X175.26Y-78.105
X175.26Y-80.645
X175.895Y-129.54
X175.895Y-132.08
T0
M30
