G04 #@! TF.FileFunction,Copper,L2,Bot,Signal*
%FSLAX46Y46*%
G04 Gerber Fmt 4.6, Leading zero omitted, Abs format (unit mm)*
G04 Created by KiCad (PCBNEW 4.0.2-stable) date Monday, 05 December 2016 'pmt' 11:41:00 pm*
%MOMM*%
G01*
G04 APERTURE LIST*
%ADD10C,0.100000*%
%ADD11R,2.032000X2.032000*%
%ADD12O,2.032000X2.032000*%
%ADD13R,1.727200X1.727200*%
%ADD14O,1.727200X1.727200*%
%ADD15R,2.032000X1.727200*%
%ADD16O,2.032000X1.727200*%
%ADD17R,2.500000X1.100000*%
%ADD18O,2.500000X1.100000*%
%ADD19C,0.600000*%
%ADD20C,0.300000*%
%ADD21C,0.254000*%
G04 APERTURE END LIST*
D10*
D11*
X139700000Y-133350000D03*
D12*
X142240000Y-133350000D03*
D13*
X165735000Y-132080000D03*
D14*
X165735000Y-129540000D03*
X168275000Y-132080000D03*
X168275000Y-129540000D03*
X170815000Y-132080000D03*
X170815000Y-129540000D03*
X173355000Y-132080000D03*
X173355000Y-129540000D03*
X175895000Y-132080000D03*
X175895000Y-129540000D03*
D15*
X175260000Y-67945000D03*
D16*
X175260000Y-70485000D03*
X175260000Y-73025000D03*
X175260000Y-75565000D03*
X175260000Y-78105000D03*
X175260000Y-80645000D03*
D17*
X142145000Y-67945000D03*
D18*
X142145000Y-69945000D03*
X142145000Y-71945000D03*
X142145000Y-73945000D03*
X142145000Y-75945000D03*
X142145000Y-77945000D03*
X142145000Y-79945000D03*
X142145000Y-81945000D03*
X157545000Y-81945000D03*
X157445000Y-79945000D03*
X157545000Y-77945000D03*
X157545000Y-75945000D03*
X157545000Y-73945000D03*
X157545000Y-71945000D03*
X157545000Y-69945000D03*
X157545000Y-67945000D03*
D19*
X167640000Y-125095000D03*
X171450000Y-98425000D03*
X144145000Y-121285000D03*
X154305000Y-121285000D03*
X164465000Y-121285000D03*
X174625000Y-121285000D03*
X142240000Y-119380000D03*
X173990000Y-133985000D03*
X149595000Y-89535000D03*
X148590000Y-96520000D03*
X163830000Y-110605000D03*
X149225000Y-97790000D03*
X156845000Y-111125000D03*
X140335000Y-84455000D03*
X142475002Y-87630000D03*
X166370000Y-80645000D03*
X166370000Y-90170000D03*
D20*
X153035000Y-122555000D02*
X154305000Y-121285000D01*
X146685000Y-122555000D02*
X153035000Y-122555000D01*
X145415000Y-121285000D02*
X146685000Y-122555000D01*
X144145000Y-121285000D02*
X145415000Y-121285000D01*
X174625000Y-121285000D02*
X173355000Y-120015000D01*
X173355000Y-120015000D02*
X171450000Y-118110000D01*
X171450000Y-118110000D02*
X171450000Y-98425000D01*
X168910000Y-120015000D02*
X173355000Y-120015000D01*
X167640000Y-121285000D02*
X168910000Y-120015000D01*
X164465000Y-121285000D02*
X167640000Y-121285000D01*
X154305000Y-121285000D02*
X164465000Y-121285000D01*
X148590000Y-133985000D02*
X173990000Y-133985000D01*
X173990000Y-133985000D02*
X175895000Y-132080000D01*
X146050000Y-131445000D02*
X148590000Y-133985000D01*
X140289000Y-131445000D02*
X146050000Y-131445000D01*
X139700000Y-133350000D02*
X139700000Y-132034000D01*
X139700000Y-132034000D02*
X140289000Y-131445000D01*
X149225000Y-95885000D02*
X149225000Y-89905000D01*
X149225000Y-89905000D02*
X149595000Y-89535000D01*
X148590000Y-96520000D02*
X149225000Y-95885000D01*
X163830000Y-94930000D02*
X163830000Y-110605000D01*
X142845000Y-73945000D02*
X163830000Y-94930000D01*
X149225000Y-97790000D02*
X151130000Y-95885000D01*
X151130000Y-95885000D02*
X151130000Y-86230000D01*
X151130000Y-86230000D02*
X142845000Y-77945000D01*
X156845000Y-111125000D02*
X143845010Y-98125010D01*
X143845010Y-98125010D02*
X143845010Y-80945010D01*
X143845010Y-80945010D02*
X142845000Y-79945000D01*
X138430000Y-82550000D02*
X140335000Y-84455000D01*
X138430000Y-69215000D02*
X138430000Y-82550000D01*
X139700000Y-67945000D02*
X138430000Y-69215000D01*
X142845000Y-67945000D02*
X139700000Y-67945000D01*
X142475002Y-87630000D02*
X142475002Y-84389229D01*
X140444990Y-82359217D02*
X140444990Y-72915010D01*
X142475002Y-84389229D02*
X140444990Y-82359217D01*
X140444990Y-72915010D02*
X141415000Y-71945000D01*
X141415000Y-71945000D02*
X142845000Y-71945000D01*
X166370000Y-90170000D02*
X166370000Y-80645000D01*
D21*
G36*
X178943000Y-134493000D02*
X174791463Y-134493000D01*
X174924838Y-134171799D01*
X174924848Y-134160310D01*
X175546517Y-133538641D01*
X175895000Y-133607959D01*
X176468489Y-133493885D01*
X176954670Y-133169029D01*
X177279526Y-132682848D01*
X177393600Y-132109359D01*
X177393600Y-132050641D01*
X177279526Y-131477152D01*
X176954670Y-130990971D01*
X176683839Y-130810008D01*
X177101821Y-130428490D01*
X177349968Y-129899027D01*
X177229469Y-129667000D01*
X176022000Y-129667000D01*
X176022000Y-129687000D01*
X175768000Y-129687000D01*
X175768000Y-129667000D01*
X173482000Y-129667000D01*
X173482000Y-129687000D01*
X173228000Y-129687000D01*
X173228000Y-129667000D01*
X173208000Y-129667000D01*
X173208000Y-129413000D01*
X173228000Y-129413000D01*
X173228000Y-128206183D01*
X173482000Y-128206183D01*
X173482000Y-129413000D01*
X175768000Y-129413000D01*
X175768000Y-128206183D01*
X176022000Y-128206183D01*
X176022000Y-129413000D01*
X177229469Y-129413000D01*
X177349968Y-129180973D01*
X177101821Y-128651510D01*
X176669947Y-128257312D01*
X176254026Y-128085042D01*
X176022000Y-128206183D01*
X175768000Y-128206183D01*
X175535974Y-128085042D01*
X175120053Y-128257312D01*
X174688179Y-128651510D01*
X174625000Y-128786313D01*
X174561821Y-128651510D01*
X174129947Y-128257312D01*
X173714026Y-128085042D01*
X173482000Y-128206183D01*
X173228000Y-128206183D01*
X172995974Y-128085042D01*
X172580053Y-128257312D01*
X172148179Y-128651510D01*
X172090664Y-128774228D01*
X171874670Y-128450971D01*
X171388489Y-128126115D01*
X170815000Y-128012041D01*
X170241511Y-128126115D01*
X169755330Y-128450971D01*
X169545000Y-128765752D01*
X169334670Y-128450971D01*
X168848489Y-128126115D01*
X168275000Y-128012041D01*
X167701511Y-128126115D01*
X167215330Y-128450971D01*
X167005000Y-128765752D01*
X166794670Y-128450971D01*
X166308489Y-128126115D01*
X165735000Y-128012041D01*
X165161511Y-128126115D01*
X164675330Y-128450971D01*
X164350474Y-128937152D01*
X164236400Y-129510641D01*
X164236400Y-129569359D01*
X164350474Y-130142848D01*
X164661574Y-130608442D01*
X164636083Y-130613238D01*
X164419959Y-130752310D01*
X164274969Y-130964510D01*
X164223960Y-131216400D01*
X164223960Y-132943600D01*
X164268238Y-133178917D01*
X164281805Y-133200000D01*
X148915158Y-133200000D01*
X146605079Y-130889921D01*
X146350407Y-130719755D01*
X146050000Y-130660000D01*
X140289000Y-130660000D01*
X139988594Y-130719755D01*
X139733921Y-130889921D01*
X139144921Y-131478921D01*
X139006181Y-131686560D01*
X138684000Y-131686560D01*
X138448683Y-131730838D01*
X138232559Y-131869910D01*
X138087569Y-132082110D01*
X138036560Y-132334000D01*
X138036560Y-134366000D01*
X138060457Y-134493000D01*
X137922000Y-134493000D01*
X137922000Y-121470167D01*
X143209838Y-121470167D01*
X143351883Y-121813943D01*
X143614673Y-122077192D01*
X143958201Y-122219838D01*
X144330167Y-122220162D01*
X144673943Y-122078117D01*
X144682074Y-122070000D01*
X145089842Y-122070000D01*
X146129921Y-123110079D01*
X146384593Y-123280245D01*
X146685000Y-123340000D01*
X153035000Y-123340000D01*
X153335407Y-123280245D01*
X153590079Y-123110079D01*
X154480005Y-122220153D01*
X154490167Y-122220162D01*
X154833943Y-122078117D01*
X154842074Y-122070000D01*
X163927494Y-122070000D01*
X163934673Y-122077192D01*
X164278201Y-122219838D01*
X164650167Y-122220162D01*
X164993943Y-122078117D01*
X165002074Y-122070000D01*
X167640000Y-122070000D01*
X167940407Y-122010245D01*
X168195079Y-121840079D01*
X169235158Y-120800000D01*
X173029842Y-120800000D01*
X173689847Y-121460005D01*
X173689838Y-121470167D01*
X173831883Y-121813943D01*
X174094673Y-122077192D01*
X174438201Y-122219838D01*
X174810167Y-122220162D01*
X175153943Y-122078117D01*
X175417192Y-121815327D01*
X175559838Y-121471799D01*
X175560162Y-121099833D01*
X175418117Y-120756057D01*
X175155327Y-120492808D01*
X174811799Y-120350162D01*
X174800310Y-120350152D01*
X172235000Y-117784842D01*
X172235000Y-98962506D01*
X172242192Y-98955327D01*
X172384838Y-98611799D01*
X172385162Y-98239833D01*
X172243117Y-97896057D01*
X171980327Y-97632808D01*
X171636799Y-97490162D01*
X171264833Y-97489838D01*
X170921057Y-97631883D01*
X170657808Y-97894673D01*
X170515162Y-98238201D01*
X170514838Y-98610167D01*
X170656883Y-98953943D01*
X170665000Y-98962074D01*
X170665000Y-118110000D01*
X170724755Y-118410407D01*
X170894921Y-118665079D01*
X171459842Y-119230000D01*
X168910000Y-119230000D01*
X168609593Y-119289755D01*
X168354921Y-119459921D01*
X167314842Y-120500000D01*
X165002506Y-120500000D01*
X164995327Y-120492808D01*
X164651799Y-120350162D01*
X164279833Y-120349838D01*
X163936057Y-120491883D01*
X163927926Y-120500000D01*
X154842506Y-120500000D01*
X154835327Y-120492808D01*
X154491799Y-120350162D01*
X154119833Y-120349838D01*
X153776057Y-120491883D01*
X153512808Y-120754673D01*
X153370162Y-121098201D01*
X153370152Y-121109690D01*
X152709842Y-121770000D01*
X147010158Y-121770000D01*
X145970079Y-120729921D01*
X145715407Y-120559755D01*
X145415000Y-120500000D01*
X144682506Y-120500000D01*
X144675327Y-120492808D01*
X144331799Y-120350162D01*
X143959833Y-120349838D01*
X143616057Y-120491883D01*
X143352808Y-120754673D01*
X143210162Y-121098201D01*
X143209838Y-121470167D01*
X137922000Y-121470167D01*
X137922000Y-83152158D01*
X139399847Y-84630005D01*
X139399838Y-84640167D01*
X139541883Y-84983943D01*
X139804673Y-85247192D01*
X140148201Y-85389838D01*
X140520167Y-85390162D01*
X140863943Y-85248117D01*
X141127192Y-84985327D01*
X141269838Y-84641799D01*
X141270140Y-84294525D01*
X141690002Y-84714386D01*
X141690002Y-87092494D01*
X141682810Y-87099673D01*
X141540164Y-87443201D01*
X141539840Y-87815167D01*
X141681885Y-88158943D01*
X141944675Y-88422192D01*
X142288203Y-88564838D01*
X142660169Y-88565162D01*
X143003945Y-88423117D01*
X143060010Y-88367150D01*
X143060010Y-98125010D01*
X143119765Y-98425417D01*
X143289931Y-98680089D01*
X155909847Y-111300005D01*
X155909838Y-111310167D01*
X156051883Y-111653943D01*
X156314673Y-111917192D01*
X156658201Y-112059838D01*
X157030167Y-112060162D01*
X157373943Y-111918117D01*
X157637192Y-111655327D01*
X157779838Y-111311799D01*
X157780162Y-110939833D01*
X157638117Y-110596057D01*
X157375327Y-110332808D01*
X157031799Y-110190162D01*
X157020310Y-110190152D01*
X144630010Y-97799852D01*
X144630010Y-80945010D01*
X144603977Y-80814135D01*
X150345000Y-86555158D01*
X150345000Y-88962865D01*
X150125327Y-88742808D01*
X149781799Y-88600162D01*
X149409833Y-88599838D01*
X149066057Y-88741883D01*
X148802808Y-89004673D01*
X148660162Y-89348201D01*
X148660148Y-89364548D01*
X148499755Y-89604593D01*
X148499755Y-89604594D01*
X148440000Y-89905000D01*
X148440000Y-95559842D01*
X148414995Y-95584847D01*
X148404833Y-95584838D01*
X148061057Y-95726883D01*
X147797808Y-95989673D01*
X147655162Y-96333201D01*
X147654838Y-96705167D01*
X147796883Y-97048943D01*
X148059673Y-97312192D01*
X148359332Y-97436622D01*
X148290162Y-97603201D01*
X148289838Y-97975167D01*
X148431883Y-98318943D01*
X148694673Y-98582192D01*
X149038201Y-98724838D01*
X149410167Y-98725162D01*
X149753943Y-98583117D01*
X150017192Y-98320327D01*
X150159838Y-97976799D01*
X150159848Y-97965310D01*
X151685079Y-96440079D01*
X151855245Y-96185406D01*
X151915000Y-95885000D01*
X151915000Y-86230000D01*
X151855245Y-85929594D01*
X151855245Y-85929593D01*
X151685079Y-85674921D01*
X144048385Y-78038227D01*
X144066929Y-77945000D01*
X143976726Y-77491520D01*
X143719851Y-77107078D01*
X143477283Y-76945000D01*
X143719851Y-76782922D01*
X143976726Y-76398480D01*
X144011832Y-76221990D01*
X163045000Y-95255158D01*
X163045000Y-110067494D01*
X163037808Y-110074673D01*
X162895162Y-110418201D01*
X162894838Y-110790167D01*
X163036883Y-111133943D01*
X163299673Y-111397192D01*
X163643201Y-111539838D01*
X164015167Y-111540162D01*
X164358943Y-111398117D01*
X164622192Y-111135327D01*
X164764838Y-110791799D01*
X164765162Y-110419833D01*
X164623117Y-110076057D01*
X164615000Y-110067926D01*
X164615000Y-94930005D01*
X164615001Y-94930000D01*
X164555245Y-94629594D01*
X164385079Y-94374921D01*
X152264902Y-82254744D01*
X155701197Y-82254744D01*
X155701602Y-82281146D01*
X155917276Y-82693118D01*
X156274187Y-82991196D01*
X156718000Y-83130000D01*
X157418000Y-83130000D01*
X157418000Y-82072000D01*
X157672000Y-82072000D01*
X157672000Y-83130000D01*
X158372000Y-83130000D01*
X158815813Y-82991196D01*
X159172724Y-82693118D01*
X159388398Y-82281146D01*
X159388803Y-82254744D01*
X159263361Y-82072000D01*
X157672000Y-82072000D01*
X157418000Y-82072000D01*
X155826639Y-82072000D01*
X155701197Y-82254744D01*
X152264902Y-82254744D01*
X149955158Y-79945000D01*
X155523071Y-79945000D01*
X155613274Y-80398480D01*
X155870149Y-80782922D01*
X156171691Y-80984405D01*
X155917276Y-81196882D01*
X155701602Y-81608854D01*
X155701197Y-81635256D01*
X155826639Y-81818000D01*
X157418000Y-81818000D01*
X157418000Y-81798000D01*
X157672000Y-81798000D01*
X157672000Y-81818000D01*
X159263361Y-81818000D01*
X159388803Y-81635256D01*
X159388398Y-81608854D01*
X159172724Y-81196882D01*
X158829417Y-80910165D01*
X158949143Y-80830167D01*
X165434838Y-80830167D01*
X165576883Y-81173943D01*
X165585000Y-81182074D01*
X165585000Y-89632494D01*
X165577808Y-89639673D01*
X165435162Y-89983201D01*
X165434838Y-90355167D01*
X165576883Y-90698943D01*
X165839673Y-90962192D01*
X166183201Y-91104838D01*
X166555167Y-91105162D01*
X166898943Y-90963117D01*
X167162192Y-90700327D01*
X167304838Y-90356799D01*
X167305162Y-89984833D01*
X167163117Y-89641057D01*
X167155000Y-89632926D01*
X167155000Y-81182506D01*
X167162192Y-81175327D01*
X167233322Y-81004026D01*
X173652642Y-81004026D01*
X173655291Y-81019791D01*
X173909268Y-81547036D01*
X174345680Y-81936954D01*
X174898087Y-82130184D01*
X175133000Y-81985924D01*
X175133000Y-80772000D01*
X175387000Y-80772000D01*
X175387000Y-81985924D01*
X175621913Y-82130184D01*
X176174320Y-81936954D01*
X176610732Y-81547036D01*
X176864709Y-81019791D01*
X176867358Y-81004026D01*
X176746217Y-80772000D01*
X175387000Y-80772000D01*
X175133000Y-80772000D01*
X173773783Y-80772000D01*
X173652642Y-81004026D01*
X167233322Y-81004026D01*
X167304838Y-80831799D01*
X167305162Y-80459833D01*
X167163117Y-80116057D01*
X166900327Y-79852808D01*
X166556799Y-79710162D01*
X166184833Y-79709838D01*
X165841057Y-79851883D01*
X165577808Y-80114673D01*
X165435162Y-80458201D01*
X165434838Y-80830167D01*
X158949143Y-80830167D01*
X159019851Y-80782922D01*
X159276726Y-80398480D01*
X159366929Y-79945000D01*
X159276726Y-79491520D01*
X159019851Y-79107078D01*
X158827283Y-78978409D01*
X159119851Y-78782922D01*
X159376726Y-78398480D01*
X159466929Y-77945000D01*
X159376726Y-77491520D01*
X159119851Y-77107078D01*
X158877283Y-76945000D01*
X159119851Y-76782922D01*
X159376726Y-76398480D01*
X159466929Y-75945000D01*
X159376726Y-75491520D01*
X159119851Y-75107078D01*
X158877283Y-74945000D01*
X159119851Y-74782922D01*
X159376726Y-74398480D01*
X159466929Y-73945000D01*
X159376726Y-73491520D01*
X159119851Y-73107078D01*
X158877283Y-72945000D01*
X159119851Y-72782922D01*
X159376726Y-72398480D01*
X159466929Y-71945000D01*
X159376726Y-71491520D01*
X159119851Y-71107078D01*
X158877283Y-70945000D01*
X159119851Y-70782922D01*
X159318915Y-70485000D01*
X173576655Y-70485000D01*
X173690729Y-71058489D01*
X174015585Y-71544670D01*
X174330366Y-71755000D01*
X174015585Y-71965330D01*
X173690729Y-72451511D01*
X173576655Y-73025000D01*
X173690729Y-73598489D01*
X174015585Y-74084670D01*
X174330366Y-74295000D01*
X174015585Y-74505330D01*
X173690729Y-74991511D01*
X173576655Y-75565000D01*
X173690729Y-76138489D01*
X174015585Y-76624670D01*
X174330366Y-76835000D01*
X174015585Y-77045330D01*
X173690729Y-77531511D01*
X173576655Y-78105000D01*
X173690729Y-78678489D01*
X174015585Y-79164670D01*
X174325069Y-79371461D01*
X173909268Y-79742964D01*
X173655291Y-80270209D01*
X173652642Y-80285974D01*
X173773783Y-80518000D01*
X175133000Y-80518000D01*
X175133000Y-80498000D01*
X175387000Y-80498000D01*
X175387000Y-80518000D01*
X176746217Y-80518000D01*
X176867358Y-80285974D01*
X176864709Y-80270209D01*
X176610732Y-79742964D01*
X176194931Y-79371461D01*
X176504415Y-79164670D01*
X176829271Y-78678489D01*
X176943345Y-78105000D01*
X176829271Y-77531511D01*
X176504415Y-77045330D01*
X176189634Y-76835000D01*
X176504415Y-76624670D01*
X176829271Y-76138489D01*
X176943345Y-75565000D01*
X176829271Y-74991511D01*
X176504415Y-74505330D01*
X176189634Y-74295000D01*
X176504415Y-74084670D01*
X176829271Y-73598489D01*
X176943345Y-73025000D01*
X176829271Y-72451511D01*
X176504415Y-71965330D01*
X176189634Y-71755000D01*
X176504415Y-71544670D01*
X176829271Y-71058489D01*
X176943345Y-70485000D01*
X176829271Y-69911511D01*
X176504415Y-69425330D01*
X176490087Y-69415757D01*
X176511317Y-69411762D01*
X176727441Y-69272690D01*
X176872431Y-69060490D01*
X176923440Y-68808600D01*
X176923440Y-67081400D01*
X176879162Y-66846083D01*
X176740090Y-66629959D01*
X176527890Y-66484969D01*
X176276000Y-66433960D01*
X174244000Y-66433960D01*
X174008683Y-66478238D01*
X173792559Y-66617310D01*
X173647569Y-66829510D01*
X173596560Y-67081400D01*
X173596560Y-68808600D01*
X173640838Y-69043917D01*
X173779910Y-69260041D01*
X173992110Y-69405031D01*
X174033439Y-69413400D01*
X174015585Y-69425330D01*
X173690729Y-69911511D01*
X173576655Y-70485000D01*
X159318915Y-70485000D01*
X159376726Y-70398480D01*
X159466929Y-69945000D01*
X159376726Y-69491520D01*
X159119851Y-69107078D01*
X158877283Y-68945000D01*
X159119851Y-68782922D01*
X159376726Y-68398480D01*
X159466929Y-67945000D01*
X159376726Y-67491520D01*
X159119851Y-67107078D01*
X158735409Y-66850203D01*
X158281929Y-66760000D01*
X156808071Y-66760000D01*
X156354591Y-66850203D01*
X155970149Y-67107078D01*
X155713274Y-67491520D01*
X155623071Y-67945000D01*
X155713274Y-68398480D01*
X155970149Y-68782922D01*
X156212717Y-68945000D01*
X155970149Y-69107078D01*
X155713274Y-69491520D01*
X155623071Y-69945000D01*
X155713274Y-70398480D01*
X155970149Y-70782922D01*
X156212717Y-70945000D01*
X155970149Y-71107078D01*
X155713274Y-71491520D01*
X155623071Y-71945000D01*
X155713274Y-72398480D01*
X155970149Y-72782922D01*
X156212717Y-72945000D01*
X155970149Y-73107078D01*
X155713274Y-73491520D01*
X155623071Y-73945000D01*
X155713274Y-74398480D01*
X155970149Y-74782922D01*
X156212717Y-74945000D01*
X155970149Y-75107078D01*
X155713274Y-75491520D01*
X155623071Y-75945000D01*
X155713274Y-76398480D01*
X155970149Y-76782922D01*
X156212717Y-76945000D01*
X155970149Y-77107078D01*
X155713274Y-77491520D01*
X155623071Y-77945000D01*
X155713274Y-78398480D01*
X155970149Y-78782922D01*
X156162717Y-78911591D01*
X155870149Y-79107078D01*
X155613274Y-79491520D01*
X155523071Y-79945000D01*
X149955158Y-79945000D01*
X144048385Y-74038227D01*
X144066929Y-73945000D01*
X143976726Y-73491520D01*
X143719851Y-73107078D01*
X143477283Y-72945000D01*
X143719851Y-72782922D01*
X143976726Y-72398480D01*
X144066929Y-71945000D01*
X143976726Y-71491520D01*
X143719851Y-71107078D01*
X143477283Y-70945000D01*
X143719851Y-70782922D01*
X143976726Y-70398480D01*
X144066929Y-69945000D01*
X143976726Y-69491520D01*
X143719851Y-69107078D01*
X143669129Y-69073187D01*
X143846441Y-68959090D01*
X143991431Y-68746890D01*
X144042440Y-68495000D01*
X144042440Y-67395000D01*
X143998162Y-67159683D01*
X143859090Y-66943559D01*
X143646890Y-66798569D01*
X143395000Y-66747560D01*
X140895000Y-66747560D01*
X140659683Y-66791838D01*
X140443559Y-66930910D01*
X140298569Y-67143110D01*
X140295149Y-67160000D01*
X139700000Y-67160000D01*
X139399593Y-67219755D01*
X139144921Y-67389921D01*
X137922000Y-68612842D01*
X137922000Y-64262000D01*
X178943000Y-64262000D01*
X178943000Y-134493000D01*
X178943000Y-134493000D01*
G37*
X178943000Y-134493000D02*
X174791463Y-134493000D01*
X174924838Y-134171799D01*
X174924848Y-134160310D01*
X175546517Y-133538641D01*
X175895000Y-133607959D01*
X176468489Y-133493885D01*
X176954670Y-133169029D01*
X177279526Y-132682848D01*
X177393600Y-132109359D01*
X177393600Y-132050641D01*
X177279526Y-131477152D01*
X176954670Y-130990971D01*
X176683839Y-130810008D01*
X177101821Y-130428490D01*
X177349968Y-129899027D01*
X177229469Y-129667000D01*
X176022000Y-129667000D01*
X176022000Y-129687000D01*
X175768000Y-129687000D01*
X175768000Y-129667000D01*
X173482000Y-129667000D01*
X173482000Y-129687000D01*
X173228000Y-129687000D01*
X173228000Y-129667000D01*
X173208000Y-129667000D01*
X173208000Y-129413000D01*
X173228000Y-129413000D01*
X173228000Y-128206183D01*
X173482000Y-128206183D01*
X173482000Y-129413000D01*
X175768000Y-129413000D01*
X175768000Y-128206183D01*
X176022000Y-128206183D01*
X176022000Y-129413000D01*
X177229469Y-129413000D01*
X177349968Y-129180973D01*
X177101821Y-128651510D01*
X176669947Y-128257312D01*
X176254026Y-128085042D01*
X176022000Y-128206183D01*
X175768000Y-128206183D01*
X175535974Y-128085042D01*
X175120053Y-128257312D01*
X174688179Y-128651510D01*
X174625000Y-128786313D01*
X174561821Y-128651510D01*
X174129947Y-128257312D01*
X173714026Y-128085042D01*
X173482000Y-128206183D01*
X173228000Y-128206183D01*
X172995974Y-128085042D01*
X172580053Y-128257312D01*
X172148179Y-128651510D01*
X172090664Y-128774228D01*
X171874670Y-128450971D01*
X171388489Y-128126115D01*
X170815000Y-128012041D01*
X170241511Y-128126115D01*
X169755330Y-128450971D01*
X169545000Y-128765752D01*
X169334670Y-128450971D01*
X168848489Y-128126115D01*
X168275000Y-128012041D01*
X167701511Y-128126115D01*
X167215330Y-128450971D01*
X167005000Y-128765752D01*
X166794670Y-128450971D01*
X166308489Y-128126115D01*
X165735000Y-128012041D01*
X165161511Y-128126115D01*
X164675330Y-128450971D01*
X164350474Y-128937152D01*
X164236400Y-129510641D01*
X164236400Y-129569359D01*
X164350474Y-130142848D01*
X164661574Y-130608442D01*
X164636083Y-130613238D01*
X164419959Y-130752310D01*
X164274969Y-130964510D01*
X164223960Y-131216400D01*
X164223960Y-132943600D01*
X164268238Y-133178917D01*
X164281805Y-133200000D01*
X148915158Y-133200000D01*
X146605079Y-130889921D01*
X146350407Y-130719755D01*
X146050000Y-130660000D01*
X140289000Y-130660000D01*
X139988594Y-130719755D01*
X139733921Y-130889921D01*
X139144921Y-131478921D01*
X139006181Y-131686560D01*
X138684000Y-131686560D01*
X138448683Y-131730838D01*
X138232559Y-131869910D01*
X138087569Y-132082110D01*
X138036560Y-132334000D01*
X138036560Y-134366000D01*
X138060457Y-134493000D01*
X137922000Y-134493000D01*
X137922000Y-121470167D01*
X143209838Y-121470167D01*
X143351883Y-121813943D01*
X143614673Y-122077192D01*
X143958201Y-122219838D01*
X144330167Y-122220162D01*
X144673943Y-122078117D01*
X144682074Y-122070000D01*
X145089842Y-122070000D01*
X146129921Y-123110079D01*
X146384593Y-123280245D01*
X146685000Y-123340000D01*
X153035000Y-123340000D01*
X153335407Y-123280245D01*
X153590079Y-123110079D01*
X154480005Y-122220153D01*
X154490167Y-122220162D01*
X154833943Y-122078117D01*
X154842074Y-122070000D01*
X163927494Y-122070000D01*
X163934673Y-122077192D01*
X164278201Y-122219838D01*
X164650167Y-122220162D01*
X164993943Y-122078117D01*
X165002074Y-122070000D01*
X167640000Y-122070000D01*
X167940407Y-122010245D01*
X168195079Y-121840079D01*
X169235158Y-120800000D01*
X173029842Y-120800000D01*
X173689847Y-121460005D01*
X173689838Y-121470167D01*
X173831883Y-121813943D01*
X174094673Y-122077192D01*
X174438201Y-122219838D01*
X174810167Y-122220162D01*
X175153943Y-122078117D01*
X175417192Y-121815327D01*
X175559838Y-121471799D01*
X175560162Y-121099833D01*
X175418117Y-120756057D01*
X175155327Y-120492808D01*
X174811799Y-120350162D01*
X174800310Y-120350152D01*
X172235000Y-117784842D01*
X172235000Y-98962506D01*
X172242192Y-98955327D01*
X172384838Y-98611799D01*
X172385162Y-98239833D01*
X172243117Y-97896057D01*
X171980327Y-97632808D01*
X171636799Y-97490162D01*
X171264833Y-97489838D01*
X170921057Y-97631883D01*
X170657808Y-97894673D01*
X170515162Y-98238201D01*
X170514838Y-98610167D01*
X170656883Y-98953943D01*
X170665000Y-98962074D01*
X170665000Y-118110000D01*
X170724755Y-118410407D01*
X170894921Y-118665079D01*
X171459842Y-119230000D01*
X168910000Y-119230000D01*
X168609593Y-119289755D01*
X168354921Y-119459921D01*
X167314842Y-120500000D01*
X165002506Y-120500000D01*
X164995327Y-120492808D01*
X164651799Y-120350162D01*
X164279833Y-120349838D01*
X163936057Y-120491883D01*
X163927926Y-120500000D01*
X154842506Y-120500000D01*
X154835327Y-120492808D01*
X154491799Y-120350162D01*
X154119833Y-120349838D01*
X153776057Y-120491883D01*
X153512808Y-120754673D01*
X153370162Y-121098201D01*
X153370152Y-121109690D01*
X152709842Y-121770000D01*
X147010158Y-121770000D01*
X145970079Y-120729921D01*
X145715407Y-120559755D01*
X145415000Y-120500000D01*
X144682506Y-120500000D01*
X144675327Y-120492808D01*
X144331799Y-120350162D01*
X143959833Y-120349838D01*
X143616057Y-120491883D01*
X143352808Y-120754673D01*
X143210162Y-121098201D01*
X143209838Y-121470167D01*
X137922000Y-121470167D01*
X137922000Y-83152158D01*
X139399847Y-84630005D01*
X139399838Y-84640167D01*
X139541883Y-84983943D01*
X139804673Y-85247192D01*
X140148201Y-85389838D01*
X140520167Y-85390162D01*
X140863943Y-85248117D01*
X141127192Y-84985327D01*
X141269838Y-84641799D01*
X141270140Y-84294525D01*
X141690002Y-84714386D01*
X141690002Y-87092494D01*
X141682810Y-87099673D01*
X141540164Y-87443201D01*
X141539840Y-87815167D01*
X141681885Y-88158943D01*
X141944675Y-88422192D01*
X142288203Y-88564838D01*
X142660169Y-88565162D01*
X143003945Y-88423117D01*
X143060010Y-88367150D01*
X143060010Y-98125010D01*
X143119765Y-98425417D01*
X143289931Y-98680089D01*
X155909847Y-111300005D01*
X155909838Y-111310167D01*
X156051883Y-111653943D01*
X156314673Y-111917192D01*
X156658201Y-112059838D01*
X157030167Y-112060162D01*
X157373943Y-111918117D01*
X157637192Y-111655327D01*
X157779838Y-111311799D01*
X157780162Y-110939833D01*
X157638117Y-110596057D01*
X157375327Y-110332808D01*
X157031799Y-110190162D01*
X157020310Y-110190152D01*
X144630010Y-97799852D01*
X144630010Y-80945010D01*
X144603977Y-80814135D01*
X150345000Y-86555158D01*
X150345000Y-88962865D01*
X150125327Y-88742808D01*
X149781799Y-88600162D01*
X149409833Y-88599838D01*
X149066057Y-88741883D01*
X148802808Y-89004673D01*
X148660162Y-89348201D01*
X148660148Y-89364548D01*
X148499755Y-89604593D01*
X148499755Y-89604594D01*
X148440000Y-89905000D01*
X148440000Y-95559842D01*
X148414995Y-95584847D01*
X148404833Y-95584838D01*
X148061057Y-95726883D01*
X147797808Y-95989673D01*
X147655162Y-96333201D01*
X147654838Y-96705167D01*
X147796883Y-97048943D01*
X148059673Y-97312192D01*
X148359332Y-97436622D01*
X148290162Y-97603201D01*
X148289838Y-97975167D01*
X148431883Y-98318943D01*
X148694673Y-98582192D01*
X149038201Y-98724838D01*
X149410167Y-98725162D01*
X149753943Y-98583117D01*
X150017192Y-98320327D01*
X150159838Y-97976799D01*
X150159848Y-97965310D01*
X151685079Y-96440079D01*
X151855245Y-96185406D01*
X151915000Y-95885000D01*
X151915000Y-86230000D01*
X151855245Y-85929594D01*
X151855245Y-85929593D01*
X151685079Y-85674921D01*
X144048385Y-78038227D01*
X144066929Y-77945000D01*
X143976726Y-77491520D01*
X143719851Y-77107078D01*
X143477283Y-76945000D01*
X143719851Y-76782922D01*
X143976726Y-76398480D01*
X144011832Y-76221990D01*
X163045000Y-95255158D01*
X163045000Y-110067494D01*
X163037808Y-110074673D01*
X162895162Y-110418201D01*
X162894838Y-110790167D01*
X163036883Y-111133943D01*
X163299673Y-111397192D01*
X163643201Y-111539838D01*
X164015167Y-111540162D01*
X164358943Y-111398117D01*
X164622192Y-111135327D01*
X164764838Y-110791799D01*
X164765162Y-110419833D01*
X164623117Y-110076057D01*
X164615000Y-110067926D01*
X164615000Y-94930005D01*
X164615001Y-94930000D01*
X164555245Y-94629594D01*
X164385079Y-94374921D01*
X152264902Y-82254744D01*
X155701197Y-82254744D01*
X155701602Y-82281146D01*
X155917276Y-82693118D01*
X156274187Y-82991196D01*
X156718000Y-83130000D01*
X157418000Y-83130000D01*
X157418000Y-82072000D01*
X157672000Y-82072000D01*
X157672000Y-83130000D01*
X158372000Y-83130000D01*
X158815813Y-82991196D01*
X159172724Y-82693118D01*
X159388398Y-82281146D01*
X159388803Y-82254744D01*
X159263361Y-82072000D01*
X157672000Y-82072000D01*
X157418000Y-82072000D01*
X155826639Y-82072000D01*
X155701197Y-82254744D01*
X152264902Y-82254744D01*
X149955158Y-79945000D01*
X155523071Y-79945000D01*
X155613274Y-80398480D01*
X155870149Y-80782922D01*
X156171691Y-80984405D01*
X155917276Y-81196882D01*
X155701602Y-81608854D01*
X155701197Y-81635256D01*
X155826639Y-81818000D01*
X157418000Y-81818000D01*
X157418000Y-81798000D01*
X157672000Y-81798000D01*
X157672000Y-81818000D01*
X159263361Y-81818000D01*
X159388803Y-81635256D01*
X159388398Y-81608854D01*
X159172724Y-81196882D01*
X158829417Y-80910165D01*
X158949143Y-80830167D01*
X165434838Y-80830167D01*
X165576883Y-81173943D01*
X165585000Y-81182074D01*
X165585000Y-89632494D01*
X165577808Y-89639673D01*
X165435162Y-89983201D01*
X165434838Y-90355167D01*
X165576883Y-90698943D01*
X165839673Y-90962192D01*
X166183201Y-91104838D01*
X166555167Y-91105162D01*
X166898943Y-90963117D01*
X167162192Y-90700327D01*
X167304838Y-90356799D01*
X167305162Y-89984833D01*
X167163117Y-89641057D01*
X167155000Y-89632926D01*
X167155000Y-81182506D01*
X167162192Y-81175327D01*
X167233322Y-81004026D01*
X173652642Y-81004026D01*
X173655291Y-81019791D01*
X173909268Y-81547036D01*
X174345680Y-81936954D01*
X174898087Y-82130184D01*
X175133000Y-81985924D01*
X175133000Y-80772000D01*
X175387000Y-80772000D01*
X175387000Y-81985924D01*
X175621913Y-82130184D01*
X176174320Y-81936954D01*
X176610732Y-81547036D01*
X176864709Y-81019791D01*
X176867358Y-81004026D01*
X176746217Y-80772000D01*
X175387000Y-80772000D01*
X175133000Y-80772000D01*
X173773783Y-80772000D01*
X173652642Y-81004026D01*
X167233322Y-81004026D01*
X167304838Y-80831799D01*
X167305162Y-80459833D01*
X167163117Y-80116057D01*
X166900327Y-79852808D01*
X166556799Y-79710162D01*
X166184833Y-79709838D01*
X165841057Y-79851883D01*
X165577808Y-80114673D01*
X165435162Y-80458201D01*
X165434838Y-80830167D01*
X158949143Y-80830167D01*
X159019851Y-80782922D01*
X159276726Y-80398480D01*
X159366929Y-79945000D01*
X159276726Y-79491520D01*
X159019851Y-79107078D01*
X158827283Y-78978409D01*
X159119851Y-78782922D01*
X159376726Y-78398480D01*
X159466929Y-77945000D01*
X159376726Y-77491520D01*
X159119851Y-77107078D01*
X158877283Y-76945000D01*
X159119851Y-76782922D01*
X159376726Y-76398480D01*
X159466929Y-75945000D01*
X159376726Y-75491520D01*
X159119851Y-75107078D01*
X158877283Y-74945000D01*
X159119851Y-74782922D01*
X159376726Y-74398480D01*
X159466929Y-73945000D01*
X159376726Y-73491520D01*
X159119851Y-73107078D01*
X158877283Y-72945000D01*
X159119851Y-72782922D01*
X159376726Y-72398480D01*
X159466929Y-71945000D01*
X159376726Y-71491520D01*
X159119851Y-71107078D01*
X158877283Y-70945000D01*
X159119851Y-70782922D01*
X159318915Y-70485000D01*
X173576655Y-70485000D01*
X173690729Y-71058489D01*
X174015585Y-71544670D01*
X174330366Y-71755000D01*
X174015585Y-71965330D01*
X173690729Y-72451511D01*
X173576655Y-73025000D01*
X173690729Y-73598489D01*
X174015585Y-74084670D01*
X174330366Y-74295000D01*
X174015585Y-74505330D01*
X173690729Y-74991511D01*
X173576655Y-75565000D01*
X173690729Y-76138489D01*
X174015585Y-76624670D01*
X174330366Y-76835000D01*
X174015585Y-77045330D01*
X173690729Y-77531511D01*
X173576655Y-78105000D01*
X173690729Y-78678489D01*
X174015585Y-79164670D01*
X174325069Y-79371461D01*
X173909268Y-79742964D01*
X173655291Y-80270209D01*
X173652642Y-80285974D01*
X173773783Y-80518000D01*
X175133000Y-80518000D01*
X175133000Y-80498000D01*
X175387000Y-80498000D01*
X175387000Y-80518000D01*
X176746217Y-80518000D01*
X176867358Y-80285974D01*
X176864709Y-80270209D01*
X176610732Y-79742964D01*
X176194931Y-79371461D01*
X176504415Y-79164670D01*
X176829271Y-78678489D01*
X176943345Y-78105000D01*
X176829271Y-77531511D01*
X176504415Y-77045330D01*
X176189634Y-76835000D01*
X176504415Y-76624670D01*
X176829271Y-76138489D01*
X176943345Y-75565000D01*
X176829271Y-74991511D01*
X176504415Y-74505330D01*
X176189634Y-74295000D01*
X176504415Y-74084670D01*
X176829271Y-73598489D01*
X176943345Y-73025000D01*
X176829271Y-72451511D01*
X176504415Y-71965330D01*
X176189634Y-71755000D01*
X176504415Y-71544670D01*
X176829271Y-71058489D01*
X176943345Y-70485000D01*
X176829271Y-69911511D01*
X176504415Y-69425330D01*
X176490087Y-69415757D01*
X176511317Y-69411762D01*
X176727441Y-69272690D01*
X176872431Y-69060490D01*
X176923440Y-68808600D01*
X176923440Y-67081400D01*
X176879162Y-66846083D01*
X176740090Y-66629959D01*
X176527890Y-66484969D01*
X176276000Y-66433960D01*
X174244000Y-66433960D01*
X174008683Y-66478238D01*
X173792559Y-66617310D01*
X173647569Y-66829510D01*
X173596560Y-67081400D01*
X173596560Y-68808600D01*
X173640838Y-69043917D01*
X173779910Y-69260041D01*
X173992110Y-69405031D01*
X174033439Y-69413400D01*
X174015585Y-69425330D01*
X173690729Y-69911511D01*
X173576655Y-70485000D01*
X159318915Y-70485000D01*
X159376726Y-70398480D01*
X159466929Y-69945000D01*
X159376726Y-69491520D01*
X159119851Y-69107078D01*
X158877283Y-68945000D01*
X159119851Y-68782922D01*
X159376726Y-68398480D01*
X159466929Y-67945000D01*
X159376726Y-67491520D01*
X159119851Y-67107078D01*
X158735409Y-66850203D01*
X158281929Y-66760000D01*
X156808071Y-66760000D01*
X156354591Y-66850203D01*
X155970149Y-67107078D01*
X155713274Y-67491520D01*
X155623071Y-67945000D01*
X155713274Y-68398480D01*
X155970149Y-68782922D01*
X156212717Y-68945000D01*
X155970149Y-69107078D01*
X155713274Y-69491520D01*
X155623071Y-69945000D01*
X155713274Y-70398480D01*
X155970149Y-70782922D01*
X156212717Y-70945000D01*
X155970149Y-71107078D01*
X155713274Y-71491520D01*
X155623071Y-71945000D01*
X155713274Y-72398480D01*
X155970149Y-72782922D01*
X156212717Y-72945000D01*
X155970149Y-73107078D01*
X155713274Y-73491520D01*
X155623071Y-73945000D01*
X155713274Y-74398480D01*
X155970149Y-74782922D01*
X156212717Y-74945000D01*
X155970149Y-75107078D01*
X155713274Y-75491520D01*
X155623071Y-75945000D01*
X155713274Y-76398480D01*
X155970149Y-76782922D01*
X156212717Y-76945000D01*
X155970149Y-77107078D01*
X155713274Y-77491520D01*
X155623071Y-77945000D01*
X155713274Y-78398480D01*
X155970149Y-78782922D01*
X156162717Y-78911591D01*
X155870149Y-79107078D01*
X155613274Y-79491520D01*
X155523071Y-79945000D01*
X149955158Y-79945000D01*
X144048385Y-74038227D01*
X144066929Y-73945000D01*
X143976726Y-73491520D01*
X143719851Y-73107078D01*
X143477283Y-72945000D01*
X143719851Y-72782922D01*
X143976726Y-72398480D01*
X144066929Y-71945000D01*
X143976726Y-71491520D01*
X143719851Y-71107078D01*
X143477283Y-70945000D01*
X143719851Y-70782922D01*
X143976726Y-70398480D01*
X144066929Y-69945000D01*
X143976726Y-69491520D01*
X143719851Y-69107078D01*
X143669129Y-69073187D01*
X143846441Y-68959090D01*
X143991431Y-68746890D01*
X144042440Y-68495000D01*
X144042440Y-67395000D01*
X143998162Y-67159683D01*
X143859090Y-66943559D01*
X143646890Y-66798569D01*
X143395000Y-66747560D01*
X140895000Y-66747560D01*
X140659683Y-66791838D01*
X140443559Y-66930910D01*
X140298569Y-67143110D01*
X140295149Y-67160000D01*
X139700000Y-67160000D01*
X139399593Y-67219755D01*
X139144921Y-67389921D01*
X137922000Y-68612842D01*
X137922000Y-64262000D01*
X178943000Y-64262000D01*
X178943000Y-134493000D01*
G36*
X147987842Y-134493000D02*
X143388867Y-134493000D01*
X143577188Y-134318379D01*
X143845983Y-133732946D01*
X143727367Y-133477000D01*
X142367000Y-133477000D01*
X142367000Y-133497000D01*
X142113000Y-133497000D01*
X142113000Y-133477000D01*
X142093000Y-133477000D01*
X142093000Y-133223000D01*
X142113000Y-133223000D01*
X142113000Y-133203000D01*
X142367000Y-133203000D01*
X142367000Y-133223000D01*
X143727367Y-133223000D01*
X143845983Y-132967054D01*
X143577188Y-132381621D01*
X143413671Y-132230000D01*
X145724842Y-132230000D01*
X147987842Y-134493000D01*
X147987842Y-134493000D01*
G37*
X147987842Y-134493000D02*
X143388867Y-134493000D01*
X143577188Y-134318379D01*
X143845983Y-133732946D01*
X143727367Y-133477000D01*
X142367000Y-133477000D01*
X142367000Y-133497000D01*
X142113000Y-133497000D01*
X142113000Y-133477000D01*
X142093000Y-133477000D01*
X142093000Y-133223000D01*
X142113000Y-133223000D01*
X142113000Y-133203000D01*
X142367000Y-133203000D01*
X142367000Y-133223000D01*
X143727367Y-133223000D01*
X143845983Y-132967054D01*
X143577188Y-132381621D01*
X143413671Y-132230000D01*
X145724842Y-132230000D01*
X147987842Y-134493000D01*
M02*
