G04 #@! TF.FileFunction,Legend,Bot*
%FSLAX46Y46*%
G04 Gerber Fmt 4.6, Leading zero omitted, Abs format (unit mm)*
G04 Created by KiCad (PCBNEW 4.0.4-stable) date Saturday, 10 December 2016 'PMt' 11:42:13 PM*
%MOMM*%
%LPD*%
G01*
G04 APERTURE LIST*
%ADD10C,0.100000*%
%ADD11C,0.300000*%
%ADD12C,0.010000*%
G04 APERTURE END LIST*
D10*
D11*
X165699286Y-65580000D02*
X165627857Y-65508572D01*
X165556429Y-65365715D01*
X165556429Y-65222857D01*
X165627857Y-65080000D01*
X165699286Y-65008572D01*
X165842143Y-64937143D01*
X165985000Y-64937143D01*
X166127857Y-65008572D01*
X166199286Y-65080000D01*
X166270714Y-65222857D01*
X166270714Y-65365715D01*
X166199286Y-65508572D01*
X166127857Y-65580000D01*
X165556429Y-65580000D02*
X166127857Y-65580000D01*
X166199286Y-65651429D01*
X166199286Y-65722857D01*
X166127857Y-65865715D01*
X165985000Y-65937143D01*
X165627857Y-65937143D01*
X165413571Y-65794286D01*
X165270714Y-65580000D01*
X165199286Y-65294286D01*
X165270714Y-65008572D01*
X165413571Y-64794286D01*
X165627857Y-64651429D01*
X165913571Y-64580000D01*
X166199286Y-64651429D01*
X166413571Y-64794286D01*
X166556429Y-65008572D01*
X166627857Y-65294286D01*
X166556429Y-65580000D01*
X166413571Y-65794286D01*
X166413571Y-66580000D02*
X164913571Y-66580000D01*
X165485000Y-66580000D02*
X165413571Y-66722857D01*
X165413571Y-67008571D01*
X165485000Y-67151428D01*
X165556429Y-67222857D01*
X165699286Y-67294286D01*
X166127857Y-67294286D01*
X166270714Y-67222857D01*
X166342143Y-67151428D01*
X166413571Y-67008571D01*
X166413571Y-66722857D01*
X166342143Y-66580000D01*
X165413571Y-67937143D02*
X166699286Y-67937143D01*
X166842143Y-67865714D01*
X166913571Y-67722857D01*
X166913571Y-67651429D01*
X164913571Y-67937143D02*
X164985000Y-67865714D01*
X165056429Y-67937143D01*
X164985000Y-68008571D01*
X164913571Y-67937143D01*
X165056429Y-67937143D01*
X166413571Y-68651429D02*
X165413571Y-68651429D01*
X165556429Y-68651429D02*
X165485000Y-68722857D01*
X165413571Y-68865715D01*
X165413571Y-69080000D01*
X165485000Y-69222857D01*
X165627857Y-69294286D01*
X166413571Y-69294286D01*
X165627857Y-69294286D02*
X165485000Y-69365715D01*
X165413571Y-69508572D01*
X165413571Y-69722857D01*
X165485000Y-69865715D01*
X165627857Y-69937143D01*
X166413571Y-69937143D01*
X166413571Y-71294286D02*
X165627857Y-71294286D01*
X165485000Y-71222857D01*
X165413571Y-71080000D01*
X165413571Y-70794286D01*
X165485000Y-70651429D01*
X166342143Y-71294286D02*
X166413571Y-71151429D01*
X166413571Y-70794286D01*
X166342143Y-70651429D01*
X166199286Y-70580000D01*
X166056429Y-70580000D01*
X165913571Y-70651429D01*
X165842143Y-70794286D01*
X165842143Y-71151429D01*
X165770714Y-71294286D01*
X165413571Y-71865715D02*
X165413571Y-72651429D01*
X166413571Y-71865715D01*
X166413571Y-72651429D01*
X163445000Y-64783571D02*
X163445000Y-65497857D01*
X163873571Y-64640714D02*
X162373571Y-65140714D01*
X163873571Y-65640714D01*
X163087857Y-67783571D02*
X163159286Y-67997857D01*
X163230714Y-68069285D01*
X163373571Y-68140714D01*
X163587857Y-68140714D01*
X163730714Y-68069285D01*
X163802143Y-67997857D01*
X163873571Y-67854999D01*
X163873571Y-67283571D01*
X162373571Y-67283571D01*
X162373571Y-67783571D01*
X162445000Y-67926428D01*
X162516429Y-67997857D01*
X162659286Y-68069285D01*
X162802143Y-68069285D01*
X162945000Y-67997857D01*
X163016429Y-67926428D01*
X163087857Y-67783571D01*
X163087857Y-67283571D01*
X163873571Y-68783571D02*
X162873571Y-68783571D01*
X163159286Y-68783571D02*
X163016429Y-68854999D01*
X162945000Y-68926428D01*
X162873571Y-69069285D01*
X162873571Y-69212142D01*
X163802143Y-70283570D02*
X163873571Y-70140713D01*
X163873571Y-69854999D01*
X163802143Y-69712142D01*
X163659286Y-69640713D01*
X163087857Y-69640713D01*
X162945000Y-69712142D01*
X162873571Y-69854999D01*
X162873571Y-70140713D01*
X162945000Y-70283570D01*
X163087857Y-70354999D01*
X163230714Y-70354999D01*
X163373571Y-69640713D01*
X162873571Y-70783570D02*
X162873571Y-71354999D01*
X162373571Y-70997856D02*
X163659286Y-70997856D01*
X163802143Y-71069284D01*
X163873571Y-71212142D01*
X163873571Y-71354999D01*
X162873571Y-71640713D02*
X162873571Y-72212142D01*
X162373571Y-71854999D02*
X163659286Y-71854999D01*
X163802143Y-71926427D01*
X163873571Y-72069285D01*
X163873571Y-72212142D01*
X162373571Y-73712142D02*
X163873571Y-74069285D01*
X162802143Y-74354999D01*
X163873571Y-74640713D01*
X162373571Y-74997856D01*
X163873571Y-75569285D02*
X162873571Y-75569285D01*
X162373571Y-75569285D02*
X162445000Y-75497856D01*
X162516429Y-75569285D01*
X162445000Y-75640713D01*
X162373571Y-75569285D01*
X162516429Y-75569285D01*
X163873571Y-76497857D02*
X163802143Y-76354999D01*
X163659286Y-76283571D01*
X162373571Y-76283571D01*
X163873571Y-77069285D02*
X162373571Y-77069285D01*
X163302143Y-77212142D02*
X163873571Y-77640713D01*
X162873571Y-77640713D02*
X163445000Y-77069285D01*
X163873571Y-78283571D02*
X162873571Y-78283571D01*
X162373571Y-78283571D02*
X162445000Y-78212142D01*
X162516429Y-78283571D01*
X162445000Y-78354999D01*
X162373571Y-78283571D01*
X162516429Y-78283571D01*
X162873571Y-78997857D02*
X163873571Y-78997857D01*
X163016429Y-78997857D02*
X162945000Y-79069285D01*
X162873571Y-79212143D01*
X162873571Y-79426428D01*
X162945000Y-79569285D01*
X163087857Y-79640714D01*
X163873571Y-79640714D01*
X163802143Y-80283571D02*
X163873571Y-80426428D01*
X163873571Y-80712143D01*
X163802143Y-80855000D01*
X163659286Y-80926428D01*
X163587857Y-80926428D01*
X163445000Y-80855000D01*
X163373571Y-80712143D01*
X163373571Y-80497857D01*
X163302143Y-80355000D01*
X163159286Y-80283571D01*
X163087857Y-80283571D01*
X162945000Y-80355000D01*
X162873571Y-80497857D01*
X162873571Y-80712143D01*
X162945000Y-80855000D01*
X163730714Y-83569286D02*
X163802143Y-83497857D01*
X163873571Y-83283571D01*
X163873571Y-83140714D01*
X163802143Y-82926429D01*
X163659286Y-82783571D01*
X163516429Y-82712143D01*
X163230714Y-82640714D01*
X163016429Y-82640714D01*
X162730714Y-82712143D01*
X162587857Y-82783571D01*
X162445000Y-82926429D01*
X162373571Y-83140714D01*
X162373571Y-83283571D01*
X162445000Y-83497857D01*
X162516429Y-83569286D01*
X163873571Y-84212143D02*
X162873571Y-84212143D01*
X163159286Y-84212143D02*
X163016429Y-84283571D01*
X162945000Y-84355000D01*
X162873571Y-84497857D01*
X162873571Y-84640714D01*
X163802143Y-85712142D02*
X163873571Y-85569285D01*
X163873571Y-85283571D01*
X163802143Y-85140714D01*
X163659286Y-85069285D01*
X163087857Y-85069285D01*
X162945000Y-85140714D01*
X162873571Y-85283571D01*
X162873571Y-85569285D01*
X162945000Y-85712142D01*
X163087857Y-85783571D01*
X163230714Y-85783571D01*
X163373571Y-85069285D01*
X163873571Y-87069285D02*
X163087857Y-87069285D01*
X162945000Y-86997856D01*
X162873571Y-86854999D01*
X162873571Y-86569285D01*
X162945000Y-86426428D01*
X163802143Y-87069285D02*
X163873571Y-86926428D01*
X163873571Y-86569285D01*
X163802143Y-86426428D01*
X163659286Y-86354999D01*
X163516429Y-86354999D01*
X163373571Y-86426428D01*
X163302143Y-86569285D01*
X163302143Y-86926428D01*
X163230714Y-87069285D01*
X162873571Y-87569285D02*
X162873571Y-88140714D01*
X162373571Y-87783571D02*
X163659286Y-87783571D01*
X163802143Y-87854999D01*
X163873571Y-87997857D01*
X163873571Y-88140714D01*
X163873571Y-88640714D02*
X162873571Y-88640714D01*
X162373571Y-88640714D02*
X162445000Y-88569285D01*
X162516429Y-88640714D01*
X162445000Y-88712142D01*
X162373571Y-88640714D01*
X162516429Y-88640714D01*
X163873571Y-89569286D02*
X163802143Y-89426428D01*
X163730714Y-89355000D01*
X163587857Y-89283571D01*
X163159286Y-89283571D01*
X163016429Y-89355000D01*
X162945000Y-89426428D01*
X162873571Y-89569286D01*
X162873571Y-89783571D01*
X162945000Y-89926428D01*
X163016429Y-89997857D01*
X163159286Y-90069286D01*
X163587857Y-90069286D01*
X163730714Y-89997857D01*
X163802143Y-89926428D01*
X163873571Y-89783571D01*
X163873571Y-89569286D01*
X162873571Y-90712143D02*
X163873571Y-90712143D01*
X163016429Y-90712143D02*
X162945000Y-90783571D01*
X162873571Y-90926429D01*
X162873571Y-91140714D01*
X162945000Y-91283571D01*
X163087857Y-91355000D01*
X163873571Y-91355000D01*
X159833571Y-64562143D02*
X160119286Y-64562143D01*
X159833571Y-65133572D02*
X160119286Y-65133572D01*
X160905000Y-65705000D02*
X160905000Y-66419286D01*
X161333571Y-65562143D02*
X159833571Y-66062143D01*
X161333571Y-66562143D01*
X161333571Y-68205000D02*
X159833571Y-68205000D01*
X160905000Y-68705000D01*
X159833571Y-69205000D01*
X161333571Y-69205000D01*
X161333571Y-70133572D02*
X161262143Y-69990714D01*
X161190714Y-69919286D01*
X161047857Y-69847857D01*
X160619286Y-69847857D01*
X160476429Y-69919286D01*
X160405000Y-69990714D01*
X160333571Y-70133572D01*
X160333571Y-70347857D01*
X160405000Y-70490714D01*
X160476429Y-70562143D01*
X160619286Y-70633572D01*
X161047857Y-70633572D01*
X161190714Y-70562143D01*
X161262143Y-70490714D01*
X161333571Y-70347857D01*
X161333571Y-70133572D01*
X161333571Y-71276429D02*
X160333571Y-71276429D01*
X160476429Y-71276429D02*
X160405000Y-71347857D01*
X160333571Y-71490715D01*
X160333571Y-71705000D01*
X160405000Y-71847857D01*
X160547857Y-71919286D01*
X161333571Y-71919286D01*
X160547857Y-71919286D02*
X160405000Y-71990715D01*
X160333571Y-72133572D01*
X160333571Y-72347857D01*
X160405000Y-72490715D01*
X160547857Y-72562143D01*
X161333571Y-72562143D01*
X161262143Y-73847857D02*
X161333571Y-73705000D01*
X161333571Y-73419286D01*
X161262143Y-73276429D01*
X161119286Y-73205000D01*
X160547857Y-73205000D01*
X160405000Y-73276429D01*
X160333571Y-73419286D01*
X160333571Y-73705000D01*
X160405000Y-73847857D01*
X160547857Y-73919286D01*
X160690714Y-73919286D01*
X160833571Y-73205000D01*
X160333571Y-74562143D02*
X161333571Y-74562143D01*
X160476429Y-74562143D02*
X160405000Y-74633571D01*
X160333571Y-74776429D01*
X160333571Y-74990714D01*
X160405000Y-75133571D01*
X160547857Y-75205000D01*
X161333571Y-75205000D01*
X160333571Y-75705000D02*
X160333571Y-76276429D01*
X159833571Y-75919286D02*
X161119286Y-75919286D01*
X161262143Y-75990714D01*
X161333571Y-76133572D01*
X161333571Y-76276429D01*
X161333571Y-77419286D02*
X160547857Y-77419286D01*
X160405000Y-77347857D01*
X160333571Y-77205000D01*
X160333571Y-76919286D01*
X160405000Y-76776429D01*
X161262143Y-77419286D02*
X161333571Y-77276429D01*
X161333571Y-76919286D01*
X161262143Y-76776429D01*
X161119286Y-76705000D01*
X160976429Y-76705000D01*
X160833571Y-76776429D01*
X160762143Y-76919286D01*
X160762143Y-77276429D01*
X160690714Y-77419286D01*
X161333571Y-78133572D02*
X160333571Y-78133572D01*
X160619286Y-78133572D02*
X160476429Y-78205000D01*
X160405000Y-78276429D01*
X160333571Y-78419286D01*
X160333571Y-78562143D01*
X160333571Y-78919286D02*
X161333571Y-79276429D01*
X160333571Y-79633571D02*
X161333571Y-79276429D01*
X161690714Y-79133571D01*
X161762143Y-79062143D01*
X161833571Y-78919286D01*
X161333571Y-82062143D02*
X161333571Y-81347857D01*
X159833571Y-81347857D01*
X161333571Y-83205000D02*
X160547857Y-83205000D01*
X160405000Y-83133571D01*
X160333571Y-82990714D01*
X160333571Y-82705000D01*
X160405000Y-82562143D01*
X161262143Y-83205000D02*
X161333571Y-83062143D01*
X161333571Y-82705000D01*
X161262143Y-82562143D01*
X161119286Y-82490714D01*
X160976429Y-82490714D01*
X160833571Y-82562143D01*
X160762143Y-82705000D01*
X160762143Y-83062143D01*
X160690714Y-83205000D01*
X160333571Y-83919286D02*
X161833571Y-83919286D01*
X160405000Y-83919286D02*
X160333571Y-84062143D01*
X160333571Y-84347857D01*
X160405000Y-84490714D01*
X160476429Y-84562143D01*
X160619286Y-84633572D01*
X161047857Y-84633572D01*
X161190714Y-84562143D01*
X161262143Y-84490714D01*
X161333571Y-84347857D01*
X161333571Y-84062143D01*
X161262143Y-83919286D01*
X161262143Y-85205000D02*
X161333571Y-85347857D01*
X161333571Y-85633572D01*
X161262143Y-85776429D01*
X161119286Y-85847857D01*
X161047857Y-85847857D01*
X160905000Y-85776429D01*
X160833571Y-85633572D01*
X160833571Y-85419286D01*
X160762143Y-85276429D01*
X160619286Y-85205000D01*
X160547857Y-85205000D01*
X160405000Y-85276429D01*
X160333571Y-85419286D01*
X160333571Y-85633572D01*
X160405000Y-85776429D01*
X161262143Y-87062143D02*
X161333571Y-86919286D01*
X161333571Y-86633572D01*
X161262143Y-86490715D01*
X161119286Y-86419286D01*
X160547857Y-86419286D01*
X160405000Y-86490715D01*
X160333571Y-86633572D01*
X160333571Y-86919286D01*
X160405000Y-87062143D01*
X160547857Y-87133572D01*
X160690714Y-87133572D01*
X160833571Y-86419286D01*
X161333571Y-89133572D02*
X161262143Y-88990714D01*
X161190714Y-88919286D01*
X161047857Y-88847857D01*
X160619286Y-88847857D01*
X160476429Y-88919286D01*
X160405000Y-88990714D01*
X160333571Y-89133572D01*
X160333571Y-89347857D01*
X160405000Y-89490714D01*
X160476429Y-89562143D01*
X160619286Y-89633572D01*
X161047857Y-89633572D01*
X161190714Y-89562143D01*
X161262143Y-89490714D01*
X161333571Y-89347857D01*
X161333571Y-89133572D01*
X160333571Y-90062143D02*
X160333571Y-90633572D01*
X161333571Y-90276429D02*
X160047857Y-90276429D01*
X159905000Y-90347857D01*
X159833571Y-90490715D01*
X159833571Y-90633572D01*
X161262143Y-92205000D02*
X161333571Y-92419286D01*
X161333571Y-92776429D01*
X161262143Y-92919286D01*
X161190714Y-92990715D01*
X161047857Y-93062143D01*
X160905000Y-93062143D01*
X160762143Y-92990715D01*
X160690714Y-92919286D01*
X160619286Y-92776429D01*
X160547857Y-92490715D01*
X160476429Y-92347857D01*
X160405000Y-92276429D01*
X160262143Y-92205000D01*
X160119286Y-92205000D01*
X159976429Y-92276429D01*
X159905000Y-92347857D01*
X159833571Y-92490715D01*
X159833571Y-92847857D01*
X159905000Y-93062143D01*
X161333571Y-94347857D02*
X160547857Y-94347857D01*
X160405000Y-94276428D01*
X160333571Y-94133571D01*
X160333571Y-93847857D01*
X160405000Y-93705000D01*
X161262143Y-94347857D02*
X161333571Y-94205000D01*
X161333571Y-93847857D01*
X161262143Y-93705000D01*
X161119286Y-93633571D01*
X160976429Y-93633571D01*
X160833571Y-93705000D01*
X160762143Y-93847857D01*
X160762143Y-94205000D01*
X160690714Y-94347857D01*
X160333571Y-95062143D02*
X161333571Y-95062143D01*
X160476429Y-95062143D02*
X160405000Y-95133571D01*
X160333571Y-95276429D01*
X160333571Y-95490714D01*
X160405000Y-95633571D01*
X160547857Y-95705000D01*
X161333571Y-95705000D01*
X161333571Y-96419286D02*
X160333571Y-96419286D01*
X159833571Y-96419286D02*
X159905000Y-96347857D01*
X159976429Y-96419286D01*
X159905000Y-96490714D01*
X159833571Y-96419286D01*
X159976429Y-96419286D01*
X160333571Y-96919286D02*
X160333571Y-97490715D01*
X159833571Y-97133572D02*
X161119286Y-97133572D01*
X161262143Y-97205000D01*
X161333571Y-97347858D01*
X161333571Y-97490715D01*
X160333571Y-97847858D02*
X161333571Y-98205001D01*
X160333571Y-98562143D02*
X161333571Y-98205001D01*
X161690714Y-98062143D01*
X161762143Y-97990715D01*
X161833571Y-97847858D01*
X159976429Y-100205000D02*
X159905000Y-100276429D01*
X159833571Y-100419286D01*
X159833571Y-100776429D01*
X159905000Y-100919286D01*
X159976429Y-100990715D01*
X160119286Y-101062143D01*
X160262143Y-101062143D01*
X160476429Y-100990715D01*
X161333571Y-100133572D01*
X161333571Y-101062143D01*
X161190714Y-101705000D02*
X161262143Y-101776428D01*
X161333571Y-101705000D01*
X161262143Y-101633571D01*
X161190714Y-101705000D01*
X161333571Y-101705000D01*
X159833571Y-102705000D02*
X159833571Y-102847857D01*
X159905000Y-102990714D01*
X159976429Y-103062143D01*
X160119286Y-103133572D01*
X160405000Y-103205000D01*
X160762143Y-103205000D01*
X161047857Y-103133572D01*
X161190714Y-103062143D01*
X161262143Y-102990714D01*
X161333571Y-102847857D01*
X161333571Y-102705000D01*
X161262143Y-102562143D01*
X161190714Y-102490714D01*
X161047857Y-102419286D01*
X160762143Y-102347857D01*
X160405000Y-102347857D01*
X160119286Y-102419286D01*
X159976429Y-102490714D01*
X159905000Y-102562143D01*
X159833571Y-102705000D01*
X159833571Y-103776428D02*
X160119286Y-103776428D01*
X159833571Y-104347857D02*
X160119286Y-104347857D01*
D12*
G36*
X154218458Y-113558798D02*
X154316249Y-113679612D01*
X154470639Y-113837003D01*
X154514090Y-113877755D01*
X154724915Y-114095880D01*
X154849199Y-114276329D01*
X154882717Y-114408108D01*
X154821248Y-114480225D01*
X154749500Y-114490500D01*
X154638262Y-114532733D01*
X154615523Y-114652369D01*
X154678209Y-114838812D01*
X154823248Y-115081469D01*
X154981622Y-115290789D01*
X155102566Y-115457231D01*
X155179483Y-115597811D01*
X155194000Y-115652167D01*
X155159936Y-115772823D01*
X155070275Y-115791221D01*
X154943807Y-115708038D01*
X154882604Y-115640978D01*
X154746192Y-115504022D01*
X154607311Y-115452917D01*
X154495335Y-115451865D01*
X154331584Y-115467972D01*
X154227035Y-115489647D01*
X154221488Y-115492125D01*
X154215568Y-115550336D01*
X154290701Y-115649472D01*
X154420558Y-115762650D01*
X154578809Y-115862987D01*
X154590600Y-115869000D01*
X154829697Y-115999267D01*
X155069394Y-116147331D01*
X155282887Y-116294507D01*
X155443369Y-116422111D01*
X155524036Y-116511457D01*
X155528113Y-116522500D01*
X155522304Y-116650528D01*
X155486158Y-116787284D01*
X155466936Y-116972409D01*
X155556140Y-117099896D01*
X155743410Y-117157039D01*
X155789150Y-117158894D01*
X155971975Y-117186686D01*
X156189955Y-117254562D01*
X156259476Y-117283618D01*
X156464514Y-117359344D01*
X156617810Y-117366347D01*
X156696488Y-117344107D01*
X156897452Y-117306634D01*
X157056414Y-117376218D01*
X157187963Y-117544957D01*
X157326047Y-117714693D01*
X157503198Y-117859165D01*
X157515257Y-117866483D01*
X157693138Y-118009605D01*
X157844199Y-118191745D01*
X157854913Y-118209194D01*
X157989610Y-118371037D01*
X158126936Y-118426598D01*
X158245415Y-118372729D01*
X158303154Y-118274918D01*
X158372150Y-118142508D01*
X158428413Y-118080775D01*
X158513028Y-118084945D01*
X158685454Y-118130145D01*
X158916523Y-118207959D01*
X159066146Y-118264806D01*
X159815213Y-118498244D01*
X160631529Y-118635764D01*
X161495599Y-118674210D01*
X161583802Y-118672486D01*
X162290355Y-118654607D01*
X162522637Y-118858553D01*
X162741047Y-119007682D01*
X162961539Y-119056913D01*
X163214217Y-119008005D01*
X163435235Y-118911876D01*
X163680564Y-118803190D01*
X163961280Y-118699265D01*
X164085704Y-118660222D01*
X164367293Y-118546750D01*
X164633036Y-118386712D01*
X164698322Y-118335217D01*
X164839757Y-118205492D01*
X164923081Y-118090233D01*
X164969146Y-117944663D01*
X164998804Y-117724006D01*
X165003249Y-117680437D01*
X165018351Y-117399858D01*
X164998375Y-117133569D01*
X164937825Y-116824411D01*
X164910086Y-116711440D01*
X164836447Y-116446926D01*
X164760071Y-116214784D01*
X164694305Y-116054449D01*
X164677727Y-116024821D01*
X164565367Y-115920801D01*
X164355398Y-115789464D01*
X164070990Y-115642746D01*
X163735315Y-115492584D01*
X163371544Y-115350915D01*
X163364979Y-115348551D01*
X163124767Y-115224381D01*
X162993431Y-115074768D01*
X162973648Y-114917239D01*
X163068093Y-114769321D01*
X163259319Y-114656331D01*
X163444515Y-114568819D01*
X163677607Y-114440770D01*
X163862542Y-114328502D01*
X164091257Y-114164219D01*
X164245121Y-113998286D01*
X164367485Y-113782600D01*
X164381267Y-113752933D01*
X164449670Y-113592547D01*
X164493685Y-113447474D01*
X164517460Y-113284646D01*
X164525143Y-113070993D01*
X164520881Y-112773447D01*
X164517911Y-112663495D01*
X164496750Y-111918750D01*
X164211000Y-111410750D01*
X164064965Y-111160690D01*
X163946201Y-110992585D01*
X163824878Y-110874947D01*
X163671169Y-110776289D01*
X163549298Y-110712250D01*
X163334064Y-110588081D01*
X163152644Y-110456872D01*
X163057907Y-110363000D01*
X162937639Y-110131312D01*
X162900313Y-109901969D01*
X162951507Y-109713970D01*
X162962721Y-109697571D01*
X163009597Y-109649303D01*
X163081389Y-109613425D01*
X163198137Y-109586898D01*
X163379884Y-109566684D01*
X163646669Y-109549744D01*
X164018534Y-109533040D01*
X164058669Y-109531411D01*
X164468468Y-109517514D01*
X164773037Y-109514323D01*
X164993763Y-109522721D01*
X165152035Y-109543596D01*
X165269242Y-109577831D01*
X165279314Y-109581934D01*
X165567237Y-109642412D01*
X165758934Y-109625421D01*
X166072458Y-109601585D01*
X166321305Y-109646424D01*
X166492686Y-109748453D01*
X166573810Y-109896192D01*
X166551889Y-110078159D01*
X166448436Y-110244401D01*
X166338744Y-110416771D01*
X166343095Y-110541996D01*
X166463976Y-110623674D01*
X166703878Y-110665398D01*
X166741665Y-110667943D01*
X166932972Y-110682923D01*
X167029718Y-110713942D01*
X167064146Y-110784046D01*
X167068500Y-110901532D01*
X167024409Y-111119285D01*
X166905867Y-111266003D01*
X166746464Y-111315500D01*
X166641251Y-111344405D01*
X166638647Y-111418811D01*
X166731547Y-111520257D01*
X166856447Y-111601250D01*
X167065857Y-111761329D01*
X167151695Y-111939395D01*
X167114776Y-112127800D01*
X166955913Y-112318896D01*
X166765577Y-112454404D01*
X166707603Y-112500299D01*
X166707603Y-115192434D01*
X166772166Y-115231333D01*
X166809875Y-115328718D01*
X166729282Y-115434673D01*
X166628465Y-115472494D01*
X166570111Y-115396282D01*
X166560500Y-115305416D01*
X166606789Y-115208634D01*
X166707603Y-115192434D01*
X166707603Y-112500299D01*
X166604582Y-112581857D01*
X166428447Y-112768003D01*
X166262142Y-112979932D01*
X166130635Y-113184734D01*
X166058896Y-113349498D01*
X166052500Y-113394245D01*
X166016971Y-113514250D01*
X165929029Y-113672759D01*
X165816640Y-113829942D01*
X165707771Y-113945973D01*
X165639443Y-113982500D01*
X165539879Y-113938185D01*
X165409643Y-113828131D01*
X165375743Y-113792000D01*
X165180343Y-113637506D01*
X165029751Y-113601500D01*
X164863295Y-113630417D01*
X164810969Y-113713749D01*
X164874726Y-113846369D01*
X164917619Y-113895893D01*
X165013316Y-114009362D01*
X165028322Y-114097117D01*
X164969532Y-114221955D01*
X164956022Y-114245588D01*
X164863450Y-114461851D01*
X164871514Y-114643957D01*
X164986198Y-114828377D01*
X165065568Y-114913268D01*
X165211036Y-115044632D01*
X165312557Y-115091387D01*
X165404321Y-115069043D01*
X165406469Y-115067903D01*
X165532141Y-115032762D01*
X165595561Y-115103432D01*
X165608000Y-115223558D01*
X165557722Y-115387782D01*
X165432062Y-115484241D01*
X165294446Y-115489132D01*
X165149745Y-115510382D01*
X165058652Y-115580605D01*
X164983938Y-115720175D01*
X165027468Y-115832294D01*
X165181960Y-115908789D01*
X165377693Y-115938657D01*
X165512124Y-115954894D01*
X165632800Y-115993587D01*
X165757131Y-116068605D01*
X165902523Y-116193816D01*
X166086385Y-116383089D01*
X166326124Y-116650292D01*
X166453374Y-116795638D01*
X166651541Y-116991072D01*
X166860736Y-117118016D01*
X167115145Y-117189401D01*
X167448952Y-117218158D01*
X167576500Y-117220457D01*
X167854602Y-117235664D01*
X168008770Y-117276626D01*
X168039489Y-117343620D01*
X167949838Y-117435119D01*
X167819907Y-117511460D01*
X167736995Y-117539120D01*
X167648219Y-117564815D01*
X167484400Y-117630843D01*
X167322500Y-117703716D01*
X167137975Y-117781565D01*
X166957749Y-117832395D01*
X166743874Y-117862873D01*
X166458407Y-117879669D01*
X166293172Y-117884623D01*
X165947192Y-117899095D01*
X165703803Y-117924715D01*
X165538822Y-117965066D01*
X165447854Y-118009824D01*
X165329859Y-118101027D01*
X165297807Y-118169180D01*
X165359878Y-118217157D01*
X165524249Y-118247829D01*
X165799098Y-118264069D01*
X166185118Y-118268750D01*
X166597748Y-118263467D01*
X166915435Y-118245576D01*
X167169880Y-118212010D01*
X167392782Y-118159704D01*
X167431613Y-118148180D01*
X167686122Y-118082044D01*
X167854298Y-118080331D01*
X167957628Y-118158839D01*
X168017601Y-118333369D01*
X168054344Y-118606054D01*
X168086232Y-118872738D01*
X168125298Y-119129546D01*
X168155333Y-119284750D01*
X168180222Y-119438729D01*
X168208944Y-119689282D01*
X168238511Y-120006166D01*
X168265931Y-120359137D01*
X168275244Y-120497648D01*
X168318549Y-121041576D01*
X168375091Y-121479028D01*
X168451075Y-121830333D01*
X168552708Y-122115820D01*
X168686195Y-122355819D01*
X168857742Y-122570659D01*
X168931417Y-122647160D01*
X169220290Y-122883595D01*
X169611976Y-123128640D01*
X170083528Y-123373179D01*
X170612003Y-123608094D01*
X171174456Y-123824269D01*
X171747941Y-124012586D01*
X172309516Y-124163928D01*
X172836233Y-124269179D01*
X173101000Y-124303938D01*
X173578463Y-124378297D01*
X174010734Y-124495048D01*
X174378021Y-124645866D01*
X174660537Y-124822425D01*
X174838490Y-125016398D01*
X174851959Y-125040606D01*
X174973839Y-125197606D01*
X175120179Y-125301992D01*
X175256901Y-125383192D01*
X175442381Y-125520629D01*
X175613316Y-125664364D01*
X175823225Y-125837505D01*
X176039726Y-125992988D01*
X176183289Y-126079250D01*
X176356023Y-126183946D01*
X176578060Y-126340606D01*
X176803743Y-126516867D01*
X176821620Y-126531707D01*
X177088179Y-126734023D01*
X177399286Y-126941047D01*
X177662898Y-127094344D01*
X177922926Y-127250327D01*
X178175517Y-127433844D01*
X178367130Y-127605895D01*
X178371184Y-127610262D01*
X178518176Y-127759217D01*
X178636524Y-127860355D01*
X178690307Y-127889000D01*
X178700896Y-127825829D01*
X178710548Y-127637633D01*
X178719248Y-127326379D01*
X178726979Y-126894037D01*
X178733722Y-126342579D01*
X178739461Y-125673972D01*
X178744179Y-124890188D01*
X178747859Y-123993196D01*
X178750483Y-122984966D01*
X178752034Y-121867467D01*
X178752500Y-120745250D01*
X178752101Y-119542639D01*
X178750880Y-118463207D01*
X178748799Y-117503131D01*
X178745822Y-116658592D01*
X178741910Y-115925771D01*
X178737026Y-115300845D01*
X178731134Y-114779997D01*
X178724196Y-114359404D01*
X178716174Y-114035248D01*
X178707031Y-113803707D01*
X178696730Y-113660963D01*
X178685234Y-113603193D01*
X178682726Y-113601500D01*
X178587625Y-113651853D01*
X178436974Y-113792588D01*
X178245375Y-114008219D01*
X178027427Y-114283259D01*
X177979300Y-114347625D01*
X177844555Y-114518440D01*
X177733894Y-114638668D01*
X177674228Y-114681000D01*
X177603642Y-114727340D01*
X177493811Y-114844174D01*
X177443550Y-114907045D01*
X177271136Y-115133090D01*
X177468712Y-115557920D01*
X177585407Y-115848324D01*
X177687982Y-116171400D01*
X177744045Y-116407608D01*
X177784894Y-116695493D01*
X177771408Y-116881506D01*
X177688997Y-116984397D01*
X177523073Y-117022915D01*
X177270156Y-117016625D01*
X177051683Y-116991575D01*
X176898809Y-116938498D01*
X176788486Y-116834307D01*
X176697664Y-116655916D01*
X176603293Y-116380240D01*
X176589071Y-116334462D01*
X176494325Y-116067614D01*
X176380685Y-115802936D01*
X176298076Y-115643014D01*
X176192577Y-115428325D01*
X176156318Y-115232210D01*
X176163758Y-115057741D01*
X176237722Y-114723614D01*
X176390679Y-114339878D01*
X176605220Y-113939595D01*
X176863933Y-113555830D01*
X177107833Y-113264900D01*
X177308962Y-113057117D01*
X177458299Y-112924699D01*
X177587208Y-112847021D01*
X177727053Y-112803458D01*
X177839928Y-112783475D01*
X178094665Y-112716323D01*
X178360293Y-112604217D01*
X178458939Y-112548575D01*
X178752272Y-112363250D01*
X178752386Y-111807625D01*
X178749722Y-111559788D01*
X178742505Y-111368909D01*
X178732055Y-111263727D01*
X178726811Y-111252000D01*
X178684675Y-111302624D01*
X178601123Y-111434174D01*
X178512943Y-111585436D01*
X178308977Y-111882556D01*
X178051401Y-112164907D01*
X177775393Y-112398375D01*
X177522009Y-112546415D01*
X177350152Y-112648823D01*
X177157202Y-112807595D01*
X177057348Y-112908759D01*
X176942226Y-113031669D01*
X176753427Y-113227040D01*
X176507534Y-113477989D01*
X176221131Y-113767634D01*
X175910800Y-114079091D01*
X175758518Y-114231076D01*
X175391672Y-114599061D01*
X175106272Y-114895220D01*
X174892303Y-115135839D01*
X174739752Y-115337209D01*
X174638605Y-115515618D01*
X174578850Y-115687354D01*
X174550471Y-115868706D01*
X174543457Y-116075962D01*
X174545040Y-116205000D01*
X174557671Y-116813043D01*
X174569478Y-117307182D01*
X174581460Y-117700498D01*
X174594618Y-118006074D01*
X174609949Y-118236992D01*
X174628452Y-118406333D01*
X174651126Y-118527181D01*
X174678971Y-118612616D01*
X174712985Y-118675722D01*
X174736127Y-118707494D01*
X174835695Y-118893206D01*
X174824664Y-119038565D01*
X174715914Y-119132921D01*
X174522325Y-119165625D01*
X174256776Y-119126026D01*
X174236652Y-119120505D01*
X174045681Y-119084477D01*
X173775139Y-119055740D01*
X173472424Y-119038816D01*
X173355000Y-119036386D01*
X172751750Y-119030750D01*
X172354036Y-118748175D01*
X172127188Y-118596382D01*
X171959891Y-118512771D01*
X171815842Y-118482213D01*
X171719036Y-118483514D01*
X171384506Y-118507621D01*
X171147635Y-118515358D01*
X170979366Y-118498869D01*
X170850644Y-118450299D01*
X170732413Y-118361792D01*
X170595616Y-118225494D01*
X170536905Y-118163924D01*
X170281771Y-117922280D01*
X170068443Y-117786394D01*
X169877518Y-117750747D01*
X169689592Y-117809822D01*
X169569643Y-117888865D01*
X169423836Y-118013851D01*
X169326181Y-118122886D01*
X169310484Y-118150816D01*
X169225497Y-118247319D01*
X169072669Y-118345307D01*
X168906900Y-118413657D01*
X168822439Y-118427500D01*
X168673132Y-118374601D01*
X168579894Y-118230105D01*
X168540633Y-118015313D01*
X168553255Y-117751528D01*
X168615666Y-117460049D01*
X168725774Y-117162180D01*
X168881484Y-116879221D01*
X168988871Y-116733945D01*
X169229648Y-116414531D01*
X169382120Y-116134899D01*
X169461075Y-115860657D01*
X169481500Y-115588202D01*
X169500597Y-115328020D01*
X169550266Y-115021097D01*
X169608500Y-114776250D01*
X169671871Y-114536094D01*
X169717386Y-114328199D01*
X169735480Y-114196428D01*
X169735500Y-114193949D01*
X169676838Y-114012012D01*
X169506613Y-113798193D01*
X169233466Y-113561597D01*
X168945258Y-113361147D01*
X168534325Y-113074128D01*
X168192294Y-112787538D01*
X167927125Y-112511728D01*
X167746780Y-112257048D01*
X167659218Y-112033848D01*
X167672400Y-111852481D01*
X167725132Y-111774652D01*
X167876455Y-111707713D01*
X168113568Y-111708161D01*
X168417515Y-111771570D01*
X168769341Y-111893511D01*
X169150091Y-112069556D01*
X169275264Y-112136772D01*
X169647146Y-112324186D01*
X170032345Y-112484746D01*
X170407804Y-112611943D01*
X170750463Y-112699271D01*
X171037267Y-112740220D01*
X171245157Y-112728283D01*
X171299471Y-112708100D01*
X171412250Y-112613092D01*
X171588304Y-112417453D01*
X171822652Y-112127652D01*
X172110313Y-111750155D01*
X172446304Y-111291431D01*
X172825643Y-110757946D01*
X173056850Y-110426500D01*
X173319647Y-110049013D01*
X173522234Y-109763743D01*
X173675705Y-109557814D01*
X173791157Y-109418349D01*
X173879686Y-109332473D01*
X173952386Y-109287310D01*
X174020353Y-109269983D01*
X174055357Y-109267751D01*
X174206343Y-109279382D01*
X174458603Y-109316363D01*
X174789866Y-109374616D01*
X175177862Y-109450063D01*
X175600322Y-109538626D01*
X175908781Y-109607185D01*
X176136850Y-109667492D01*
X176456525Y-109763439D01*
X176840562Y-109885897D01*
X177261720Y-110025737D01*
X177692757Y-110173830D01*
X178106429Y-110321048D01*
X178475496Y-110458261D01*
X178641375Y-110522880D01*
X178660981Y-110525653D01*
X178678141Y-110512133D01*
X178693017Y-110474484D01*
X178705772Y-110404871D01*
X178716568Y-110295457D01*
X178725567Y-110138407D01*
X178732933Y-109925885D01*
X178738826Y-109650056D01*
X178743409Y-109303084D01*
X178746845Y-108877132D01*
X178749297Y-108364365D01*
X178750925Y-107756948D01*
X178751893Y-107047045D01*
X178752364Y-106226819D01*
X178752498Y-105288436D01*
X178752500Y-105158960D01*
X178752500Y-99750834D01*
X175656875Y-99771719D01*
X174909415Y-99777486D01*
X174279519Y-99784070D01*
X173757748Y-99791776D01*
X173334666Y-99800909D01*
X173000837Y-99811774D01*
X172746824Y-99824677D01*
X172563190Y-99839923D01*
X172440499Y-99857816D01*
X172370750Y-99878011D01*
X172224449Y-99915974D01*
X171971160Y-99951164D01*
X171630894Y-99981380D01*
X171223662Y-100004422D01*
X171219269Y-100004611D01*
X170258288Y-100045805D01*
X169600019Y-100373838D01*
X169010205Y-100709839D01*
X168488092Y-101091888D01*
X168054572Y-101503002D01*
X167774867Y-101857322D01*
X167573956Y-102206604D01*
X167543550Y-102279083D01*
X167543550Y-113180725D01*
X167687798Y-113208440D01*
X167858095Y-113287844D01*
X168046943Y-113417210D01*
X168222063Y-113568605D01*
X168351174Y-113714096D01*
X168401996Y-113825750D01*
X168402000Y-113826456D01*
X168344814Y-113964678D01*
X168197645Y-114067348D01*
X167997071Y-114109431D01*
X167988461Y-114109500D01*
X167832648Y-114125660D01*
X167740760Y-114165007D01*
X167737482Y-114169387D01*
X167715987Y-114258196D01*
X167693313Y-114437552D01*
X167673908Y-114671125D01*
X167671641Y-114707153D01*
X167681613Y-115151167D01*
X167770565Y-115498260D01*
X167938009Y-115747105D01*
X168096577Y-115859583D01*
X168311615Y-115989311D01*
X168482411Y-116131035D01*
X168580076Y-116258708D01*
X168592500Y-116306710D01*
X168546572Y-116397460D01*
X168435027Y-116510012D01*
X168425186Y-116517891D01*
X168190805Y-116632396D01*
X167938489Y-116621216D01*
X167697015Y-116504402D01*
X167514998Y-116340679D01*
X167372878Y-116112186D01*
X167262305Y-115799863D01*
X167174929Y-115384653D01*
X167157189Y-115272284D01*
X167113342Y-114924785D01*
X167101427Y-114647320D01*
X167120580Y-114387230D01*
X167140490Y-114253494D01*
X167177214Y-113993512D01*
X167200740Y-113748223D01*
X167205940Y-113593612D01*
X167240296Y-113357547D01*
X167354873Y-113218287D01*
X167543550Y-113180725D01*
X167543550Y-102279083D01*
X167423026Y-102566379D01*
X167336907Y-102897200D01*
X167322500Y-103060499D01*
X167304453Y-103220872D01*
X167258713Y-103436087D01*
X167230182Y-103541099D01*
X167162924Y-103794676D01*
X167088769Y-104115441D01*
X167013475Y-104473262D01*
X166942799Y-104838008D01*
X166882500Y-105179545D01*
X166838336Y-105467742D01*
X166816064Y-105672468D01*
X166814500Y-105716452D01*
X166792599Y-105887487D01*
X166733704Y-106136647D01*
X166648023Y-106424155D01*
X166588384Y-106597474D01*
X166484323Y-106898929D01*
X166391593Y-107194598D01*
X166323689Y-107440203D01*
X166301938Y-107537250D01*
X166228141Y-107779070D01*
X166120761Y-107946140D01*
X165996462Y-108013203D01*
X165987749Y-108013500D01*
X165916601Y-107981098D01*
X165775789Y-107897566D01*
X165651598Y-107817653D01*
X165356675Y-107666368D01*
X165042364Y-107573555D01*
X165021587Y-107570125D01*
X164778461Y-107526614D01*
X164482952Y-107465517D01*
X164242750Y-107410435D01*
X163959297Y-107352550D01*
X163704363Y-107312176D01*
X163704363Y-107850923D01*
X163939767Y-107874282D01*
X164061840Y-107891414D01*
X164362072Y-107932498D01*
X164670331Y-107969559D01*
X164919949Y-107994581D01*
X164920231Y-107994604D01*
X165165571Y-108030198D01*
X165351248Y-108106211D01*
X165543928Y-108249992D01*
X165545029Y-108250934D01*
X165787793Y-108501977D01*
X165907848Y-108733627D01*
X165904385Y-108943917D01*
X165864435Y-109027734D01*
X165813332Y-109069386D01*
X165709468Y-109095145D01*
X165531589Y-109107097D01*
X165258443Y-109107322D01*
X165087532Y-109103884D01*
X164718074Y-109092406D01*
X164457728Y-109076624D01*
X164288609Y-109053362D01*
X164192834Y-109019447D01*
X164152519Y-108971703D01*
X164147500Y-108937005D01*
X164205329Y-108768653D01*
X164356803Y-108634852D01*
X164568902Y-108560936D01*
X164646659Y-108554002D01*
X164879748Y-108525177D01*
X164996658Y-108451285D01*
X165001083Y-108329192D01*
X164976648Y-108274317D01*
X164913454Y-108187757D01*
X164824343Y-108149908D01*
X164681100Y-108159189D01*
X164455507Y-108214024D01*
X164364321Y-108240060D01*
X164038186Y-108380799D01*
X163773331Y-108600803D01*
X163524816Y-108861986D01*
X163455512Y-108612368D01*
X163396875Y-108316133D01*
X163395640Y-108075478D01*
X163451126Y-107916311D01*
X163474465Y-107891715D01*
X163557627Y-107856730D01*
X163704363Y-107850923D01*
X163704363Y-107312176D01*
X163615852Y-107298158D01*
X163279232Y-107257627D01*
X163226750Y-107252796D01*
X162898236Y-107219862D01*
X162551354Y-107178086D01*
X162394904Y-107155830D01*
X162394904Y-116659341D01*
X162421238Y-116662380D01*
X162470586Y-116678532D01*
X162511421Y-116718587D01*
X162550898Y-116802296D01*
X162596174Y-116949408D01*
X162654406Y-117179674D01*
X162732750Y-117512842D01*
X162738702Y-117538500D01*
X162817934Y-117901027D01*
X162860707Y-118156117D01*
X162867464Y-118317854D01*
X162838650Y-118400320D01*
X162774709Y-118417600D01*
X162766375Y-118416281D01*
X162648791Y-118333404D01*
X162535106Y-118137532D01*
X162431298Y-117842651D01*
X162343345Y-117462748D01*
X162332046Y-117400192D01*
X162283079Y-117059151D01*
X162276447Y-116828500D01*
X162313329Y-116698482D01*
X162394904Y-116659341D01*
X162394904Y-107155830D01*
X162252827Y-107135617D01*
X162210750Y-107128757D01*
X161927904Y-107086041D01*
X161915365Y-107084470D01*
X161915365Y-111716784D01*
X161981252Y-111721310D01*
X162046913Y-111807625D01*
X162087475Y-111945197D01*
X162108318Y-112150919D01*
X162108637Y-112372626D01*
X162107157Y-112385695D01*
X162107157Y-113739353D01*
X162221151Y-113764137D01*
X162285267Y-113828079D01*
X162354513Y-113983862D01*
X162318943Y-114095905D01*
X162186443Y-114141153D01*
X162178130Y-114141250D01*
X162056650Y-114113153D01*
X162005590Y-114004779D01*
X162000122Y-113966263D01*
X162021846Y-113812367D01*
X162107157Y-113739353D01*
X162107157Y-112385695D01*
X162087629Y-112558149D01*
X162059721Y-112638680D01*
X161954676Y-112707632D01*
X161818246Y-112689142D01*
X161695271Y-112597348D01*
X161644746Y-112507836D01*
X161620400Y-112370963D01*
X161651527Y-112212924D01*
X161733698Y-112015711D01*
X161837988Y-111811503D01*
X161915365Y-111716784D01*
X161915365Y-107084470D01*
X161641620Y-107050158D01*
X161448750Y-107031732D01*
X161030563Y-106994828D01*
X160726042Y-106950481D01*
X160521934Y-106895796D01*
X160404986Y-106827878D01*
X160380930Y-106798460D01*
X160327593Y-106727479D01*
X160262426Y-106693918D01*
X160161742Y-106701112D01*
X160001855Y-106752398D01*
X159955762Y-106771139D01*
X159955762Y-109804382D01*
X160252044Y-109886750D01*
X160459823Y-109945480D01*
X160708665Y-109978998D01*
X160793929Y-109982000D01*
X161007249Y-109995870D01*
X161185061Y-110030954D01*
X161238036Y-110051674D01*
X161315957Y-110111685D01*
X161344758Y-110205698D01*
X161334386Y-110374547D01*
X161328312Y-110422211D01*
X161301570Y-110719469D01*
X161287011Y-111091172D01*
X161283958Y-111504840D01*
X161291736Y-111927993D01*
X161309667Y-112328152D01*
X161337076Y-112672835D01*
X161373286Y-112929564D01*
X161381289Y-112966500D01*
X161433166Y-113219560D01*
X161469079Y-113457715D01*
X161480181Y-113601500D01*
X161508983Y-113782639D01*
X161581504Y-114013856D01*
X161648719Y-114173000D01*
X161820609Y-114574785D01*
X161910980Y-114903230D01*
X161921563Y-115180906D01*
X161854085Y-115430384D01*
X161758389Y-115604834D01*
X161708980Y-115696588D01*
X161684378Y-115802604D01*
X161683127Y-115954247D01*
X161703772Y-116182880D01*
X161723752Y-116351351D01*
X161772681Y-116739083D01*
X161812603Y-117027786D01*
X161848139Y-117244701D01*
X161883908Y-117417065D01*
X161924530Y-117572118D01*
X161939369Y-117622730D01*
X161979086Y-117790154D01*
X161965795Y-117880966D01*
X161922922Y-117920783D01*
X161749138Y-117980820D01*
X161485617Y-118015218D01*
X161167231Y-118022886D01*
X160828849Y-118002733D01*
X160555177Y-117963603D01*
X160208692Y-117877298D01*
X159819171Y-117746720D01*
X159418554Y-117585917D01*
X159038779Y-117408941D01*
X158711788Y-117229844D01*
X158469519Y-117062676D01*
X158431045Y-117029157D01*
X158173011Y-116790941D01*
X158296266Y-116545595D01*
X158482741Y-116132145D01*
X158658683Y-115667030D01*
X158800466Y-115215123D01*
X158846518Y-115034701D01*
X158898957Y-114767100D01*
X158909759Y-114566767D01*
X158880801Y-114381659D01*
X158871394Y-114345508D01*
X158820118Y-114053028D01*
X158795755Y-113680087D01*
X158798467Y-113270373D01*
X158828420Y-112867577D01*
X158864921Y-112617250D01*
X158939544Y-112226592D01*
X159005473Y-111927543D01*
X159073072Y-111686146D01*
X159152702Y-111468448D01*
X159254723Y-111240494D01*
X159335141Y-111076368D01*
X159597331Y-110551486D01*
X159427665Y-110374393D01*
X159298401Y-110217951D01*
X159271208Y-110101754D01*
X159345904Y-109990727D01*
X159425313Y-109923108D01*
X159663663Y-109813333D01*
X159955762Y-109804382D01*
X159955762Y-106771139D01*
X159759077Y-106851112D01*
X159636531Y-106903306D01*
X159348651Y-107018259D01*
X159153392Y-107068902D01*
X159031605Y-107051229D01*
X158964140Y-106961232D01*
X158931848Y-106794903D01*
X158928170Y-106755070D01*
X158887517Y-106567882D01*
X158810837Y-106499693D01*
X158704236Y-106549695D01*
X158573818Y-106717079D01*
X158520499Y-106809060D01*
X158362748Y-107048141D01*
X158175579Y-107211936D01*
X158149974Y-107226539D01*
X158149974Y-114637591D01*
X158215490Y-114672916D01*
X158275514Y-114798151D01*
X158323186Y-114976215D01*
X158351644Y-115170026D01*
X158354027Y-115342502D01*
X158323474Y-115456561D01*
X158304931Y-115475101D01*
X158173169Y-115492240D01*
X158039030Y-115421097D01*
X157952153Y-115289248D01*
X157948825Y-115277274D01*
X157945386Y-115126365D01*
X157983579Y-114939758D01*
X158048153Y-114765953D01*
X158123859Y-114653448D01*
X158149974Y-114637591D01*
X158149974Y-107226539D01*
X158042862Y-107287627D01*
X157865345Y-107385691D01*
X157806355Y-107425199D01*
X157806355Y-116083155D01*
X157944040Y-116126490D01*
X157975300Y-116154200D01*
X158047503Y-116291741D01*
X157994200Y-116424185D01*
X157964298Y-116452320D01*
X157836406Y-116496425D01*
X157718218Y-116449496D01*
X157643415Y-116345213D01*
X157645679Y-116217258D01*
X157677179Y-116165201D01*
X157806355Y-116083155D01*
X157806355Y-107425199D01*
X157738009Y-107470974D01*
X157701973Y-107505947D01*
X157636058Y-107576153D01*
X157498813Y-107701750D01*
X157317454Y-107858017D01*
X157279217Y-107889998D01*
X157078074Y-108051476D01*
X156937967Y-108142278D01*
X156826260Y-108177486D01*
X156710317Y-108172181D01*
X156680042Y-108166895D01*
X156498156Y-108156061D01*
X156366574Y-108216720D01*
X156262717Y-108367857D01*
X156176463Y-108590379D01*
X156095335Y-108786375D01*
X156027884Y-108856822D01*
X155985863Y-108809335D01*
X155985863Y-116395500D01*
X156142839Y-116425154D01*
X156344865Y-116499500D01*
X156544034Y-116596614D01*
X156692442Y-116694569D01*
X156732902Y-116737405D01*
X156776090Y-116848053D01*
X156715020Y-116930773D01*
X156653857Y-116967343D01*
X156552538Y-116996862D01*
X156454256Y-116949087D01*
X156361667Y-116858453D01*
X156184801Y-116723522D01*
X156028935Y-116681250D01*
X155894125Y-116650723D01*
X155840984Y-116541967D01*
X155840458Y-116538375D01*
X155848642Y-116432178D01*
X155938108Y-116396982D01*
X155985863Y-116395500D01*
X155985863Y-108809335D01*
X155979877Y-108802570D01*
X155957084Y-108624470D01*
X155956000Y-108557863D01*
X155956000Y-108284221D01*
X155687340Y-108248187D01*
X155517159Y-108231199D01*
X155409482Y-108231417D01*
X155394434Y-108236398D01*
X155394208Y-108306448D01*
X155420015Y-108459445D01*
X155446454Y-108578558D01*
X155483105Y-108771729D01*
X155492869Y-108915641D01*
X155484161Y-108958862D01*
X155403034Y-108982092D01*
X155311462Y-108956935D01*
X155311462Y-109698684D01*
X155390475Y-109775555D01*
X155441985Y-109901249D01*
X155448000Y-109960259D01*
X155434096Y-110066757D01*
X155370272Y-110069628D01*
X155321000Y-110045500D01*
X155220943Y-109939122D01*
X155193843Y-109800993D01*
X155235782Y-109707384D01*
X155311462Y-109698684D01*
X155311462Y-108956935D01*
X155256374Y-108941801D01*
X155076610Y-108855290D01*
X154896170Y-108739862D01*
X154747485Y-108612818D01*
X154682632Y-108531228D01*
X154569155Y-108382497D01*
X154482815Y-108355820D01*
X154422569Y-108452017D01*
X154387370Y-108671908D01*
X154381266Y-108767672D01*
X154381252Y-108986025D01*
X154408258Y-109204143D01*
X154469542Y-109459585D01*
X154572359Y-109789909D01*
X154587641Y-109835792D01*
X154704771Y-110201653D01*
X154775638Y-110473217D01*
X154801976Y-110673767D01*
X154785519Y-110826587D01*
X154728001Y-110954960D01*
X154676402Y-111027528D01*
X154600991Y-111131842D01*
X154572189Y-111221412D01*
X154587594Y-111340725D01*
X154644802Y-111534268D01*
X154648412Y-111545726D01*
X154716944Y-111831298D01*
X154709727Y-112020642D01*
X154625247Y-112120579D01*
X154516177Y-112141000D01*
X154399884Y-112163209D01*
X154389939Y-112232278D01*
X154428975Y-112351058D01*
X154480587Y-112527641D01*
X154491087Y-112565653D01*
X154562095Y-112744717D01*
X154682181Y-112973199D01*
X154812104Y-113181445D01*
X154977681Y-113455991D01*
X155057568Y-113664796D01*
X155050368Y-113800254D01*
X154954685Y-113854757D01*
X154935825Y-113855500D01*
X154703360Y-113799052D01*
X154449525Y-113638662D01*
X154384625Y-113582731D01*
X154271866Y-113504817D01*
X154197765Y-113497120D01*
X154196840Y-113497992D01*
X154218458Y-113558798D01*
X154218458Y-113558798D01*
G37*
X154218458Y-113558798D02*
X154316249Y-113679612D01*
X154470639Y-113837003D01*
X154514090Y-113877755D01*
X154724915Y-114095880D01*
X154849199Y-114276329D01*
X154882717Y-114408108D01*
X154821248Y-114480225D01*
X154749500Y-114490500D01*
X154638262Y-114532733D01*
X154615523Y-114652369D01*
X154678209Y-114838812D01*
X154823248Y-115081469D01*
X154981622Y-115290789D01*
X155102566Y-115457231D01*
X155179483Y-115597811D01*
X155194000Y-115652167D01*
X155159936Y-115772823D01*
X155070275Y-115791221D01*
X154943807Y-115708038D01*
X154882604Y-115640978D01*
X154746192Y-115504022D01*
X154607311Y-115452917D01*
X154495335Y-115451865D01*
X154331584Y-115467972D01*
X154227035Y-115489647D01*
X154221488Y-115492125D01*
X154215568Y-115550336D01*
X154290701Y-115649472D01*
X154420558Y-115762650D01*
X154578809Y-115862987D01*
X154590600Y-115869000D01*
X154829697Y-115999267D01*
X155069394Y-116147331D01*
X155282887Y-116294507D01*
X155443369Y-116422111D01*
X155524036Y-116511457D01*
X155528113Y-116522500D01*
X155522304Y-116650528D01*
X155486158Y-116787284D01*
X155466936Y-116972409D01*
X155556140Y-117099896D01*
X155743410Y-117157039D01*
X155789150Y-117158894D01*
X155971975Y-117186686D01*
X156189955Y-117254562D01*
X156259476Y-117283618D01*
X156464514Y-117359344D01*
X156617810Y-117366347D01*
X156696488Y-117344107D01*
X156897452Y-117306634D01*
X157056414Y-117376218D01*
X157187963Y-117544957D01*
X157326047Y-117714693D01*
X157503198Y-117859165D01*
X157515257Y-117866483D01*
X157693138Y-118009605D01*
X157844199Y-118191745D01*
X157854913Y-118209194D01*
X157989610Y-118371037D01*
X158126936Y-118426598D01*
X158245415Y-118372729D01*
X158303154Y-118274918D01*
X158372150Y-118142508D01*
X158428413Y-118080775D01*
X158513028Y-118084945D01*
X158685454Y-118130145D01*
X158916523Y-118207959D01*
X159066146Y-118264806D01*
X159815213Y-118498244D01*
X160631529Y-118635764D01*
X161495599Y-118674210D01*
X161583802Y-118672486D01*
X162290355Y-118654607D01*
X162522637Y-118858553D01*
X162741047Y-119007682D01*
X162961539Y-119056913D01*
X163214217Y-119008005D01*
X163435235Y-118911876D01*
X163680564Y-118803190D01*
X163961280Y-118699265D01*
X164085704Y-118660222D01*
X164367293Y-118546750D01*
X164633036Y-118386712D01*
X164698322Y-118335217D01*
X164839757Y-118205492D01*
X164923081Y-118090233D01*
X164969146Y-117944663D01*
X164998804Y-117724006D01*
X165003249Y-117680437D01*
X165018351Y-117399858D01*
X164998375Y-117133569D01*
X164937825Y-116824411D01*
X164910086Y-116711440D01*
X164836447Y-116446926D01*
X164760071Y-116214784D01*
X164694305Y-116054449D01*
X164677727Y-116024821D01*
X164565367Y-115920801D01*
X164355398Y-115789464D01*
X164070990Y-115642746D01*
X163735315Y-115492584D01*
X163371544Y-115350915D01*
X163364979Y-115348551D01*
X163124767Y-115224381D01*
X162993431Y-115074768D01*
X162973648Y-114917239D01*
X163068093Y-114769321D01*
X163259319Y-114656331D01*
X163444515Y-114568819D01*
X163677607Y-114440770D01*
X163862542Y-114328502D01*
X164091257Y-114164219D01*
X164245121Y-113998286D01*
X164367485Y-113782600D01*
X164381267Y-113752933D01*
X164449670Y-113592547D01*
X164493685Y-113447474D01*
X164517460Y-113284646D01*
X164525143Y-113070993D01*
X164520881Y-112773447D01*
X164517911Y-112663495D01*
X164496750Y-111918750D01*
X164211000Y-111410750D01*
X164064965Y-111160690D01*
X163946201Y-110992585D01*
X163824878Y-110874947D01*
X163671169Y-110776289D01*
X163549298Y-110712250D01*
X163334064Y-110588081D01*
X163152644Y-110456872D01*
X163057907Y-110363000D01*
X162937639Y-110131312D01*
X162900313Y-109901969D01*
X162951507Y-109713970D01*
X162962721Y-109697571D01*
X163009597Y-109649303D01*
X163081389Y-109613425D01*
X163198137Y-109586898D01*
X163379884Y-109566684D01*
X163646669Y-109549744D01*
X164018534Y-109533040D01*
X164058669Y-109531411D01*
X164468468Y-109517514D01*
X164773037Y-109514323D01*
X164993763Y-109522721D01*
X165152035Y-109543596D01*
X165269242Y-109577831D01*
X165279314Y-109581934D01*
X165567237Y-109642412D01*
X165758934Y-109625421D01*
X166072458Y-109601585D01*
X166321305Y-109646424D01*
X166492686Y-109748453D01*
X166573810Y-109896192D01*
X166551889Y-110078159D01*
X166448436Y-110244401D01*
X166338744Y-110416771D01*
X166343095Y-110541996D01*
X166463976Y-110623674D01*
X166703878Y-110665398D01*
X166741665Y-110667943D01*
X166932972Y-110682923D01*
X167029718Y-110713942D01*
X167064146Y-110784046D01*
X167068500Y-110901532D01*
X167024409Y-111119285D01*
X166905867Y-111266003D01*
X166746464Y-111315500D01*
X166641251Y-111344405D01*
X166638647Y-111418811D01*
X166731547Y-111520257D01*
X166856447Y-111601250D01*
X167065857Y-111761329D01*
X167151695Y-111939395D01*
X167114776Y-112127800D01*
X166955913Y-112318896D01*
X166765577Y-112454404D01*
X166707603Y-112500299D01*
X166707603Y-115192434D01*
X166772166Y-115231333D01*
X166809875Y-115328718D01*
X166729282Y-115434673D01*
X166628465Y-115472494D01*
X166570111Y-115396282D01*
X166560500Y-115305416D01*
X166606789Y-115208634D01*
X166707603Y-115192434D01*
X166707603Y-112500299D01*
X166604582Y-112581857D01*
X166428447Y-112768003D01*
X166262142Y-112979932D01*
X166130635Y-113184734D01*
X166058896Y-113349498D01*
X166052500Y-113394245D01*
X166016971Y-113514250D01*
X165929029Y-113672759D01*
X165816640Y-113829942D01*
X165707771Y-113945973D01*
X165639443Y-113982500D01*
X165539879Y-113938185D01*
X165409643Y-113828131D01*
X165375743Y-113792000D01*
X165180343Y-113637506D01*
X165029751Y-113601500D01*
X164863295Y-113630417D01*
X164810969Y-113713749D01*
X164874726Y-113846369D01*
X164917619Y-113895893D01*
X165013316Y-114009362D01*
X165028322Y-114097117D01*
X164969532Y-114221955D01*
X164956022Y-114245588D01*
X164863450Y-114461851D01*
X164871514Y-114643957D01*
X164986198Y-114828377D01*
X165065568Y-114913268D01*
X165211036Y-115044632D01*
X165312557Y-115091387D01*
X165404321Y-115069043D01*
X165406469Y-115067903D01*
X165532141Y-115032762D01*
X165595561Y-115103432D01*
X165608000Y-115223558D01*
X165557722Y-115387782D01*
X165432062Y-115484241D01*
X165294446Y-115489132D01*
X165149745Y-115510382D01*
X165058652Y-115580605D01*
X164983938Y-115720175D01*
X165027468Y-115832294D01*
X165181960Y-115908789D01*
X165377693Y-115938657D01*
X165512124Y-115954894D01*
X165632800Y-115993587D01*
X165757131Y-116068605D01*
X165902523Y-116193816D01*
X166086385Y-116383089D01*
X166326124Y-116650292D01*
X166453374Y-116795638D01*
X166651541Y-116991072D01*
X166860736Y-117118016D01*
X167115145Y-117189401D01*
X167448952Y-117218158D01*
X167576500Y-117220457D01*
X167854602Y-117235664D01*
X168008770Y-117276626D01*
X168039489Y-117343620D01*
X167949838Y-117435119D01*
X167819907Y-117511460D01*
X167736995Y-117539120D01*
X167648219Y-117564815D01*
X167484400Y-117630843D01*
X167322500Y-117703716D01*
X167137975Y-117781565D01*
X166957749Y-117832395D01*
X166743874Y-117862873D01*
X166458407Y-117879669D01*
X166293172Y-117884623D01*
X165947192Y-117899095D01*
X165703803Y-117924715D01*
X165538822Y-117965066D01*
X165447854Y-118009824D01*
X165329859Y-118101027D01*
X165297807Y-118169180D01*
X165359878Y-118217157D01*
X165524249Y-118247829D01*
X165799098Y-118264069D01*
X166185118Y-118268750D01*
X166597748Y-118263467D01*
X166915435Y-118245576D01*
X167169880Y-118212010D01*
X167392782Y-118159704D01*
X167431613Y-118148180D01*
X167686122Y-118082044D01*
X167854298Y-118080331D01*
X167957628Y-118158839D01*
X168017601Y-118333369D01*
X168054344Y-118606054D01*
X168086232Y-118872738D01*
X168125298Y-119129546D01*
X168155333Y-119284750D01*
X168180222Y-119438729D01*
X168208944Y-119689282D01*
X168238511Y-120006166D01*
X168265931Y-120359137D01*
X168275244Y-120497648D01*
X168318549Y-121041576D01*
X168375091Y-121479028D01*
X168451075Y-121830333D01*
X168552708Y-122115820D01*
X168686195Y-122355819D01*
X168857742Y-122570659D01*
X168931417Y-122647160D01*
X169220290Y-122883595D01*
X169611976Y-123128640D01*
X170083528Y-123373179D01*
X170612003Y-123608094D01*
X171174456Y-123824269D01*
X171747941Y-124012586D01*
X172309516Y-124163928D01*
X172836233Y-124269179D01*
X173101000Y-124303938D01*
X173578463Y-124378297D01*
X174010734Y-124495048D01*
X174378021Y-124645866D01*
X174660537Y-124822425D01*
X174838490Y-125016398D01*
X174851959Y-125040606D01*
X174973839Y-125197606D01*
X175120179Y-125301992D01*
X175256901Y-125383192D01*
X175442381Y-125520629D01*
X175613316Y-125664364D01*
X175823225Y-125837505D01*
X176039726Y-125992988D01*
X176183289Y-126079250D01*
X176356023Y-126183946D01*
X176578060Y-126340606D01*
X176803743Y-126516867D01*
X176821620Y-126531707D01*
X177088179Y-126734023D01*
X177399286Y-126941047D01*
X177662898Y-127094344D01*
X177922926Y-127250327D01*
X178175517Y-127433844D01*
X178367130Y-127605895D01*
X178371184Y-127610262D01*
X178518176Y-127759217D01*
X178636524Y-127860355D01*
X178690307Y-127889000D01*
X178700896Y-127825829D01*
X178710548Y-127637633D01*
X178719248Y-127326379D01*
X178726979Y-126894037D01*
X178733722Y-126342579D01*
X178739461Y-125673972D01*
X178744179Y-124890188D01*
X178747859Y-123993196D01*
X178750483Y-122984966D01*
X178752034Y-121867467D01*
X178752500Y-120745250D01*
X178752101Y-119542639D01*
X178750880Y-118463207D01*
X178748799Y-117503131D01*
X178745822Y-116658592D01*
X178741910Y-115925771D01*
X178737026Y-115300845D01*
X178731134Y-114779997D01*
X178724196Y-114359404D01*
X178716174Y-114035248D01*
X178707031Y-113803707D01*
X178696730Y-113660963D01*
X178685234Y-113603193D01*
X178682726Y-113601500D01*
X178587625Y-113651853D01*
X178436974Y-113792588D01*
X178245375Y-114008219D01*
X178027427Y-114283259D01*
X177979300Y-114347625D01*
X177844555Y-114518440D01*
X177733894Y-114638668D01*
X177674228Y-114681000D01*
X177603642Y-114727340D01*
X177493811Y-114844174D01*
X177443550Y-114907045D01*
X177271136Y-115133090D01*
X177468712Y-115557920D01*
X177585407Y-115848324D01*
X177687982Y-116171400D01*
X177744045Y-116407608D01*
X177784894Y-116695493D01*
X177771408Y-116881506D01*
X177688997Y-116984397D01*
X177523073Y-117022915D01*
X177270156Y-117016625D01*
X177051683Y-116991575D01*
X176898809Y-116938498D01*
X176788486Y-116834307D01*
X176697664Y-116655916D01*
X176603293Y-116380240D01*
X176589071Y-116334462D01*
X176494325Y-116067614D01*
X176380685Y-115802936D01*
X176298076Y-115643014D01*
X176192577Y-115428325D01*
X176156318Y-115232210D01*
X176163758Y-115057741D01*
X176237722Y-114723614D01*
X176390679Y-114339878D01*
X176605220Y-113939595D01*
X176863933Y-113555830D01*
X177107833Y-113264900D01*
X177308962Y-113057117D01*
X177458299Y-112924699D01*
X177587208Y-112847021D01*
X177727053Y-112803458D01*
X177839928Y-112783475D01*
X178094665Y-112716323D01*
X178360293Y-112604217D01*
X178458939Y-112548575D01*
X178752272Y-112363250D01*
X178752386Y-111807625D01*
X178749722Y-111559788D01*
X178742505Y-111368909D01*
X178732055Y-111263727D01*
X178726811Y-111252000D01*
X178684675Y-111302624D01*
X178601123Y-111434174D01*
X178512943Y-111585436D01*
X178308977Y-111882556D01*
X178051401Y-112164907D01*
X177775393Y-112398375D01*
X177522009Y-112546415D01*
X177350152Y-112648823D01*
X177157202Y-112807595D01*
X177057348Y-112908759D01*
X176942226Y-113031669D01*
X176753427Y-113227040D01*
X176507534Y-113477989D01*
X176221131Y-113767634D01*
X175910800Y-114079091D01*
X175758518Y-114231076D01*
X175391672Y-114599061D01*
X175106272Y-114895220D01*
X174892303Y-115135839D01*
X174739752Y-115337209D01*
X174638605Y-115515618D01*
X174578850Y-115687354D01*
X174550471Y-115868706D01*
X174543457Y-116075962D01*
X174545040Y-116205000D01*
X174557671Y-116813043D01*
X174569478Y-117307182D01*
X174581460Y-117700498D01*
X174594618Y-118006074D01*
X174609949Y-118236992D01*
X174628452Y-118406333D01*
X174651126Y-118527181D01*
X174678971Y-118612616D01*
X174712985Y-118675722D01*
X174736127Y-118707494D01*
X174835695Y-118893206D01*
X174824664Y-119038565D01*
X174715914Y-119132921D01*
X174522325Y-119165625D01*
X174256776Y-119126026D01*
X174236652Y-119120505D01*
X174045681Y-119084477D01*
X173775139Y-119055740D01*
X173472424Y-119038816D01*
X173355000Y-119036386D01*
X172751750Y-119030750D01*
X172354036Y-118748175D01*
X172127188Y-118596382D01*
X171959891Y-118512771D01*
X171815842Y-118482213D01*
X171719036Y-118483514D01*
X171384506Y-118507621D01*
X171147635Y-118515358D01*
X170979366Y-118498869D01*
X170850644Y-118450299D01*
X170732413Y-118361792D01*
X170595616Y-118225494D01*
X170536905Y-118163924D01*
X170281771Y-117922280D01*
X170068443Y-117786394D01*
X169877518Y-117750747D01*
X169689592Y-117809822D01*
X169569643Y-117888865D01*
X169423836Y-118013851D01*
X169326181Y-118122886D01*
X169310484Y-118150816D01*
X169225497Y-118247319D01*
X169072669Y-118345307D01*
X168906900Y-118413657D01*
X168822439Y-118427500D01*
X168673132Y-118374601D01*
X168579894Y-118230105D01*
X168540633Y-118015313D01*
X168553255Y-117751528D01*
X168615666Y-117460049D01*
X168725774Y-117162180D01*
X168881484Y-116879221D01*
X168988871Y-116733945D01*
X169229648Y-116414531D01*
X169382120Y-116134899D01*
X169461075Y-115860657D01*
X169481500Y-115588202D01*
X169500597Y-115328020D01*
X169550266Y-115021097D01*
X169608500Y-114776250D01*
X169671871Y-114536094D01*
X169717386Y-114328199D01*
X169735480Y-114196428D01*
X169735500Y-114193949D01*
X169676838Y-114012012D01*
X169506613Y-113798193D01*
X169233466Y-113561597D01*
X168945258Y-113361147D01*
X168534325Y-113074128D01*
X168192294Y-112787538D01*
X167927125Y-112511728D01*
X167746780Y-112257048D01*
X167659218Y-112033848D01*
X167672400Y-111852481D01*
X167725132Y-111774652D01*
X167876455Y-111707713D01*
X168113568Y-111708161D01*
X168417515Y-111771570D01*
X168769341Y-111893511D01*
X169150091Y-112069556D01*
X169275264Y-112136772D01*
X169647146Y-112324186D01*
X170032345Y-112484746D01*
X170407804Y-112611943D01*
X170750463Y-112699271D01*
X171037267Y-112740220D01*
X171245157Y-112728283D01*
X171299471Y-112708100D01*
X171412250Y-112613092D01*
X171588304Y-112417453D01*
X171822652Y-112127652D01*
X172110313Y-111750155D01*
X172446304Y-111291431D01*
X172825643Y-110757946D01*
X173056850Y-110426500D01*
X173319647Y-110049013D01*
X173522234Y-109763743D01*
X173675705Y-109557814D01*
X173791157Y-109418349D01*
X173879686Y-109332473D01*
X173952386Y-109287310D01*
X174020353Y-109269983D01*
X174055357Y-109267751D01*
X174206343Y-109279382D01*
X174458603Y-109316363D01*
X174789866Y-109374616D01*
X175177862Y-109450063D01*
X175600322Y-109538626D01*
X175908781Y-109607185D01*
X176136850Y-109667492D01*
X176456525Y-109763439D01*
X176840562Y-109885897D01*
X177261720Y-110025737D01*
X177692757Y-110173830D01*
X178106429Y-110321048D01*
X178475496Y-110458261D01*
X178641375Y-110522880D01*
X178660981Y-110525653D01*
X178678141Y-110512133D01*
X178693017Y-110474484D01*
X178705772Y-110404871D01*
X178716568Y-110295457D01*
X178725567Y-110138407D01*
X178732933Y-109925885D01*
X178738826Y-109650056D01*
X178743409Y-109303084D01*
X178746845Y-108877132D01*
X178749297Y-108364365D01*
X178750925Y-107756948D01*
X178751893Y-107047045D01*
X178752364Y-106226819D01*
X178752498Y-105288436D01*
X178752500Y-105158960D01*
X178752500Y-99750834D01*
X175656875Y-99771719D01*
X174909415Y-99777486D01*
X174279519Y-99784070D01*
X173757748Y-99791776D01*
X173334666Y-99800909D01*
X173000837Y-99811774D01*
X172746824Y-99824677D01*
X172563190Y-99839923D01*
X172440499Y-99857816D01*
X172370750Y-99878011D01*
X172224449Y-99915974D01*
X171971160Y-99951164D01*
X171630894Y-99981380D01*
X171223662Y-100004422D01*
X171219269Y-100004611D01*
X170258288Y-100045805D01*
X169600019Y-100373838D01*
X169010205Y-100709839D01*
X168488092Y-101091888D01*
X168054572Y-101503002D01*
X167774867Y-101857322D01*
X167573956Y-102206604D01*
X167543550Y-102279083D01*
X167543550Y-113180725D01*
X167687798Y-113208440D01*
X167858095Y-113287844D01*
X168046943Y-113417210D01*
X168222063Y-113568605D01*
X168351174Y-113714096D01*
X168401996Y-113825750D01*
X168402000Y-113826456D01*
X168344814Y-113964678D01*
X168197645Y-114067348D01*
X167997071Y-114109431D01*
X167988461Y-114109500D01*
X167832648Y-114125660D01*
X167740760Y-114165007D01*
X167737482Y-114169387D01*
X167715987Y-114258196D01*
X167693313Y-114437552D01*
X167673908Y-114671125D01*
X167671641Y-114707153D01*
X167681613Y-115151167D01*
X167770565Y-115498260D01*
X167938009Y-115747105D01*
X168096577Y-115859583D01*
X168311615Y-115989311D01*
X168482411Y-116131035D01*
X168580076Y-116258708D01*
X168592500Y-116306710D01*
X168546572Y-116397460D01*
X168435027Y-116510012D01*
X168425186Y-116517891D01*
X168190805Y-116632396D01*
X167938489Y-116621216D01*
X167697015Y-116504402D01*
X167514998Y-116340679D01*
X167372878Y-116112186D01*
X167262305Y-115799863D01*
X167174929Y-115384653D01*
X167157189Y-115272284D01*
X167113342Y-114924785D01*
X167101427Y-114647320D01*
X167120580Y-114387230D01*
X167140490Y-114253494D01*
X167177214Y-113993512D01*
X167200740Y-113748223D01*
X167205940Y-113593612D01*
X167240296Y-113357547D01*
X167354873Y-113218287D01*
X167543550Y-113180725D01*
X167543550Y-102279083D01*
X167423026Y-102566379D01*
X167336907Y-102897200D01*
X167322500Y-103060499D01*
X167304453Y-103220872D01*
X167258713Y-103436087D01*
X167230182Y-103541099D01*
X167162924Y-103794676D01*
X167088769Y-104115441D01*
X167013475Y-104473262D01*
X166942799Y-104838008D01*
X166882500Y-105179545D01*
X166838336Y-105467742D01*
X166816064Y-105672468D01*
X166814500Y-105716452D01*
X166792599Y-105887487D01*
X166733704Y-106136647D01*
X166648023Y-106424155D01*
X166588384Y-106597474D01*
X166484323Y-106898929D01*
X166391593Y-107194598D01*
X166323689Y-107440203D01*
X166301938Y-107537250D01*
X166228141Y-107779070D01*
X166120761Y-107946140D01*
X165996462Y-108013203D01*
X165987749Y-108013500D01*
X165916601Y-107981098D01*
X165775789Y-107897566D01*
X165651598Y-107817653D01*
X165356675Y-107666368D01*
X165042364Y-107573555D01*
X165021587Y-107570125D01*
X164778461Y-107526614D01*
X164482952Y-107465517D01*
X164242750Y-107410435D01*
X163959297Y-107352550D01*
X163704363Y-107312176D01*
X163704363Y-107850923D01*
X163939767Y-107874282D01*
X164061840Y-107891414D01*
X164362072Y-107932498D01*
X164670331Y-107969559D01*
X164919949Y-107994581D01*
X164920231Y-107994604D01*
X165165571Y-108030198D01*
X165351248Y-108106211D01*
X165543928Y-108249992D01*
X165545029Y-108250934D01*
X165787793Y-108501977D01*
X165907848Y-108733627D01*
X165904385Y-108943917D01*
X165864435Y-109027734D01*
X165813332Y-109069386D01*
X165709468Y-109095145D01*
X165531589Y-109107097D01*
X165258443Y-109107322D01*
X165087532Y-109103884D01*
X164718074Y-109092406D01*
X164457728Y-109076624D01*
X164288609Y-109053362D01*
X164192834Y-109019447D01*
X164152519Y-108971703D01*
X164147500Y-108937005D01*
X164205329Y-108768653D01*
X164356803Y-108634852D01*
X164568902Y-108560936D01*
X164646659Y-108554002D01*
X164879748Y-108525177D01*
X164996658Y-108451285D01*
X165001083Y-108329192D01*
X164976648Y-108274317D01*
X164913454Y-108187757D01*
X164824343Y-108149908D01*
X164681100Y-108159189D01*
X164455507Y-108214024D01*
X164364321Y-108240060D01*
X164038186Y-108380799D01*
X163773331Y-108600803D01*
X163524816Y-108861986D01*
X163455512Y-108612368D01*
X163396875Y-108316133D01*
X163395640Y-108075478D01*
X163451126Y-107916311D01*
X163474465Y-107891715D01*
X163557627Y-107856730D01*
X163704363Y-107850923D01*
X163704363Y-107312176D01*
X163615852Y-107298158D01*
X163279232Y-107257627D01*
X163226750Y-107252796D01*
X162898236Y-107219862D01*
X162551354Y-107178086D01*
X162394904Y-107155830D01*
X162394904Y-116659341D01*
X162421238Y-116662380D01*
X162470586Y-116678532D01*
X162511421Y-116718587D01*
X162550898Y-116802296D01*
X162596174Y-116949408D01*
X162654406Y-117179674D01*
X162732750Y-117512842D01*
X162738702Y-117538500D01*
X162817934Y-117901027D01*
X162860707Y-118156117D01*
X162867464Y-118317854D01*
X162838650Y-118400320D01*
X162774709Y-118417600D01*
X162766375Y-118416281D01*
X162648791Y-118333404D01*
X162535106Y-118137532D01*
X162431298Y-117842651D01*
X162343345Y-117462748D01*
X162332046Y-117400192D01*
X162283079Y-117059151D01*
X162276447Y-116828500D01*
X162313329Y-116698482D01*
X162394904Y-116659341D01*
X162394904Y-107155830D01*
X162252827Y-107135617D01*
X162210750Y-107128757D01*
X161927904Y-107086041D01*
X161915365Y-107084470D01*
X161915365Y-111716784D01*
X161981252Y-111721310D01*
X162046913Y-111807625D01*
X162087475Y-111945197D01*
X162108318Y-112150919D01*
X162108637Y-112372626D01*
X162107157Y-112385695D01*
X162107157Y-113739353D01*
X162221151Y-113764137D01*
X162285267Y-113828079D01*
X162354513Y-113983862D01*
X162318943Y-114095905D01*
X162186443Y-114141153D01*
X162178130Y-114141250D01*
X162056650Y-114113153D01*
X162005590Y-114004779D01*
X162000122Y-113966263D01*
X162021846Y-113812367D01*
X162107157Y-113739353D01*
X162107157Y-112385695D01*
X162087629Y-112558149D01*
X162059721Y-112638680D01*
X161954676Y-112707632D01*
X161818246Y-112689142D01*
X161695271Y-112597348D01*
X161644746Y-112507836D01*
X161620400Y-112370963D01*
X161651527Y-112212924D01*
X161733698Y-112015711D01*
X161837988Y-111811503D01*
X161915365Y-111716784D01*
X161915365Y-107084470D01*
X161641620Y-107050158D01*
X161448750Y-107031732D01*
X161030563Y-106994828D01*
X160726042Y-106950481D01*
X160521934Y-106895796D01*
X160404986Y-106827878D01*
X160380930Y-106798460D01*
X160327593Y-106727479D01*
X160262426Y-106693918D01*
X160161742Y-106701112D01*
X160001855Y-106752398D01*
X159955762Y-106771139D01*
X159955762Y-109804382D01*
X160252044Y-109886750D01*
X160459823Y-109945480D01*
X160708665Y-109978998D01*
X160793929Y-109982000D01*
X161007249Y-109995870D01*
X161185061Y-110030954D01*
X161238036Y-110051674D01*
X161315957Y-110111685D01*
X161344758Y-110205698D01*
X161334386Y-110374547D01*
X161328312Y-110422211D01*
X161301570Y-110719469D01*
X161287011Y-111091172D01*
X161283958Y-111504840D01*
X161291736Y-111927993D01*
X161309667Y-112328152D01*
X161337076Y-112672835D01*
X161373286Y-112929564D01*
X161381289Y-112966500D01*
X161433166Y-113219560D01*
X161469079Y-113457715D01*
X161480181Y-113601500D01*
X161508983Y-113782639D01*
X161581504Y-114013856D01*
X161648719Y-114173000D01*
X161820609Y-114574785D01*
X161910980Y-114903230D01*
X161921563Y-115180906D01*
X161854085Y-115430384D01*
X161758389Y-115604834D01*
X161708980Y-115696588D01*
X161684378Y-115802604D01*
X161683127Y-115954247D01*
X161703772Y-116182880D01*
X161723752Y-116351351D01*
X161772681Y-116739083D01*
X161812603Y-117027786D01*
X161848139Y-117244701D01*
X161883908Y-117417065D01*
X161924530Y-117572118D01*
X161939369Y-117622730D01*
X161979086Y-117790154D01*
X161965795Y-117880966D01*
X161922922Y-117920783D01*
X161749138Y-117980820D01*
X161485617Y-118015218D01*
X161167231Y-118022886D01*
X160828849Y-118002733D01*
X160555177Y-117963603D01*
X160208692Y-117877298D01*
X159819171Y-117746720D01*
X159418554Y-117585917D01*
X159038779Y-117408941D01*
X158711788Y-117229844D01*
X158469519Y-117062676D01*
X158431045Y-117029157D01*
X158173011Y-116790941D01*
X158296266Y-116545595D01*
X158482741Y-116132145D01*
X158658683Y-115667030D01*
X158800466Y-115215123D01*
X158846518Y-115034701D01*
X158898957Y-114767100D01*
X158909759Y-114566767D01*
X158880801Y-114381659D01*
X158871394Y-114345508D01*
X158820118Y-114053028D01*
X158795755Y-113680087D01*
X158798467Y-113270373D01*
X158828420Y-112867577D01*
X158864921Y-112617250D01*
X158939544Y-112226592D01*
X159005473Y-111927543D01*
X159073072Y-111686146D01*
X159152702Y-111468448D01*
X159254723Y-111240494D01*
X159335141Y-111076368D01*
X159597331Y-110551486D01*
X159427665Y-110374393D01*
X159298401Y-110217951D01*
X159271208Y-110101754D01*
X159345904Y-109990727D01*
X159425313Y-109923108D01*
X159663663Y-109813333D01*
X159955762Y-109804382D01*
X159955762Y-106771139D01*
X159759077Y-106851112D01*
X159636531Y-106903306D01*
X159348651Y-107018259D01*
X159153392Y-107068902D01*
X159031605Y-107051229D01*
X158964140Y-106961232D01*
X158931848Y-106794903D01*
X158928170Y-106755070D01*
X158887517Y-106567882D01*
X158810837Y-106499693D01*
X158704236Y-106549695D01*
X158573818Y-106717079D01*
X158520499Y-106809060D01*
X158362748Y-107048141D01*
X158175579Y-107211936D01*
X158149974Y-107226539D01*
X158149974Y-114637591D01*
X158215490Y-114672916D01*
X158275514Y-114798151D01*
X158323186Y-114976215D01*
X158351644Y-115170026D01*
X158354027Y-115342502D01*
X158323474Y-115456561D01*
X158304931Y-115475101D01*
X158173169Y-115492240D01*
X158039030Y-115421097D01*
X157952153Y-115289248D01*
X157948825Y-115277274D01*
X157945386Y-115126365D01*
X157983579Y-114939758D01*
X158048153Y-114765953D01*
X158123859Y-114653448D01*
X158149974Y-114637591D01*
X158149974Y-107226539D01*
X158042862Y-107287627D01*
X157865345Y-107385691D01*
X157806355Y-107425199D01*
X157806355Y-116083155D01*
X157944040Y-116126490D01*
X157975300Y-116154200D01*
X158047503Y-116291741D01*
X157994200Y-116424185D01*
X157964298Y-116452320D01*
X157836406Y-116496425D01*
X157718218Y-116449496D01*
X157643415Y-116345213D01*
X157645679Y-116217258D01*
X157677179Y-116165201D01*
X157806355Y-116083155D01*
X157806355Y-107425199D01*
X157738009Y-107470974D01*
X157701973Y-107505947D01*
X157636058Y-107576153D01*
X157498813Y-107701750D01*
X157317454Y-107858017D01*
X157279217Y-107889998D01*
X157078074Y-108051476D01*
X156937967Y-108142278D01*
X156826260Y-108177486D01*
X156710317Y-108172181D01*
X156680042Y-108166895D01*
X156498156Y-108156061D01*
X156366574Y-108216720D01*
X156262717Y-108367857D01*
X156176463Y-108590379D01*
X156095335Y-108786375D01*
X156027884Y-108856822D01*
X155985863Y-108809335D01*
X155985863Y-116395500D01*
X156142839Y-116425154D01*
X156344865Y-116499500D01*
X156544034Y-116596614D01*
X156692442Y-116694569D01*
X156732902Y-116737405D01*
X156776090Y-116848053D01*
X156715020Y-116930773D01*
X156653857Y-116967343D01*
X156552538Y-116996862D01*
X156454256Y-116949087D01*
X156361667Y-116858453D01*
X156184801Y-116723522D01*
X156028935Y-116681250D01*
X155894125Y-116650723D01*
X155840984Y-116541967D01*
X155840458Y-116538375D01*
X155848642Y-116432178D01*
X155938108Y-116396982D01*
X155985863Y-116395500D01*
X155985863Y-108809335D01*
X155979877Y-108802570D01*
X155957084Y-108624470D01*
X155956000Y-108557863D01*
X155956000Y-108284221D01*
X155687340Y-108248187D01*
X155517159Y-108231199D01*
X155409482Y-108231417D01*
X155394434Y-108236398D01*
X155394208Y-108306448D01*
X155420015Y-108459445D01*
X155446454Y-108578558D01*
X155483105Y-108771729D01*
X155492869Y-108915641D01*
X155484161Y-108958862D01*
X155403034Y-108982092D01*
X155311462Y-108956935D01*
X155311462Y-109698684D01*
X155390475Y-109775555D01*
X155441985Y-109901249D01*
X155448000Y-109960259D01*
X155434096Y-110066757D01*
X155370272Y-110069628D01*
X155321000Y-110045500D01*
X155220943Y-109939122D01*
X155193843Y-109800993D01*
X155235782Y-109707384D01*
X155311462Y-109698684D01*
X155311462Y-108956935D01*
X155256374Y-108941801D01*
X155076610Y-108855290D01*
X154896170Y-108739862D01*
X154747485Y-108612818D01*
X154682632Y-108531228D01*
X154569155Y-108382497D01*
X154482815Y-108355820D01*
X154422569Y-108452017D01*
X154387370Y-108671908D01*
X154381266Y-108767672D01*
X154381252Y-108986025D01*
X154408258Y-109204143D01*
X154469542Y-109459585D01*
X154572359Y-109789909D01*
X154587641Y-109835792D01*
X154704771Y-110201653D01*
X154775638Y-110473217D01*
X154801976Y-110673767D01*
X154785519Y-110826587D01*
X154728001Y-110954960D01*
X154676402Y-111027528D01*
X154600991Y-111131842D01*
X154572189Y-111221412D01*
X154587594Y-111340725D01*
X154644802Y-111534268D01*
X154648412Y-111545726D01*
X154716944Y-111831298D01*
X154709727Y-112020642D01*
X154625247Y-112120579D01*
X154516177Y-112141000D01*
X154399884Y-112163209D01*
X154389939Y-112232278D01*
X154428975Y-112351058D01*
X154480587Y-112527641D01*
X154491087Y-112565653D01*
X154562095Y-112744717D01*
X154682181Y-112973199D01*
X154812104Y-113181445D01*
X154977681Y-113455991D01*
X155057568Y-113664796D01*
X155050368Y-113800254D01*
X154954685Y-113854757D01*
X154935825Y-113855500D01*
X154703360Y-113799052D01*
X154449525Y-113638662D01*
X154384625Y-113582731D01*
X154271866Y-113504817D01*
X154197765Y-113497120D01*
X154196840Y-113497992D01*
X154218458Y-113558798D01*
G36*
X177010963Y-116285581D02*
X177012225Y-116289718D01*
X177089220Y-116435268D01*
X177188086Y-116495473D01*
X177241343Y-116482812D01*
X177289526Y-116389746D01*
X177272419Y-116255384D01*
X177199531Y-116143808D01*
X177083145Y-116097170D01*
X177009839Y-116152568D01*
X177010963Y-116285581D01*
X177010963Y-116285581D01*
G37*
X177010963Y-116285581D02*
X177012225Y-116289718D01*
X177089220Y-116435268D01*
X177188086Y-116495473D01*
X177241343Y-116482812D01*
X177289526Y-116389746D01*
X177272419Y-116255384D01*
X177199531Y-116143808D01*
X177083145Y-116097170D01*
X177009839Y-116152568D01*
X177010963Y-116285581D01*
G36*
X176740877Y-115087011D02*
X176811857Y-115172206D01*
X176904190Y-115153657D01*
X177001475Y-115048881D01*
X177087312Y-114875392D01*
X177144460Y-114655966D01*
X177158585Y-114501172D01*
X177126501Y-114436156D01*
X177077233Y-114427000D01*
X176988257Y-114481407D01*
X176888589Y-114616543D01*
X176799698Y-114790274D01*
X176743056Y-114960470D01*
X176740134Y-115084999D01*
X176740877Y-115087011D01*
X176740877Y-115087011D01*
G37*
X176740877Y-115087011D02*
X176811857Y-115172206D01*
X176904190Y-115153657D01*
X177001475Y-115048881D01*
X177087312Y-114875392D01*
X177144460Y-114655966D01*
X177158585Y-114501172D01*
X177126501Y-114436156D01*
X177077233Y-114427000D01*
X176988257Y-114481407D01*
X176888589Y-114616543D01*
X176799698Y-114790274D01*
X176743056Y-114960470D01*
X176740134Y-115084999D01*
X176740877Y-115087011D01*
G36*
X176437355Y-110417768D02*
X176522011Y-110399965D01*
X176588808Y-110336903D01*
X176627193Y-110242435D01*
X176596583Y-110206155D01*
X176487584Y-110196082D01*
X176412413Y-110278502D01*
X176403000Y-110334997D01*
X176437355Y-110417768D01*
X176437355Y-110417768D01*
G37*
X176437355Y-110417768D02*
X176522011Y-110399965D01*
X176588808Y-110336903D01*
X176627193Y-110242435D01*
X176596583Y-110206155D01*
X176487584Y-110196082D01*
X176412413Y-110278502D01*
X176403000Y-110334997D01*
X176437355Y-110417768D01*
G36*
X173766429Y-116833426D02*
X173850883Y-116868941D01*
X173979108Y-116787242D01*
X173987683Y-116778816D01*
X174082436Y-116629821D01*
X174115034Y-116463536D01*
X174079843Y-116329157D01*
X174043216Y-116293894D01*
X173954317Y-116302475D01*
X173854071Y-116394401D01*
X173771603Y-116532638D01*
X173736037Y-116680153D01*
X173736000Y-116684537D01*
X173766429Y-116833426D01*
X173766429Y-116833426D01*
G37*
X173766429Y-116833426D02*
X173850883Y-116868941D01*
X173979108Y-116787242D01*
X173987683Y-116778816D01*
X174082436Y-116629821D01*
X174115034Y-116463536D01*
X174079843Y-116329157D01*
X174043216Y-116293894D01*
X173954317Y-116302475D01*
X173854071Y-116394401D01*
X173771603Y-116532638D01*
X173736037Y-116680153D01*
X173736000Y-116684537D01*
X173766429Y-116833426D01*
G36*
X173440770Y-115428271D02*
X173497313Y-115504999D01*
X173572729Y-115461293D01*
X173651616Y-115295379D01*
X173662448Y-115261007D01*
X173722981Y-115017327D01*
X173726848Y-114864039D01*
X173674069Y-114777889D01*
X173662866Y-114770296D01*
X173571505Y-114772419D01*
X173490888Y-114874394D01*
X173435330Y-115049121D01*
X173418500Y-115232886D01*
X173440770Y-115428271D01*
X173440770Y-115428271D01*
G37*
X173440770Y-115428271D02*
X173497313Y-115504999D01*
X173572729Y-115461293D01*
X173651616Y-115295379D01*
X173662448Y-115261007D01*
X173722981Y-115017327D01*
X173726848Y-114864039D01*
X173674069Y-114777889D01*
X173662866Y-114770296D01*
X173571505Y-114772419D01*
X173490888Y-114874394D01*
X173435330Y-115049121D01*
X173418500Y-115232886D01*
X173440770Y-115428271D01*
G36*
X170446947Y-113631540D02*
X170491350Y-113796899D01*
X170573369Y-113847222D01*
X170682213Y-113784885D01*
X170807090Y-113612264D01*
X170843625Y-113544165D01*
X170944102Y-113342049D01*
X170990991Y-113224476D01*
X170988474Y-113162885D01*
X170940733Y-113128719D01*
X170906459Y-113115008D01*
X170791659Y-113132539D01*
X170638342Y-113239539D01*
X170617781Y-113258687D01*
X170484252Y-113420953D01*
X170444361Y-113580462D01*
X170446947Y-113631540D01*
X170446947Y-113631540D01*
G37*
X170446947Y-113631540D02*
X170491350Y-113796899D01*
X170573369Y-113847222D01*
X170682213Y-113784885D01*
X170807090Y-113612264D01*
X170843625Y-113544165D01*
X170944102Y-113342049D01*
X170990991Y-113224476D01*
X170988474Y-113162885D01*
X170940733Y-113128719D01*
X170906459Y-113115008D01*
X170791659Y-113132539D01*
X170638342Y-113239539D01*
X170617781Y-113258687D01*
X170484252Y-113420953D01*
X170444361Y-113580462D01*
X170446947Y-113631540D01*
G36*
X165468387Y-110293849D02*
X165504974Y-110299500D01*
X165606435Y-110262249D01*
X165686189Y-110181064D01*
X165702888Y-110101793D01*
X165694349Y-110089516D01*
X165613920Y-110083302D01*
X165504269Y-110133953D01*
X165426234Y-110208789D01*
X165417500Y-110238234D01*
X165468387Y-110293849D01*
X165468387Y-110293849D01*
G37*
X165468387Y-110293849D02*
X165504974Y-110299500D01*
X165606435Y-110262249D01*
X165686189Y-110181064D01*
X165702888Y-110101793D01*
X165694349Y-110089516D01*
X165613920Y-110083302D01*
X165504269Y-110133953D01*
X165426234Y-110208789D01*
X165417500Y-110238234D01*
X165468387Y-110293849D01*
M02*
