G04 #@! TF.FileFunction,Legend,Top*
%FSLAX46Y46*%
G04 Gerber Fmt 4.6, Leading zero omitted, Abs format (unit mm)*
G04 Created by KiCad (PCBNEW 4.0.2-stable) date Monday, 05 December 2016 'pmt' 11:41:00 pm*
%MOMM*%
G01*
G04 APERTURE LIST*
%ADD10C,0.100000*%
%ADD11C,0.150000*%
%ADD12C,0.152400*%
G04 APERTURE END LIST*
D10*
D11*
X174355000Y-94225000D02*
X172355000Y-94225000D01*
X172355000Y-96275000D02*
X174355000Y-96275000D01*
X143145000Y-107705000D02*
X145145000Y-107705000D01*
X145145000Y-105655000D02*
X143145000Y-105655000D01*
X143145000Y-96275000D02*
X145145000Y-96275000D01*
X145145000Y-94225000D02*
X143145000Y-94225000D01*
X172355000Y-107705000D02*
X174355000Y-107705000D01*
X174355000Y-105655000D02*
X172355000Y-105655000D01*
X154035000Y-85970000D02*
X152035000Y-85970000D01*
X152035000Y-88020000D02*
X154035000Y-88020000D01*
X171840000Y-89470362D02*
X175440000Y-89470362D01*
X171840000Y-87370362D02*
X175440000Y-87370362D01*
X173890000Y-88120362D02*
X173890000Y-88720362D01*
X173890000Y-88720362D02*
X173590000Y-88420362D01*
X173590000Y-88420362D02*
X173790000Y-88220362D01*
X173790000Y-88220362D02*
X173790000Y-88470362D01*
X173790000Y-88470362D02*
X173740000Y-88420362D01*
X173490000Y-87920362D02*
X173490000Y-88920362D01*
X173990000Y-88420362D02*
X174490000Y-88420362D01*
X173490000Y-88420362D02*
X173990000Y-87920362D01*
X173990000Y-87920362D02*
X173990000Y-88920362D01*
X173990000Y-88920362D02*
X173490000Y-88420362D01*
X173736000Y-104521000D02*
X176784000Y-104521000D01*
X176784000Y-104521000D02*
X176784000Y-97409000D01*
X176784000Y-97409000D02*
X173736000Y-97409000D01*
X170688000Y-104521000D02*
X169926000Y-104521000D01*
X169926000Y-104521000D02*
X167640000Y-102997000D01*
X167640000Y-102997000D02*
X167640000Y-98933000D01*
X167640000Y-98933000D02*
X169926000Y-97409000D01*
X169926000Y-97409000D02*
X170688000Y-97409000D01*
X144399000Y-104648000D02*
X147447000Y-104648000D01*
X147447000Y-104648000D02*
X147447000Y-97536000D01*
X147447000Y-97536000D02*
X144399000Y-97536000D01*
X141351000Y-104648000D02*
X140589000Y-104648000D01*
X140589000Y-104648000D02*
X138303000Y-103124000D01*
X138303000Y-103124000D02*
X138303000Y-99060000D01*
X138303000Y-99060000D02*
X140589000Y-97536000D01*
X140589000Y-97536000D02*
X141351000Y-97536000D01*
X140970000Y-132080000D02*
X143510000Y-132080000D01*
X138150000Y-131800000D02*
X139700000Y-131800000D01*
X140970000Y-132080000D02*
X140970000Y-134620000D01*
X139700000Y-134900000D02*
X138150000Y-134900000D01*
X138150000Y-134900000D02*
X138150000Y-131800000D01*
X140970000Y-134620000D02*
X143510000Y-134620000D01*
X143510000Y-134620000D02*
X143510000Y-132080000D01*
X164465000Y-128270000D02*
X177165000Y-128270000D01*
X177165000Y-128270000D02*
X177165000Y-133350000D01*
X177165000Y-133350000D02*
X167005000Y-133350000D01*
X164465000Y-128270000D02*
X164465000Y-130810000D01*
X164185000Y-132080000D02*
X164185000Y-133630000D01*
X164465000Y-130810000D02*
X167005000Y-130810000D01*
X167005000Y-130810000D02*
X167005000Y-133350000D01*
X164185000Y-133630000D02*
X165735000Y-133630000D01*
X176530000Y-69215000D02*
X176530000Y-81915000D01*
X176530000Y-81915000D02*
X173990000Y-81915000D01*
X173990000Y-81915000D02*
X173990000Y-69215000D01*
X176810000Y-66395000D02*
X176810000Y-67945000D01*
X176530000Y-69215000D02*
X173990000Y-69215000D01*
X173710000Y-67945000D02*
X173710000Y-66395000D01*
X173710000Y-66395000D02*
X176810000Y-66395000D01*
X162306000Y-114681000D02*
X159258000Y-114681000D01*
X159258000Y-114681000D02*
X159258000Y-121793000D01*
X159258000Y-121793000D02*
X162306000Y-121793000D01*
X165354000Y-114681000D02*
X166116000Y-114681000D01*
X166116000Y-114681000D02*
X168402000Y-116205000D01*
X168402000Y-116205000D02*
X168402000Y-120269000D01*
X168402000Y-120269000D02*
X166116000Y-121793000D01*
X166116000Y-121793000D02*
X165354000Y-121793000D01*
X172466000Y-114554000D02*
X169418000Y-114554000D01*
X169418000Y-114554000D02*
X169418000Y-121666000D01*
X169418000Y-121666000D02*
X172466000Y-121666000D01*
X175514000Y-114554000D02*
X176276000Y-114554000D01*
X176276000Y-114554000D02*
X178562000Y-116078000D01*
X178562000Y-116078000D02*
X178562000Y-120142000D01*
X178562000Y-120142000D02*
X176276000Y-121666000D01*
X176276000Y-121666000D02*
X175514000Y-121666000D01*
X141859000Y-114554000D02*
X138811000Y-114554000D01*
X138811000Y-114554000D02*
X138811000Y-121666000D01*
X138811000Y-121666000D02*
X141859000Y-121666000D01*
X144907000Y-114554000D02*
X145669000Y-114554000D01*
X145669000Y-114554000D02*
X147955000Y-116078000D01*
X147955000Y-116078000D02*
X147955000Y-120142000D01*
X147955000Y-120142000D02*
X145669000Y-121666000D01*
X145669000Y-121666000D02*
X144907000Y-121666000D01*
X152019000Y-114554000D02*
X148971000Y-114554000D01*
X148971000Y-114554000D02*
X148971000Y-121666000D01*
X148971000Y-121666000D02*
X152019000Y-121666000D01*
X155067000Y-114554000D02*
X155829000Y-114554000D01*
X155829000Y-114554000D02*
X158115000Y-116078000D01*
X158115000Y-116078000D02*
X158115000Y-120142000D01*
X158115000Y-120142000D02*
X155829000Y-121666000D01*
X155829000Y-121666000D02*
X155067000Y-121666000D01*
X163560000Y-124900000D02*
X161560000Y-124900000D01*
X161560000Y-122750000D02*
X163560000Y-122750000D01*
X163560000Y-113470000D02*
X161560000Y-113470000D01*
X161560000Y-111320000D02*
X163560000Y-111320000D01*
X173720000Y-124900000D02*
X171720000Y-124900000D01*
X171720000Y-122750000D02*
X173720000Y-122750000D01*
X173720000Y-113470000D02*
X171720000Y-113470000D01*
X171720000Y-111320000D02*
X173720000Y-111320000D01*
X143240000Y-124900000D02*
X141240000Y-124900000D01*
X141240000Y-122750000D02*
X143240000Y-122750000D01*
X143240000Y-113470000D02*
X141240000Y-113470000D01*
X141240000Y-111320000D02*
X143240000Y-111320000D01*
X153400000Y-124900000D02*
X151400000Y-124900000D01*
X151400000Y-122750000D02*
X153400000Y-122750000D01*
X153400000Y-113470000D02*
X151400000Y-113470000D01*
X151400000Y-111320000D02*
X153400000Y-111320000D01*
X172355000Y-91000000D02*
X174355000Y-91000000D01*
X174355000Y-93150000D02*
X172355000Y-93150000D01*
X143875000Y-88070000D02*
X141875000Y-88070000D01*
X141875000Y-85920000D02*
X143875000Y-85920000D01*
X143875000Y-91245000D02*
X141875000Y-91245000D01*
X141875000Y-89095000D02*
X143875000Y-89095000D01*
X167275000Y-77030000D02*
X169275000Y-77030000D01*
X169275000Y-79180000D02*
X167275000Y-79180000D01*
X163000000Y-82185000D02*
X163000000Y-84185000D01*
X160850000Y-84185000D02*
X160850000Y-82185000D01*
X154800000Y-91125000D02*
X154800000Y-90875000D01*
X154800000Y-90875000D02*
X161100000Y-90875000D01*
X161100000Y-90875000D02*
X161100000Y-91125000D01*
X154800000Y-95625000D02*
X154800000Y-93025000D01*
X161100000Y-97525000D02*
X161100000Y-97775000D01*
X161100000Y-97775000D02*
X154800000Y-97775000D01*
X154800000Y-97775000D02*
X154800000Y-97525000D01*
X161100000Y-93025000D02*
X161100000Y-95625000D01*
X159600000Y-94325000D02*
G75*
G03X159600000Y-94325000I-1650000J0D01*
G01*
X154965000Y-101575000D02*
X154965000Y-101325000D01*
X154965000Y-101325000D02*
X161265000Y-101325000D01*
X161265000Y-101325000D02*
X161265000Y-101575000D01*
X154965000Y-106075000D02*
X154965000Y-103475000D01*
X161265000Y-107975000D02*
X161265000Y-108225000D01*
X161265000Y-108225000D02*
X154965000Y-108225000D01*
X154965000Y-108225000D02*
X154965000Y-107975000D01*
X161265000Y-103475000D02*
X161265000Y-106075000D01*
X159765000Y-104775000D02*
G75*
G03X159765000Y-104775000I-1650000J0D01*
G01*
D12*
X141829000Y-82804000D02*
X141829000Y-83566000D01*
X141829000Y-83566000D02*
X157831000Y-83566000D01*
X157831000Y-83566000D02*
X157831000Y-82804000D01*
D11*
X177633334Y-95607143D02*
X177585715Y-95654762D01*
X177442858Y-95702381D01*
X177347620Y-95702381D01*
X177204762Y-95654762D01*
X177109524Y-95559524D01*
X177061905Y-95464286D01*
X177014286Y-95273810D01*
X177014286Y-95130952D01*
X177061905Y-94940476D01*
X177109524Y-94845238D01*
X177204762Y-94750000D01*
X177347620Y-94702381D01*
X177442858Y-94702381D01*
X177585715Y-94750000D01*
X177633334Y-94797619D01*
X178585715Y-95702381D02*
X178014286Y-95702381D01*
X178300000Y-95702381D02*
X178300000Y-94702381D01*
X178204762Y-94845238D01*
X178109524Y-94940476D01*
X178014286Y-94988095D01*
X148423334Y-107037143D02*
X148375715Y-107084762D01*
X148232858Y-107132381D01*
X148137620Y-107132381D01*
X147994762Y-107084762D01*
X147899524Y-106989524D01*
X147851905Y-106894286D01*
X147804286Y-106703810D01*
X147804286Y-106560952D01*
X147851905Y-106370476D01*
X147899524Y-106275238D01*
X147994762Y-106180000D01*
X148137620Y-106132381D01*
X148232858Y-106132381D01*
X148375715Y-106180000D01*
X148423334Y-106227619D01*
X148804286Y-106227619D02*
X148851905Y-106180000D01*
X148947143Y-106132381D01*
X149185239Y-106132381D01*
X149280477Y-106180000D01*
X149328096Y-106227619D01*
X149375715Y-106322857D01*
X149375715Y-106418095D01*
X149328096Y-106560952D01*
X148756667Y-107132381D01*
X149375715Y-107132381D01*
X148423334Y-95607143D02*
X148375715Y-95654762D01*
X148232858Y-95702381D01*
X148137620Y-95702381D01*
X147994762Y-95654762D01*
X147899524Y-95559524D01*
X147851905Y-95464286D01*
X147804286Y-95273810D01*
X147804286Y-95130952D01*
X147851905Y-94940476D01*
X147899524Y-94845238D01*
X147994762Y-94750000D01*
X148137620Y-94702381D01*
X148232858Y-94702381D01*
X148375715Y-94750000D01*
X148423334Y-94797619D01*
X148756667Y-94702381D02*
X149375715Y-94702381D01*
X149042381Y-95083333D01*
X149185239Y-95083333D01*
X149280477Y-95130952D01*
X149328096Y-95178571D01*
X149375715Y-95273810D01*
X149375715Y-95511905D01*
X149328096Y-95607143D01*
X149280477Y-95654762D01*
X149185239Y-95702381D01*
X148899524Y-95702381D01*
X148804286Y-95654762D01*
X148756667Y-95607143D01*
X177633334Y-107037143D02*
X177585715Y-107084762D01*
X177442858Y-107132381D01*
X177347620Y-107132381D01*
X177204762Y-107084762D01*
X177109524Y-106989524D01*
X177061905Y-106894286D01*
X177014286Y-106703810D01*
X177014286Y-106560952D01*
X177061905Y-106370476D01*
X177109524Y-106275238D01*
X177204762Y-106180000D01*
X177347620Y-106132381D01*
X177442858Y-106132381D01*
X177585715Y-106180000D01*
X177633334Y-106227619D01*
X178490477Y-106465714D02*
X178490477Y-107132381D01*
X178252381Y-106084762D02*
X178014286Y-106799048D01*
X178633334Y-106799048D01*
X157313334Y-87352143D02*
X157265715Y-87399762D01*
X157122858Y-87447381D01*
X157027620Y-87447381D01*
X156884762Y-87399762D01*
X156789524Y-87304524D01*
X156741905Y-87209286D01*
X156694286Y-87018810D01*
X156694286Y-86875952D01*
X156741905Y-86685476D01*
X156789524Y-86590238D01*
X156884762Y-86495000D01*
X157027620Y-86447381D01*
X157122858Y-86447381D01*
X157265715Y-86495000D01*
X157313334Y-86542619D01*
X158218096Y-86447381D02*
X157741905Y-86447381D01*
X157694286Y-86923571D01*
X157741905Y-86875952D01*
X157837143Y-86828333D01*
X158075239Y-86828333D01*
X158170477Y-86875952D01*
X158218096Y-86923571D01*
X158265715Y-87018810D01*
X158265715Y-87256905D01*
X158218096Y-87352143D01*
X158170477Y-87399762D01*
X158075239Y-87447381D01*
X157837143Y-87447381D01*
X157741905Y-87399762D01*
X157694286Y-87352143D01*
X177061905Y-88717381D02*
X177061905Y-87717381D01*
X177300000Y-87717381D01*
X177442858Y-87765000D01*
X177538096Y-87860238D01*
X177585715Y-87955476D01*
X177633334Y-88145952D01*
X177633334Y-88288810D01*
X177585715Y-88479286D01*
X177538096Y-88574524D01*
X177442858Y-88669762D01*
X177300000Y-88717381D01*
X177061905Y-88717381D01*
X178585715Y-88717381D02*
X178014286Y-88717381D01*
X178300000Y-88717381D02*
X178300000Y-87717381D01*
X178204762Y-87860238D01*
X178109524Y-87955476D01*
X178014286Y-88003095D01*
X177458810Y-98877381D02*
X177458810Y-97877381D01*
X178506429Y-98782143D02*
X178458810Y-98829762D01*
X178315953Y-98877381D01*
X178220715Y-98877381D01*
X178077857Y-98829762D01*
X177982619Y-98734524D01*
X177935000Y-98639286D01*
X177887381Y-98448810D01*
X177887381Y-98305952D01*
X177935000Y-98115476D01*
X177982619Y-98020238D01*
X178077857Y-97925000D01*
X178220715Y-97877381D01*
X178315953Y-97877381D01*
X178458810Y-97925000D01*
X178506429Y-97972619D01*
X179458810Y-98877381D02*
X178887381Y-98877381D01*
X179173095Y-98877381D02*
X179173095Y-97877381D01*
X179077857Y-98020238D01*
X178982619Y-98115476D01*
X178887381Y-98163095D01*
X148248810Y-98242381D02*
X148248810Y-97242381D01*
X149296429Y-98147143D02*
X149248810Y-98194762D01*
X149105953Y-98242381D01*
X149010715Y-98242381D01*
X148867857Y-98194762D01*
X148772619Y-98099524D01*
X148725000Y-98004286D01*
X148677381Y-97813810D01*
X148677381Y-97670952D01*
X148725000Y-97480476D01*
X148772619Y-97385238D01*
X148867857Y-97290000D01*
X149010715Y-97242381D01*
X149105953Y-97242381D01*
X149248810Y-97290000D01*
X149296429Y-97337619D01*
X149677381Y-97337619D02*
X149725000Y-97290000D01*
X149820238Y-97242381D01*
X150058334Y-97242381D01*
X150153572Y-97290000D01*
X150201191Y-97337619D01*
X150248810Y-97432857D01*
X150248810Y-97528095D01*
X150201191Y-97670952D01*
X149629762Y-98242381D01*
X150248810Y-98242381D01*
X144676905Y-133802381D02*
X144676905Y-132802381D01*
X145057858Y-132802381D01*
X145153096Y-132850000D01*
X145200715Y-132897619D01*
X145248334Y-132992857D01*
X145248334Y-133135714D01*
X145200715Y-133230952D01*
X145153096Y-133278571D01*
X145057858Y-133326190D01*
X144676905Y-133326190D01*
X146200715Y-133802381D02*
X145629286Y-133802381D01*
X145915000Y-133802381D02*
X145915000Y-132802381D01*
X145819762Y-132945238D01*
X145724524Y-133040476D01*
X145629286Y-133088095D01*
X177696905Y-129357381D02*
X177696905Y-128357381D01*
X178077858Y-128357381D01*
X178173096Y-128405000D01*
X178220715Y-128452619D01*
X178268334Y-128547857D01*
X178268334Y-128690714D01*
X178220715Y-128785952D01*
X178173096Y-128833571D01*
X178077858Y-128881190D01*
X177696905Y-128881190D01*
X178649286Y-128452619D02*
X178696905Y-128405000D01*
X178792143Y-128357381D01*
X179030239Y-128357381D01*
X179125477Y-128405000D01*
X179173096Y-128452619D01*
X179220715Y-128547857D01*
X179220715Y-128643095D01*
X179173096Y-128785952D01*
X178601667Y-129357381D01*
X179220715Y-129357381D01*
X177696905Y-68397381D02*
X177696905Y-67397381D01*
X178077858Y-67397381D01*
X178173096Y-67445000D01*
X178220715Y-67492619D01*
X178268334Y-67587857D01*
X178268334Y-67730714D01*
X178220715Y-67825952D01*
X178173096Y-67873571D01*
X178077858Y-67921190D01*
X177696905Y-67921190D01*
X178601667Y-67397381D02*
X179220715Y-67397381D01*
X178887381Y-67778333D01*
X179030239Y-67778333D01*
X179125477Y-67825952D01*
X179173096Y-67873571D01*
X179220715Y-67968810D01*
X179220715Y-68206905D01*
X179173096Y-68302143D01*
X179125477Y-68349762D01*
X179030239Y-68397381D01*
X178744524Y-68397381D01*
X178649286Y-68349762D01*
X178601667Y-68302143D01*
X168179762Y-114847619D02*
X168084524Y-114800000D01*
X167989286Y-114704762D01*
X167846429Y-114561905D01*
X167751190Y-114514286D01*
X167655952Y-114514286D01*
X167703571Y-114752381D02*
X167608333Y-114704762D01*
X167513095Y-114609524D01*
X167465476Y-114419048D01*
X167465476Y-114085714D01*
X167513095Y-113895238D01*
X167608333Y-113800000D01*
X167703571Y-113752381D01*
X167894048Y-113752381D01*
X167989286Y-113800000D01*
X168084524Y-113895238D01*
X168132143Y-114085714D01*
X168132143Y-114419048D01*
X168084524Y-114609524D01*
X167989286Y-114704762D01*
X167894048Y-114752381D01*
X167703571Y-114752381D01*
X169084524Y-114752381D02*
X168513095Y-114752381D01*
X168798809Y-114752381D02*
X168798809Y-113752381D01*
X168703571Y-113895238D01*
X168608333Y-113990476D01*
X168513095Y-114038095D01*
X178339762Y-114847619D02*
X178244524Y-114800000D01*
X178149286Y-114704762D01*
X178006429Y-114561905D01*
X177911190Y-114514286D01*
X177815952Y-114514286D01*
X177863571Y-114752381D02*
X177768333Y-114704762D01*
X177673095Y-114609524D01*
X177625476Y-114419048D01*
X177625476Y-114085714D01*
X177673095Y-113895238D01*
X177768333Y-113800000D01*
X177863571Y-113752381D01*
X178054048Y-113752381D01*
X178149286Y-113800000D01*
X178244524Y-113895238D01*
X178292143Y-114085714D01*
X178292143Y-114419048D01*
X178244524Y-114609524D01*
X178149286Y-114704762D01*
X178054048Y-114752381D01*
X177863571Y-114752381D01*
X178673095Y-113847619D02*
X178720714Y-113800000D01*
X178815952Y-113752381D01*
X179054048Y-113752381D01*
X179149286Y-113800000D01*
X179196905Y-113847619D01*
X179244524Y-113942857D01*
X179244524Y-114038095D01*
X179196905Y-114180952D01*
X178625476Y-114752381D01*
X179244524Y-114752381D01*
X147859762Y-114847619D02*
X147764524Y-114800000D01*
X147669286Y-114704762D01*
X147526429Y-114561905D01*
X147431190Y-114514286D01*
X147335952Y-114514286D01*
X147383571Y-114752381D02*
X147288333Y-114704762D01*
X147193095Y-114609524D01*
X147145476Y-114419048D01*
X147145476Y-114085714D01*
X147193095Y-113895238D01*
X147288333Y-113800000D01*
X147383571Y-113752381D01*
X147574048Y-113752381D01*
X147669286Y-113800000D01*
X147764524Y-113895238D01*
X147812143Y-114085714D01*
X147812143Y-114419048D01*
X147764524Y-114609524D01*
X147669286Y-114704762D01*
X147574048Y-114752381D01*
X147383571Y-114752381D01*
X148145476Y-113752381D02*
X148764524Y-113752381D01*
X148431190Y-114133333D01*
X148574048Y-114133333D01*
X148669286Y-114180952D01*
X148716905Y-114228571D01*
X148764524Y-114323810D01*
X148764524Y-114561905D01*
X148716905Y-114657143D01*
X148669286Y-114704762D01*
X148574048Y-114752381D01*
X148288333Y-114752381D01*
X148193095Y-114704762D01*
X148145476Y-114657143D01*
X158019762Y-114847619D02*
X157924524Y-114800000D01*
X157829286Y-114704762D01*
X157686429Y-114561905D01*
X157591190Y-114514286D01*
X157495952Y-114514286D01*
X157543571Y-114752381D02*
X157448333Y-114704762D01*
X157353095Y-114609524D01*
X157305476Y-114419048D01*
X157305476Y-114085714D01*
X157353095Y-113895238D01*
X157448333Y-113800000D01*
X157543571Y-113752381D01*
X157734048Y-113752381D01*
X157829286Y-113800000D01*
X157924524Y-113895238D01*
X157972143Y-114085714D01*
X157972143Y-114419048D01*
X157924524Y-114609524D01*
X157829286Y-114704762D01*
X157734048Y-114752381D01*
X157543571Y-114752381D01*
X158829286Y-114085714D02*
X158829286Y-114752381D01*
X158591190Y-113704762D02*
X158353095Y-114419048D01*
X158972143Y-114419048D01*
X166838334Y-124277381D02*
X166505000Y-123801190D01*
X166266905Y-124277381D02*
X166266905Y-123277381D01*
X166647858Y-123277381D01*
X166743096Y-123325000D01*
X166790715Y-123372619D01*
X166838334Y-123467857D01*
X166838334Y-123610714D01*
X166790715Y-123705952D01*
X166743096Y-123753571D01*
X166647858Y-123801190D01*
X166266905Y-123801190D01*
X167790715Y-124277381D02*
X167219286Y-124277381D01*
X167505000Y-124277381D02*
X167505000Y-123277381D01*
X167409762Y-123420238D01*
X167314524Y-123515476D01*
X167219286Y-123563095D01*
X166838334Y-112847381D02*
X166505000Y-112371190D01*
X166266905Y-112847381D02*
X166266905Y-111847381D01*
X166647858Y-111847381D01*
X166743096Y-111895000D01*
X166790715Y-111942619D01*
X166838334Y-112037857D01*
X166838334Y-112180714D01*
X166790715Y-112275952D01*
X166743096Y-112323571D01*
X166647858Y-112371190D01*
X166266905Y-112371190D01*
X167219286Y-111942619D02*
X167266905Y-111895000D01*
X167362143Y-111847381D01*
X167600239Y-111847381D01*
X167695477Y-111895000D01*
X167743096Y-111942619D01*
X167790715Y-112037857D01*
X167790715Y-112133095D01*
X167743096Y-112275952D01*
X167171667Y-112847381D01*
X167790715Y-112847381D01*
X176998334Y-124277381D02*
X176665000Y-123801190D01*
X176426905Y-124277381D02*
X176426905Y-123277381D01*
X176807858Y-123277381D01*
X176903096Y-123325000D01*
X176950715Y-123372619D01*
X176998334Y-123467857D01*
X176998334Y-123610714D01*
X176950715Y-123705952D01*
X176903096Y-123753571D01*
X176807858Y-123801190D01*
X176426905Y-123801190D01*
X177331667Y-123277381D02*
X177950715Y-123277381D01*
X177617381Y-123658333D01*
X177760239Y-123658333D01*
X177855477Y-123705952D01*
X177903096Y-123753571D01*
X177950715Y-123848810D01*
X177950715Y-124086905D01*
X177903096Y-124182143D01*
X177855477Y-124229762D01*
X177760239Y-124277381D01*
X177474524Y-124277381D01*
X177379286Y-124229762D01*
X177331667Y-124182143D01*
X176998334Y-112847381D02*
X176665000Y-112371190D01*
X176426905Y-112847381D02*
X176426905Y-111847381D01*
X176807858Y-111847381D01*
X176903096Y-111895000D01*
X176950715Y-111942619D01*
X176998334Y-112037857D01*
X176998334Y-112180714D01*
X176950715Y-112275952D01*
X176903096Y-112323571D01*
X176807858Y-112371190D01*
X176426905Y-112371190D01*
X177855477Y-112180714D02*
X177855477Y-112847381D01*
X177617381Y-111799762D02*
X177379286Y-112514048D01*
X177998334Y-112514048D01*
X146518334Y-124277381D02*
X146185000Y-123801190D01*
X145946905Y-124277381D02*
X145946905Y-123277381D01*
X146327858Y-123277381D01*
X146423096Y-123325000D01*
X146470715Y-123372619D01*
X146518334Y-123467857D01*
X146518334Y-123610714D01*
X146470715Y-123705952D01*
X146423096Y-123753571D01*
X146327858Y-123801190D01*
X145946905Y-123801190D01*
X147423096Y-123277381D02*
X146946905Y-123277381D01*
X146899286Y-123753571D01*
X146946905Y-123705952D01*
X147042143Y-123658333D01*
X147280239Y-123658333D01*
X147375477Y-123705952D01*
X147423096Y-123753571D01*
X147470715Y-123848810D01*
X147470715Y-124086905D01*
X147423096Y-124182143D01*
X147375477Y-124229762D01*
X147280239Y-124277381D01*
X147042143Y-124277381D01*
X146946905Y-124229762D01*
X146899286Y-124182143D01*
X146518334Y-112847381D02*
X146185000Y-112371190D01*
X145946905Y-112847381D02*
X145946905Y-111847381D01*
X146327858Y-111847381D01*
X146423096Y-111895000D01*
X146470715Y-111942619D01*
X146518334Y-112037857D01*
X146518334Y-112180714D01*
X146470715Y-112275952D01*
X146423096Y-112323571D01*
X146327858Y-112371190D01*
X145946905Y-112371190D01*
X147375477Y-111847381D02*
X147185000Y-111847381D01*
X147089762Y-111895000D01*
X147042143Y-111942619D01*
X146946905Y-112085476D01*
X146899286Y-112275952D01*
X146899286Y-112656905D01*
X146946905Y-112752143D01*
X146994524Y-112799762D01*
X147089762Y-112847381D01*
X147280239Y-112847381D01*
X147375477Y-112799762D01*
X147423096Y-112752143D01*
X147470715Y-112656905D01*
X147470715Y-112418810D01*
X147423096Y-112323571D01*
X147375477Y-112275952D01*
X147280239Y-112228333D01*
X147089762Y-112228333D01*
X146994524Y-112275952D01*
X146946905Y-112323571D01*
X146899286Y-112418810D01*
X156678334Y-124277381D02*
X156345000Y-123801190D01*
X156106905Y-124277381D02*
X156106905Y-123277381D01*
X156487858Y-123277381D01*
X156583096Y-123325000D01*
X156630715Y-123372619D01*
X156678334Y-123467857D01*
X156678334Y-123610714D01*
X156630715Y-123705952D01*
X156583096Y-123753571D01*
X156487858Y-123801190D01*
X156106905Y-123801190D01*
X157011667Y-123277381D02*
X157678334Y-123277381D01*
X157249762Y-124277381D01*
X156678334Y-112847381D02*
X156345000Y-112371190D01*
X156106905Y-112847381D02*
X156106905Y-111847381D01*
X156487858Y-111847381D01*
X156583096Y-111895000D01*
X156630715Y-111942619D01*
X156678334Y-112037857D01*
X156678334Y-112180714D01*
X156630715Y-112275952D01*
X156583096Y-112323571D01*
X156487858Y-112371190D01*
X156106905Y-112371190D01*
X157249762Y-112275952D02*
X157154524Y-112228333D01*
X157106905Y-112180714D01*
X157059286Y-112085476D01*
X157059286Y-112037857D01*
X157106905Y-111942619D01*
X157154524Y-111895000D01*
X157249762Y-111847381D01*
X157440239Y-111847381D01*
X157535477Y-111895000D01*
X157583096Y-111942619D01*
X157630715Y-112037857D01*
X157630715Y-112085476D01*
X157583096Y-112180714D01*
X157535477Y-112228333D01*
X157440239Y-112275952D01*
X157249762Y-112275952D01*
X157154524Y-112323571D01*
X157106905Y-112371190D01*
X157059286Y-112466429D01*
X157059286Y-112656905D01*
X157106905Y-112752143D01*
X157154524Y-112799762D01*
X157249762Y-112847381D01*
X157440239Y-112847381D01*
X157535477Y-112799762D01*
X157583096Y-112752143D01*
X157630715Y-112656905D01*
X157630715Y-112466429D01*
X157583096Y-112371190D01*
X157535477Y-112323571D01*
X157440239Y-112275952D01*
X177633334Y-92527381D02*
X177300000Y-92051190D01*
X177061905Y-92527381D02*
X177061905Y-91527381D01*
X177442858Y-91527381D01*
X177538096Y-91575000D01*
X177585715Y-91622619D01*
X177633334Y-91717857D01*
X177633334Y-91860714D01*
X177585715Y-91955952D01*
X177538096Y-92003571D01*
X177442858Y-92051190D01*
X177061905Y-92051190D01*
X178109524Y-92527381D02*
X178300000Y-92527381D01*
X178395239Y-92479762D01*
X178442858Y-92432143D01*
X178538096Y-92289286D01*
X178585715Y-92098810D01*
X178585715Y-91717857D01*
X178538096Y-91622619D01*
X178490477Y-91575000D01*
X178395239Y-91527381D01*
X178204762Y-91527381D01*
X178109524Y-91575000D01*
X178061905Y-91622619D01*
X178014286Y-91717857D01*
X178014286Y-91955952D01*
X178061905Y-92051190D01*
X178109524Y-92098810D01*
X178204762Y-92146429D01*
X178395239Y-92146429D01*
X178490477Y-92098810D01*
X178538096Y-92051190D01*
X178585715Y-91955952D01*
X147312143Y-87447381D02*
X146978809Y-86971190D01*
X146740714Y-87447381D02*
X146740714Y-86447381D01*
X147121667Y-86447381D01*
X147216905Y-86495000D01*
X147264524Y-86542619D01*
X147312143Y-86637857D01*
X147312143Y-86780714D01*
X147264524Y-86875952D01*
X147216905Y-86923571D01*
X147121667Y-86971190D01*
X146740714Y-86971190D01*
X148264524Y-87447381D02*
X147693095Y-87447381D01*
X147978809Y-87447381D02*
X147978809Y-86447381D01*
X147883571Y-86590238D01*
X147788333Y-86685476D01*
X147693095Y-86733095D01*
X148883571Y-86447381D02*
X148978810Y-86447381D01*
X149074048Y-86495000D01*
X149121667Y-86542619D01*
X149169286Y-86637857D01*
X149216905Y-86828333D01*
X149216905Y-87066429D01*
X149169286Y-87256905D01*
X149121667Y-87352143D01*
X149074048Y-87399762D01*
X148978810Y-87447381D01*
X148883571Y-87447381D01*
X148788333Y-87399762D01*
X148740714Y-87352143D01*
X148693095Y-87256905D01*
X148645476Y-87066429D01*
X148645476Y-86828333D01*
X148693095Y-86637857D01*
X148740714Y-86542619D01*
X148788333Y-86495000D01*
X148883571Y-86447381D01*
X147312143Y-90622381D02*
X146978809Y-90146190D01*
X146740714Y-90622381D02*
X146740714Y-89622381D01*
X147121667Y-89622381D01*
X147216905Y-89670000D01*
X147264524Y-89717619D01*
X147312143Y-89812857D01*
X147312143Y-89955714D01*
X147264524Y-90050952D01*
X147216905Y-90098571D01*
X147121667Y-90146190D01*
X146740714Y-90146190D01*
X148264524Y-90622381D02*
X147693095Y-90622381D01*
X147978809Y-90622381D02*
X147978809Y-89622381D01*
X147883571Y-89765238D01*
X147788333Y-89860476D01*
X147693095Y-89908095D01*
X149216905Y-90622381D02*
X148645476Y-90622381D01*
X148931190Y-90622381D02*
X148931190Y-89622381D01*
X148835952Y-89765238D01*
X148740714Y-89860476D01*
X148645476Y-89908095D01*
X170807143Y-76017381D02*
X170473809Y-75541190D01*
X170235714Y-76017381D02*
X170235714Y-75017381D01*
X170616667Y-75017381D01*
X170711905Y-75065000D01*
X170759524Y-75112619D01*
X170807143Y-75207857D01*
X170807143Y-75350714D01*
X170759524Y-75445952D01*
X170711905Y-75493571D01*
X170616667Y-75541190D01*
X170235714Y-75541190D01*
X171759524Y-76017381D02*
X171188095Y-76017381D01*
X171473809Y-76017381D02*
X171473809Y-75017381D01*
X171378571Y-75160238D01*
X171283333Y-75255476D01*
X171188095Y-75303095D01*
X172140476Y-75112619D02*
X172188095Y-75065000D01*
X172283333Y-75017381D01*
X172521429Y-75017381D01*
X172616667Y-75065000D01*
X172664286Y-75112619D01*
X172711905Y-75207857D01*
X172711905Y-75303095D01*
X172664286Y-75445952D01*
X172092857Y-76017381D01*
X172711905Y-76017381D01*
X164457143Y-81097381D02*
X164123809Y-80621190D01*
X163885714Y-81097381D02*
X163885714Y-80097381D01*
X164266667Y-80097381D01*
X164361905Y-80145000D01*
X164409524Y-80192619D01*
X164457143Y-80287857D01*
X164457143Y-80430714D01*
X164409524Y-80525952D01*
X164361905Y-80573571D01*
X164266667Y-80621190D01*
X163885714Y-80621190D01*
X165409524Y-81097381D02*
X164838095Y-81097381D01*
X165123809Y-81097381D02*
X165123809Y-80097381D01*
X165028571Y-80240238D01*
X164933333Y-80335476D01*
X164838095Y-80383095D01*
X165742857Y-80097381D02*
X166361905Y-80097381D01*
X166028571Y-80478333D01*
X166171429Y-80478333D01*
X166266667Y-80525952D01*
X166314286Y-80573571D01*
X166361905Y-80668810D01*
X166361905Y-80906905D01*
X166314286Y-81002143D01*
X166266667Y-81049762D01*
X166171429Y-81097381D01*
X165885714Y-81097381D01*
X165790476Y-81049762D01*
X165742857Y-81002143D01*
X164552381Y-91892381D02*
X164219047Y-91416190D01*
X163980952Y-91892381D02*
X163980952Y-90892381D01*
X164361905Y-90892381D01*
X164457143Y-90940000D01*
X164504762Y-90987619D01*
X164552381Y-91082857D01*
X164552381Y-91225714D01*
X164504762Y-91320952D01*
X164457143Y-91368571D01*
X164361905Y-91416190D01*
X163980952Y-91416190D01*
X164933333Y-91844762D02*
X165076190Y-91892381D01*
X165314286Y-91892381D01*
X165409524Y-91844762D01*
X165457143Y-91797143D01*
X165504762Y-91701905D01*
X165504762Y-91606667D01*
X165457143Y-91511429D01*
X165409524Y-91463810D01*
X165314286Y-91416190D01*
X165123809Y-91368571D01*
X165028571Y-91320952D01*
X164980952Y-91273333D01*
X164933333Y-91178095D01*
X164933333Y-91082857D01*
X164980952Y-90987619D01*
X165028571Y-90940000D01*
X165123809Y-90892381D01*
X165361905Y-90892381D01*
X165504762Y-90940000D01*
X165790476Y-90892381D02*
X166361905Y-90892381D01*
X166076190Y-91892381D02*
X166076190Y-90892381D01*
X163838095Y-102052381D02*
X163838095Y-101052381D01*
X164219048Y-101052381D01*
X164314286Y-101100000D01*
X164361905Y-101147619D01*
X164409524Y-101242857D01*
X164409524Y-101385714D01*
X164361905Y-101480952D01*
X164314286Y-101528571D01*
X164219048Y-101576190D01*
X163838095Y-101576190D01*
X165409524Y-102052381D02*
X165076190Y-101576190D01*
X164838095Y-102052381D02*
X164838095Y-101052381D01*
X165219048Y-101052381D01*
X165314286Y-101100000D01*
X165361905Y-101147619D01*
X165409524Y-101242857D01*
X165409524Y-101385714D01*
X165361905Y-101480952D01*
X165314286Y-101528571D01*
X165219048Y-101576190D01*
X164838095Y-101576190D01*
X166361905Y-101100000D02*
X166266667Y-101052381D01*
X166123810Y-101052381D01*
X165980952Y-101100000D01*
X165885714Y-101195238D01*
X165838095Y-101290476D01*
X165790476Y-101480952D01*
X165790476Y-101623810D01*
X165838095Y-101814286D01*
X165885714Y-101909524D01*
X165980952Y-102004762D01*
X166123810Y-102052381D01*
X166219048Y-102052381D01*
X166361905Y-102004762D01*
X166409524Y-101957143D01*
X166409524Y-101623810D01*
X166219048Y-101623810D01*
X159893095Y-65492381D02*
X159893095Y-66301905D01*
X159940714Y-66397143D01*
X159988333Y-66444762D01*
X160083571Y-66492381D01*
X160274048Y-66492381D01*
X160369286Y-66444762D01*
X160416905Y-66397143D01*
X160464524Y-66301905D01*
X160464524Y-65492381D01*
X161464524Y-66492381D02*
X160893095Y-66492381D01*
X161178809Y-66492381D02*
X161178809Y-65492381D01*
X161083571Y-65635238D01*
X160988333Y-65730476D01*
X160893095Y-65778095D01*
M02*
