G04 #@! TF.FileFunction,Copper,L2,Bot,Signal*
%FSLAX46Y46*%
G04 Gerber Fmt 4.6, Leading zero omitted, Abs format (unit mm)*
G04 Created by KiCad (PCBNEW 4.0.4-stable) date Saturday, 10 December 2016 'PMt' 11:42:13 PM*
%MOMM*%
%LPD*%
G01*
G04 APERTURE LIST*
%ADD10C,0.100000*%
%ADD11R,2.032000X2.032000*%
%ADD12O,2.032000X2.032000*%
%ADD13R,1.727200X1.727200*%
%ADD14O,1.727200X1.727200*%
%ADD15R,2.032000X1.727200*%
%ADD16O,2.032000X1.727200*%
%ADD17C,0.600000*%
%ADD18C,0.300000*%
%ADD19C,0.254000*%
G04 APERTURE END LIST*
D10*
D11*
X139700000Y-133350000D03*
D12*
X142240000Y-133350000D03*
D13*
X165735000Y-132080000D03*
D14*
X165735000Y-129540000D03*
X168275000Y-132080000D03*
X168275000Y-129540000D03*
X170815000Y-132080000D03*
X170815000Y-129540000D03*
X173355000Y-132080000D03*
X173355000Y-129540000D03*
X175895000Y-132080000D03*
X175895000Y-129540000D03*
D15*
X175260000Y-67945000D03*
D16*
X175260000Y-70485000D03*
X175260000Y-73025000D03*
X175260000Y-75565000D03*
X175260000Y-78105000D03*
X175260000Y-80645000D03*
D17*
X167640000Y-125095000D03*
X171450000Y-98425000D03*
X144145000Y-121285000D03*
X154305000Y-121285000D03*
X164465000Y-121285000D03*
X174625000Y-121285000D03*
X140208000Y-122047000D03*
X147320000Y-121285000D03*
X154940000Y-89281000D03*
X148844000Y-100965000D03*
X162052000Y-99949000D03*
X173990000Y-133985000D03*
X164846000Y-85217000D03*
X150114000Y-85217000D03*
X146050000Y-85217000D03*
X142240000Y-92837000D03*
X152400000Y-90551000D03*
X163830000Y-106680000D03*
X166370000Y-80645000D03*
D18*
X153035000Y-122555000D02*
X154305000Y-121285000D01*
X146685000Y-122555000D02*
X153035000Y-122555000D01*
X145415000Y-121285000D02*
X146685000Y-122555000D01*
X144145000Y-121285000D02*
X145415000Y-121285000D01*
X174625000Y-121285000D02*
X173355000Y-120015000D01*
X173355000Y-120015000D02*
X171450000Y-118110000D01*
X171450000Y-118110000D02*
X171450000Y-98425000D01*
X168910000Y-120015000D02*
X173355000Y-120015000D01*
X167640000Y-121285000D02*
X168910000Y-120015000D01*
X164465000Y-121285000D02*
X167640000Y-121285000D01*
X154305000Y-121285000D02*
X164465000Y-121285000D01*
X148590000Y-133985000D02*
X173990000Y-133985000D01*
X173990000Y-133985000D02*
X175895000Y-132080000D01*
X146050000Y-131445000D02*
X148590000Y-133985000D01*
X140289000Y-131445000D02*
X146050000Y-131445000D01*
X139700000Y-133350000D02*
X139700000Y-132034000D01*
X139700000Y-132034000D02*
X140289000Y-131445000D01*
X150114000Y-85217000D02*
X164846000Y-85217000D01*
X146050000Y-85217000D02*
X150114000Y-85217000D01*
X146304000Y-92583000D02*
X146050000Y-92837000D01*
X146050000Y-92837000D02*
X142240000Y-92837000D01*
X148036001Y-90850999D02*
X146304000Y-92583000D01*
X152400000Y-90551000D02*
X152100001Y-90850999D01*
X152100001Y-90850999D02*
X148036001Y-90850999D01*
X166370000Y-90920001D02*
X166370000Y-80645000D01*
X163830000Y-106680000D02*
X166370000Y-104140000D01*
X166370000Y-104140000D02*
X166370000Y-90920001D01*
D19*
G36*
X148014842Y-134520000D02*
X143359749Y-134520000D01*
X143577188Y-134318379D01*
X143845983Y-133732946D01*
X143727367Y-133477000D01*
X142367000Y-133477000D01*
X142367000Y-133497000D01*
X142113000Y-133497000D01*
X142113000Y-133477000D01*
X142093000Y-133477000D01*
X142093000Y-133223000D01*
X142113000Y-133223000D01*
X142113000Y-133203000D01*
X142367000Y-133203000D01*
X142367000Y-133223000D01*
X143727367Y-133223000D01*
X143845983Y-132967054D01*
X143577188Y-132381621D01*
X143413671Y-132230000D01*
X145724842Y-132230000D01*
X148014842Y-134520000D01*
X148014842Y-134520000D01*
G37*
X148014842Y-134520000D02*
X143359749Y-134520000D01*
X143577188Y-134318379D01*
X143845983Y-133732946D01*
X143727367Y-133477000D01*
X142367000Y-133477000D01*
X142367000Y-133497000D01*
X142113000Y-133497000D01*
X142113000Y-133477000D01*
X142093000Y-133477000D01*
X142093000Y-133223000D01*
X142113000Y-133223000D01*
X142113000Y-133203000D01*
X142367000Y-133203000D01*
X142367000Y-133223000D01*
X143727367Y-133223000D01*
X143845983Y-132967054D01*
X143577188Y-132381621D01*
X143413671Y-132230000D01*
X145724842Y-132230000D01*
X148014842Y-134520000D01*
G36*
X178970000Y-134520000D02*
X174777511Y-134520000D01*
X174782192Y-134515327D01*
X174924838Y-134171799D01*
X174924848Y-134160310D01*
X175546517Y-133538641D01*
X175895000Y-133607959D01*
X176468489Y-133493885D01*
X176954670Y-133169029D01*
X177279526Y-132682848D01*
X177393600Y-132109359D01*
X177393600Y-132050641D01*
X177279526Y-131477152D01*
X176954670Y-130990971D01*
X176683839Y-130810008D01*
X177101821Y-130428490D01*
X177349968Y-129899027D01*
X177229469Y-129667000D01*
X176022000Y-129667000D01*
X176022000Y-129687000D01*
X175768000Y-129687000D01*
X175768000Y-129667000D01*
X173482000Y-129667000D01*
X173482000Y-129687000D01*
X173228000Y-129687000D01*
X173228000Y-129667000D01*
X173208000Y-129667000D01*
X173208000Y-129413000D01*
X173228000Y-129413000D01*
X173228000Y-128206183D01*
X173482000Y-128206183D01*
X173482000Y-129413000D01*
X175768000Y-129413000D01*
X175768000Y-128206183D01*
X176022000Y-128206183D01*
X176022000Y-129413000D01*
X177229469Y-129413000D01*
X177349968Y-129180973D01*
X177101821Y-128651510D01*
X176669947Y-128257312D01*
X176254026Y-128085042D01*
X176022000Y-128206183D01*
X175768000Y-128206183D01*
X175535974Y-128085042D01*
X175120053Y-128257312D01*
X174688179Y-128651510D01*
X174625000Y-128786313D01*
X174561821Y-128651510D01*
X174129947Y-128257312D01*
X173714026Y-128085042D01*
X173482000Y-128206183D01*
X173228000Y-128206183D01*
X172995974Y-128085042D01*
X172580053Y-128257312D01*
X172148179Y-128651510D01*
X172090664Y-128774228D01*
X171874670Y-128450971D01*
X171388489Y-128126115D01*
X170815000Y-128012041D01*
X170241511Y-128126115D01*
X169755330Y-128450971D01*
X169545000Y-128765752D01*
X169334670Y-128450971D01*
X168848489Y-128126115D01*
X168275000Y-128012041D01*
X167701511Y-128126115D01*
X167215330Y-128450971D01*
X167005000Y-128765752D01*
X166794670Y-128450971D01*
X166308489Y-128126115D01*
X165735000Y-128012041D01*
X165161511Y-128126115D01*
X164675330Y-128450971D01*
X164350474Y-128937152D01*
X164236400Y-129510641D01*
X164236400Y-129569359D01*
X164350474Y-130142848D01*
X164661574Y-130608442D01*
X164636083Y-130613238D01*
X164419959Y-130752310D01*
X164274969Y-130964510D01*
X164223960Y-131216400D01*
X164223960Y-132943600D01*
X164268238Y-133178917D01*
X164281805Y-133200000D01*
X148915158Y-133200000D01*
X146605079Y-130889921D01*
X146350407Y-130719755D01*
X146050000Y-130660000D01*
X140289000Y-130660000D01*
X139988594Y-130719755D01*
X139733921Y-130889921D01*
X139144921Y-131478921D01*
X139006181Y-131686560D01*
X138684000Y-131686560D01*
X138448683Y-131730838D01*
X138232559Y-131869910D01*
X138087569Y-132082110D01*
X138036560Y-132334000D01*
X138036560Y-134366000D01*
X138065537Y-134520000D01*
X137895000Y-134520000D01*
X137895000Y-125280167D01*
X166704838Y-125280167D01*
X166846883Y-125623943D01*
X167109673Y-125887192D01*
X167453201Y-126029838D01*
X167825167Y-126030162D01*
X168168943Y-125888117D01*
X168432192Y-125625327D01*
X168574838Y-125281799D01*
X168575162Y-124909833D01*
X168433117Y-124566057D01*
X168170327Y-124302808D01*
X167826799Y-124160162D01*
X167454833Y-124159838D01*
X167111057Y-124301883D01*
X166847808Y-124564673D01*
X166705162Y-124908201D01*
X166704838Y-125280167D01*
X137895000Y-125280167D01*
X137895000Y-121470167D01*
X143209838Y-121470167D01*
X143351883Y-121813943D01*
X143614673Y-122077192D01*
X143958201Y-122219838D01*
X144330167Y-122220162D01*
X144673943Y-122078117D01*
X144682074Y-122070000D01*
X145089842Y-122070000D01*
X146129921Y-123110079D01*
X146384593Y-123280245D01*
X146685000Y-123340000D01*
X153035000Y-123340000D01*
X153335407Y-123280245D01*
X153590079Y-123110079D01*
X154480005Y-122220153D01*
X154490167Y-122220162D01*
X154833943Y-122078117D01*
X154842074Y-122070000D01*
X163927494Y-122070000D01*
X163934673Y-122077192D01*
X164278201Y-122219838D01*
X164650167Y-122220162D01*
X164993943Y-122078117D01*
X165002074Y-122070000D01*
X167640000Y-122070000D01*
X167940407Y-122010245D01*
X168195079Y-121840079D01*
X169235158Y-120800000D01*
X173029842Y-120800000D01*
X173689847Y-121460005D01*
X173689838Y-121470167D01*
X173831883Y-121813943D01*
X174094673Y-122077192D01*
X174438201Y-122219838D01*
X174810167Y-122220162D01*
X175153943Y-122078117D01*
X175417192Y-121815327D01*
X175559838Y-121471799D01*
X175560162Y-121099833D01*
X175418117Y-120756057D01*
X175155327Y-120492808D01*
X174811799Y-120350162D01*
X174800310Y-120350152D01*
X172235000Y-117784842D01*
X172235000Y-98962506D01*
X172242192Y-98955327D01*
X172384838Y-98611799D01*
X172385162Y-98239833D01*
X172243117Y-97896057D01*
X171980327Y-97632808D01*
X171636799Y-97490162D01*
X171264833Y-97489838D01*
X170921057Y-97631883D01*
X170657808Y-97894673D01*
X170515162Y-98238201D01*
X170514838Y-98610167D01*
X170656883Y-98953943D01*
X170665000Y-98962074D01*
X170665000Y-118110000D01*
X170724755Y-118410407D01*
X170894921Y-118665079D01*
X171459842Y-119230000D01*
X168910000Y-119230000D01*
X168609593Y-119289755D01*
X168354921Y-119459921D01*
X167314842Y-120500000D01*
X165002506Y-120500000D01*
X164995327Y-120492808D01*
X164651799Y-120350162D01*
X164279833Y-120349838D01*
X163936057Y-120491883D01*
X163927926Y-120500000D01*
X154842506Y-120500000D01*
X154835327Y-120492808D01*
X154491799Y-120350162D01*
X154119833Y-120349838D01*
X153776057Y-120491883D01*
X153512808Y-120754673D01*
X153370162Y-121098201D01*
X153370152Y-121109690D01*
X152709842Y-121770000D01*
X147010158Y-121770000D01*
X145970079Y-120729921D01*
X145715407Y-120559755D01*
X145415000Y-120500000D01*
X144682506Y-120500000D01*
X144675327Y-120492808D01*
X144331799Y-120350162D01*
X143959833Y-120349838D01*
X143616057Y-120491883D01*
X143352808Y-120754673D01*
X143210162Y-121098201D01*
X143209838Y-121470167D01*
X137895000Y-121470167D01*
X137895000Y-93022167D01*
X141304838Y-93022167D01*
X141446883Y-93365943D01*
X141709673Y-93629192D01*
X142053201Y-93771838D01*
X142425167Y-93772162D01*
X142768943Y-93630117D01*
X142777074Y-93622000D01*
X146050000Y-93622000D01*
X146350407Y-93562245D01*
X146605079Y-93392079D01*
X148361159Y-91635999D01*
X152100001Y-91635999D01*
X152400408Y-91576244D01*
X152535291Y-91486119D01*
X152585167Y-91486162D01*
X152928943Y-91344117D01*
X153192192Y-91081327D01*
X153334838Y-90737799D01*
X153335162Y-90365833D01*
X153193117Y-90022057D01*
X152930327Y-89758808D01*
X152586799Y-89616162D01*
X152214833Y-89615838D01*
X151871057Y-89757883D01*
X151607808Y-90020673D01*
X151588987Y-90065999D01*
X148036001Y-90065999D01*
X147735594Y-90125754D01*
X147480922Y-90295920D01*
X145724842Y-92052000D01*
X142777506Y-92052000D01*
X142770327Y-92044808D01*
X142426799Y-91902162D01*
X142054833Y-91901838D01*
X141711057Y-92043883D01*
X141447808Y-92306673D01*
X141305162Y-92650201D01*
X141304838Y-93022167D01*
X137895000Y-93022167D01*
X137895000Y-85402167D01*
X145114838Y-85402167D01*
X145256883Y-85745943D01*
X145519673Y-86009192D01*
X145863201Y-86151838D01*
X146235167Y-86152162D01*
X146578943Y-86010117D01*
X146587074Y-86002000D01*
X149576494Y-86002000D01*
X149583673Y-86009192D01*
X149927201Y-86151838D01*
X150299167Y-86152162D01*
X150642943Y-86010117D01*
X150651074Y-86002000D01*
X164308494Y-86002000D01*
X164315673Y-86009192D01*
X164659201Y-86151838D01*
X165031167Y-86152162D01*
X165374943Y-86010117D01*
X165585000Y-85800426D01*
X165585000Y-103814842D01*
X163654995Y-105744847D01*
X163644833Y-105744838D01*
X163301057Y-105886883D01*
X163037808Y-106149673D01*
X162895162Y-106493201D01*
X162894838Y-106865167D01*
X163036883Y-107208943D01*
X163299673Y-107472192D01*
X163643201Y-107614838D01*
X164015167Y-107615162D01*
X164358943Y-107473117D01*
X164622192Y-107210327D01*
X164764838Y-106866799D01*
X164764848Y-106855310D01*
X166925079Y-104695079D01*
X167095244Y-104440407D01*
X167095245Y-104440406D01*
X167155000Y-104140000D01*
X167155000Y-81182506D01*
X167162192Y-81175327D01*
X167233322Y-81004026D01*
X173652642Y-81004026D01*
X173655291Y-81019791D01*
X173909268Y-81547036D01*
X174345680Y-81936954D01*
X174898087Y-82130184D01*
X175133000Y-81985924D01*
X175133000Y-80772000D01*
X175387000Y-80772000D01*
X175387000Y-81985924D01*
X175621913Y-82130184D01*
X176174320Y-81936954D01*
X176610732Y-81547036D01*
X176864709Y-81019791D01*
X176867358Y-81004026D01*
X176746217Y-80772000D01*
X175387000Y-80772000D01*
X175133000Y-80772000D01*
X173773783Y-80772000D01*
X173652642Y-81004026D01*
X167233322Y-81004026D01*
X167304838Y-80831799D01*
X167305162Y-80459833D01*
X167163117Y-80116057D01*
X166900327Y-79852808D01*
X166556799Y-79710162D01*
X166184833Y-79709838D01*
X165841057Y-79851883D01*
X165577808Y-80114673D01*
X165435162Y-80458201D01*
X165434838Y-80830167D01*
X165576883Y-81173943D01*
X165585000Y-81182074D01*
X165585000Y-84633845D01*
X165376327Y-84424808D01*
X165032799Y-84282162D01*
X164660833Y-84281838D01*
X164317057Y-84423883D01*
X164308926Y-84432000D01*
X150651506Y-84432000D01*
X150644327Y-84424808D01*
X150300799Y-84282162D01*
X149928833Y-84281838D01*
X149585057Y-84423883D01*
X149576926Y-84432000D01*
X146587506Y-84432000D01*
X146580327Y-84424808D01*
X146236799Y-84282162D01*
X145864833Y-84281838D01*
X145521057Y-84423883D01*
X145257808Y-84686673D01*
X145115162Y-85030201D01*
X145114838Y-85402167D01*
X137895000Y-85402167D01*
X137895000Y-70485000D01*
X173576655Y-70485000D01*
X173690729Y-71058489D01*
X174015585Y-71544670D01*
X174330366Y-71755000D01*
X174015585Y-71965330D01*
X173690729Y-72451511D01*
X173576655Y-73025000D01*
X173690729Y-73598489D01*
X174015585Y-74084670D01*
X174330366Y-74295000D01*
X174015585Y-74505330D01*
X173690729Y-74991511D01*
X173576655Y-75565000D01*
X173690729Y-76138489D01*
X174015585Y-76624670D01*
X174330366Y-76835000D01*
X174015585Y-77045330D01*
X173690729Y-77531511D01*
X173576655Y-78105000D01*
X173690729Y-78678489D01*
X174015585Y-79164670D01*
X174325069Y-79371461D01*
X173909268Y-79742964D01*
X173655291Y-80270209D01*
X173652642Y-80285974D01*
X173773783Y-80518000D01*
X175133000Y-80518000D01*
X175133000Y-80498000D01*
X175387000Y-80498000D01*
X175387000Y-80518000D01*
X176746217Y-80518000D01*
X176867358Y-80285974D01*
X176864709Y-80270209D01*
X176610732Y-79742964D01*
X176194931Y-79371461D01*
X176504415Y-79164670D01*
X176829271Y-78678489D01*
X176943345Y-78105000D01*
X176829271Y-77531511D01*
X176504415Y-77045330D01*
X176189634Y-76835000D01*
X176504415Y-76624670D01*
X176829271Y-76138489D01*
X176943345Y-75565000D01*
X176829271Y-74991511D01*
X176504415Y-74505330D01*
X176189634Y-74295000D01*
X176504415Y-74084670D01*
X176829271Y-73598489D01*
X176943345Y-73025000D01*
X176829271Y-72451511D01*
X176504415Y-71965330D01*
X176189634Y-71755000D01*
X176504415Y-71544670D01*
X176829271Y-71058489D01*
X176943345Y-70485000D01*
X176829271Y-69911511D01*
X176504415Y-69425330D01*
X176490087Y-69415757D01*
X176511317Y-69411762D01*
X176727441Y-69272690D01*
X176872431Y-69060490D01*
X176923440Y-68808600D01*
X176923440Y-67081400D01*
X176879162Y-66846083D01*
X176740090Y-66629959D01*
X176527890Y-66484969D01*
X176276000Y-66433960D01*
X174244000Y-66433960D01*
X174008683Y-66478238D01*
X173792559Y-66617310D01*
X173647569Y-66829510D01*
X173596560Y-67081400D01*
X173596560Y-68808600D01*
X173640838Y-69043917D01*
X173779910Y-69260041D01*
X173992110Y-69405031D01*
X174033439Y-69413400D01*
X174015585Y-69425330D01*
X173690729Y-69911511D01*
X173576655Y-70485000D01*
X137895000Y-70485000D01*
X137895000Y-64235000D01*
X178970000Y-64235000D01*
X178970000Y-134520000D01*
X178970000Y-134520000D01*
G37*
X178970000Y-134520000D02*
X174777511Y-134520000D01*
X174782192Y-134515327D01*
X174924838Y-134171799D01*
X174924848Y-134160310D01*
X175546517Y-133538641D01*
X175895000Y-133607959D01*
X176468489Y-133493885D01*
X176954670Y-133169029D01*
X177279526Y-132682848D01*
X177393600Y-132109359D01*
X177393600Y-132050641D01*
X177279526Y-131477152D01*
X176954670Y-130990971D01*
X176683839Y-130810008D01*
X177101821Y-130428490D01*
X177349968Y-129899027D01*
X177229469Y-129667000D01*
X176022000Y-129667000D01*
X176022000Y-129687000D01*
X175768000Y-129687000D01*
X175768000Y-129667000D01*
X173482000Y-129667000D01*
X173482000Y-129687000D01*
X173228000Y-129687000D01*
X173228000Y-129667000D01*
X173208000Y-129667000D01*
X173208000Y-129413000D01*
X173228000Y-129413000D01*
X173228000Y-128206183D01*
X173482000Y-128206183D01*
X173482000Y-129413000D01*
X175768000Y-129413000D01*
X175768000Y-128206183D01*
X176022000Y-128206183D01*
X176022000Y-129413000D01*
X177229469Y-129413000D01*
X177349968Y-129180973D01*
X177101821Y-128651510D01*
X176669947Y-128257312D01*
X176254026Y-128085042D01*
X176022000Y-128206183D01*
X175768000Y-128206183D01*
X175535974Y-128085042D01*
X175120053Y-128257312D01*
X174688179Y-128651510D01*
X174625000Y-128786313D01*
X174561821Y-128651510D01*
X174129947Y-128257312D01*
X173714026Y-128085042D01*
X173482000Y-128206183D01*
X173228000Y-128206183D01*
X172995974Y-128085042D01*
X172580053Y-128257312D01*
X172148179Y-128651510D01*
X172090664Y-128774228D01*
X171874670Y-128450971D01*
X171388489Y-128126115D01*
X170815000Y-128012041D01*
X170241511Y-128126115D01*
X169755330Y-128450971D01*
X169545000Y-128765752D01*
X169334670Y-128450971D01*
X168848489Y-128126115D01*
X168275000Y-128012041D01*
X167701511Y-128126115D01*
X167215330Y-128450971D01*
X167005000Y-128765752D01*
X166794670Y-128450971D01*
X166308489Y-128126115D01*
X165735000Y-128012041D01*
X165161511Y-128126115D01*
X164675330Y-128450971D01*
X164350474Y-128937152D01*
X164236400Y-129510641D01*
X164236400Y-129569359D01*
X164350474Y-130142848D01*
X164661574Y-130608442D01*
X164636083Y-130613238D01*
X164419959Y-130752310D01*
X164274969Y-130964510D01*
X164223960Y-131216400D01*
X164223960Y-132943600D01*
X164268238Y-133178917D01*
X164281805Y-133200000D01*
X148915158Y-133200000D01*
X146605079Y-130889921D01*
X146350407Y-130719755D01*
X146050000Y-130660000D01*
X140289000Y-130660000D01*
X139988594Y-130719755D01*
X139733921Y-130889921D01*
X139144921Y-131478921D01*
X139006181Y-131686560D01*
X138684000Y-131686560D01*
X138448683Y-131730838D01*
X138232559Y-131869910D01*
X138087569Y-132082110D01*
X138036560Y-132334000D01*
X138036560Y-134366000D01*
X138065537Y-134520000D01*
X137895000Y-134520000D01*
X137895000Y-125280167D01*
X166704838Y-125280167D01*
X166846883Y-125623943D01*
X167109673Y-125887192D01*
X167453201Y-126029838D01*
X167825167Y-126030162D01*
X168168943Y-125888117D01*
X168432192Y-125625327D01*
X168574838Y-125281799D01*
X168575162Y-124909833D01*
X168433117Y-124566057D01*
X168170327Y-124302808D01*
X167826799Y-124160162D01*
X167454833Y-124159838D01*
X167111057Y-124301883D01*
X166847808Y-124564673D01*
X166705162Y-124908201D01*
X166704838Y-125280167D01*
X137895000Y-125280167D01*
X137895000Y-121470167D01*
X143209838Y-121470167D01*
X143351883Y-121813943D01*
X143614673Y-122077192D01*
X143958201Y-122219838D01*
X144330167Y-122220162D01*
X144673943Y-122078117D01*
X144682074Y-122070000D01*
X145089842Y-122070000D01*
X146129921Y-123110079D01*
X146384593Y-123280245D01*
X146685000Y-123340000D01*
X153035000Y-123340000D01*
X153335407Y-123280245D01*
X153590079Y-123110079D01*
X154480005Y-122220153D01*
X154490167Y-122220162D01*
X154833943Y-122078117D01*
X154842074Y-122070000D01*
X163927494Y-122070000D01*
X163934673Y-122077192D01*
X164278201Y-122219838D01*
X164650167Y-122220162D01*
X164993943Y-122078117D01*
X165002074Y-122070000D01*
X167640000Y-122070000D01*
X167940407Y-122010245D01*
X168195079Y-121840079D01*
X169235158Y-120800000D01*
X173029842Y-120800000D01*
X173689847Y-121460005D01*
X173689838Y-121470167D01*
X173831883Y-121813943D01*
X174094673Y-122077192D01*
X174438201Y-122219838D01*
X174810167Y-122220162D01*
X175153943Y-122078117D01*
X175417192Y-121815327D01*
X175559838Y-121471799D01*
X175560162Y-121099833D01*
X175418117Y-120756057D01*
X175155327Y-120492808D01*
X174811799Y-120350162D01*
X174800310Y-120350152D01*
X172235000Y-117784842D01*
X172235000Y-98962506D01*
X172242192Y-98955327D01*
X172384838Y-98611799D01*
X172385162Y-98239833D01*
X172243117Y-97896057D01*
X171980327Y-97632808D01*
X171636799Y-97490162D01*
X171264833Y-97489838D01*
X170921057Y-97631883D01*
X170657808Y-97894673D01*
X170515162Y-98238201D01*
X170514838Y-98610167D01*
X170656883Y-98953943D01*
X170665000Y-98962074D01*
X170665000Y-118110000D01*
X170724755Y-118410407D01*
X170894921Y-118665079D01*
X171459842Y-119230000D01*
X168910000Y-119230000D01*
X168609593Y-119289755D01*
X168354921Y-119459921D01*
X167314842Y-120500000D01*
X165002506Y-120500000D01*
X164995327Y-120492808D01*
X164651799Y-120350162D01*
X164279833Y-120349838D01*
X163936057Y-120491883D01*
X163927926Y-120500000D01*
X154842506Y-120500000D01*
X154835327Y-120492808D01*
X154491799Y-120350162D01*
X154119833Y-120349838D01*
X153776057Y-120491883D01*
X153512808Y-120754673D01*
X153370162Y-121098201D01*
X153370152Y-121109690D01*
X152709842Y-121770000D01*
X147010158Y-121770000D01*
X145970079Y-120729921D01*
X145715407Y-120559755D01*
X145415000Y-120500000D01*
X144682506Y-120500000D01*
X144675327Y-120492808D01*
X144331799Y-120350162D01*
X143959833Y-120349838D01*
X143616057Y-120491883D01*
X143352808Y-120754673D01*
X143210162Y-121098201D01*
X143209838Y-121470167D01*
X137895000Y-121470167D01*
X137895000Y-93022167D01*
X141304838Y-93022167D01*
X141446883Y-93365943D01*
X141709673Y-93629192D01*
X142053201Y-93771838D01*
X142425167Y-93772162D01*
X142768943Y-93630117D01*
X142777074Y-93622000D01*
X146050000Y-93622000D01*
X146350407Y-93562245D01*
X146605079Y-93392079D01*
X148361159Y-91635999D01*
X152100001Y-91635999D01*
X152400408Y-91576244D01*
X152535291Y-91486119D01*
X152585167Y-91486162D01*
X152928943Y-91344117D01*
X153192192Y-91081327D01*
X153334838Y-90737799D01*
X153335162Y-90365833D01*
X153193117Y-90022057D01*
X152930327Y-89758808D01*
X152586799Y-89616162D01*
X152214833Y-89615838D01*
X151871057Y-89757883D01*
X151607808Y-90020673D01*
X151588987Y-90065999D01*
X148036001Y-90065999D01*
X147735594Y-90125754D01*
X147480922Y-90295920D01*
X145724842Y-92052000D01*
X142777506Y-92052000D01*
X142770327Y-92044808D01*
X142426799Y-91902162D01*
X142054833Y-91901838D01*
X141711057Y-92043883D01*
X141447808Y-92306673D01*
X141305162Y-92650201D01*
X141304838Y-93022167D01*
X137895000Y-93022167D01*
X137895000Y-85402167D01*
X145114838Y-85402167D01*
X145256883Y-85745943D01*
X145519673Y-86009192D01*
X145863201Y-86151838D01*
X146235167Y-86152162D01*
X146578943Y-86010117D01*
X146587074Y-86002000D01*
X149576494Y-86002000D01*
X149583673Y-86009192D01*
X149927201Y-86151838D01*
X150299167Y-86152162D01*
X150642943Y-86010117D01*
X150651074Y-86002000D01*
X164308494Y-86002000D01*
X164315673Y-86009192D01*
X164659201Y-86151838D01*
X165031167Y-86152162D01*
X165374943Y-86010117D01*
X165585000Y-85800426D01*
X165585000Y-103814842D01*
X163654995Y-105744847D01*
X163644833Y-105744838D01*
X163301057Y-105886883D01*
X163037808Y-106149673D01*
X162895162Y-106493201D01*
X162894838Y-106865167D01*
X163036883Y-107208943D01*
X163299673Y-107472192D01*
X163643201Y-107614838D01*
X164015167Y-107615162D01*
X164358943Y-107473117D01*
X164622192Y-107210327D01*
X164764838Y-106866799D01*
X164764848Y-106855310D01*
X166925079Y-104695079D01*
X167095244Y-104440407D01*
X167095245Y-104440406D01*
X167155000Y-104140000D01*
X167155000Y-81182506D01*
X167162192Y-81175327D01*
X167233322Y-81004026D01*
X173652642Y-81004026D01*
X173655291Y-81019791D01*
X173909268Y-81547036D01*
X174345680Y-81936954D01*
X174898087Y-82130184D01*
X175133000Y-81985924D01*
X175133000Y-80772000D01*
X175387000Y-80772000D01*
X175387000Y-81985924D01*
X175621913Y-82130184D01*
X176174320Y-81936954D01*
X176610732Y-81547036D01*
X176864709Y-81019791D01*
X176867358Y-81004026D01*
X176746217Y-80772000D01*
X175387000Y-80772000D01*
X175133000Y-80772000D01*
X173773783Y-80772000D01*
X173652642Y-81004026D01*
X167233322Y-81004026D01*
X167304838Y-80831799D01*
X167305162Y-80459833D01*
X167163117Y-80116057D01*
X166900327Y-79852808D01*
X166556799Y-79710162D01*
X166184833Y-79709838D01*
X165841057Y-79851883D01*
X165577808Y-80114673D01*
X165435162Y-80458201D01*
X165434838Y-80830167D01*
X165576883Y-81173943D01*
X165585000Y-81182074D01*
X165585000Y-84633845D01*
X165376327Y-84424808D01*
X165032799Y-84282162D01*
X164660833Y-84281838D01*
X164317057Y-84423883D01*
X164308926Y-84432000D01*
X150651506Y-84432000D01*
X150644327Y-84424808D01*
X150300799Y-84282162D01*
X149928833Y-84281838D01*
X149585057Y-84423883D01*
X149576926Y-84432000D01*
X146587506Y-84432000D01*
X146580327Y-84424808D01*
X146236799Y-84282162D01*
X145864833Y-84281838D01*
X145521057Y-84423883D01*
X145257808Y-84686673D01*
X145115162Y-85030201D01*
X145114838Y-85402167D01*
X137895000Y-85402167D01*
X137895000Y-70485000D01*
X173576655Y-70485000D01*
X173690729Y-71058489D01*
X174015585Y-71544670D01*
X174330366Y-71755000D01*
X174015585Y-71965330D01*
X173690729Y-72451511D01*
X173576655Y-73025000D01*
X173690729Y-73598489D01*
X174015585Y-74084670D01*
X174330366Y-74295000D01*
X174015585Y-74505330D01*
X173690729Y-74991511D01*
X173576655Y-75565000D01*
X173690729Y-76138489D01*
X174015585Y-76624670D01*
X174330366Y-76835000D01*
X174015585Y-77045330D01*
X173690729Y-77531511D01*
X173576655Y-78105000D01*
X173690729Y-78678489D01*
X174015585Y-79164670D01*
X174325069Y-79371461D01*
X173909268Y-79742964D01*
X173655291Y-80270209D01*
X173652642Y-80285974D01*
X173773783Y-80518000D01*
X175133000Y-80518000D01*
X175133000Y-80498000D01*
X175387000Y-80498000D01*
X175387000Y-80518000D01*
X176746217Y-80518000D01*
X176867358Y-80285974D01*
X176864709Y-80270209D01*
X176610732Y-79742964D01*
X176194931Y-79371461D01*
X176504415Y-79164670D01*
X176829271Y-78678489D01*
X176943345Y-78105000D01*
X176829271Y-77531511D01*
X176504415Y-77045330D01*
X176189634Y-76835000D01*
X176504415Y-76624670D01*
X176829271Y-76138489D01*
X176943345Y-75565000D01*
X176829271Y-74991511D01*
X176504415Y-74505330D01*
X176189634Y-74295000D01*
X176504415Y-74084670D01*
X176829271Y-73598489D01*
X176943345Y-73025000D01*
X176829271Y-72451511D01*
X176504415Y-71965330D01*
X176189634Y-71755000D01*
X176504415Y-71544670D01*
X176829271Y-71058489D01*
X176943345Y-70485000D01*
X176829271Y-69911511D01*
X176504415Y-69425330D01*
X176490087Y-69415757D01*
X176511317Y-69411762D01*
X176727441Y-69272690D01*
X176872431Y-69060490D01*
X176923440Y-68808600D01*
X176923440Y-67081400D01*
X176879162Y-66846083D01*
X176740090Y-66629959D01*
X176527890Y-66484969D01*
X176276000Y-66433960D01*
X174244000Y-66433960D01*
X174008683Y-66478238D01*
X173792559Y-66617310D01*
X173647569Y-66829510D01*
X173596560Y-67081400D01*
X173596560Y-68808600D01*
X173640838Y-69043917D01*
X173779910Y-69260041D01*
X173992110Y-69405031D01*
X174033439Y-69413400D01*
X174015585Y-69425330D01*
X173690729Y-69911511D01*
X173576655Y-70485000D01*
X137895000Y-70485000D01*
X137895000Y-64235000D01*
X178970000Y-64235000D01*
X178970000Y-134520000D01*
M02*
